%
M48
M72
T01C0.0197
T02C0.0276
T03C0.0320
T04C0.0360
T05C0.0394
T06C0.0400
T07C0.0440
T08C0.0787
T09C0.1300
T10C0.1575
%
T01
X24930Y21333
X25930Y21333
X26930Y21333
X27930Y21333
X28930Y21333
X29930Y21333
X29930Y26333
X28930Y26333
X27930Y26333
X26930Y26333
X25930Y26333
X24930Y26333
T02
X38446Y25139
X38446Y24352
X38446Y23565
X39430Y23958
X39430Y24746
X39430Y23171
X41930Y20208
X39430Y17996
X39430Y17208
X39430Y16421
X38446Y16815
X38446Y17602
X38446Y18389
X38446Y7389
X38446Y6602
X38446Y5815
X39430Y6208
X39430Y5421
X39430Y6996
X39430Y32115
X39430Y32902
X39430Y33690
X38446Y34083
X38446Y33296
X38446Y32508
X8789Y29977
X8789Y29190
X8789Y28402
X7805Y28796
X7805Y29583
X7805Y30371
X7805Y23746
X7805Y22958
X7805Y22171
X8789Y22565
X8789Y23352
X8789Y21777
X7555Y6996
X7555Y6208
X7555Y5421
X8539Y5815
X8539Y5027
X8539Y6602
T03
X7680Y16333
X6680Y16333
X6680Y18583
X7680Y18583
X9555Y18583
X10555Y18583
X10555Y16958
X9555Y16958
X21305Y25833
X21305Y26958
X23305Y26958
X23305Y25833
X23680Y31833
X24680Y31833
X27680Y31833
X33430Y33333
X36430Y33333
X34119Y36523
X36241Y38644
X20680Y31833
X11180Y32833
X8180Y32833
X7430Y34458
X6430Y34458
X23305Y14708
X23305Y13708
X23305Y12708
X23305Y11708
X26305Y11708
X26305Y12708
X26305Y13708
X26305Y14708
X38305Y12208
X38305Y11208
X38305Y10208
X40055Y10333
X40055Y13333
T04
X27430Y9833
X27430Y8833
X26430Y8833
X26430Y9833
X11180Y29333
X11180Y30333
X11180Y31333
X16430Y30583
X19430Y30583
T05
X14180Y28333
X14180Y27333
X14180Y26333
X14180Y25333
X13180Y25333
X13180Y26333
X13180Y27333
X13180Y28333
X13180Y24333
X13180Y23333
X13180Y22333
X13180Y21333
X13180Y20333
X14180Y20333
X14180Y21333
X14180Y22333
X14180Y23333
X14180Y24333
X14180Y19333
X14180Y18333
X14180Y17333
X14180Y16333
X14180Y15333
X13180Y15333
X13180Y16333
X13180Y17333
X13180Y18333
X13180Y19333
X13180Y14333
X13180Y13333
X13180Y12333
X13180Y11333
X14180Y11333
X14180Y12333
X14180Y13333
X14180Y14333
X14180Y10333
X14180Y9333
X14180Y8333
X14180Y7333
X14180Y6333
X13180Y6333
X13180Y7333
X13180Y8333
X13180Y9333
X13180Y10333
X13180Y5333
X13180Y4333
X14180Y4333
X14180Y5333
X33180Y5333
X33180Y4333
X34180Y4333
X34180Y5333
X34180Y6333
X33180Y6333
X33180Y7333
X34180Y7333
X34180Y8333
X33180Y8333
X33180Y9333
X34180Y9333
X34180Y10333
X33180Y10333
X33180Y11333
X34180Y11333
X34180Y12333
X33180Y12333
X33180Y13333
X34180Y13333
X34180Y14333
X33180Y14333
X33180Y15333
X34180Y15333
X34180Y16333
X33180Y16333
X33180Y17333
X34180Y17333
X34180Y18333
X33180Y18333
X33180Y19333
X34180Y19333
X34180Y20333
X33180Y20333
X33180Y21333
X34180Y21333
X34180Y22333
X33180Y22333
X33180Y23333
X34180Y23333
X34180Y24333
X33180Y24333
X33180Y25333
X34180Y25333
X34180Y26333
X33180Y26333
X33180Y27333
X34180Y27333
X34180Y28333
X33180Y28333
X8164Y36275
X6196Y37456
X8164Y38756
T06
X15680Y33333
X16680Y33333
X17680Y33333
X17755Y31958
X18855Y31958
X24805Y18708
X24805Y17708
X25805Y17708
X25805Y18708
X26805Y18708
X26805Y17708
X21480Y11708
X20380Y11708
X9555Y11458
X8555Y11458
X7555Y11458
X7555Y9958
X8555Y9958
X9555Y9958
X9555Y12958
X8555Y12958
X7555Y12958
X7555Y14458
X8555Y14458
X9555Y14458
X36430Y12208
X36430Y11208
X36430Y10208
X37930Y28333
X38930Y28333
X39930Y28333
X39930Y29333
X38930Y29333
X37930Y29333
X37805Y37333
X37805Y38333
X37805Y39333
X37805Y40333
X40555Y40333
X40555Y39333
X40555Y38333
X40555Y37333
T07
X32180Y33333
X31180Y33333
X30180Y33333
X24680Y33333
X23680Y33333
X22680Y33333
T08
X6649Y3649
X6649Y8374
X6899Y20399
X6899Y25124
X6899Y27024
X6899Y31749
X40336Y30737
X40336Y26517
X40336Y21793
X40336Y19767
X40336Y15043
X40336Y8767
X40336Y4043
X40336Y35461
T09
X31180Y39233
X23680Y39233
X16680Y39233
T10
X5649Y42066
X5649Y10963
X41869Y10963
X41869Y42066
M30
