G75*
G70*
%OFA0B0*%
%FSLAX24Y24*%
%IPPOS*%
%LPD*%
%AMOC8*
5,1,8,0,0,1.08239X$1,22.5*
%
%ADD10C,0.0000*%
%ADD11R,0.0660X0.0660*%
%ADD12OC8,0.0660*%
%ADD13C,0.0600*%
%ADD14OC8,0.0600*%
%ADD15C,0.0520*%
%ADD16C,0.0800*%
%ADD17R,0.0740X0.0740*%
%ADD18C,0.0740*%
%ADD19OC8,0.0520*%
%ADD20C,0.0600*%
%ADD21C,0.0787*%
%ADD22OC8,0.0750*%
%ADD23C,0.0660*%
%ADD24C,0.0132*%
%ADD25C,0.0560*%
%ADD26OC8,0.0560*%
%ADD27C,0.0100*%
%ADD28C,0.0240*%
%ADD29C,0.0160*%
%ADD30C,0.0120*%
D10*
X003680Y002333D02*
X003680Y043829D01*
X043675Y043829D01*
X043675Y002333D01*
X003680Y002333D01*
X006255Y003649D02*
X006257Y003688D01*
X006263Y003727D01*
X006273Y003765D01*
X006286Y003802D01*
X006303Y003837D01*
X006323Y003871D01*
X006347Y003902D01*
X006374Y003931D01*
X006403Y003957D01*
X006435Y003980D01*
X006469Y004000D01*
X006505Y004016D01*
X006542Y004028D01*
X006581Y004037D01*
X006620Y004042D01*
X006659Y004043D01*
X006698Y004040D01*
X006737Y004033D01*
X006774Y004022D01*
X006811Y004008D01*
X006846Y003990D01*
X006879Y003969D01*
X006910Y003944D01*
X006938Y003917D01*
X006963Y003887D01*
X006985Y003854D01*
X007004Y003820D01*
X007019Y003784D01*
X007031Y003746D01*
X007039Y003708D01*
X007043Y003669D01*
X007043Y003629D01*
X007039Y003590D01*
X007031Y003552D01*
X007019Y003514D01*
X007004Y003478D01*
X006985Y003444D01*
X006963Y003411D01*
X006938Y003381D01*
X006910Y003354D01*
X006879Y003329D01*
X006846Y003308D01*
X006811Y003290D01*
X006774Y003276D01*
X006737Y003265D01*
X006698Y003258D01*
X006659Y003255D01*
X006620Y003256D01*
X006581Y003261D01*
X006542Y003270D01*
X006505Y003282D01*
X006469Y003298D01*
X006435Y003318D01*
X006403Y003341D01*
X006374Y003367D01*
X006347Y003396D01*
X006323Y003427D01*
X006303Y003461D01*
X006286Y003496D01*
X006273Y003533D01*
X006263Y003571D01*
X006257Y003610D01*
X006255Y003649D01*
X006255Y008374D02*
X006257Y008413D01*
X006263Y008452D01*
X006273Y008490D01*
X006286Y008527D01*
X006303Y008562D01*
X006323Y008596D01*
X006347Y008627D01*
X006374Y008656D01*
X006403Y008682D01*
X006435Y008705D01*
X006469Y008725D01*
X006505Y008741D01*
X006542Y008753D01*
X006581Y008762D01*
X006620Y008767D01*
X006659Y008768D01*
X006698Y008765D01*
X006737Y008758D01*
X006774Y008747D01*
X006811Y008733D01*
X006846Y008715D01*
X006879Y008694D01*
X006910Y008669D01*
X006938Y008642D01*
X006963Y008612D01*
X006985Y008579D01*
X007004Y008545D01*
X007019Y008509D01*
X007031Y008471D01*
X007039Y008433D01*
X007043Y008394D01*
X007043Y008354D01*
X007039Y008315D01*
X007031Y008277D01*
X007019Y008239D01*
X007004Y008203D01*
X006985Y008169D01*
X006963Y008136D01*
X006938Y008106D01*
X006910Y008079D01*
X006879Y008054D01*
X006846Y008033D01*
X006811Y008015D01*
X006774Y008001D01*
X006737Y007990D01*
X006698Y007983D01*
X006659Y007980D01*
X006620Y007981D01*
X006581Y007986D01*
X006542Y007995D01*
X006505Y008007D01*
X006469Y008023D01*
X006435Y008043D01*
X006403Y008066D01*
X006374Y008092D01*
X006347Y008121D01*
X006323Y008152D01*
X006303Y008186D01*
X006286Y008221D01*
X006273Y008258D01*
X006263Y008296D01*
X006257Y008335D01*
X006255Y008374D01*
X004862Y010963D02*
X004864Y011019D01*
X004870Y011074D01*
X004880Y011128D01*
X004893Y011182D01*
X004911Y011235D01*
X004932Y011286D01*
X004956Y011336D01*
X004984Y011384D01*
X005016Y011430D01*
X005050Y011474D01*
X005088Y011515D01*
X005128Y011553D01*
X005171Y011588D01*
X005216Y011620D01*
X005264Y011649D01*
X005313Y011675D01*
X005364Y011697D01*
X005416Y011715D01*
X005470Y011729D01*
X005525Y011740D01*
X005580Y011747D01*
X005635Y011750D01*
X005691Y011749D01*
X005746Y011744D01*
X005801Y011735D01*
X005855Y011723D01*
X005908Y011706D01*
X005960Y011686D01*
X006010Y011662D01*
X006058Y011635D01*
X006105Y011605D01*
X006149Y011571D01*
X006191Y011534D01*
X006229Y011494D01*
X006266Y011452D01*
X006299Y011407D01*
X006328Y011361D01*
X006355Y011312D01*
X006377Y011261D01*
X006397Y011209D01*
X006412Y011155D01*
X006424Y011101D01*
X006432Y011046D01*
X006436Y010991D01*
X006436Y010935D01*
X006432Y010880D01*
X006424Y010825D01*
X006412Y010771D01*
X006397Y010717D01*
X006377Y010665D01*
X006355Y010614D01*
X006328Y010565D01*
X006299Y010519D01*
X006266Y010474D01*
X006229Y010432D01*
X006191Y010392D01*
X006149Y010355D01*
X006105Y010321D01*
X006058Y010291D01*
X006010Y010264D01*
X005960Y010240D01*
X005908Y010220D01*
X005855Y010203D01*
X005801Y010191D01*
X005746Y010182D01*
X005691Y010177D01*
X005635Y010176D01*
X005580Y010179D01*
X005525Y010186D01*
X005470Y010197D01*
X005416Y010211D01*
X005364Y010229D01*
X005313Y010251D01*
X005264Y010277D01*
X005216Y010306D01*
X005171Y010338D01*
X005128Y010373D01*
X005088Y010411D01*
X005050Y010452D01*
X005016Y010496D01*
X004984Y010542D01*
X004956Y010590D01*
X004932Y010640D01*
X004911Y010691D01*
X004893Y010744D01*
X004880Y010798D01*
X004870Y010852D01*
X004864Y010907D01*
X004862Y010963D01*
X006505Y020399D02*
X006507Y020438D01*
X006513Y020477D01*
X006523Y020515D01*
X006536Y020552D01*
X006553Y020587D01*
X006573Y020621D01*
X006597Y020652D01*
X006624Y020681D01*
X006653Y020707D01*
X006685Y020730D01*
X006719Y020750D01*
X006755Y020766D01*
X006792Y020778D01*
X006831Y020787D01*
X006870Y020792D01*
X006909Y020793D01*
X006948Y020790D01*
X006987Y020783D01*
X007024Y020772D01*
X007061Y020758D01*
X007096Y020740D01*
X007129Y020719D01*
X007160Y020694D01*
X007188Y020667D01*
X007213Y020637D01*
X007235Y020604D01*
X007254Y020570D01*
X007269Y020534D01*
X007281Y020496D01*
X007289Y020458D01*
X007293Y020419D01*
X007293Y020379D01*
X007289Y020340D01*
X007281Y020302D01*
X007269Y020264D01*
X007254Y020228D01*
X007235Y020194D01*
X007213Y020161D01*
X007188Y020131D01*
X007160Y020104D01*
X007129Y020079D01*
X007096Y020058D01*
X007061Y020040D01*
X007024Y020026D01*
X006987Y020015D01*
X006948Y020008D01*
X006909Y020005D01*
X006870Y020006D01*
X006831Y020011D01*
X006792Y020020D01*
X006755Y020032D01*
X006719Y020048D01*
X006685Y020068D01*
X006653Y020091D01*
X006624Y020117D01*
X006597Y020146D01*
X006573Y020177D01*
X006553Y020211D01*
X006536Y020246D01*
X006523Y020283D01*
X006513Y020321D01*
X006507Y020360D01*
X006505Y020399D01*
X006505Y025124D02*
X006507Y025163D01*
X006513Y025202D01*
X006523Y025240D01*
X006536Y025277D01*
X006553Y025312D01*
X006573Y025346D01*
X006597Y025377D01*
X006624Y025406D01*
X006653Y025432D01*
X006685Y025455D01*
X006719Y025475D01*
X006755Y025491D01*
X006792Y025503D01*
X006831Y025512D01*
X006870Y025517D01*
X006909Y025518D01*
X006948Y025515D01*
X006987Y025508D01*
X007024Y025497D01*
X007061Y025483D01*
X007096Y025465D01*
X007129Y025444D01*
X007160Y025419D01*
X007188Y025392D01*
X007213Y025362D01*
X007235Y025329D01*
X007254Y025295D01*
X007269Y025259D01*
X007281Y025221D01*
X007289Y025183D01*
X007293Y025144D01*
X007293Y025104D01*
X007289Y025065D01*
X007281Y025027D01*
X007269Y024989D01*
X007254Y024953D01*
X007235Y024919D01*
X007213Y024886D01*
X007188Y024856D01*
X007160Y024829D01*
X007129Y024804D01*
X007096Y024783D01*
X007061Y024765D01*
X007024Y024751D01*
X006987Y024740D01*
X006948Y024733D01*
X006909Y024730D01*
X006870Y024731D01*
X006831Y024736D01*
X006792Y024745D01*
X006755Y024757D01*
X006719Y024773D01*
X006685Y024793D01*
X006653Y024816D01*
X006624Y024842D01*
X006597Y024871D01*
X006573Y024902D01*
X006553Y024936D01*
X006536Y024971D01*
X006523Y025008D01*
X006513Y025046D01*
X006507Y025085D01*
X006505Y025124D01*
X006505Y027024D02*
X006507Y027063D01*
X006513Y027102D01*
X006523Y027140D01*
X006536Y027177D01*
X006553Y027212D01*
X006573Y027246D01*
X006597Y027277D01*
X006624Y027306D01*
X006653Y027332D01*
X006685Y027355D01*
X006719Y027375D01*
X006755Y027391D01*
X006792Y027403D01*
X006831Y027412D01*
X006870Y027417D01*
X006909Y027418D01*
X006948Y027415D01*
X006987Y027408D01*
X007024Y027397D01*
X007061Y027383D01*
X007096Y027365D01*
X007129Y027344D01*
X007160Y027319D01*
X007188Y027292D01*
X007213Y027262D01*
X007235Y027229D01*
X007254Y027195D01*
X007269Y027159D01*
X007281Y027121D01*
X007289Y027083D01*
X007293Y027044D01*
X007293Y027004D01*
X007289Y026965D01*
X007281Y026927D01*
X007269Y026889D01*
X007254Y026853D01*
X007235Y026819D01*
X007213Y026786D01*
X007188Y026756D01*
X007160Y026729D01*
X007129Y026704D01*
X007096Y026683D01*
X007061Y026665D01*
X007024Y026651D01*
X006987Y026640D01*
X006948Y026633D01*
X006909Y026630D01*
X006870Y026631D01*
X006831Y026636D01*
X006792Y026645D01*
X006755Y026657D01*
X006719Y026673D01*
X006685Y026693D01*
X006653Y026716D01*
X006624Y026742D01*
X006597Y026771D01*
X006573Y026802D01*
X006553Y026836D01*
X006536Y026871D01*
X006523Y026908D01*
X006513Y026946D01*
X006507Y026985D01*
X006505Y027024D01*
X006505Y031749D02*
X006507Y031788D01*
X006513Y031827D01*
X006523Y031865D01*
X006536Y031902D01*
X006553Y031937D01*
X006573Y031971D01*
X006597Y032002D01*
X006624Y032031D01*
X006653Y032057D01*
X006685Y032080D01*
X006719Y032100D01*
X006755Y032116D01*
X006792Y032128D01*
X006831Y032137D01*
X006870Y032142D01*
X006909Y032143D01*
X006948Y032140D01*
X006987Y032133D01*
X007024Y032122D01*
X007061Y032108D01*
X007096Y032090D01*
X007129Y032069D01*
X007160Y032044D01*
X007188Y032017D01*
X007213Y031987D01*
X007235Y031954D01*
X007254Y031920D01*
X007269Y031884D01*
X007281Y031846D01*
X007289Y031808D01*
X007293Y031769D01*
X007293Y031729D01*
X007289Y031690D01*
X007281Y031652D01*
X007269Y031614D01*
X007254Y031578D01*
X007235Y031544D01*
X007213Y031511D01*
X007188Y031481D01*
X007160Y031454D01*
X007129Y031429D01*
X007096Y031408D01*
X007061Y031390D01*
X007024Y031376D01*
X006987Y031365D01*
X006948Y031358D01*
X006909Y031355D01*
X006870Y031356D01*
X006831Y031361D01*
X006792Y031370D01*
X006755Y031382D01*
X006719Y031398D01*
X006685Y031418D01*
X006653Y031441D01*
X006624Y031467D01*
X006597Y031496D01*
X006573Y031527D01*
X006553Y031561D01*
X006536Y031596D01*
X006523Y031633D01*
X006513Y031671D01*
X006507Y031710D01*
X006505Y031749D01*
X016030Y039233D02*
X016032Y039283D01*
X016038Y039333D01*
X016048Y039383D01*
X016061Y039431D01*
X016078Y039479D01*
X016099Y039525D01*
X016123Y039569D01*
X016151Y039611D01*
X016182Y039651D01*
X016216Y039688D01*
X016253Y039723D01*
X016292Y039754D01*
X016333Y039783D01*
X016377Y039808D01*
X016423Y039830D01*
X016470Y039848D01*
X016518Y039862D01*
X016567Y039873D01*
X016617Y039880D01*
X016667Y039883D01*
X016718Y039882D01*
X016768Y039877D01*
X016818Y039868D01*
X016866Y039856D01*
X016914Y039839D01*
X016960Y039819D01*
X017005Y039796D01*
X017048Y039769D01*
X017088Y039739D01*
X017126Y039706D01*
X017161Y039670D01*
X017194Y039631D01*
X017223Y039590D01*
X017249Y039547D01*
X017272Y039502D01*
X017291Y039455D01*
X017306Y039407D01*
X017318Y039358D01*
X017326Y039308D01*
X017330Y039258D01*
X017330Y039208D01*
X017326Y039158D01*
X017318Y039108D01*
X017306Y039059D01*
X017291Y039011D01*
X017272Y038964D01*
X017249Y038919D01*
X017223Y038876D01*
X017194Y038835D01*
X017161Y038796D01*
X017126Y038760D01*
X017088Y038727D01*
X017048Y038697D01*
X017005Y038670D01*
X016960Y038647D01*
X016914Y038627D01*
X016866Y038610D01*
X016818Y038598D01*
X016768Y038589D01*
X016718Y038584D01*
X016667Y038583D01*
X016617Y038586D01*
X016567Y038593D01*
X016518Y038604D01*
X016470Y038618D01*
X016423Y038636D01*
X016377Y038658D01*
X016333Y038683D01*
X016292Y038712D01*
X016253Y038743D01*
X016216Y038778D01*
X016182Y038815D01*
X016151Y038855D01*
X016123Y038897D01*
X016099Y038941D01*
X016078Y038987D01*
X016061Y039035D01*
X016048Y039083D01*
X016038Y039133D01*
X016032Y039183D01*
X016030Y039233D01*
X023030Y039233D02*
X023032Y039283D01*
X023038Y039333D01*
X023048Y039383D01*
X023061Y039431D01*
X023078Y039479D01*
X023099Y039525D01*
X023123Y039569D01*
X023151Y039611D01*
X023182Y039651D01*
X023216Y039688D01*
X023253Y039723D01*
X023292Y039754D01*
X023333Y039783D01*
X023377Y039808D01*
X023423Y039830D01*
X023470Y039848D01*
X023518Y039862D01*
X023567Y039873D01*
X023617Y039880D01*
X023667Y039883D01*
X023718Y039882D01*
X023768Y039877D01*
X023818Y039868D01*
X023866Y039856D01*
X023914Y039839D01*
X023960Y039819D01*
X024005Y039796D01*
X024048Y039769D01*
X024088Y039739D01*
X024126Y039706D01*
X024161Y039670D01*
X024194Y039631D01*
X024223Y039590D01*
X024249Y039547D01*
X024272Y039502D01*
X024291Y039455D01*
X024306Y039407D01*
X024318Y039358D01*
X024326Y039308D01*
X024330Y039258D01*
X024330Y039208D01*
X024326Y039158D01*
X024318Y039108D01*
X024306Y039059D01*
X024291Y039011D01*
X024272Y038964D01*
X024249Y038919D01*
X024223Y038876D01*
X024194Y038835D01*
X024161Y038796D01*
X024126Y038760D01*
X024088Y038727D01*
X024048Y038697D01*
X024005Y038670D01*
X023960Y038647D01*
X023914Y038627D01*
X023866Y038610D01*
X023818Y038598D01*
X023768Y038589D01*
X023718Y038584D01*
X023667Y038583D01*
X023617Y038586D01*
X023567Y038593D01*
X023518Y038604D01*
X023470Y038618D01*
X023423Y038636D01*
X023377Y038658D01*
X023333Y038683D01*
X023292Y038712D01*
X023253Y038743D01*
X023216Y038778D01*
X023182Y038815D01*
X023151Y038855D01*
X023123Y038897D01*
X023099Y038941D01*
X023078Y038987D01*
X023061Y039035D01*
X023048Y039083D01*
X023038Y039133D01*
X023032Y039183D01*
X023030Y039233D01*
X030530Y039233D02*
X030532Y039283D01*
X030538Y039333D01*
X030548Y039383D01*
X030561Y039431D01*
X030578Y039479D01*
X030599Y039525D01*
X030623Y039569D01*
X030651Y039611D01*
X030682Y039651D01*
X030716Y039688D01*
X030753Y039723D01*
X030792Y039754D01*
X030833Y039783D01*
X030877Y039808D01*
X030923Y039830D01*
X030970Y039848D01*
X031018Y039862D01*
X031067Y039873D01*
X031117Y039880D01*
X031167Y039883D01*
X031218Y039882D01*
X031268Y039877D01*
X031318Y039868D01*
X031366Y039856D01*
X031414Y039839D01*
X031460Y039819D01*
X031505Y039796D01*
X031548Y039769D01*
X031588Y039739D01*
X031626Y039706D01*
X031661Y039670D01*
X031694Y039631D01*
X031723Y039590D01*
X031749Y039547D01*
X031772Y039502D01*
X031791Y039455D01*
X031806Y039407D01*
X031818Y039358D01*
X031826Y039308D01*
X031830Y039258D01*
X031830Y039208D01*
X031826Y039158D01*
X031818Y039108D01*
X031806Y039059D01*
X031791Y039011D01*
X031772Y038964D01*
X031749Y038919D01*
X031723Y038876D01*
X031694Y038835D01*
X031661Y038796D01*
X031626Y038760D01*
X031588Y038727D01*
X031548Y038697D01*
X031505Y038670D01*
X031460Y038647D01*
X031414Y038627D01*
X031366Y038610D01*
X031318Y038598D01*
X031268Y038589D01*
X031218Y038584D01*
X031167Y038583D01*
X031117Y038586D01*
X031067Y038593D01*
X031018Y038604D01*
X030970Y038618D01*
X030923Y038636D01*
X030877Y038658D01*
X030833Y038683D01*
X030792Y038712D01*
X030753Y038743D01*
X030716Y038778D01*
X030682Y038815D01*
X030651Y038855D01*
X030623Y038897D01*
X030599Y038941D01*
X030578Y038987D01*
X030561Y039035D01*
X030548Y039083D01*
X030538Y039133D01*
X030532Y039183D01*
X030530Y039233D01*
X039942Y035461D02*
X039944Y035500D01*
X039950Y035539D01*
X039960Y035577D01*
X039973Y035614D01*
X039990Y035649D01*
X040010Y035683D01*
X040034Y035714D01*
X040061Y035743D01*
X040090Y035769D01*
X040122Y035792D01*
X040156Y035812D01*
X040192Y035828D01*
X040229Y035840D01*
X040268Y035849D01*
X040307Y035854D01*
X040346Y035855D01*
X040385Y035852D01*
X040424Y035845D01*
X040461Y035834D01*
X040498Y035820D01*
X040533Y035802D01*
X040566Y035781D01*
X040597Y035756D01*
X040625Y035729D01*
X040650Y035699D01*
X040672Y035666D01*
X040691Y035632D01*
X040706Y035596D01*
X040718Y035558D01*
X040726Y035520D01*
X040730Y035481D01*
X040730Y035441D01*
X040726Y035402D01*
X040718Y035364D01*
X040706Y035326D01*
X040691Y035290D01*
X040672Y035256D01*
X040650Y035223D01*
X040625Y035193D01*
X040597Y035166D01*
X040566Y035141D01*
X040533Y035120D01*
X040498Y035102D01*
X040461Y035088D01*
X040424Y035077D01*
X040385Y035070D01*
X040346Y035067D01*
X040307Y035068D01*
X040268Y035073D01*
X040229Y035082D01*
X040192Y035094D01*
X040156Y035110D01*
X040122Y035130D01*
X040090Y035153D01*
X040061Y035179D01*
X040034Y035208D01*
X040010Y035239D01*
X039990Y035273D01*
X039973Y035308D01*
X039960Y035345D01*
X039950Y035383D01*
X039944Y035422D01*
X039942Y035461D01*
X039942Y030737D02*
X039944Y030776D01*
X039950Y030815D01*
X039960Y030853D01*
X039973Y030890D01*
X039990Y030925D01*
X040010Y030959D01*
X040034Y030990D01*
X040061Y031019D01*
X040090Y031045D01*
X040122Y031068D01*
X040156Y031088D01*
X040192Y031104D01*
X040229Y031116D01*
X040268Y031125D01*
X040307Y031130D01*
X040346Y031131D01*
X040385Y031128D01*
X040424Y031121D01*
X040461Y031110D01*
X040498Y031096D01*
X040533Y031078D01*
X040566Y031057D01*
X040597Y031032D01*
X040625Y031005D01*
X040650Y030975D01*
X040672Y030942D01*
X040691Y030908D01*
X040706Y030872D01*
X040718Y030834D01*
X040726Y030796D01*
X040730Y030757D01*
X040730Y030717D01*
X040726Y030678D01*
X040718Y030640D01*
X040706Y030602D01*
X040691Y030566D01*
X040672Y030532D01*
X040650Y030499D01*
X040625Y030469D01*
X040597Y030442D01*
X040566Y030417D01*
X040533Y030396D01*
X040498Y030378D01*
X040461Y030364D01*
X040424Y030353D01*
X040385Y030346D01*
X040346Y030343D01*
X040307Y030344D01*
X040268Y030349D01*
X040229Y030358D01*
X040192Y030370D01*
X040156Y030386D01*
X040122Y030406D01*
X040090Y030429D01*
X040061Y030455D01*
X040034Y030484D01*
X040010Y030515D01*
X039990Y030549D01*
X039973Y030584D01*
X039960Y030621D01*
X039950Y030659D01*
X039944Y030698D01*
X039942Y030737D01*
X039942Y026517D02*
X039944Y026556D01*
X039950Y026595D01*
X039960Y026633D01*
X039973Y026670D01*
X039990Y026705D01*
X040010Y026739D01*
X040034Y026770D01*
X040061Y026799D01*
X040090Y026825D01*
X040122Y026848D01*
X040156Y026868D01*
X040192Y026884D01*
X040229Y026896D01*
X040268Y026905D01*
X040307Y026910D01*
X040346Y026911D01*
X040385Y026908D01*
X040424Y026901D01*
X040461Y026890D01*
X040498Y026876D01*
X040533Y026858D01*
X040566Y026837D01*
X040597Y026812D01*
X040625Y026785D01*
X040650Y026755D01*
X040672Y026722D01*
X040691Y026688D01*
X040706Y026652D01*
X040718Y026614D01*
X040726Y026576D01*
X040730Y026537D01*
X040730Y026497D01*
X040726Y026458D01*
X040718Y026420D01*
X040706Y026382D01*
X040691Y026346D01*
X040672Y026312D01*
X040650Y026279D01*
X040625Y026249D01*
X040597Y026222D01*
X040566Y026197D01*
X040533Y026176D01*
X040498Y026158D01*
X040461Y026144D01*
X040424Y026133D01*
X040385Y026126D01*
X040346Y026123D01*
X040307Y026124D01*
X040268Y026129D01*
X040229Y026138D01*
X040192Y026150D01*
X040156Y026166D01*
X040122Y026186D01*
X040090Y026209D01*
X040061Y026235D01*
X040034Y026264D01*
X040010Y026295D01*
X039990Y026329D01*
X039973Y026364D01*
X039960Y026401D01*
X039950Y026439D01*
X039944Y026478D01*
X039942Y026517D01*
X039942Y021793D02*
X039944Y021832D01*
X039950Y021871D01*
X039960Y021909D01*
X039973Y021946D01*
X039990Y021981D01*
X040010Y022015D01*
X040034Y022046D01*
X040061Y022075D01*
X040090Y022101D01*
X040122Y022124D01*
X040156Y022144D01*
X040192Y022160D01*
X040229Y022172D01*
X040268Y022181D01*
X040307Y022186D01*
X040346Y022187D01*
X040385Y022184D01*
X040424Y022177D01*
X040461Y022166D01*
X040498Y022152D01*
X040533Y022134D01*
X040566Y022113D01*
X040597Y022088D01*
X040625Y022061D01*
X040650Y022031D01*
X040672Y021998D01*
X040691Y021964D01*
X040706Y021928D01*
X040718Y021890D01*
X040726Y021852D01*
X040730Y021813D01*
X040730Y021773D01*
X040726Y021734D01*
X040718Y021696D01*
X040706Y021658D01*
X040691Y021622D01*
X040672Y021588D01*
X040650Y021555D01*
X040625Y021525D01*
X040597Y021498D01*
X040566Y021473D01*
X040533Y021452D01*
X040498Y021434D01*
X040461Y021420D01*
X040424Y021409D01*
X040385Y021402D01*
X040346Y021399D01*
X040307Y021400D01*
X040268Y021405D01*
X040229Y021414D01*
X040192Y021426D01*
X040156Y021442D01*
X040122Y021462D01*
X040090Y021485D01*
X040061Y021511D01*
X040034Y021540D01*
X040010Y021571D01*
X039990Y021605D01*
X039973Y021640D01*
X039960Y021677D01*
X039950Y021715D01*
X039944Y021754D01*
X039942Y021793D01*
X039942Y019767D02*
X039944Y019806D01*
X039950Y019845D01*
X039960Y019883D01*
X039973Y019920D01*
X039990Y019955D01*
X040010Y019989D01*
X040034Y020020D01*
X040061Y020049D01*
X040090Y020075D01*
X040122Y020098D01*
X040156Y020118D01*
X040192Y020134D01*
X040229Y020146D01*
X040268Y020155D01*
X040307Y020160D01*
X040346Y020161D01*
X040385Y020158D01*
X040424Y020151D01*
X040461Y020140D01*
X040498Y020126D01*
X040533Y020108D01*
X040566Y020087D01*
X040597Y020062D01*
X040625Y020035D01*
X040650Y020005D01*
X040672Y019972D01*
X040691Y019938D01*
X040706Y019902D01*
X040718Y019864D01*
X040726Y019826D01*
X040730Y019787D01*
X040730Y019747D01*
X040726Y019708D01*
X040718Y019670D01*
X040706Y019632D01*
X040691Y019596D01*
X040672Y019562D01*
X040650Y019529D01*
X040625Y019499D01*
X040597Y019472D01*
X040566Y019447D01*
X040533Y019426D01*
X040498Y019408D01*
X040461Y019394D01*
X040424Y019383D01*
X040385Y019376D01*
X040346Y019373D01*
X040307Y019374D01*
X040268Y019379D01*
X040229Y019388D01*
X040192Y019400D01*
X040156Y019416D01*
X040122Y019436D01*
X040090Y019459D01*
X040061Y019485D01*
X040034Y019514D01*
X040010Y019545D01*
X039990Y019579D01*
X039973Y019614D01*
X039960Y019651D01*
X039950Y019689D01*
X039944Y019728D01*
X039942Y019767D01*
X039942Y015043D02*
X039944Y015082D01*
X039950Y015121D01*
X039960Y015159D01*
X039973Y015196D01*
X039990Y015231D01*
X040010Y015265D01*
X040034Y015296D01*
X040061Y015325D01*
X040090Y015351D01*
X040122Y015374D01*
X040156Y015394D01*
X040192Y015410D01*
X040229Y015422D01*
X040268Y015431D01*
X040307Y015436D01*
X040346Y015437D01*
X040385Y015434D01*
X040424Y015427D01*
X040461Y015416D01*
X040498Y015402D01*
X040533Y015384D01*
X040566Y015363D01*
X040597Y015338D01*
X040625Y015311D01*
X040650Y015281D01*
X040672Y015248D01*
X040691Y015214D01*
X040706Y015178D01*
X040718Y015140D01*
X040726Y015102D01*
X040730Y015063D01*
X040730Y015023D01*
X040726Y014984D01*
X040718Y014946D01*
X040706Y014908D01*
X040691Y014872D01*
X040672Y014838D01*
X040650Y014805D01*
X040625Y014775D01*
X040597Y014748D01*
X040566Y014723D01*
X040533Y014702D01*
X040498Y014684D01*
X040461Y014670D01*
X040424Y014659D01*
X040385Y014652D01*
X040346Y014649D01*
X040307Y014650D01*
X040268Y014655D01*
X040229Y014664D01*
X040192Y014676D01*
X040156Y014692D01*
X040122Y014712D01*
X040090Y014735D01*
X040061Y014761D01*
X040034Y014790D01*
X040010Y014821D01*
X039990Y014855D01*
X039973Y014890D01*
X039960Y014927D01*
X039950Y014965D01*
X039944Y015004D01*
X039942Y015043D01*
X041082Y010963D02*
X041084Y011019D01*
X041090Y011074D01*
X041100Y011128D01*
X041113Y011182D01*
X041131Y011235D01*
X041152Y011286D01*
X041176Y011336D01*
X041204Y011384D01*
X041236Y011430D01*
X041270Y011474D01*
X041308Y011515D01*
X041348Y011553D01*
X041391Y011588D01*
X041436Y011620D01*
X041484Y011649D01*
X041533Y011675D01*
X041584Y011697D01*
X041636Y011715D01*
X041690Y011729D01*
X041745Y011740D01*
X041800Y011747D01*
X041855Y011750D01*
X041911Y011749D01*
X041966Y011744D01*
X042021Y011735D01*
X042075Y011723D01*
X042128Y011706D01*
X042180Y011686D01*
X042230Y011662D01*
X042278Y011635D01*
X042325Y011605D01*
X042369Y011571D01*
X042411Y011534D01*
X042449Y011494D01*
X042486Y011452D01*
X042519Y011407D01*
X042548Y011361D01*
X042575Y011312D01*
X042597Y011261D01*
X042617Y011209D01*
X042632Y011155D01*
X042644Y011101D01*
X042652Y011046D01*
X042656Y010991D01*
X042656Y010935D01*
X042652Y010880D01*
X042644Y010825D01*
X042632Y010771D01*
X042617Y010717D01*
X042597Y010665D01*
X042575Y010614D01*
X042548Y010565D01*
X042519Y010519D01*
X042486Y010474D01*
X042449Y010432D01*
X042411Y010392D01*
X042369Y010355D01*
X042325Y010321D01*
X042278Y010291D01*
X042230Y010264D01*
X042180Y010240D01*
X042128Y010220D01*
X042075Y010203D01*
X042021Y010191D01*
X041966Y010182D01*
X041911Y010177D01*
X041855Y010176D01*
X041800Y010179D01*
X041745Y010186D01*
X041690Y010197D01*
X041636Y010211D01*
X041584Y010229D01*
X041533Y010251D01*
X041484Y010277D01*
X041436Y010306D01*
X041391Y010338D01*
X041348Y010373D01*
X041308Y010411D01*
X041270Y010452D01*
X041236Y010496D01*
X041204Y010542D01*
X041176Y010590D01*
X041152Y010640D01*
X041131Y010691D01*
X041113Y010744D01*
X041100Y010798D01*
X041090Y010852D01*
X041084Y010907D01*
X041082Y010963D01*
X039942Y008767D02*
X039944Y008806D01*
X039950Y008845D01*
X039960Y008883D01*
X039973Y008920D01*
X039990Y008955D01*
X040010Y008989D01*
X040034Y009020D01*
X040061Y009049D01*
X040090Y009075D01*
X040122Y009098D01*
X040156Y009118D01*
X040192Y009134D01*
X040229Y009146D01*
X040268Y009155D01*
X040307Y009160D01*
X040346Y009161D01*
X040385Y009158D01*
X040424Y009151D01*
X040461Y009140D01*
X040498Y009126D01*
X040533Y009108D01*
X040566Y009087D01*
X040597Y009062D01*
X040625Y009035D01*
X040650Y009005D01*
X040672Y008972D01*
X040691Y008938D01*
X040706Y008902D01*
X040718Y008864D01*
X040726Y008826D01*
X040730Y008787D01*
X040730Y008747D01*
X040726Y008708D01*
X040718Y008670D01*
X040706Y008632D01*
X040691Y008596D01*
X040672Y008562D01*
X040650Y008529D01*
X040625Y008499D01*
X040597Y008472D01*
X040566Y008447D01*
X040533Y008426D01*
X040498Y008408D01*
X040461Y008394D01*
X040424Y008383D01*
X040385Y008376D01*
X040346Y008373D01*
X040307Y008374D01*
X040268Y008379D01*
X040229Y008388D01*
X040192Y008400D01*
X040156Y008416D01*
X040122Y008436D01*
X040090Y008459D01*
X040061Y008485D01*
X040034Y008514D01*
X040010Y008545D01*
X039990Y008579D01*
X039973Y008614D01*
X039960Y008651D01*
X039950Y008689D01*
X039944Y008728D01*
X039942Y008767D01*
X039942Y004043D02*
X039944Y004082D01*
X039950Y004121D01*
X039960Y004159D01*
X039973Y004196D01*
X039990Y004231D01*
X040010Y004265D01*
X040034Y004296D01*
X040061Y004325D01*
X040090Y004351D01*
X040122Y004374D01*
X040156Y004394D01*
X040192Y004410D01*
X040229Y004422D01*
X040268Y004431D01*
X040307Y004436D01*
X040346Y004437D01*
X040385Y004434D01*
X040424Y004427D01*
X040461Y004416D01*
X040498Y004402D01*
X040533Y004384D01*
X040566Y004363D01*
X040597Y004338D01*
X040625Y004311D01*
X040650Y004281D01*
X040672Y004248D01*
X040691Y004214D01*
X040706Y004178D01*
X040718Y004140D01*
X040726Y004102D01*
X040730Y004063D01*
X040730Y004023D01*
X040726Y003984D01*
X040718Y003946D01*
X040706Y003908D01*
X040691Y003872D01*
X040672Y003838D01*
X040650Y003805D01*
X040625Y003775D01*
X040597Y003748D01*
X040566Y003723D01*
X040533Y003702D01*
X040498Y003684D01*
X040461Y003670D01*
X040424Y003659D01*
X040385Y003652D01*
X040346Y003649D01*
X040307Y003650D01*
X040268Y003655D01*
X040229Y003664D01*
X040192Y003676D01*
X040156Y003692D01*
X040122Y003712D01*
X040090Y003735D01*
X040061Y003761D01*
X040034Y003790D01*
X040010Y003821D01*
X039990Y003855D01*
X039973Y003890D01*
X039960Y003927D01*
X039950Y003965D01*
X039944Y004004D01*
X039942Y004043D01*
X041082Y042066D02*
X041084Y042122D01*
X041090Y042177D01*
X041100Y042231D01*
X041113Y042285D01*
X041131Y042338D01*
X041152Y042389D01*
X041176Y042439D01*
X041204Y042487D01*
X041236Y042533D01*
X041270Y042577D01*
X041308Y042618D01*
X041348Y042656D01*
X041391Y042691D01*
X041436Y042723D01*
X041484Y042752D01*
X041533Y042778D01*
X041584Y042800D01*
X041636Y042818D01*
X041690Y042832D01*
X041745Y042843D01*
X041800Y042850D01*
X041855Y042853D01*
X041911Y042852D01*
X041966Y042847D01*
X042021Y042838D01*
X042075Y042826D01*
X042128Y042809D01*
X042180Y042789D01*
X042230Y042765D01*
X042278Y042738D01*
X042325Y042708D01*
X042369Y042674D01*
X042411Y042637D01*
X042449Y042597D01*
X042486Y042555D01*
X042519Y042510D01*
X042548Y042464D01*
X042575Y042415D01*
X042597Y042364D01*
X042617Y042312D01*
X042632Y042258D01*
X042644Y042204D01*
X042652Y042149D01*
X042656Y042094D01*
X042656Y042038D01*
X042652Y041983D01*
X042644Y041928D01*
X042632Y041874D01*
X042617Y041820D01*
X042597Y041768D01*
X042575Y041717D01*
X042548Y041668D01*
X042519Y041622D01*
X042486Y041577D01*
X042449Y041535D01*
X042411Y041495D01*
X042369Y041458D01*
X042325Y041424D01*
X042278Y041394D01*
X042230Y041367D01*
X042180Y041343D01*
X042128Y041323D01*
X042075Y041306D01*
X042021Y041294D01*
X041966Y041285D01*
X041911Y041280D01*
X041855Y041279D01*
X041800Y041282D01*
X041745Y041289D01*
X041690Y041300D01*
X041636Y041314D01*
X041584Y041332D01*
X041533Y041354D01*
X041484Y041380D01*
X041436Y041409D01*
X041391Y041441D01*
X041348Y041476D01*
X041308Y041514D01*
X041270Y041555D01*
X041236Y041599D01*
X041204Y041645D01*
X041176Y041693D01*
X041152Y041743D01*
X041131Y041794D01*
X041113Y041847D01*
X041100Y041901D01*
X041090Y041955D01*
X041084Y042010D01*
X041082Y042066D01*
X004862Y042066D02*
X004864Y042122D01*
X004870Y042177D01*
X004880Y042231D01*
X004893Y042285D01*
X004911Y042338D01*
X004932Y042389D01*
X004956Y042439D01*
X004984Y042487D01*
X005016Y042533D01*
X005050Y042577D01*
X005088Y042618D01*
X005128Y042656D01*
X005171Y042691D01*
X005216Y042723D01*
X005264Y042752D01*
X005313Y042778D01*
X005364Y042800D01*
X005416Y042818D01*
X005470Y042832D01*
X005525Y042843D01*
X005580Y042850D01*
X005635Y042853D01*
X005691Y042852D01*
X005746Y042847D01*
X005801Y042838D01*
X005855Y042826D01*
X005908Y042809D01*
X005960Y042789D01*
X006010Y042765D01*
X006058Y042738D01*
X006105Y042708D01*
X006149Y042674D01*
X006191Y042637D01*
X006229Y042597D01*
X006266Y042555D01*
X006299Y042510D01*
X006328Y042464D01*
X006355Y042415D01*
X006377Y042364D01*
X006397Y042312D01*
X006412Y042258D01*
X006424Y042204D01*
X006432Y042149D01*
X006436Y042094D01*
X006436Y042038D01*
X006432Y041983D01*
X006424Y041928D01*
X006412Y041874D01*
X006397Y041820D01*
X006377Y041768D01*
X006355Y041717D01*
X006328Y041668D01*
X006299Y041622D01*
X006266Y041577D01*
X006229Y041535D01*
X006191Y041495D01*
X006149Y041458D01*
X006105Y041424D01*
X006058Y041394D01*
X006010Y041367D01*
X005960Y041343D01*
X005908Y041323D01*
X005855Y041306D01*
X005801Y041294D01*
X005746Y041285D01*
X005691Y041280D01*
X005635Y041279D01*
X005580Y041282D01*
X005525Y041289D01*
X005470Y041300D01*
X005416Y041314D01*
X005364Y041332D01*
X005313Y041354D01*
X005264Y041380D01*
X005216Y041409D01*
X005171Y041441D01*
X005128Y041476D01*
X005088Y041514D01*
X005050Y041555D01*
X005016Y041599D01*
X004984Y041645D01*
X004956Y041693D01*
X004932Y041743D01*
X004911Y041794D01*
X004893Y041847D01*
X004880Y041901D01*
X004870Y041955D01*
X004864Y042010D01*
X004862Y042066D01*
D11*
X013180Y028333D03*
D12*
X013180Y027333D03*
X013180Y026333D03*
X013180Y025333D03*
X014180Y025333D03*
X014180Y026333D03*
X014180Y027333D03*
X014180Y028333D03*
X014180Y024333D03*
X014180Y023333D03*
X014180Y022333D03*
X014180Y021333D03*
X014180Y020333D03*
X013180Y020333D03*
X013180Y021333D03*
X013180Y022333D03*
X013180Y023333D03*
X013180Y024333D03*
X008789Y023352D03*
X008789Y022565D03*
X008789Y021777D03*
X007805Y022171D03*
X007805Y022958D03*
X007805Y023746D03*
X008789Y028402D03*
X008789Y029190D03*
X008789Y029977D03*
X007805Y030371D03*
X007805Y029583D03*
X007805Y028796D03*
X008180Y032833D03*
X007430Y034458D03*
X006430Y034458D03*
X011180Y032833D03*
X020680Y031833D03*
X023680Y031833D03*
X024680Y031833D03*
X027680Y031833D03*
X023305Y026958D03*
X023305Y025833D03*
X024930Y026333D03*
X025930Y026333D03*
X026930Y026333D03*
X027930Y026333D03*
X028930Y026333D03*
X029930Y026333D03*
X033180Y026333D03*
X033180Y025333D03*
X034180Y025333D03*
X034180Y026333D03*
X034180Y027333D03*
X033180Y027333D03*
X033180Y028333D03*
X034180Y028333D03*
X034180Y024333D03*
X034180Y023333D03*
X034180Y022333D03*
X034180Y021333D03*
X034180Y020333D03*
X033180Y020333D03*
X033180Y021333D03*
X033180Y022333D03*
X033180Y023333D03*
X033180Y024333D03*
X029930Y021333D03*
X028930Y021333D03*
X027930Y021333D03*
X026930Y021333D03*
X025930Y021333D03*
X024930Y021333D03*
X021305Y025833D03*
X021305Y026958D03*
X014180Y019333D03*
X014180Y018333D03*
X014180Y017333D03*
X014180Y016333D03*
X014180Y015333D03*
X013180Y015333D03*
X013180Y016333D03*
X013180Y017333D03*
X013180Y018333D03*
X013180Y019333D03*
X013180Y014333D03*
X013180Y013333D03*
X013180Y012333D03*
X013180Y011333D03*
X014180Y011333D03*
X014180Y012333D03*
X014180Y013333D03*
X014180Y014333D03*
X014180Y010333D03*
X014180Y009333D03*
X014180Y008333D03*
X014180Y007333D03*
X014180Y006333D03*
X013180Y006333D03*
X013180Y007333D03*
X013180Y008333D03*
X013180Y009333D03*
X013180Y010333D03*
X008539Y006602D03*
X008539Y005815D03*
X008539Y005027D03*
X007555Y005421D03*
X007555Y006208D03*
X007555Y006996D03*
X013180Y005333D03*
X013180Y004333D03*
X014180Y004333D03*
X014180Y005333D03*
X007680Y016333D03*
X006680Y016333D03*
X006680Y018583D03*
X007680Y018583D03*
X033180Y018333D03*
X033180Y017333D03*
X033180Y016333D03*
X033180Y015333D03*
X034180Y015333D03*
X034180Y016333D03*
X034180Y017333D03*
X034180Y018333D03*
X034180Y019333D03*
X033180Y019333D03*
X033180Y014333D03*
X033180Y013333D03*
X033180Y012333D03*
X033180Y011333D03*
X034180Y011333D03*
X034180Y012333D03*
X034180Y013333D03*
X034180Y014333D03*
X034180Y010333D03*
X034180Y009333D03*
X034180Y008333D03*
X034180Y007333D03*
X034180Y006333D03*
X033180Y006333D03*
X033180Y007333D03*
X033180Y008333D03*
X033180Y009333D03*
X033180Y010333D03*
X033180Y005333D03*
X033180Y004333D03*
X034180Y004333D03*
X034180Y005333D03*
X038446Y005815D03*
X038446Y006602D03*
X038446Y007389D03*
X039430Y006996D03*
X039430Y006208D03*
X039430Y005421D03*
X039430Y016421D03*
X039430Y017208D03*
X039430Y017996D03*
X038446Y018389D03*
X038446Y017602D03*
X038446Y016815D03*
X041930Y020208D03*
X039430Y023171D03*
X039430Y023958D03*
X039430Y024746D03*
X038446Y025139D03*
X038446Y024352D03*
X038446Y023565D03*
X039430Y032115D03*
X039430Y032902D03*
X039430Y033690D03*
X038446Y034083D03*
X038446Y033296D03*
X038446Y032508D03*
X036430Y033333D03*
X033430Y033333D03*
D13*
X039930Y029333D03*
X026805Y018708D03*
D14*
X026805Y017708D03*
X025805Y017708D03*
X024805Y017708D03*
X024805Y018708D03*
X025805Y018708D03*
X037930Y028333D03*
X038930Y028333D03*
X039930Y028333D03*
X038930Y029333D03*
X037930Y029333D03*
D15*
X026565Y014708D02*
X026045Y014708D01*
X026045Y013708D02*
X026565Y013708D01*
X026565Y012708D02*
X026045Y012708D01*
X026045Y011708D02*
X026565Y011708D01*
X023565Y011708D02*
X023045Y011708D01*
X023045Y012708D02*
X023565Y012708D01*
X023565Y013708D02*
X023045Y013708D01*
X023045Y014708D02*
X023565Y014708D01*
X038045Y012208D02*
X038565Y012208D01*
X038565Y011208D02*
X038045Y011208D01*
X038045Y010208D02*
X038565Y010208D01*
D16*
X021480Y011708D03*
X020380Y011708D03*
X018855Y031958D03*
X017755Y031958D03*
D17*
X037805Y040333D03*
X040555Y040333D03*
D18*
X040555Y039333D03*
X040555Y038333D03*
X040555Y037333D03*
X037805Y037333D03*
X037805Y038333D03*
X037805Y039333D03*
D19*
X010555Y018583D03*
X009555Y018583D03*
X009555Y016958D03*
X010555Y016958D03*
X040055Y013333D03*
X040055Y010333D03*
D20*
X036730Y010208D02*
X036130Y010208D01*
X036130Y011208D02*
X036730Y011208D01*
X036730Y012208D02*
X036130Y012208D01*
X017680Y033033D02*
X017680Y033633D01*
X016680Y033633D02*
X016680Y033033D01*
X015680Y033033D02*
X015680Y033633D01*
X009555Y014758D02*
X009555Y014158D01*
X009555Y013258D02*
X009555Y012658D01*
X009555Y011758D02*
X009555Y011158D01*
X009555Y010258D02*
X009555Y009658D01*
X008555Y009658D02*
X008555Y010258D01*
X008555Y011158D02*
X008555Y011758D01*
X008555Y012658D02*
X008555Y013258D01*
X008555Y014158D02*
X008555Y014758D01*
X007555Y014758D02*
X007555Y014158D01*
X007555Y013258D02*
X007555Y012658D01*
X007555Y011758D02*
X007555Y011158D01*
X007555Y010258D02*
X007555Y009658D01*
D21*
X007771Y036275D02*
X008558Y036275D01*
X008558Y038756D02*
X007771Y038756D01*
X006196Y037850D02*
X006196Y037063D01*
D22*
X016430Y030583D03*
X019430Y030583D03*
D23*
X022680Y033003D02*
X022680Y033663D01*
X023680Y033663D02*
X023680Y033003D01*
X024680Y033003D02*
X024680Y033663D01*
X030180Y033663D02*
X030180Y033003D01*
X031180Y033003D02*
X031180Y033663D01*
X032180Y033663D02*
X032180Y033003D01*
D24*
X033922Y036480D02*
X033856Y036414D01*
X033856Y036632D01*
X034010Y036786D01*
X034228Y036786D01*
X034382Y036632D01*
X034382Y036414D01*
X034228Y036260D01*
X034010Y036260D01*
X033856Y036414D01*
X033955Y036455D01*
X033955Y036591D01*
X034051Y036687D01*
X034187Y036687D01*
X034283Y036591D01*
X034283Y036455D01*
X034187Y036359D01*
X034051Y036359D01*
X033955Y036455D01*
X034054Y036496D01*
X034054Y036550D01*
X034092Y036588D01*
X034146Y036588D01*
X034184Y036550D01*
X034184Y036496D01*
X034146Y036458D01*
X034092Y036458D01*
X034054Y036496D01*
X036044Y038601D02*
X035978Y038535D01*
X035978Y038753D01*
X036132Y038907D01*
X036350Y038907D01*
X036504Y038753D01*
X036504Y038535D01*
X036350Y038381D01*
X036132Y038381D01*
X035978Y038535D01*
X036077Y038576D01*
X036077Y038712D01*
X036173Y038808D01*
X036309Y038808D01*
X036405Y038712D01*
X036405Y038576D01*
X036309Y038480D01*
X036173Y038480D01*
X036077Y038576D01*
X036176Y038617D01*
X036176Y038671D01*
X036214Y038709D01*
X036268Y038709D01*
X036306Y038671D01*
X036306Y038617D01*
X036268Y038579D01*
X036214Y038579D01*
X036176Y038617D01*
D25*
X011460Y031333D02*
X010900Y031333D01*
X010900Y030333D02*
X011460Y030333D01*
X011460Y029333D02*
X010900Y029333D01*
D26*
X026430Y009833D03*
X026430Y008833D03*
X027430Y008833D03*
X027430Y009833D03*
D27*
X027798Y009395D02*
X032560Y009395D01*
X032560Y009297D02*
X027773Y009297D01*
X027736Y009333D02*
X027886Y009483D01*
X028125Y009483D01*
X028253Y009537D01*
X028878Y010162D01*
X028977Y010260D01*
X029030Y010389D01*
X029030Y014278D01*
X028977Y014407D01*
X028477Y014907D01*
X028378Y015005D01*
X028250Y015058D01*
X026993Y015058D01*
X026877Y015175D01*
X026674Y015258D01*
X025936Y015258D01*
X025733Y015175D01*
X025579Y015020D01*
X025495Y014818D01*
X025495Y014599D01*
X025579Y014397D01*
X025733Y014242D01*
X025815Y014208D01*
X025733Y014175D01*
X025579Y014020D01*
X025495Y013818D01*
X025495Y013763D01*
X025352Y013907D01*
X025253Y014005D01*
X025125Y014058D01*
X023993Y014058D01*
X023877Y014175D01*
X023674Y014258D01*
X022936Y014258D01*
X022733Y014175D01*
X022579Y014020D01*
X022495Y013818D01*
X022495Y013599D01*
X022579Y013397D01*
X022733Y013242D01*
X022815Y013208D01*
X022733Y013175D01*
X022579Y013020D01*
X022495Y012818D01*
X022495Y012599D01*
X022579Y012397D01*
X022733Y012242D01*
X022815Y012208D01*
X022733Y012175D01*
X022677Y012118D01*
X022598Y012118D01*
X022448Y012056D01*
X022198Y011806D01*
X022170Y011778D01*
X022170Y011846D01*
X022065Y012099D01*
X021871Y012293D01*
X021617Y012398D01*
X021343Y012398D01*
X021089Y012293D01*
X020895Y012099D01*
X020790Y011846D01*
X020790Y011571D01*
X020895Y011317D01*
X021089Y011123D01*
X021343Y011018D01*
X021617Y011018D01*
X021871Y011123D01*
X022020Y011272D01*
X022020Y008503D01*
X017510Y003993D01*
X012350Y003993D01*
X011465Y004878D01*
X011465Y008165D01*
X011403Y008316D01*
X010528Y009191D01*
X010412Y009306D01*
X010262Y009368D01*
X010073Y009368D01*
X010145Y009541D01*
X010145Y010376D01*
X010055Y010592D01*
X009939Y010708D01*
X010055Y010824D01*
X010145Y011041D01*
X010145Y011876D01*
X010055Y012092D01*
X009939Y012208D01*
X010055Y012324D01*
X010145Y012541D01*
X010145Y013376D01*
X010055Y013592D01*
X009939Y013708D01*
X010055Y013824D01*
X010145Y014041D01*
X010145Y014876D01*
X010055Y015092D01*
X009889Y015258D01*
X009672Y015348D01*
X009438Y015348D01*
X009221Y015258D01*
X009055Y015093D01*
X008889Y015258D01*
X008672Y015348D01*
X008438Y015348D01*
X008221Y015258D01*
X008055Y015092D01*
X007965Y014876D01*
X007965Y014041D01*
X008055Y013824D01*
X008171Y013708D01*
X008055Y013592D01*
X007965Y013376D01*
X007965Y012541D01*
X008055Y012324D01*
X008171Y012208D01*
X008055Y012092D01*
X007965Y011876D01*
X007965Y011041D01*
X008055Y010824D01*
X008171Y010708D01*
X008055Y010592D01*
X007965Y010376D01*
X007965Y009541D01*
X008055Y009324D01*
X008145Y009234D01*
X008145Y009127D01*
X008207Y008976D01*
X008323Y008861D01*
X008435Y008748D01*
X008435Y008399D01*
X007652Y007616D01*
X007298Y007616D01*
X006935Y007252D01*
X006935Y006739D01*
X007072Y006602D01*
X006935Y006465D01*
X006935Y005951D01*
X007298Y005588D01*
X007812Y005588D01*
X007919Y005696D01*
X007919Y005558D01*
X008282Y005195D01*
X008796Y005195D01*
X009159Y005558D01*
X009159Y006071D01*
X009022Y006208D01*
X009159Y006345D01*
X009159Y006859D01*
X008796Y007222D01*
X008443Y007222D01*
X008374Y007291D01*
X009015Y007932D01*
X009119Y008036D01*
X009175Y008172D01*
X009175Y008548D01*
X010010Y008548D01*
X010645Y007913D01*
X010645Y004627D01*
X010707Y004476D01*
X011832Y003351D01*
X011948Y003236D01*
X012098Y003173D01*
X017762Y003173D01*
X017912Y003236D01*
X022662Y007986D01*
X022662Y007986D01*
X022778Y008101D01*
X022840Y008252D01*
X022840Y011198D01*
X022936Y011158D01*
X023674Y011158D01*
X023877Y011242D01*
X024031Y011397D01*
X024115Y011599D01*
X024115Y011818D01*
X024031Y012020D01*
X023877Y012175D01*
X023795Y012208D01*
X023877Y012242D01*
X023993Y012358D01*
X024285Y012358D01*
X024455Y012188D01*
X024455Y009764D01*
X024508Y009635D01*
X024607Y009537D01*
X025607Y008537D01*
X025735Y008483D01*
X025974Y008483D01*
X026194Y008263D01*
X026666Y008263D01*
X026930Y008527D01*
X027194Y008263D01*
X027666Y008263D01*
X028000Y008597D01*
X028000Y009069D01*
X027736Y009333D01*
X027871Y009198D02*
X032560Y009198D01*
X032560Y009100D02*
X027970Y009100D01*
X028000Y009001D02*
X032635Y009001D01*
X032560Y009076D02*
X032803Y008833D01*
X032560Y008590D01*
X032560Y008076D01*
X032803Y007833D01*
X032560Y007590D01*
X032560Y007076D01*
X032803Y006833D01*
X032560Y006590D01*
X032560Y006076D01*
X032803Y005833D01*
X032560Y005590D01*
X032560Y005076D01*
X032923Y004713D01*
X033437Y004713D01*
X033680Y004956D01*
X033923Y004713D01*
X034437Y004713D01*
X034800Y005076D01*
X034800Y005590D01*
X034557Y005833D01*
X034800Y006076D01*
X034800Y006590D01*
X034557Y006833D01*
X034800Y007076D01*
X034800Y007590D01*
X034557Y007833D01*
X034800Y008076D01*
X034800Y008590D01*
X034557Y008833D01*
X034746Y009022D01*
X034830Y008938D01*
X034830Y008389D01*
X034883Y008260D01*
X034982Y008162D01*
X035258Y007885D01*
X035357Y007787D01*
X035485Y007733D01*
X039285Y007733D01*
X039705Y007313D01*
X039705Y006810D01*
X039687Y006828D01*
X039173Y006828D01*
X039066Y006721D01*
X039066Y006859D01*
X038703Y007222D01*
X038189Y007222D01*
X037826Y006859D01*
X037826Y006345D01*
X037963Y006208D01*
X037826Y006071D01*
X037826Y005558D01*
X038189Y005195D01*
X038703Y005195D01*
X038810Y005302D01*
X038810Y005164D01*
X039173Y004801D01*
X039687Y004801D01*
X040050Y005164D01*
X040050Y005678D01*
X039913Y005815D01*
X039957Y005858D01*
X040000Y005858D01*
X040128Y005912D01*
X040227Y006010D01*
X040352Y006135D01*
X040405Y006264D01*
X040405Y007528D01*
X040352Y007657D01*
X040253Y007755D01*
X040026Y007982D01*
X040168Y007924D01*
X040503Y007924D01*
X040813Y008052D01*
X041051Y008289D01*
X041179Y008599D01*
X041179Y008935D01*
X041051Y009245D01*
X040813Y009483D01*
X040503Y009611D01*
X040168Y009611D01*
X039858Y009483D01*
X039620Y009245D01*
X039492Y008935D01*
X039492Y008599D01*
X039573Y008403D01*
X039500Y008433D01*
X035700Y008433D01*
X035530Y008603D01*
X035530Y009153D01*
X035477Y009282D01*
X035378Y009380D01*
X034741Y010017D01*
X034800Y010076D01*
X034800Y010590D01*
X034557Y010833D01*
X034800Y011076D01*
X034800Y011590D01*
X034557Y011833D01*
X034800Y012076D01*
X034800Y012590D01*
X034557Y012833D01*
X034800Y013076D01*
X034800Y013590D01*
X034557Y013833D01*
X034800Y014076D01*
X034800Y014590D01*
X034557Y014833D01*
X034707Y014983D01*
X037125Y014983D01*
X037253Y015037D01*
X037352Y015135D01*
X037852Y015635D01*
X037905Y015764D01*
X037905Y016479D01*
X038189Y016195D01*
X038703Y016195D01*
X038810Y016302D01*
X038810Y016164D01*
X039173Y015801D01*
X039687Y015801D01*
X040050Y016164D01*
X040050Y016678D01*
X039913Y016815D01*
X040050Y016951D01*
X040050Y017465D01*
X039687Y017828D01*
X039173Y017828D01*
X039066Y017721D01*
X039066Y017859D01*
X038703Y018222D01*
X038189Y018222D01*
X037919Y017952D01*
X037879Y017952D01*
X037750Y017899D01*
X037357Y017505D01*
X037258Y017407D01*
X037205Y017278D01*
X037205Y015978D01*
X036910Y015683D01*
X034707Y015683D01*
X034557Y015833D01*
X034800Y016076D01*
X034800Y016590D01*
X034557Y016833D01*
X034800Y017076D01*
X034800Y017590D01*
X034557Y017833D01*
X034800Y018076D01*
X034800Y018590D01*
X034557Y018833D01*
X034800Y019076D01*
X034800Y019590D01*
X034557Y019833D01*
X034800Y020076D01*
X034800Y020590D01*
X034557Y020833D01*
X034800Y021076D01*
X034800Y021590D01*
X034557Y021833D01*
X034800Y022076D01*
X034800Y022590D01*
X034557Y022833D01*
X034800Y023076D01*
X034800Y023590D01*
X034557Y023833D01*
X034800Y024076D01*
X034800Y024590D01*
X034557Y024833D01*
X034800Y025076D01*
X034800Y025590D01*
X034557Y025833D01*
X034800Y026076D01*
X034800Y026508D01*
X035145Y026163D01*
X035145Y022252D01*
X035207Y022101D01*
X036707Y020601D01*
X036823Y020486D01*
X036973Y020423D01*
X039798Y020423D01*
X039620Y020245D01*
X039492Y019935D01*
X039492Y019599D01*
X039620Y019289D01*
X039858Y019052D01*
X040168Y018924D01*
X040503Y018924D01*
X040813Y019052D01*
X041051Y019289D01*
X041179Y019599D01*
X041179Y019935D01*
X041051Y020245D01*
X040873Y020423D01*
X041135Y020423D01*
X041310Y020248D01*
X041310Y019951D01*
X041673Y019588D01*
X042187Y019588D01*
X042550Y019951D01*
X042550Y020465D01*
X042187Y020828D01*
X041890Y020828D01*
X041537Y021181D01*
X041387Y021243D01*
X040979Y021243D01*
X041051Y021315D01*
X041179Y021625D01*
X041179Y021961D01*
X041051Y022271D01*
X040813Y022508D01*
X040503Y022637D01*
X040168Y022637D01*
X039858Y022508D01*
X039620Y022271D01*
X039492Y021961D01*
X039492Y021625D01*
X039620Y021315D01*
X039692Y021243D01*
X037225Y021243D01*
X035965Y022503D01*
X035965Y023177D01*
X035973Y023173D01*
X037960Y023173D01*
X038189Y022945D01*
X038486Y022945D01*
X038492Y022939D01*
X038607Y022823D01*
X038758Y022761D01*
X038963Y022761D01*
X039173Y022551D01*
X039687Y022551D01*
X039937Y022801D01*
X041341Y022801D01*
X041477Y022857D01*
X041581Y022961D01*
X041994Y023374D01*
X042050Y023510D01*
X042050Y031782D01*
X041994Y031918D01*
X041890Y032022D01*
X041515Y032397D01*
X041379Y032453D01*
X039968Y032453D01*
X039913Y032508D01*
X040050Y032645D01*
X040050Y033159D01*
X039913Y033296D01*
X040050Y033433D01*
X040050Y033946D01*
X039687Y034310D01*
X039173Y034310D01*
X038810Y033946D01*
X038810Y033808D01*
X038703Y033916D01*
X038189Y033916D01*
X037956Y033683D01*
X037610Y033683D01*
X037482Y033630D01*
X034535Y030683D01*
X028985Y030683D01*
X028857Y030630D01*
X028758Y030532D01*
X027732Y029505D01*
X027633Y029407D01*
X027580Y029278D01*
X027580Y026860D01*
X027430Y026710D01*
X027187Y026953D01*
X026673Y026953D01*
X026310Y026590D01*
X026310Y026076D01*
X026673Y025713D01*
X027187Y025713D01*
X027430Y025956D01*
X027557Y025830D01*
X027035Y025308D01*
X023657Y025308D01*
X023925Y025576D01*
X023925Y026090D01*
X023619Y026396D01*
X023925Y026701D01*
X023925Y027215D01*
X023562Y027578D01*
X023048Y027578D01*
X022685Y027215D01*
X022685Y026701D01*
X022991Y026396D01*
X022685Y026090D01*
X022685Y025576D01*
X022953Y025308D01*
X022325Y025308D01*
X021925Y025708D01*
X021925Y026090D01*
X021619Y026396D01*
X021925Y026701D01*
X021925Y027215D01*
X021562Y027578D01*
X021048Y027578D01*
X020685Y027215D01*
X020685Y026701D01*
X020991Y026396D01*
X020685Y026090D01*
X020685Y025576D01*
X021048Y025213D01*
X021430Y025213D01*
X021982Y024662D01*
X022110Y024608D01*
X027250Y024608D01*
X027378Y024662D01*
X027477Y024760D01*
X028128Y025412D01*
X028227Y025510D01*
X028280Y025639D01*
X028280Y025806D01*
X028430Y025956D01*
X028673Y025713D01*
X029187Y025713D01*
X029430Y025956D01*
X029673Y025713D01*
X030187Y025713D01*
X030550Y026076D01*
X030550Y026590D01*
X030187Y026953D01*
X029673Y026953D01*
X029430Y026710D01*
X029280Y026860D01*
X029280Y028563D01*
X029950Y029233D01*
X037340Y029233D01*
X037340Y029089D01*
X037580Y028849D01*
X037580Y028818D01*
X037340Y028578D01*
X037340Y028089D01*
X037580Y027849D01*
X037580Y027478D01*
X037357Y027255D01*
X037258Y027157D01*
X037205Y027028D01*
X037205Y024639D01*
X037258Y024510D01*
X037615Y024154D01*
X037713Y024055D01*
X037842Y024002D01*
X037919Y024002D01*
X037928Y023993D01*
X036225Y023993D01*
X035965Y024253D01*
X035965Y026415D01*
X035903Y026566D01*
X035787Y026681D01*
X034903Y027566D01*
X034787Y027681D01*
X034654Y027736D01*
X034437Y027953D01*
X033923Y027953D01*
X033680Y027710D01*
X033437Y027953D01*
X032923Y027953D01*
X032560Y027590D01*
X032560Y027076D01*
X032803Y026833D01*
X032560Y026590D01*
X032560Y026076D01*
X032803Y025833D01*
X032560Y025590D01*
X032560Y025076D01*
X032803Y024833D01*
X032560Y024590D01*
X032560Y024076D01*
X032803Y023833D01*
X032560Y023590D01*
X032560Y023076D01*
X032803Y022833D01*
X032560Y022590D01*
X032560Y022076D01*
X032803Y021833D01*
X032560Y021590D01*
X032560Y021076D01*
X032803Y020833D01*
X032560Y020590D01*
X032560Y020076D01*
X032803Y019833D01*
X032560Y019590D01*
X032560Y019076D01*
X032803Y018833D01*
X032560Y018590D01*
X032560Y018076D01*
X032803Y017833D01*
X032560Y017590D01*
X032560Y017076D01*
X032803Y016833D01*
X032560Y016590D01*
X032560Y016076D01*
X032803Y015833D01*
X032560Y015590D01*
X032560Y015076D01*
X032803Y014833D01*
X032560Y014590D01*
X032560Y014076D01*
X032803Y013833D01*
X032560Y013590D01*
X032560Y013076D01*
X032803Y012833D01*
X032560Y012590D01*
X032560Y012076D01*
X032803Y011833D01*
X032560Y011590D01*
X032560Y011076D01*
X032803Y010833D01*
X032560Y010590D01*
X032560Y010076D01*
X032803Y009833D01*
X032560Y009590D01*
X032560Y009076D01*
X032734Y008903D02*
X028000Y008903D01*
X028000Y008804D02*
X032774Y008804D01*
X032676Y008706D02*
X028000Y008706D01*
X028000Y008607D02*
X032577Y008607D01*
X032560Y008509D02*
X027912Y008509D01*
X027813Y008410D02*
X032560Y008410D01*
X032560Y008312D02*
X027715Y008312D01*
X027145Y008312D02*
X026715Y008312D01*
X026813Y008410D02*
X027047Y008410D01*
X026948Y008509D02*
X026912Y008509D01*
X026145Y008312D02*
X022840Y008312D01*
X022840Y008410D02*
X026047Y008410D01*
X025674Y008509D02*
X022840Y008509D01*
X022840Y008607D02*
X025536Y008607D01*
X025438Y008706D02*
X022840Y008706D01*
X022840Y008804D02*
X025339Y008804D01*
X025241Y008903D02*
X022840Y008903D01*
X022840Y009001D02*
X025142Y009001D01*
X025044Y009100D02*
X022840Y009100D01*
X022840Y009198D02*
X024945Y009198D01*
X024847Y009297D02*
X022840Y009297D01*
X022840Y009395D02*
X024748Y009395D01*
X024650Y009494D02*
X022840Y009494D01*
X022840Y009592D02*
X024551Y009592D01*
X024485Y009691D02*
X022840Y009691D01*
X022840Y009789D02*
X024455Y009789D01*
X024455Y009888D02*
X022840Y009888D01*
X022840Y009986D02*
X024455Y009986D01*
X024455Y010085D02*
X022840Y010085D01*
X022840Y010183D02*
X024455Y010183D01*
X024455Y010282D02*
X022840Y010282D01*
X022840Y010380D02*
X024455Y010380D01*
X024455Y010479D02*
X022840Y010479D01*
X022840Y010577D02*
X024455Y010577D01*
X024455Y010676D02*
X022840Y010676D01*
X022840Y010774D02*
X024455Y010774D01*
X024455Y010873D02*
X022840Y010873D01*
X022840Y010971D02*
X024455Y010971D01*
X024455Y011070D02*
X022840Y011070D01*
X022840Y011168D02*
X022911Y011168D01*
X022020Y011168D02*
X021916Y011168D01*
X022014Y011267D02*
X022020Y011267D01*
X022020Y011070D02*
X021742Y011070D01*
X022020Y010971D02*
X014695Y010971D01*
X014596Y010873D02*
X022020Y010873D01*
X022020Y010774D02*
X014616Y010774D01*
X014557Y010833D02*
X014800Y010590D01*
X014800Y010076D01*
X014557Y009833D01*
X014800Y009590D01*
X014800Y009076D01*
X014557Y008833D01*
X014800Y008590D01*
X014800Y008076D01*
X014557Y007833D01*
X014800Y007590D01*
X014800Y007076D01*
X014557Y006833D01*
X014800Y006590D01*
X014800Y006076D01*
X014557Y005833D01*
X014800Y005590D01*
X014800Y005076D01*
X014437Y004713D01*
X013923Y004713D01*
X013680Y004956D01*
X013437Y004713D01*
X012923Y004713D01*
X012560Y005076D01*
X012560Y005590D01*
X012803Y005833D01*
X012560Y006076D01*
X012560Y006590D01*
X012803Y006833D01*
X012560Y007076D01*
X012560Y007590D01*
X012803Y007833D01*
X012560Y008076D01*
X012560Y008590D01*
X012803Y008833D01*
X012560Y009076D01*
X012560Y009590D01*
X012803Y009833D01*
X012560Y010076D01*
X012560Y010590D01*
X012803Y010833D01*
X012560Y011076D01*
X012560Y011590D01*
X012803Y011833D01*
X012560Y012076D01*
X012560Y012590D01*
X012803Y012833D01*
X012560Y013076D01*
X012560Y013590D01*
X012803Y013833D01*
X012560Y014076D01*
X012560Y014590D01*
X012803Y014833D01*
X012560Y015076D01*
X012560Y015590D01*
X012803Y015833D01*
X012560Y016076D01*
X012560Y016590D01*
X012923Y016953D01*
X013437Y016953D01*
X013680Y016710D01*
X013803Y016833D01*
X013560Y017076D01*
X013560Y017590D01*
X013803Y017833D01*
X013680Y017956D01*
X013437Y017713D01*
X012923Y017713D01*
X012560Y018076D01*
X012560Y018590D01*
X012803Y018833D01*
X012560Y019076D01*
X012560Y019590D01*
X012803Y019833D01*
X012560Y020076D01*
X012560Y020590D01*
X012803Y020833D01*
X012560Y021076D01*
X012560Y021590D01*
X012803Y021833D01*
X012560Y022076D01*
X012560Y022590D01*
X012803Y022833D01*
X012560Y023076D01*
X012560Y023590D01*
X012803Y023833D01*
X012560Y024076D01*
X012560Y024590D01*
X012803Y024833D01*
X012560Y025076D01*
X012560Y025590D01*
X012923Y025953D01*
X013437Y025953D01*
X013680Y025710D01*
X013803Y025833D01*
X013560Y026076D01*
X013560Y026590D01*
X013803Y026833D01*
X013680Y026956D01*
X013437Y026713D01*
X012923Y026713D01*
X012560Y027076D01*
X012560Y027590D01*
X012923Y027953D01*
X013437Y027953D01*
X013680Y027710D01*
X013923Y027953D01*
X014437Y027953D01*
X014800Y027590D01*
X014800Y027076D01*
X014557Y026833D01*
X014800Y026590D01*
X014800Y026076D01*
X014557Y025833D01*
X014800Y025590D01*
X014800Y025076D01*
X014557Y024833D01*
X014800Y024590D01*
X014800Y024076D01*
X014557Y023833D01*
X014800Y023590D01*
X014800Y023076D01*
X014557Y022833D01*
X014800Y022590D01*
X014800Y022076D01*
X014557Y021833D01*
X014800Y021590D01*
X014800Y021076D01*
X014557Y020833D01*
X014800Y020590D01*
X014800Y020076D01*
X014557Y019833D01*
X014800Y019590D01*
X014800Y019076D01*
X014557Y018833D01*
X014800Y018590D01*
X014800Y018076D01*
X014557Y017833D01*
X014800Y017590D01*
X014800Y017076D01*
X014557Y016833D01*
X014800Y016590D01*
X014800Y016076D01*
X014557Y015833D01*
X014800Y015590D01*
X014800Y015076D01*
X014557Y014833D01*
X014800Y014590D01*
X014800Y014076D01*
X014557Y013833D01*
X014800Y013590D01*
X014800Y013076D01*
X014557Y012833D01*
X014800Y012590D01*
X014800Y012076D01*
X014557Y011833D01*
X014800Y011590D01*
X014800Y011076D01*
X014557Y010833D01*
X014714Y010676D02*
X022020Y010676D01*
X022020Y010577D02*
X014800Y010577D01*
X014800Y010479D02*
X022020Y010479D01*
X022020Y010380D02*
X014800Y010380D01*
X014800Y010282D02*
X022020Y010282D01*
X022020Y010183D02*
X014800Y010183D01*
X014800Y010085D02*
X022020Y010085D01*
X022020Y009986D02*
X014710Y009986D01*
X014611Y009888D02*
X022020Y009888D01*
X022020Y009789D02*
X014601Y009789D01*
X014699Y009691D02*
X022020Y009691D01*
X022020Y009592D02*
X014798Y009592D01*
X014800Y009494D02*
X022020Y009494D01*
X022020Y009395D02*
X014800Y009395D01*
X014800Y009297D02*
X022020Y009297D01*
X022020Y009198D02*
X014800Y009198D01*
X014800Y009100D02*
X022020Y009100D01*
X022020Y009001D02*
X014725Y009001D01*
X014626Y008903D02*
X022020Y008903D01*
X022020Y008804D02*
X014586Y008804D01*
X014684Y008706D02*
X022020Y008706D01*
X022020Y008607D02*
X014783Y008607D01*
X014800Y008509D02*
X022020Y008509D01*
X021927Y008410D02*
X014800Y008410D01*
X014800Y008312D02*
X021829Y008312D01*
X021730Y008213D02*
X014800Y008213D01*
X014800Y008115D02*
X021632Y008115D01*
X021533Y008016D02*
X014740Y008016D01*
X014641Y007918D02*
X021435Y007918D01*
X021336Y007819D02*
X014571Y007819D01*
X014669Y007721D02*
X021238Y007721D01*
X021139Y007622D02*
X014768Y007622D01*
X014800Y007524D02*
X021041Y007524D01*
X020942Y007425D02*
X014800Y007425D01*
X014800Y007327D02*
X020844Y007327D01*
X020745Y007228D02*
X014800Y007228D01*
X014800Y007130D02*
X020647Y007130D01*
X020548Y007031D02*
X014755Y007031D01*
X014656Y006933D02*
X020450Y006933D01*
X020351Y006834D02*
X014558Y006834D01*
X014654Y006736D02*
X020253Y006736D01*
X020154Y006637D02*
X014753Y006637D01*
X014800Y006539D02*
X020056Y006539D01*
X019957Y006440D02*
X014800Y006440D01*
X014800Y006342D02*
X019859Y006342D01*
X019760Y006243D02*
X014800Y006243D01*
X014800Y006145D02*
X019662Y006145D01*
X019563Y006046D02*
X014770Y006046D01*
X014671Y005948D02*
X019465Y005948D01*
X019366Y005849D02*
X014573Y005849D01*
X014639Y005751D02*
X019268Y005751D01*
X019169Y005652D02*
X014738Y005652D01*
X014800Y005554D02*
X019071Y005554D01*
X018972Y005455D02*
X014800Y005455D01*
X014800Y005357D02*
X018874Y005357D01*
X018775Y005258D02*
X014800Y005258D01*
X014800Y005160D02*
X018677Y005160D01*
X018578Y005061D02*
X014785Y005061D01*
X014686Y004963D02*
X018480Y004963D01*
X018381Y004864D02*
X014588Y004864D01*
X014489Y004766D02*
X018283Y004766D01*
X018184Y004667D02*
X011676Y004667D01*
X011774Y004569D02*
X018086Y004569D01*
X017987Y004470D02*
X011873Y004470D01*
X011971Y004372D02*
X017889Y004372D01*
X017790Y004273D02*
X012070Y004273D01*
X012168Y004175D02*
X017692Y004175D01*
X017593Y004076D02*
X012267Y004076D01*
X011501Y003682D02*
X007493Y003682D01*
X007493Y003584D02*
X011600Y003584D01*
X011698Y003485D02*
X007493Y003485D01*
X007493Y003481D02*
X007365Y003171D01*
X007127Y002934D01*
X006817Y002806D01*
X006482Y002806D01*
X006172Y002934D01*
X005934Y003171D01*
X005806Y003481D01*
X005806Y003817D01*
X005934Y004127D01*
X006172Y004364D01*
X006482Y004493D01*
X006817Y004493D01*
X007127Y004364D01*
X007365Y004127D01*
X007493Y003817D01*
X007493Y003481D01*
X007454Y003387D02*
X011797Y003387D01*
X011895Y003288D02*
X007413Y003288D01*
X007372Y003190D02*
X012059Y003190D01*
X011403Y003781D02*
X007493Y003781D01*
X007467Y003879D02*
X011304Y003879D01*
X011206Y003978D02*
X007427Y003978D01*
X007386Y004076D02*
X011107Y004076D01*
X011009Y004175D02*
X007317Y004175D01*
X007219Y004273D02*
X010910Y004273D01*
X010812Y004372D02*
X007110Y004372D01*
X006872Y004470D02*
X010713Y004470D01*
X010669Y004569D02*
X004130Y004569D01*
X004130Y004667D02*
X010645Y004667D01*
X010645Y004766D02*
X004130Y004766D01*
X004130Y004864D02*
X010645Y004864D01*
X010645Y004963D02*
X004130Y004963D01*
X004130Y005061D02*
X010645Y005061D01*
X010645Y005160D02*
X004130Y005160D01*
X004130Y005258D02*
X008219Y005258D01*
X008120Y005357D02*
X004130Y005357D01*
X004130Y005455D02*
X008022Y005455D01*
X007923Y005554D02*
X004130Y005554D01*
X004130Y005652D02*
X007234Y005652D01*
X007136Y005751D02*
X004130Y005751D01*
X004130Y005849D02*
X007037Y005849D01*
X006939Y005948D02*
X004130Y005948D01*
X004130Y006046D02*
X006935Y006046D01*
X006935Y006145D02*
X004130Y006145D01*
X004130Y006243D02*
X006935Y006243D01*
X006935Y006342D02*
X004130Y006342D01*
X004130Y006440D02*
X006935Y006440D01*
X007009Y006539D02*
X004130Y006539D01*
X004130Y006637D02*
X007037Y006637D01*
X006938Y006736D02*
X004130Y006736D01*
X004130Y006834D02*
X006935Y006834D01*
X006935Y006933D02*
X004130Y006933D01*
X004130Y007031D02*
X006935Y007031D01*
X006935Y007130D02*
X004130Y007130D01*
X004130Y007228D02*
X006935Y007228D01*
X007009Y007327D02*
X004130Y007327D01*
X004130Y007425D02*
X007108Y007425D01*
X007206Y007524D02*
X004130Y007524D01*
X004130Y007622D02*
X006259Y007622D01*
X006172Y007658D02*
X006482Y007530D01*
X006817Y007530D01*
X007127Y007658D01*
X007365Y007896D01*
X007493Y008206D01*
X007493Y008541D01*
X007365Y008852D01*
X007127Y009089D01*
X006817Y009217D01*
X006482Y009217D01*
X006172Y009089D01*
X005934Y008852D01*
X005806Y008541D01*
X005806Y008206D01*
X005934Y007896D01*
X006172Y007658D01*
X006109Y007721D02*
X004130Y007721D01*
X004130Y007819D02*
X006011Y007819D01*
X005925Y007918D02*
X004130Y007918D01*
X004130Y008016D02*
X005884Y008016D01*
X005843Y008115D02*
X004130Y008115D01*
X004130Y008213D02*
X005806Y008213D01*
X005806Y008312D02*
X004130Y008312D01*
X004130Y008410D02*
X005806Y008410D01*
X005806Y008509D02*
X004130Y008509D01*
X004130Y008607D02*
X005833Y008607D01*
X005874Y008706D02*
X004130Y008706D01*
X004130Y008804D02*
X005915Y008804D01*
X005985Y008903D02*
X004130Y008903D01*
X004130Y009001D02*
X006084Y009001D01*
X006198Y009100D02*
X004130Y009100D01*
X004130Y009198D02*
X006436Y009198D01*
X006863Y009198D02*
X008145Y009198D01*
X008156Y009100D02*
X007101Y009100D01*
X007215Y009001D02*
X008197Y009001D01*
X008281Y008903D02*
X007313Y008903D01*
X007384Y008804D02*
X008379Y008804D01*
X008435Y008706D02*
X007425Y008706D01*
X007466Y008607D02*
X008435Y008607D01*
X008435Y008509D02*
X007493Y008509D01*
X007493Y008410D02*
X008435Y008410D01*
X008348Y008312D02*
X007493Y008312D01*
X007493Y008213D02*
X008249Y008213D01*
X008151Y008115D02*
X007455Y008115D01*
X007415Y008016D02*
X008052Y008016D01*
X007954Y007918D02*
X007374Y007918D01*
X007288Y007819D02*
X007855Y007819D01*
X007757Y007721D02*
X007190Y007721D01*
X007040Y007622D02*
X007658Y007622D01*
X008409Y007327D02*
X010645Y007327D01*
X010645Y007425D02*
X008508Y007425D01*
X008606Y007524D02*
X010645Y007524D01*
X010645Y007622D02*
X008705Y007622D01*
X008803Y007721D02*
X010645Y007721D01*
X010645Y007819D02*
X008902Y007819D01*
X009000Y007918D02*
X010641Y007918D01*
X010542Y008016D02*
X009099Y008016D01*
X009151Y008115D02*
X010444Y008115D01*
X010345Y008213D02*
X009175Y008213D01*
X009175Y008312D02*
X010247Y008312D01*
X010148Y008410D02*
X009175Y008410D01*
X009175Y008509D02*
X010050Y008509D01*
X010717Y009001D02*
X012635Y009001D01*
X012560Y009100D02*
X010618Y009100D01*
X010528Y009191D02*
X010528Y009191D01*
X010520Y009198D02*
X012560Y009198D01*
X012560Y009297D02*
X010421Y009297D01*
X010085Y009395D02*
X012560Y009395D01*
X012560Y009494D02*
X010125Y009494D01*
X010145Y009592D02*
X012562Y009592D01*
X012661Y009691D02*
X010145Y009691D01*
X010145Y009789D02*
X012759Y009789D01*
X012749Y009888D02*
X010145Y009888D01*
X010145Y009986D02*
X012650Y009986D01*
X012560Y010085D02*
X010145Y010085D01*
X010145Y010183D02*
X012560Y010183D01*
X012560Y010282D02*
X010145Y010282D01*
X010143Y010380D02*
X012560Y010380D01*
X012560Y010479D02*
X010102Y010479D01*
X010061Y010577D02*
X012560Y010577D01*
X012646Y010676D02*
X009972Y010676D01*
X010005Y010774D02*
X012744Y010774D01*
X012764Y010873D02*
X010075Y010873D01*
X010116Y010971D02*
X012665Y010971D01*
X012567Y011070D02*
X010145Y011070D01*
X010145Y011168D02*
X012560Y011168D01*
X012560Y011267D02*
X010145Y011267D01*
X010145Y011365D02*
X012560Y011365D01*
X012560Y011464D02*
X010145Y011464D01*
X010145Y011562D02*
X012560Y011562D01*
X012631Y011661D02*
X010145Y011661D01*
X010145Y011759D02*
X012729Y011759D01*
X012779Y011858D02*
X010145Y011858D01*
X010112Y011956D02*
X012680Y011956D01*
X012582Y012055D02*
X010071Y012055D01*
X009994Y012153D02*
X012560Y012153D01*
X012560Y012252D02*
X009983Y012252D01*
X010066Y012350D02*
X012560Y012350D01*
X012560Y012449D02*
X010107Y012449D01*
X010145Y012547D02*
X012560Y012547D01*
X012616Y012646D02*
X010145Y012646D01*
X010145Y012744D02*
X012714Y012744D01*
X012794Y012843D02*
X010145Y012843D01*
X010145Y012941D02*
X012695Y012941D01*
X012597Y013040D02*
X010145Y013040D01*
X010145Y013138D02*
X012560Y013138D01*
X012560Y013237D02*
X010145Y013237D01*
X010145Y013335D02*
X012560Y013335D01*
X012560Y013434D02*
X010121Y013434D01*
X010080Y013532D02*
X012560Y013532D01*
X012601Y013631D02*
X010017Y013631D01*
X009960Y013729D02*
X012699Y013729D01*
X012798Y013828D02*
X010057Y013828D01*
X010098Y013926D02*
X012710Y013926D01*
X012612Y014025D02*
X010138Y014025D01*
X010145Y014123D02*
X012560Y014123D01*
X012560Y014222D02*
X010145Y014222D01*
X010145Y014320D02*
X012560Y014320D01*
X012560Y014419D02*
X010145Y014419D01*
X010145Y014517D02*
X012560Y014517D01*
X012586Y014616D02*
X010145Y014616D01*
X010145Y014714D02*
X012684Y014714D01*
X012783Y014813D02*
X010145Y014813D01*
X010130Y014911D02*
X012725Y014911D01*
X012627Y015010D02*
X010089Y015010D01*
X010039Y015108D02*
X012560Y015108D01*
X012560Y015207D02*
X009941Y015207D01*
X009776Y015305D02*
X012560Y015305D01*
X012560Y015404D02*
X004130Y015404D01*
X004130Y015502D02*
X012560Y015502D01*
X012571Y015601D02*
X004130Y015601D01*
X004130Y015699D02*
X012669Y015699D01*
X012768Y015798D02*
X008021Y015798D01*
X007937Y015713D02*
X007423Y015713D01*
X007180Y015956D01*
X006937Y015713D01*
X006423Y015713D01*
X006060Y016076D01*
X006060Y016590D01*
X006423Y016953D01*
X006937Y016953D01*
X007180Y016710D01*
X007423Y016953D01*
X007937Y016953D01*
X008300Y016590D01*
X008300Y016076D01*
X007937Y015713D01*
X008120Y015896D02*
X012740Y015896D01*
X012642Y015995D02*
X008218Y015995D01*
X008300Y016093D02*
X012560Y016093D01*
X012560Y016192D02*
X008300Y016192D01*
X008300Y016290D02*
X012560Y016290D01*
X012560Y016389D02*
X008300Y016389D01*
X008300Y016487D02*
X009248Y016487D01*
X009327Y016408D02*
X009783Y016408D01*
X010055Y016680D01*
X010327Y016408D01*
X010783Y016408D01*
X011105Y016730D01*
X011105Y017186D01*
X010783Y017508D01*
X010327Y017508D01*
X010055Y017236D01*
X009783Y017508D01*
X009327Y017508D01*
X009005Y017186D01*
X009005Y016730D01*
X009327Y016408D01*
X009150Y016586D02*
X008300Y016586D01*
X008206Y016684D02*
X009051Y016684D01*
X009005Y016783D02*
X008107Y016783D01*
X008009Y016881D02*
X009005Y016881D01*
X009005Y016980D02*
X004130Y016980D01*
X004130Y017078D02*
X009005Y017078D01*
X009005Y017177D02*
X004130Y017177D01*
X004130Y017275D02*
X009094Y017275D01*
X009193Y017374D02*
X004130Y017374D01*
X004130Y017472D02*
X009291Y017472D01*
X009819Y017472D02*
X010291Y017472D01*
X010193Y017374D02*
X009917Y017374D01*
X010016Y017275D02*
X010094Y017275D01*
X010819Y017472D02*
X013560Y017472D01*
X013560Y017374D02*
X010917Y017374D01*
X011016Y017275D02*
X013560Y017275D01*
X013560Y017177D02*
X011105Y017177D01*
X011105Y017078D02*
X013560Y017078D01*
X013657Y016980D02*
X011105Y016980D01*
X011105Y016881D02*
X012851Y016881D01*
X012753Y016783D02*
X011105Y016783D01*
X011059Y016684D02*
X012654Y016684D01*
X012560Y016586D02*
X010960Y016586D01*
X010862Y016487D02*
X012560Y016487D01*
X013509Y016881D02*
X013755Y016881D01*
X013753Y016783D02*
X013607Y016783D01*
X013560Y017571D02*
X004130Y017571D01*
X004130Y017669D02*
X013639Y017669D01*
X013738Y017768D02*
X013491Y017768D01*
X013590Y017866D02*
X013770Y017866D01*
X014590Y017866D02*
X024215Y017866D01*
X024215Y017953D02*
X024215Y017464D01*
X024561Y017118D01*
X025049Y017118D01*
X025305Y017374D01*
X025561Y017118D01*
X026049Y017118D01*
X026305Y017374D01*
X026561Y017118D01*
X027049Y017118D01*
X027289Y017358D01*
X028500Y017358D01*
X028628Y017412D01*
X030128Y018912D01*
X030227Y019010D01*
X030280Y019139D01*
X030280Y020806D01*
X030550Y021076D01*
X030550Y021590D01*
X030187Y021953D01*
X029673Y021953D01*
X029430Y021710D01*
X029187Y021953D01*
X028673Y021953D01*
X028430Y021710D01*
X028187Y021953D01*
X027673Y021953D01*
X027430Y021710D01*
X027187Y021953D01*
X026673Y021953D01*
X026310Y021590D01*
X026310Y021076D01*
X026673Y020713D01*
X027187Y020713D01*
X027430Y020956D01*
X027580Y020806D01*
X027580Y019853D01*
X026995Y019268D01*
X026922Y019298D01*
X026688Y019298D01*
X026471Y019208D01*
X026305Y019043D01*
X026049Y019298D01*
X025561Y019298D01*
X025305Y019043D01*
X025049Y019298D01*
X024561Y019298D01*
X024215Y018953D01*
X024215Y018464D01*
X024471Y018208D01*
X024215Y017953D01*
X024227Y017965D02*
X014688Y017965D01*
X014787Y018063D02*
X024326Y018063D01*
X024424Y018162D02*
X014800Y018162D01*
X014800Y018260D02*
X024419Y018260D01*
X024320Y018359D02*
X014800Y018359D01*
X014800Y018457D02*
X024222Y018457D01*
X024215Y018556D02*
X014800Y018556D01*
X014736Y018654D02*
X024215Y018654D01*
X024215Y018753D02*
X014637Y018753D01*
X014575Y018851D02*
X024215Y018851D01*
X024215Y018950D02*
X014673Y018950D01*
X014772Y019048D02*
X024311Y019048D01*
X024409Y019147D02*
X014800Y019147D01*
X014800Y019245D02*
X024508Y019245D01*
X025102Y019245D02*
X025508Y019245D01*
X025409Y019147D02*
X025201Y019147D01*
X025299Y019048D02*
X025311Y019048D01*
X026102Y019245D02*
X026560Y019245D01*
X026409Y019147D02*
X026201Y019147D01*
X026299Y019048D02*
X026311Y019048D01*
X027071Y019344D02*
X014800Y019344D01*
X014800Y019442D02*
X027169Y019442D01*
X027268Y019541D02*
X014800Y019541D01*
X014751Y019639D02*
X027366Y019639D01*
X027465Y019738D02*
X014652Y019738D01*
X014560Y019836D02*
X027563Y019836D01*
X027580Y019935D02*
X014658Y019935D01*
X014757Y020033D02*
X027580Y020033D01*
X027580Y020132D02*
X014800Y020132D01*
X014800Y020230D02*
X027580Y020230D01*
X027580Y020329D02*
X014800Y020329D01*
X014800Y020427D02*
X027580Y020427D01*
X027580Y020526D02*
X014800Y020526D01*
X014766Y020624D02*
X027580Y020624D01*
X027580Y020723D02*
X027196Y020723D01*
X027295Y020821D02*
X027565Y020821D01*
X027467Y020920D02*
X027393Y020920D01*
X026664Y020723D02*
X025196Y020723D01*
X025187Y020713D02*
X025550Y021076D01*
X025550Y021590D01*
X025187Y021953D01*
X024673Y021953D01*
X024463Y021743D01*
X023100Y021743D01*
X015278Y029566D01*
X015162Y029681D01*
X015012Y029743D01*
X011856Y029743D01*
X011783Y029816D01*
X011742Y029833D01*
X011783Y029850D01*
X011943Y030010D01*
X012030Y030220D01*
X012030Y030447D01*
X011943Y030656D01*
X011783Y030816D01*
X011742Y030833D01*
X011783Y030850D01*
X011856Y030923D01*
X014135Y030923D01*
X016823Y028236D01*
X016973Y028173D01*
X023760Y028173D01*
X024520Y027413D01*
X024520Y026800D01*
X024310Y026590D01*
X024310Y026076D01*
X024673Y025713D01*
X025187Y025713D01*
X025550Y026076D01*
X025550Y026590D01*
X025340Y026800D01*
X025340Y027665D01*
X025278Y027816D01*
X024278Y028816D01*
X024162Y028931D01*
X024012Y028993D01*
X017225Y028993D01*
X016300Y029918D01*
X016705Y029918D01*
X017095Y030308D01*
X017095Y030859D01*
X016705Y031248D01*
X016155Y031248D01*
X015765Y030859D01*
X015765Y030453D01*
X014653Y031566D01*
X014537Y031681D01*
X014387Y031743D01*
X011856Y031743D01*
X011783Y031816D01*
X011573Y031903D01*
X010787Y031903D01*
X010577Y031816D01*
X010417Y031656D01*
X010330Y031447D01*
X010330Y031220D01*
X010417Y031010D01*
X010577Y030850D01*
X010618Y030833D01*
X010577Y030816D01*
X010417Y030656D01*
X010330Y030447D01*
X010330Y030220D01*
X010417Y030010D01*
X010577Y029850D01*
X010618Y029833D01*
X010577Y029816D01*
X010452Y029691D01*
X010345Y029647D01*
X010241Y029543D01*
X009991Y029293D01*
X009935Y029157D01*
X009935Y026399D01*
X007902Y024366D01*
X007548Y024366D01*
X007185Y024002D01*
X007185Y023489D01*
X007322Y023352D01*
X007185Y023215D01*
X007185Y022701D01*
X007548Y022338D01*
X008062Y022338D01*
X008169Y022446D01*
X008169Y022308D01*
X008532Y021945D01*
X009046Y021945D01*
X009409Y022308D01*
X009409Y022821D01*
X009272Y022958D01*
X009409Y023095D01*
X009409Y023609D01*
X009046Y023972D01*
X008555Y023972D01*
X010515Y025932D01*
X010619Y026036D01*
X010675Y026172D01*
X010675Y028810D01*
X010787Y028763D01*
X011573Y028763D01*
X011783Y028850D01*
X011856Y028923D01*
X014760Y028923D01*
X022698Y020986D01*
X022848Y020923D01*
X024463Y020923D01*
X024673Y020713D01*
X025187Y020713D01*
X025295Y020821D02*
X026565Y020821D01*
X026467Y020920D02*
X025393Y020920D01*
X025492Y021018D02*
X026368Y021018D01*
X026310Y021117D02*
X025550Y021117D01*
X025550Y021215D02*
X026310Y021215D01*
X026310Y021314D02*
X025550Y021314D01*
X025550Y021412D02*
X026310Y021412D01*
X026310Y021511D02*
X025550Y021511D01*
X025531Y021609D02*
X026329Y021609D01*
X026428Y021708D02*
X025432Y021708D01*
X025334Y021806D02*
X026526Y021806D01*
X026625Y021905D02*
X025235Y021905D01*
X024625Y021905D02*
X022938Y021905D01*
X022840Y022003D02*
X032633Y022003D01*
X032560Y022102D02*
X022741Y022102D01*
X022643Y022200D02*
X032560Y022200D01*
X032560Y022299D02*
X022544Y022299D01*
X022446Y022397D02*
X032560Y022397D01*
X032560Y022496D02*
X022347Y022496D01*
X022249Y022594D02*
X032564Y022594D01*
X032663Y022693D02*
X022150Y022693D01*
X022052Y022791D02*
X032761Y022791D01*
X032747Y022890D02*
X021953Y022890D01*
X021855Y022988D02*
X032648Y022988D01*
X032560Y023087D02*
X021756Y023087D01*
X021658Y023185D02*
X032560Y023185D01*
X032560Y023284D02*
X021559Y023284D01*
X021461Y023382D02*
X032560Y023382D01*
X032560Y023481D02*
X021362Y023481D01*
X021264Y023579D02*
X032560Y023579D01*
X032648Y023678D02*
X021165Y023678D01*
X021067Y023776D02*
X032746Y023776D01*
X032762Y023875D02*
X020968Y023875D01*
X020870Y023973D02*
X032663Y023973D01*
X032565Y024072D02*
X020771Y024072D01*
X020673Y024170D02*
X032560Y024170D01*
X032560Y024269D02*
X020574Y024269D01*
X020476Y024367D02*
X032560Y024367D01*
X032560Y024466D02*
X020377Y024466D01*
X020279Y024564D02*
X032560Y024564D01*
X032633Y024663D02*
X027380Y024663D01*
X027478Y024761D02*
X032731Y024761D01*
X032777Y024860D02*
X027577Y024860D01*
X027675Y024958D02*
X032678Y024958D01*
X032580Y025057D02*
X027774Y025057D01*
X027872Y025155D02*
X032560Y025155D01*
X032560Y025254D02*
X027971Y025254D01*
X028069Y025352D02*
X032560Y025352D01*
X032560Y025451D02*
X028168Y025451D01*
X028243Y025549D02*
X032560Y025549D01*
X032618Y025648D02*
X028280Y025648D01*
X028280Y025746D02*
X028640Y025746D01*
X028542Y025845D02*
X028318Y025845D01*
X028417Y025943D02*
X028443Y025943D01*
X028430Y026710D02*
X028280Y026860D01*
X028280Y029063D01*
X029200Y029983D01*
X034750Y029983D01*
X034878Y030037D01*
X037825Y032983D01*
X037882Y032983D01*
X037963Y032902D01*
X037826Y032765D01*
X037826Y032252D01*
X038189Y031888D01*
X038542Y031888D01*
X038557Y031874D01*
X038661Y031770D01*
X038797Y031713D01*
X038955Y031713D01*
X039173Y031495D01*
X039687Y031495D01*
X039905Y031713D01*
X041152Y031713D01*
X041310Y031555D01*
X041310Y023737D01*
X041114Y023541D01*
X039937Y023541D01*
X039913Y023565D01*
X040050Y023701D01*
X040050Y024215D01*
X039687Y024578D01*
X039173Y024578D01*
X039066Y024471D01*
X039066Y024609D01*
X038703Y024972D01*
X038189Y024972D01*
X037988Y024771D01*
X037905Y024853D01*
X037905Y026813D01*
X038227Y027135D01*
X038280Y027264D01*
X038280Y027849D01*
X038430Y027999D01*
X038686Y027743D01*
X039174Y027743D01*
X039520Y028089D01*
X039520Y028578D01*
X039264Y028833D01*
X039520Y029089D01*
X039520Y029578D01*
X039174Y029923D01*
X038686Y029923D01*
X038430Y029668D01*
X038174Y029923D01*
X037774Y029923D01*
X037750Y029933D01*
X029735Y029933D01*
X029607Y029880D01*
X028633Y028907D01*
X028580Y028778D01*
X028580Y026860D01*
X028430Y026710D01*
X028409Y026731D02*
X028451Y026731D01*
X028550Y026830D02*
X028310Y026830D01*
X028280Y026928D02*
X028580Y026928D01*
X028580Y027027D02*
X028280Y027027D01*
X028280Y027125D02*
X028580Y027125D01*
X028580Y027224D02*
X028280Y027224D01*
X028280Y027322D02*
X028580Y027322D01*
X028580Y027421D02*
X028280Y027421D01*
X028280Y027519D02*
X028580Y027519D01*
X028580Y027618D02*
X028280Y027618D01*
X028280Y027716D02*
X028580Y027716D01*
X028580Y027815D02*
X028280Y027815D01*
X028280Y027913D02*
X028580Y027913D01*
X028580Y028012D02*
X028280Y028012D01*
X028280Y028110D02*
X028580Y028110D01*
X028580Y028209D02*
X028280Y028209D01*
X028280Y028307D02*
X028580Y028307D01*
X028580Y028406D02*
X028280Y028406D01*
X028280Y028504D02*
X028580Y028504D01*
X028580Y028603D02*
X028280Y028603D01*
X028280Y028701D02*
X028580Y028701D01*
X028589Y028800D02*
X028280Y028800D01*
X028280Y028898D02*
X028630Y028898D01*
X028724Y028997D02*
X028280Y028997D01*
X028312Y029095D02*
X028822Y029095D01*
X028921Y029194D02*
X028411Y029194D01*
X028509Y029292D02*
X029019Y029292D01*
X029118Y029391D02*
X028608Y029391D01*
X028706Y029489D02*
X029216Y029489D01*
X029315Y029588D02*
X028805Y029588D01*
X028903Y029686D02*
X029413Y029686D01*
X029512Y029785D02*
X029002Y029785D01*
X029100Y029883D02*
X029615Y029883D01*
X029199Y029982D02*
X039953Y029982D01*
X039858Y030022D02*
X040168Y029893D01*
X040503Y029893D01*
X040813Y030022D01*
X041051Y030259D01*
X041179Y030569D01*
X041179Y030905D01*
X041051Y031215D01*
X040813Y031452D01*
X040503Y031581D01*
X040168Y031581D01*
X039858Y031452D01*
X039620Y031215D01*
X039492Y030905D01*
X039492Y030569D01*
X039620Y030259D01*
X039858Y030022D01*
X039799Y030080D02*
X034922Y030080D01*
X035021Y030179D02*
X039700Y030179D01*
X039613Y030277D02*
X035119Y030277D01*
X035218Y030376D02*
X039572Y030376D01*
X039531Y030474D02*
X035316Y030474D01*
X035415Y030573D02*
X039492Y030573D01*
X039492Y030671D02*
X035513Y030671D01*
X035612Y030770D02*
X039492Y030770D01*
X039492Y030868D02*
X035710Y030868D01*
X035809Y030967D02*
X039518Y030967D01*
X039558Y031065D02*
X035907Y031065D01*
X036006Y031164D02*
X039599Y031164D01*
X039668Y031262D02*
X036104Y031262D01*
X036203Y031361D02*
X039766Y031361D01*
X039875Y031459D02*
X036301Y031459D01*
X036400Y031558D02*
X039110Y031558D01*
X039012Y031656D02*
X036498Y031656D01*
X036597Y031755D02*
X038697Y031755D01*
X038578Y031853D02*
X036695Y031853D01*
X036794Y031952D02*
X038126Y031952D01*
X038027Y032050D02*
X036892Y032050D01*
X036991Y032149D02*
X037929Y032149D01*
X037830Y032247D02*
X037089Y032247D01*
X037188Y032346D02*
X037826Y032346D01*
X037826Y032444D02*
X037286Y032444D01*
X037385Y032543D02*
X037826Y032543D01*
X037826Y032641D02*
X037483Y032641D01*
X037582Y032740D02*
X037826Y032740D01*
X037899Y032838D02*
X037680Y032838D01*
X037779Y032937D02*
X037928Y032937D01*
X037998Y033725D02*
X033915Y033725D01*
X033817Y033823D02*
X038096Y033823D01*
X037478Y033626D02*
X034014Y033626D01*
X034050Y033590D02*
X033687Y033953D01*
X033173Y033953D01*
X032810Y033590D01*
X032810Y033076D01*
X033173Y032713D01*
X033687Y032713D01*
X034050Y033076D01*
X034050Y033590D01*
X034050Y033528D02*
X037380Y033528D01*
X037281Y033429D02*
X034050Y033429D01*
X034050Y033331D02*
X037183Y033331D01*
X037084Y033232D02*
X034050Y033232D01*
X034050Y033134D02*
X036986Y033134D01*
X036887Y033035D02*
X034009Y033035D01*
X033910Y032937D02*
X036789Y032937D01*
X036690Y032838D02*
X033812Y032838D01*
X033713Y032740D02*
X036592Y032740D01*
X036493Y032641D02*
X032695Y032641D01*
X032706Y032652D02*
X032800Y032880D01*
X032800Y033787D01*
X032706Y034014D01*
X032531Y034189D01*
X032303Y034283D01*
X032057Y034283D01*
X031829Y034189D01*
X031680Y034040D01*
X031531Y034189D01*
X031303Y034283D01*
X031057Y034283D01*
X030829Y034189D01*
X030680Y034040D01*
X030531Y034189D01*
X030303Y034283D01*
X030057Y034283D01*
X029829Y034189D01*
X029654Y034014D01*
X029560Y033787D01*
X029560Y032880D01*
X029654Y032652D01*
X029829Y032478D01*
X030057Y032383D01*
X030303Y032383D01*
X030531Y032478D01*
X030680Y032626D01*
X030829Y032478D01*
X031057Y032383D01*
X031303Y032383D01*
X031531Y032478D01*
X031680Y032626D01*
X031829Y032478D01*
X032057Y032383D01*
X032303Y032383D01*
X032531Y032478D01*
X032706Y032652D01*
X032742Y032740D02*
X033147Y032740D01*
X033048Y032838D02*
X032783Y032838D01*
X032800Y032937D02*
X032950Y032937D01*
X032851Y033035D02*
X032800Y033035D01*
X032800Y033134D02*
X032810Y033134D01*
X032800Y033232D02*
X032810Y033232D01*
X032800Y033331D02*
X032810Y033331D01*
X032800Y033429D02*
X032810Y033429D01*
X032800Y033528D02*
X032810Y033528D01*
X032800Y033626D02*
X032846Y033626D01*
X032800Y033725D02*
X032945Y033725D01*
X033043Y033823D02*
X032785Y033823D01*
X032744Y033922D02*
X033142Y033922D01*
X032700Y034020D02*
X038884Y034020D01*
X038810Y033922D02*
X033718Y033922D01*
X032601Y034119D02*
X038982Y034119D01*
X039081Y034217D02*
X032462Y034217D01*
X031898Y034217D02*
X031462Y034217D01*
X031601Y034119D02*
X031759Y034119D01*
X030898Y034217D02*
X030462Y034217D01*
X030601Y034119D02*
X030759Y034119D01*
X029898Y034217D02*
X024962Y034217D01*
X025031Y034189D02*
X024803Y034283D01*
X024557Y034283D01*
X024329Y034189D01*
X024180Y034040D01*
X024031Y034189D01*
X023803Y034283D01*
X023557Y034283D01*
X023329Y034189D01*
X023180Y034040D01*
X023031Y034189D01*
X022803Y034283D01*
X022557Y034283D01*
X022329Y034189D01*
X022154Y034014D01*
X022060Y033787D01*
X022060Y032880D01*
X022154Y032652D01*
X022329Y032478D01*
X022557Y032383D01*
X022803Y032383D01*
X023031Y032478D01*
X023180Y032626D01*
X023329Y032478D01*
X023413Y032443D01*
X023060Y032090D01*
X023060Y031576D01*
X023423Y031213D01*
X023937Y031213D01*
X024180Y031456D01*
X024423Y031213D01*
X024937Y031213D01*
X025300Y031576D01*
X025300Y032090D01*
X024947Y032443D01*
X025031Y032478D01*
X025206Y032652D01*
X025300Y032880D01*
X025300Y033787D01*
X025206Y034014D01*
X025031Y034189D01*
X025101Y034119D02*
X029759Y034119D01*
X029660Y034020D02*
X025200Y034020D01*
X025244Y033922D02*
X029616Y033922D01*
X029575Y033823D02*
X025285Y033823D01*
X025300Y033725D02*
X029560Y033725D01*
X029560Y033626D02*
X025300Y033626D01*
X025300Y033528D02*
X029560Y033528D01*
X029560Y033429D02*
X025300Y033429D01*
X025300Y033331D02*
X029560Y033331D01*
X029560Y033232D02*
X025300Y033232D01*
X025300Y033134D02*
X029560Y033134D01*
X029560Y033035D02*
X025300Y033035D01*
X025300Y032937D02*
X029560Y032937D01*
X029577Y032838D02*
X025283Y032838D01*
X025242Y032740D02*
X029618Y032740D01*
X029665Y032641D02*
X025195Y032641D01*
X025096Y032543D02*
X029764Y032543D01*
X029909Y032444D02*
X027946Y032444D01*
X027937Y032453D02*
X027423Y032453D01*
X027060Y032090D01*
X027060Y031576D01*
X027423Y031213D01*
X027937Y031213D01*
X028300Y031576D01*
X028300Y032090D01*
X027937Y032453D01*
X028044Y032346D02*
X036198Y032346D01*
X036296Y032444D02*
X032451Y032444D01*
X032596Y032543D02*
X036395Y032543D01*
X036099Y032247D02*
X028143Y032247D01*
X028241Y032149D02*
X036001Y032149D01*
X035902Y032050D02*
X028300Y032050D01*
X028300Y031952D02*
X035804Y031952D01*
X035705Y031853D02*
X028300Y031853D01*
X028300Y031755D02*
X035607Y031755D01*
X035508Y031656D02*
X028300Y031656D01*
X028281Y031558D02*
X035410Y031558D01*
X035311Y031459D02*
X028183Y031459D01*
X028084Y031361D02*
X035213Y031361D01*
X035114Y031262D02*
X027986Y031262D01*
X027374Y031262D02*
X024986Y031262D01*
X025084Y031361D02*
X027276Y031361D01*
X027177Y031459D02*
X025183Y031459D01*
X025281Y031558D02*
X027079Y031558D01*
X027060Y031656D02*
X025300Y031656D01*
X025300Y031755D02*
X027060Y031755D01*
X027060Y031853D02*
X025300Y031853D01*
X025300Y031952D02*
X027060Y031952D01*
X027060Y032050D02*
X025300Y032050D01*
X025241Y032149D02*
X027119Y032149D01*
X027217Y032247D02*
X025143Y032247D01*
X025044Y032346D02*
X027316Y032346D01*
X027414Y032444D02*
X024951Y032444D01*
X024276Y031361D02*
X024084Y031361D01*
X023986Y031262D02*
X024374Y031262D01*
X023374Y031262D02*
X014956Y031262D01*
X015054Y031164D02*
X016070Y031164D01*
X015972Y031065D02*
X015153Y031065D01*
X015251Y030967D02*
X015873Y030967D01*
X015775Y030868D02*
X015350Y030868D01*
X015448Y030770D02*
X015765Y030770D01*
X015765Y030671D02*
X015547Y030671D01*
X015645Y030573D02*
X015765Y030573D01*
X015765Y030474D02*
X015744Y030474D01*
X015175Y029883D02*
X011816Y029883D01*
X011815Y029785D02*
X015274Y029785D01*
X015372Y029686D02*
X015149Y029686D01*
X015255Y029588D02*
X015471Y029588D01*
X015569Y029489D02*
X015354Y029489D01*
X015452Y029391D02*
X015668Y029391D01*
X015766Y029292D02*
X015551Y029292D01*
X015649Y029194D02*
X015865Y029194D01*
X015963Y029095D02*
X015748Y029095D01*
X015846Y028997D02*
X016062Y028997D01*
X016160Y028898D02*
X015945Y028898D01*
X016043Y028800D02*
X016259Y028800D01*
X016357Y028701D02*
X016142Y028701D01*
X016240Y028603D02*
X016456Y028603D01*
X016554Y028504D02*
X016339Y028504D01*
X016437Y028406D02*
X016653Y028406D01*
X016751Y028307D02*
X016536Y028307D01*
X016634Y028209D02*
X016888Y028209D01*
X016733Y028110D02*
X023823Y028110D01*
X023922Y028012D02*
X016831Y028012D01*
X016930Y027913D02*
X024020Y027913D01*
X024119Y027815D02*
X017028Y027815D01*
X017127Y027716D02*
X024217Y027716D01*
X024316Y027618D02*
X017225Y027618D01*
X017324Y027519D02*
X020989Y027519D01*
X020891Y027421D02*
X017422Y027421D01*
X017521Y027322D02*
X020792Y027322D01*
X020694Y027224D02*
X017619Y027224D01*
X017718Y027125D02*
X020685Y027125D01*
X020685Y027027D02*
X017816Y027027D01*
X017915Y026928D02*
X020685Y026928D01*
X020685Y026830D02*
X018013Y026830D01*
X018112Y026731D02*
X020685Y026731D01*
X020754Y026633D02*
X018210Y026633D01*
X018309Y026534D02*
X020852Y026534D01*
X020951Y026436D02*
X018407Y026436D01*
X018506Y026337D02*
X020932Y026337D01*
X020834Y026239D02*
X018604Y026239D01*
X018703Y026140D02*
X020735Y026140D01*
X020685Y026042D02*
X018801Y026042D01*
X018900Y025943D02*
X020685Y025943D01*
X020685Y025845D02*
X018998Y025845D01*
X019097Y025746D02*
X020685Y025746D01*
X020685Y025648D02*
X019195Y025648D01*
X019294Y025549D02*
X020712Y025549D01*
X020811Y025451D02*
X019392Y025451D01*
X019491Y025352D02*
X020909Y025352D01*
X021008Y025254D02*
X019589Y025254D01*
X019688Y025155D02*
X021488Y025155D01*
X021586Y025057D02*
X019786Y025057D01*
X019885Y024958D02*
X021685Y024958D01*
X021783Y024860D02*
X019983Y024860D01*
X020082Y024761D02*
X021882Y024761D01*
X021980Y024663D02*
X020180Y024663D01*
X019612Y024072D02*
X014795Y024072D01*
X014800Y024170D02*
X019513Y024170D01*
X019415Y024269D02*
X014800Y024269D01*
X014800Y024367D02*
X019316Y024367D01*
X019218Y024466D02*
X014800Y024466D01*
X014800Y024564D02*
X019119Y024564D01*
X019021Y024663D02*
X014727Y024663D01*
X014629Y024761D02*
X018922Y024761D01*
X018824Y024860D02*
X014583Y024860D01*
X014682Y024958D02*
X018725Y024958D01*
X018627Y025057D02*
X014780Y025057D01*
X014800Y025155D02*
X018528Y025155D01*
X018430Y025254D02*
X014800Y025254D01*
X014800Y025352D02*
X018331Y025352D01*
X018233Y025451D02*
X014800Y025451D01*
X014800Y025549D02*
X018134Y025549D01*
X018036Y025648D02*
X014742Y025648D01*
X014644Y025746D02*
X017937Y025746D01*
X017839Y025845D02*
X014568Y025845D01*
X014667Y025943D02*
X017740Y025943D01*
X017642Y026042D02*
X014765Y026042D01*
X014800Y026140D02*
X017543Y026140D01*
X017445Y026239D02*
X014800Y026239D01*
X014800Y026337D02*
X017346Y026337D01*
X017248Y026436D02*
X014800Y026436D01*
X014800Y026534D02*
X017149Y026534D01*
X017051Y026633D02*
X014757Y026633D01*
X014659Y026731D02*
X016952Y026731D01*
X016854Y026830D02*
X014560Y026830D01*
X014652Y026928D02*
X016755Y026928D01*
X016657Y027027D02*
X014750Y027027D01*
X014800Y027125D02*
X016558Y027125D01*
X016460Y027224D02*
X014800Y027224D01*
X014800Y027322D02*
X016361Y027322D01*
X016263Y027421D02*
X014800Y027421D01*
X014800Y027519D02*
X016164Y027519D01*
X016066Y027618D02*
X014772Y027618D01*
X014674Y027716D02*
X015967Y027716D01*
X015869Y027815D02*
X014575Y027815D01*
X014477Y027913D02*
X015770Y027913D01*
X015672Y028012D02*
X010675Y028012D01*
X010675Y028110D02*
X015573Y028110D01*
X015475Y028209D02*
X010675Y028209D01*
X010675Y028307D02*
X015376Y028307D01*
X015278Y028406D02*
X010675Y028406D01*
X010675Y028504D02*
X015179Y028504D01*
X015081Y028603D02*
X010675Y028603D01*
X010675Y028701D02*
X014982Y028701D01*
X014884Y028800D02*
X011662Y028800D01*
X011831Y028898D02*
X014785Y028898D01*
X015077Y029982D02*
X011915Y029982D01*
X011972Y030080D02*
X014978Y030080D01*
X014880Y030179D02*
X012013Y030179D01*
X012030Y030277D02*
X014781Y030277D01*
X014683Y030376D02*
X012030Y030376D01*
X012019Y030474D02*
X014584Y030474D01*
X014486Y030573D02*
X011978Y030573D01*
X011928Y030671D02*
X014387Y030671D01*
X014289Y030770D02*
X011830Y030770D01*
X011801Y030868D02*
X014190Y030868D01*
X014759Y031459D02*
X017278Y031459D01*
X017364Y031373D02*
X017618Y031268D01*
X017892Y031268D01*
X018146Y031373D01*
X018340Y031567D01*
X018445Y031821D01*
X018445Y032096D01*
X018340Y032349D01*
X018146Y032543D01*
X018060Y032579D01*
X018180Y032699D01*
X018270Y032916D01*
X018270Y033751D01*
X018180Y033967D01*
X018014Y034133D01*
X017797Y034223D01*
X017563Y034223D01*
X017346Y034133D01*
X017180Y033967D01*
X017090Y033751D01*
X017090Y032916D01*
X017180Y032699D01*
X017346Y032533D01*
X017352Y032531D01*
X017170Y032349D01*
X017065Y032096D01*
X017065Y031821D01*
X017170Y031567D01*
X017364Y031373D01*
X017394Y031361D02*
X014857Y031361D01*
X014660Y031558D02*
X017180Y031558D01*
X017133Y031656D02*
X014562Y031656D01*
X015346Y032533D02*
X015180Y032699D01*
X015090Y032916D01*
X015090Y033751D01*
X015180Y033967D01*
X015346Y034133D01*
X015563Y034223D01*
X015797Y034223D01*
X016014Y034133D01*
X016180Y033967D01*
X016270Y033751D01*
X016270Y032916D01*
X016180Y032699D01*
X016014Y032533D01*
X015797Y032443D01*
X015563Y032443D01*
X015346Y032533D01*
X015336Y032543D02*
X011766Y032543D01*
X011800Y032576D02*
X011437Y032213D01*
X010923Y032213D01*
X010560Y032576D01*
X010560Y033090D01*
X010923Y033453D01*
X011437Y033453D01*
X011800Y033090D01*
X011800Y032576D01*
X011800Y032641D02*
X015238Y032641D01*
X015163Y032740D02*
X011800Y032740D01*
X011800Y032838D02*
X015122Y032838D01*
X015090Y032937D02*
X011800Y032937D01*
X011800Y033035D02*
X015090Y033035D01*
X015090Y033134D02*
X011756Y033134D01*
X011658Y033232D02*
X015090Y033232D01*
X015090Y033331D02*
X011559Y033331D01*
X011461Y033429D02*
X015090Y033429D01*
X015090Y033528D02*
X004130Y033528D01*
X004130Y033626D02*
X015090Y033626D01*
X015090Y033725D02*
X004130Y033725D01*
X004130Y033823D02*
X015120Y033823D01*
X015161Y033922D02*
X007770Y033922D01*
X007687Y033838D02*
X008050Y034201D01*
X008050Y034715D01*
X007687Y035078D01*
X007173Y035078D01*
X006810Y034715D01*
X006810Y034201D01*
X007173Y033838D01*
X007687Y033838D01*
X007869Y034020D02*
X015233Y034020D01*
X015331Y034119D02*
X007967Y034119D01*
X008050Y034217D02*
X015548Y034217D01*
X015812Y034217D02*
X017548Y034217D01*
X017331Y034119D02*
X016029Y034119D01*
X016127Y034020D02*
X017233Y034020D01*
X017161Y033922D02*
X016199Y033922D01*
X016240Y033823D02*
X017120Y033823D01*
X017090Y033725D02*
X016270Y033725D01*
X016270Y033626D02*
X017090Y033626D01*
X017090Y033528D02*
X016270Y033528D01*
X016270Y033429D02*
X017090Y033429D01*
X017090Y033331D02*
X016270Y033331D01*
X016270Y033232D02*
X017090Y033232D01*
X017090Y033134D02*
X016270Y033134D01*
X016270Y033035D02*
X017090Y033035D01*
X017090Y032937D02*
X016270Y032937D01*
X016238Y032838D02*
X017122Y032838D01*
X017163Y032740D02*
X016197Y032740D01*
X016122Y032641D02*
X017238Y032641D01*
X017336Y032543D02*
X016024Y032543D01*
X015800Y032444D02*
X017265Y032444D01*
X017169Y032346D02*
X011569Y032346D01*
X011471Y032247D02*
X017128Y032247D01*
X017087Y032149D02*
X007647Y032149D01*
X007615Y032227D02*
X007377Y032464D01*
X007067Y032592D01*
X006732Y032592D01*
X006422Y032464D01*
X006184Y032227D01*
X006056Y031916D01*
X006056Y031581D01*
X006184Y031271D01*
X006422Y031033D01*
X006732Y030905D01*
X007067Y030905D01*
X007377Y031033D01*
X007615Y031271D01*
X007743Y031581D01*
X007743Y031916D01*
X007615Y032227D01*
X007594Y032247D02*
X007889Y032247D01*
X007923Y032213D02*
X008437Y032213D01*
X008800Y032576D01*
X008800Y033090D01*
X008437Y033453D01*
X007923Y033453D01*
X007560Y033090D01*
X007560Y032576D01*
X007923Y032213D01*
X007791Y032346D02*
X007495Y032346D01*
X007397Y032444D02*
X007692Y032444D01*
X007594Y032543D02*
X007187Y032543D01*
X007560Y032641D02*
X004130Y032641D01*
X004130Y032543D02*
X006612Y032543D01*
X006402Y032444D02*
X004130Y032444D01*
X004130Y032346D02*
X006304Y032346D01*
X006205Y032247D02*
X004130Y032247D01*
X004130Y032149D02*
X006152Y032149D01*
X006111Y032050D02*
X004130Y032050D01*
X004130Y031952D02*
X006070Y031952D01*
X006056Y031853D02*
X004130Y031853D01*
X004130Y031755D02*
X006056Y031755D01*
X006056Y031656D02*
X004130Y031656D01*
X004130Y031558D02*
X006065Y031558D01*
X006106Y031459D02*
X004130Y031459D01*
X004130Y031361D02*
X006147Y031361D01*
X006193Y031262D02*
X004130Y031262D01*
X004130Y031164D02*
X006291Y031164D01*
X006390Y031065D02*
X004130Y031065D01*
X004130Y030967D02*
X006582Y030967D01*
X007217Y030967D02*
X007524Y030967D01*
X007548Y030991D02*
X007185Y030627D01*
X007185Y030114D01*
X007322Y029977D01*
X007185Y029840D01*
X007185Y029326D01*
X007548Y028963D01*
X008062Y028963D01*
X008169Y029071D01*
X008169Y028933D01*
X008532Y028570D01*
X009046Y028570D01*
X009409Y028933D01*
X009409Y029446D01*
X009272Y029583D01*
X009409Y029720D01*
X009409Y030234D01*
X009046Y030597D01*
X008532Y030597D01*
X008425Y030490D01*
X008425Y030627D01*
X008062Y030991D01*
X007548Y030991D01*
X007409Y031065D02*
X010394Y031065D01*
X010353Y031164D02*
X007508Y031164D01*
X007606Y031262D02*
X010330Y031262D01*
X010330Y031361D02*
X007652Y031361D01*
X007693Y031459D02*
X010335Y031459D01*
X010376Y031558D02*
X007734Y031558D01*
X007743Y031656D02*
X010417Y031656D01*
X010515Y031755D02*
X007743Y031755D01*
X007743Y031853D02*
X010666Y031853D01*
X010889Y032247D02*
X008471Y032247D01*
X008569Y032346D02*
X010791Y032346D01*
X010692Y032444D02*
X008668Y032444D01*
X008766Y032543D02*
X010594Y032543D01*
X010560Y032641D02*
X008800Y032641D01*
X008800Y032740D02*
X010560Y032740D01*
X010560Y032838D02*
X008800Y032838D01*
X008800Y032937D02*
X010560Y032937D01*
X010560Y033035D02*
X008800Y033035D01*
X008756Y033134D02*
X010604Y033134D01*
X010702Y033232D02*
X008658Y033232D01*
X008559Y033331D02*
X010801Y033331D01*
X010899Y033429D02*
X008461Y033429D01*
X007899Y033429D02*
X004130Y033429D01*
X004130Y033331D02*
X007801Y033331D01*
X007702Y033232D02*
X004130Y033232D01*
X004130Y033134D02*
X007604Y033134D01*
X007560Y033035D02*
X004130Y033035D01*
X004130Y032937D02*
X007560Y032937D01*
X007560Y032838D02*
X004130Y032838D01*
X004130Y032740D02*
X007560Y032740D01*
X007688Y032050D02*
X017065Y032050D01*
X017065Y031952D02*
X007729Y031952D01*
X008086Y030967D02*
X010460Y030967D01*
X010559Y030868D02*
X008184Y030868D01*
X008283Y030770D02*
X010530Y030770D01*
X010432Y030671D02*
X008381Y030671D01*
X008425Y030573D02*
X008508Y030573D01*
X009070Y030573D02*
X010382Y030573D01*
X010341Y030474D02*
X009169Y030474D01*
X009267Y030376D02*
X010330Y030376D01*
X010330Y030277D02*
X009366Y030277D01*
X009409Y030179D02*
X010347Y030179D01*
X010388Y030080D02*
X009409Y030080D01*
X009409Y029982D02*
X010445Y029982D01*
X010544Y029883D02*
X009409Y029883D01*
X009409Y029785D02*
X010545Y029785D01*
X010441Y029686D02*
X009375Y029686D01*
X009277Y029588D02*
X010286Y029588D01*
X010188Y029489D02*
X009366Y029489D01*
X009409Y029391D02*
X010089Y029391D01*
X009991Y029292D02*
X009409Y029292D01*
X009409Y029194D02*
X009950Y029194D01*
X009935Y029095D02*
X009409Y029095D01*
X009409Y028997D02*
X009935Y028997D01*
X009935Y028898D02*
X009375Y028898D01*
X009276Y028800D02*
X009935Y028800D01*
X009935Y028701D02*
X009178Y028701D01*
X009079Y028603D02*
X009935Y028603D01*
X009935Y028504D02*
X004130Y028504D01*
X004130Y028406D02*
X009935Y028406D01*
X009935Y028307D02*
X004130Y028307D01*
X004130Y028209D02*
X009935Y028209D01*
X009935Y028110D02*
X004130Y028110D01*
X004130Y028012D02*
X009935Y028012D01*
X009935Y027913D02*
X004130Y027913D01*
X004130Y027815D02*
X006604Y027815D01*
X006732Y027868D02*
X006422Y027739D01*
X006184Y027502D01*
X006056Y027192D01*
X006056Y026856D01*
X006184Y026546D01*
X006422Y026309D01*
X006732Y026181D01*
X007067Y026181D01*
X007377Y026309D01*
X007615Y026546D01*
X007743Y026856D01*
X007743Y027192D01*
X007615Y027502D01*
X007377Y027739D01*
X007067Y027868D01*
X006732Y027868D01*
X006398Y027716D02*
X004130Y027716D01*
X004130Y027618D02*
X006300Y027618D01*
X006201Y027519D02*
X004130Y027519D01*
X004130Y027421D02*
X006151Y027421D01*
X006110Y027322D02*
X004130Y027322D01*
X004130Y027224D02*
X006069Y027224D01*
X006056Y027125D02*
X004130Y027125D01*
X004130Y027027D02*
X006056Y027027D01*
X006056Y026928D02*
X004130Y026928D01*
X004130Y026830D02*
X006067Y026830D01*
X006108Y026731D02*
X004130Y026731D01*
X004130Y026633D02*
X006148Y026633D01*
X006196Y026534D02*
X004130Y026534D01*
X004130Y026436D02*
X006295Y026436D01*
X006393Y026337D02*
X004130Y026337D01*
X004130Y026239D02*
X006591Y026239D01*
X006732Y025967D02*
X006422Y025839D01*
X006184Y025602D01*
X006056Y025291D01*
X006056Y024956D01*
X006184Y024646D01*
X006422Y024408D01*
X006732Y024280D01*
X007067Y024280D01*
X007377Y024408D01*
X007615Y024646D01*
X007743Y024956D01*
X007743Y025291D01*
X007615Y025602D01*
X007377Y025839D01*
X007067Y025967D01*
X006732Y025967D01*
X006674Y025943D02*
X004130Y025943D01*
X004130Y025845D02*
X006436Y025845D01*
X006329Y025746D02*
X004130Y025746D01*
X004130Y025648D02*
X006231Y025648D01*
X006163Y025549D02*
X004130Y025549D01*
X004130Y025451D02*
X006122Y025451D01*
X006081Y025352D02*
X004130Y025352D01*
X004130Y025254D02*
X006056Y025254D01*
X006056Y025155D02*
X004130Y025155D01*
X004130Y025057D02*
X006056Y025057D01*
X006056Y024958D02*
X004130Y024958D01*
X004130Y024860D02*
X006096Y024860D01*
X006136Y024761D02*
X004130Y024761D01*
X004130Y024663D02*
X006177Y024663D01*
X006266Y024564D02*
X004130Y024564D01*
X004130Y024466D02*
X006364Y024466D01*
X006521Y024367D02*
X004130Y024367D01*
X004130Y024269D02*
X007451Y024269D01*
X007353Y024170D02*
X004130Y024170D01*
X004130Y024072D02*
X007254Y024072D01*
X007185Y023973D02*
X004130Y023973D01*
X004130Y023875D02*
X007185Y023875D01*
X007185Y023776D02*
X004130Y023776D01*
X004130Y023678D02*
X007185Y023678D01*
X007185Y023579D02*
X004130Y023579D01*
X004130Y023481D02*
X007193Y023481D01*
X007292Y023382D02*
X004130Y023382D01*
X004130Y023284D02*
X007254Y023284D01*
X007185Y023185D02*
X004130Y023185D01*
X004130Y023087D02*
X007185Y023087D01*
X007185Y022988D02*
X004130Y022988D01*
X004130Y022890D02*
X007185Y022890D01*
X007185Y022791D02*
X004130Y022791D01*
X004130Y022693D02*
X007194Y022693D01*
X007292Y022594D02*
X004130Y022594D01*
X004130Y022496D02*
X007391Y022496D01*
X007489Y022397D02*
X004130Y022397D01*
X004130Y022299D02*
X008178Y022299D01*
X008169Y022397D02*
X008121Y022397D01*
X008277Y022200D02*
X004130Y022200D01*
X004130Y022102D02*
X008375Y022102D01*
X008474Y022003D02*
X004130Y022003D01*
X004130Y021905D02*
X012732Y021905D01*
X012776Y021806D02*
X004130Y021806D01*
X004130Y021708D02*
X012678Y021708D01*
X012579Y021609D02*
X004130Y021609D01*
X004130Y021511D02*
X012560Y021511D01*
X012560Y021412D02*
X004130Y021412D01*
X004130Y021314D02*
X012560Y021314D01*
X012560Y021215D02*
X007134Y021215D01*
X007067Y021243D02*
X006732Y021243D01*
X006422Y021114D01*
X006184Y020877D01*
X006056Y020567D01*
X006056Y020231D01*
X006184Y019921D01*
X006422Y019684D01*
X006732Y019556D01*
X007067Y019556D01*
X007377Y019684D01*
X007615Y019921D01*
X007743Y020231D01*
X007743Y020567D01*
X007615Y020877D01*
X007377Y021114D01*
X007067Y021243D01*
X007372Y021117D02*
X012560Y021117D01*
X012618Y021018D02*
X007474Y021018D01*
X007572Y020920D02*
X012717Y020920D01*
X012791Y020821D02*
X007638Y020821D01*
X007679Y020723D02*
X012693Y020723D01*
X012594Y020624D02*
X007719Y020624D01*
X007743Y020526D02*
X012560Y020526D01*
X012560Y020427D02*
X007743Y020427D01*
X007743Y020329D02*
X012560Y020329D01*
X012560Y020230D02*
X007743Y020230D01*
X007702Y020132D02*
X012560Y020132D01*
X012603Y020033D02*
X007661Y020033D01*
X007620Y019935D02*
X012702Y019935D01*
X012800Y019836D02*
X007530Y019836D01*
X007431Y019738D02*
X012708Y019738D01*
X012609Y019639D02*
X007270Y019639D01*
X007423Y019203D02*
X007180Y018960D01*
X006937Y019203D01*
X006423Y019203D01*
X006060Y018840D01*
X006060Y018326D01*
X006423Y017963D01*
X006937Y017963D01*
X007180Y018206D01*
X007423Y017963D01*
X007937Y017963D01*
X008300Y018326D01*
X008300Y018840D01*
X007937Y019203D01*
X007423Y019203D01*
X007367Y019147D02*
X006993Y019147D01*
X007092Y019048D02*
X007268Y019048D01*
X007993Y019147D02*
X012560Y019147D01*
X012560Y019245D02*
X004130Y019245D01*
X004130Y019147D02*
X006367Y019147D01*
X006268Y019048D02*
X004130Y019048D01*
X004130Y018950D02*
X006170Y018950D01*
X006071Y018851D02*
X004130Y018851D01*
X004130Y018753D02*
X006060Y018753D01*
X006060Y018654D02*
X004130Y018654D01*
X004130Y018556D02*
X006060Y018556D01*
X006060Y018457D02*
X004130Y018457D01*
X004130Y018359D02*
X006060Y018359D01*
X006126Y018260D02*
X004130Y018260D01*
X004130Y018162D02*
X006225Y018162D01*
X006323Y018063D02*
X004130Y018063D01*
X004130Y017965D02*
X006422Y017965D01*
X006938Y017965D02*
X007422Y017965D01*
X007323Y018063D02*
X007037Y018063D01*
X007135Y018162D02*
X007225Y018162D01*
X007938Y017965D02*
X012672Y017965D01*
X012770Y017866D02*
X004130Y017866D01*
X004130Y017768D02*
X012869Y017768D01*
X012573Y018063D02*
X010813Y018063D01*
X010783Y018033D02*
X010327Y018033D01*
X010055Y018305D01*
X009783Y018033D01*
X009327Y018033D01*
X009005Y018355D01*
X009005Y018811D01*
X009327Y019133D01*
X009783Y019133D01*
X010055Y018861D01*
X010327Y019133D01*
X010783Y019133D01*
X011105Y018811D01*
X011105Y018355D01*
X010783Y018033D01*
X010911Y018162D02*
X012560Y018162D01*
X012560Y018260D02*
X011010Y018260D01*
X011105Y018359D02*
X012560Y018359D01*
X012560Y018457D02*
X011105Y018457D01*
X011105Y018556D02*
X012560Y018556D01*
X012624Y018654D02*
X011105Y018654D01*
X011105Y018753D02*
X012723Y018753D01*
X012785Y018851D02*
X011065Y018851D01*
X010966Y018950D02*
X012687Y018950D01*
X012588Y019048D02*
X010868Y019048D01*
X010242Y019048D02*
X009868Y019048D01*
X009966Y018950D02*
X010144Y018950D01*
X010100Y018260D02*
X010010Y018260D01*
X009911Y018162D02*
X010199Y018162D01*
X010297Y018063D02*
X009813Y018063D01*
X009297Y018063D02*
X008037Y018063D01*
X008135Y018162D02*
X009199Y018162D01*
X009100Y018260D02*
X008234Y018260D01*
X008300Y018359D02*
X009005Y018359D01*
X009005Y018457D02*
X008300Y018457D01*
X008300Y018556D02*
X009005Y018556D01*
X009005Y018654D02*
X008300Y018654D01*
X008300Y018753D02*
X009005Y018753D01*
X009045Y018851D02*
X008289Y018851D01*
X008190Y018950D02*
X009144Y018950D01*
X009242Y019048D02*
X008092Y019048D01*
X006529Y019639D02*
X004130Y019639D01*
X004130Y019541D02*
X012560Y019541D01*
X012560Y019442D02*
X004130Y019442D01*
X004130Y019344D02*
X012560Y019344D01*
X014569Y020821D02*
X024565Y020821D01*
X024664Y020723D02*
X014667Y020723D01*
X014643Y020920D02*
X024467Y020920D01*
X024526Y021806D02*
X023037Y021806D01*
X022468Y021215D02*
X014800Y021215D01*
X014800Y021117D02*
X022567Y021117D01*
X022665Y021018D02*
X014742Y021018D01*
X014800Y021314D02*
X022370Y021314D01*
X022271Y021412D02*
X014800Y021412D01*
X014800Y021511D02*
X022173Y021511D01*
X022074Y021609D02*
X014781Y021609D01*
X014682Y021708D02*
X021976Y021708D01*
X021877Y021806D02*
X014584Y021806D01*
X014628Y021905D02*
X021779Y021905D01*
X021680Y022003D02*
X014727Y022003D01*
X014800Y022102D02*
X021582Y022102D01*
X021483Y022200D02*
X014800Y022200D01*
X014800Y022299D02*
X021385Y022299D01*
X021286Y022397D02*
X014800Y022397D01*
X014800Y022496D02*
X021188Y022496D01*
X021089Y022594D02*
X014796Y022594D01*
X014697Y022693D02*
X020991Y022693D01*
X020892Y022791D02*
X014599Y022791D01*
X014613Y022890D02*
X020794Y022890D01*
X020695Y022988D02*
X014712Y022988D01*
X014800Y023087D02*
X020597Y023087D01*
X020498Y023185D02*
X014800Y023185D01*
X014800Y023284D02*
X020400Y023284D01*
X020301Y023382D02*
X014800Y023382D01*
X014800Y023481D02*
X020203Y023481D01*
X020104Y023579D02*
X014800Y023579D01*
X014712Y023678D02*
X020006Y023678D01*
X019907Y023776D02*
X014614Y023776D01*
X014598Y023875D02*
X019809Y023875D01*
X019710Y023973D02*
X014697Y023973D01*
X012762Y023875D02*
X009143Y023875D01*
X009242Y023776D02*
X012746Y023776D01*
X012648Y023678D02*
X009340Y023678D01*
X009409Y023579D02*
X012560Y023579D01*
X012560Y023481D02*
X009409Y023481D01*
X009409Y023382D02*
X012560Y023382D01*
X012560Y023284D02*
X009409Y023284D01*
X009409Y023185D02*
X012560Y023185D01*
X012560Y023087D02*
X009401Y023087D01*
X009302Y022988D02*
X012648Y022988D01*
X012747Y022890D02*
X009341Y022890D01*
X009409Y022791D02*
X012761Y022791D01*
X012663Y022693D02*
X009409Y022693D01*
X009409Y022594D02*
X012564Y022594D01*
X012560Y022496D02*
X009409Y022496D01*
X009409Y022397D02*
X012560Y022397D01*
X012560Y022299D02*
X009400Y022299D01*
X009302Y022200D02*
X012560Y022200D01*
X012560Y022102D02*
X009203Y022102D01*
X009105Y022003D02*
X012633Y022003D01*
X012663Y023973D02*
X008556Y023973D01*
X008654Y024072D02*
X012565Y024072D01*
X012560Y024170D02*
X008753Y024170D01*
X008851Y024269D02*
X012560Y024269D01*
X012560Y024367D02*
X008950Y024367D01*
X009048Y024466D02*
X012560Y024466D01*
X012560Y024564D02*
X009147Y024564D01*
X009245Y024663D02*
X012633Y024663D01*
X012731Y024761D02*
X009344Y024761D01*
X009442Y024860D02*
X012777Y024860D01*
X012678Y024958D02*
X009541Y024958D01*
X009639Y025057D02*
X012580Y025057D01*
X012560Y025155D02*
X009738Y025155D01*
X009836Y025254D02*
X012560Y025254D01*
X012560Y025352D02*
X009935Y025352D01*
X010033Y025451D02*
X012560Y025451D01*
X012560Y025549D02*
X010132Y025549D01*
X010230Y025648D02*
X012618Y025648D01*
X012716Y025746D02*
X010329Y025746D01*
X010427Y025845D02*
X012815Y025845D01*
X012913Y025943D02*
X010526Y025943D01*
X010621Y026042D02*
X013595Y026042D01*
X013560Y026140D02*
X010662Y026140D01*
X010675Y026239D02*
X013560Y026239D01*
X013560Y026337D02*
X010675Y026337D01*
X010675Y026436D02*
X013560Y026436D01*
X013560Y026534D02*
X010675Y026534D01*
X010675Y026633D02*
X013603Y026633D01*
X013701Y026731D02*
X013455Y026731D01*
X013553Y026830D02*
X013800Y026830D01*
X013708Y026928D02*
X013652Y026928D01*
X012905Y026731D02*
X010675Y026731D01*
X010675Y026830D02*
X012807Y026830D01*
X012708Y026928D02*
X010675Y026928D01*
X010675Y027027D02*
X012610Y027027D01*
X012560Y027125D02*
X010675Y027125D01*
X010675Y027224D02*
X012560Y027224D01*
X012560Y027322D02*
X010675Y027322D01*
X010675Y027421D02*
X012560Y027421D01*
X012560Y027519D02*
X010675Y027519D01*
X010675Y027618D02*
X012588Y027618D01*
X012686Y027716D02*
X010675Y027716D01*
X010675Y027815D02*
X012785Y027815D01*
X012883Y027913D02*
X010675Y027913D01*
X009935Y027815D02*
X007195Y027815D01*
X007401Y027716D02*
X009935Y027716D01*
X009935Y027618D02*
X007499Y027618D01*
X007598Y027519D02*
X009935Y027519D01*
X009935Y027421D02*
X007648Y027421D01*
X007689Y027322D02*
X009935Y027322D01*
X009935Y027224D02*
X007730Y027224D01*
X007743Y027125D02*
X009935Y027125D01*
X009935Y027027D02*
X007743Y027027D01*
X007743Y026928D02*
X009935Y026928D01*
X009935Y026830D02*
X007732Y026830D01*
X007691Y026731D02*
X009935Y026731D01*
X009935Y026633D02*
X007651Y026633D01*
X007603Y026534D02*
X009935Y026534D01*
X009935Y026436D02*
X007504Y026436D01*
X007406Y026337D02*
X009873Y026337D01*
X009775Y026239D02*
X007208Y026239D01*
X007125Y025943D02*
X009479Y025943D01*
X009381Y025845D02*
X007363Y025845D01*
X007470Y025746D02*
X009282Y025746D01*
X009184Y025648D02*
X007568Y025648D01*
X007636Y025549D02*
X009085Y025549D01*
X008987Y025451D02*
X007677Y025451D01*
X007718Y025352D02*
X008888Y025352D01*
X008790Y025254D02*
X007743Y025254D01*
X007743Y025155D02*
X008691Y025155D01*
X008593Y025057D02*
X007743Y025057D01*
X007743Y024958D02*
X008494Y024958D01*
X008396Y024860D02*
X007703Y024860D01*
X007663Y024761D02*
X008297Y024761D01*
X008199Y024663D02*
X007622Y024663D01*
X007533Y024564D02*
X008100Y024564D01*
X008002Y024466D02*
X007435Y024466D01*
X007278Y024367D02*
X007903Y024367D01*
X009578Y026042D02*
X004130Y026042D01*
X004130Y026140D02*
X009676Y026140D01*
X008499Y028603D02*
X004130Y028603D01*
X004130Y028701D02*
X008401Y028701D01*
X008302Y028800D02*
X004130Y028800D01*
X004130Y028898D02*
X008204Y028898D01*
X008169Y028997D02*
X008095Y028997D01*
X007515Y028997D02*
X004130Y028997D01*
X004130Y029095D02*
X007416Y029095D01*
X007318Y029194D02*
X004130Y029194D01*
X004130Y029292D02*
X007219Y029292D01*
X007185Y029391D02*
X004130Y029391D01*
X004130Y029489D02*
X007185Y029489D01*
X007185Y029588D02*
X004130Y029588D01*
X004130Y029686D02*
X007185Y029686D01*
X007185Y029785D02*
X004130Y029785D01*
X004130Y029883D02*
X007228Y029883D01*
X007317Y029982D02*
X004130Y029982D01*
X004130Y030080D02*
X007219Y030080D01*
X007185Y030179D02*
X004130Y030179D01*
X004130Y030277D02*
X007185Y030277D01*
X007185Y030376D02*
X004130Y030376D01*
X004130Y030474D02*
X007185Y030474D01*
X007185Y030573D02*
X004130Y030573D01*
X004130Y030671D02*
X007229Y030671D01*
X007327Y030770D02*
X004130Y030770D01*
X004130Y030868D02*
X007426Y030868D01*
X007090Y033922D02*
X004130Y033922D01*
X004130Y034020D02*
X006991Y034020D01*
X006893Y034119D02*
X004130Y034119D01*
X004130Y034217D02*
X006810Y034217D01*
X006810Y034316D02*
X004130Y034316D01*
X004130Y034414D02*
X006810Y034414D01*
X006810Y034513D02*
X004130Y034513D01*
X004130Y034611D02*
X006810Y034611D01*
X006810Y034710D02*
X004130Y034710D01*
X004130Y034808D02*
X006903Y034808D01*
X007002Y034907D02*
X004130Y034907D01*
X004130Y035005D02*
X007100Y035005D01*
X007383Y035696D02*
X007635Y035591D01*
X008694Y035591D01*
X008945Y035696D01*
X009138Y035888D01*
X009242Y036139D01*
X009242Y036411D01*
X009138Y036662D01*
X008945Y036855D01*
X008694Y036959D01*
X007635Y036959D01*
X007383Y036855D01*
X007191Y036662D01*
X007087Y036411D01*
X007087Y036139D01*
X007191Y035888D01*
X007383Y035696D01*
X007385Y035695D02*
X004130Y035695D01*
X004130Y035793D02*
X007285Y035793D01*
X007189Y035892D02*
X004130Y035892D01*
X004130Y035990D02*
X007149Y035990D01*
X007108Y036089D02*
X004130Y036089D01*
X004130Y036187D02*
X007087Y036187D01*
X007087Y036286D02*
X004130Y036286D01*
X004130Y036384D02*
X007087Y036384D01*
X007117Y036483D02*
X004130Y036483D01*
X004130Y036581D02*
X007157Y036581D01*
X007208Y036680D02*
X004130Y036680D01*
X004130Y036778D02*
X007307Y036778D01*
X007436Y036877D02*
X004130Y036877D01*
X004130Y036975D02*
X033695Y036975D01*
X033597Y036877D02*
X008892Y036877D01*
X009022Y036778D02*
X033499Y036778D01*
X033499Y036779D02*
X033499Y036266D01*
X033863Y035903D01*
X034376Y035903D01*
X034739Y036266D01*
X034739Y036779D01*
X034376Y037143D01*
X033863Y037143D01*
X033499Y036779D01*
X033499Y036680D02*
X009120Y036680D01*
X009171Y036581D02*
X033499Y036581D01*
X033499Y036483D02*
X009212Y036483D01*
X009242Y036384D02*
X033499Y036384D01*
X033499Y036286D02*
X009242Y036286D01*
X009242Y036187D02*
X033578Y036187D01*
X033676Y036089D02*
X009221Y036089D01*
X009180Y035990D02*
X033775Y035990D01*
X034464Y035990D02*
X039671Y035990D01*
X039620Y035939D02*
X039492Y035629D01*
X039492Y035293D01*
X039620Y034983D01*
X039858Y034746D01*
X040168Y034618D01*
X040503Y034618D01*
X040813Y034746D01*
X041051Y034983D01*
X041179Y035293D01*
X041179Y035629D01*
X041051Y035939D01*
X040813Y036176D01*
X040503Y036305D01*
X040168Y036305D01*
X039858Y036176D01*
X039620Y035939D01*
X039601Y035892D02*
X009139Y035892D01*
X009043Y035793D02*
X039560Y035793D01*
X039519Y035695D02*
X008943Y035695D01*
X008706Y035596D02*
X039492Y035596D01*
X039492Y035498D02*
X004130Y035498D01*
X004130Y035596D02*
X007623Y035596D01*
X007760Y035005D02*
X039611Y035005D01*
X039570Y035104D02*
X004130Y035104D01*
X004130Y035202D02*
X039530Y035202D01*
X039492Y035301D02*
X004130Y035301D01*
X004130Y035399D02*
X039492Y035399D01*
X039697Y034907D02*
X007858Y034907D01*
X007957Y034808D02*
X039795Y034808D01*
X039945Y034710D02*
X008050Y034710D01*
X008050Y034611D02*
X043225Y034611D01*
X043225Y034513D02*
X008050Y034513D01*
X008050Y034414D02*
X043225Y034414D01*
X043225Y034316D02*
X008050Y034316D01*
X011668Y032444D02*
X015560Y032444D01*
X017065Y031853D02*
X011694Y031853D01*
X011845Y031755D02*
X017092Y031755D01*
X016790Y031164D02*
X035016Y031164D01*
X034917Y031065D02*
X016888Y031065D01*
X016987Y030967D02*
X034819Y030967D01*
X034720Y030868D02*
X017085Y030868D01*
X017095Y030770D02*
X034622Y030770D01*
X037340Y029194D02*
X029911Y029194D01*
X029812Y029095D02*
X037340Y029095D01*
X037432Y028997D02*
X029714Y028997D01*
X029615Y028898D02*
X037531Y028898D01*
X037562Y028800D02*
X029517Y028800D01*
X029418Y028701D02*
X037464Y028701D01*
X037365Y028603D02*
X029320Y028603D01*
X029280Y028504D02*
X037340Y028504D01*
X037340Y028406D02*
X029280Y028406D01*
X029280Y028307D02*
X037340Y028307D01*
X037340Y028209D02*
X029280Y028209D01*
X029280Y028110D02*
X037340Y028110D01*
X037417Y028012D02*
X029280Y028012D01*
X029280Y027913D02*
X032883Y027913D01*
X032785Y027815D02*
X029280Y027815D01*
X029280Y027716D02*
X032686Y027716D01*
X032588Y027618D02*
X029280Y027618D01*
X029280Y027519D02*
X032560Y027519D01*
X032560Y027421D02*
X029280Y027421D01*
X029280Y027322D02*
X032560Y027322D01*
X032560Y027224D02*
X029280Y027224D01*
X029280Y027125D02*
X032560Y027125D01*
X032610Y027027D02*
X029280Y027027D01*
X029280Y026928D02*
X029648Y026928D01*
X029550Y026830D02*
X029310Y026830D01*
X029409Y026731D02*
X029451Y026731D01*
X030212Y026928D02*
X032708Y026928D01*
X032800Y026830D02*
X030310Y026830D01*
X030409Y026731D02*
X032701Y026731D01*
X032603Y026633D02*
X030507Y026633D01*
X030550Y026534D02*
X032560Y026534D01*
X032560Y026436D02*
X030550Y026436D01*
X030550Y026337D02*
X032560Y026337D01*
X032560Y026239D02*
X030550Y026239D01*
X030550Y026140D02*
X032560Y026140D01*
X032595Y026042D02*
X030515Y026042D01*
X030417Y025943D02*
X032693Y025943D01*
X032792Y025845D02*
X030318Y025845D01*
X030220Y025746D02*
X032716Y025746D01*
X034568Y025845D02*
X035145Y025845D01*
X035145Y025943D02*
X034667Y025943D01*
X034765Y026042D02*
X035145Y026042D01*
X035145Y026140D02*
X034800Y026140D01*
X034800Y026239D02*
X035070Y026239D01*
X034971Y026337D02*
X034800Y026337D01*
X034800Y026436D02*
X034873Y026436D01*
X034644Y025746D02*
X035145Y025746D01*
X035145Y025648D02*
X034742Y025648D01*
X034800Y025549D02*
X035145Y025549D01*
X035145Y025451D02*
X034800Y025451D01*
X034800Y025352D02*
X035145Y025352D01*
X035145Y025254D02*
X034800Y025254D01*
X034800Y025155D02*
X035145Y025155D01*
X035145Y025057D02*
X034780Y025057D01*
X034682Y024958D02*
X035145Y024958D01*
X035145Y024860D02*
X034583Y024860D01*
X034629Y024761D02*
X035145Y024761D01*
X035145Y024663D02*
X034727Y024663D01*
X034800Y024564D02*
X035145Y024564D01*
X035145Y024466D02*
X034800Y024466D01*
X034800Y024367D02*
X035145Y024367D01*
X035145Y024269D02*
X034800Y024269D01*
X034800Y024170D02*
X035145Y024170D01*
X035145Y024072D02*
X034795Y024072D01*
X034697Y023973D02*
X035145Y023973D01*
X035145Y023875D02*
X034598Y023875D01*
X034614Y023776D02*
X035145Y023776D01*
X035145Y023678D02*
X034712Y023678D01*
X034800Y023579D02*
X035145Y023579D01*
X035145Y023481D02*
X034800Y023481D01*
X034800Y023382D02*
X035145Y023382D01*
X035145Y023284D02*
X034800Y023284D01*
X034800Y023185D02*
X035145Y023185D01*
X035145Y023087D02*
X034800Y023087D01*
X034712Y022988D02*
X035145Y022988D01*
X035145Y022890D02*
X034613Y022890D01*
X034599Y022791D02*
X035145Y022791D01*
X035145Y022693D02*
X034697Y022693D01*
X034796Y022594D02*
X035145Y022594D01*
X035145Y022496D02*
X034800Y022496D01*
X034800Y022397D02*
X035145Y022397D01*
X035145Y022299D02*
X034800Y022299D01*
X034800Y022200D02*
X035166Y022200D01*
X035207Y022102D02*
X034800Y022102D01*
X034727Y022003D02*
X035305Y022003D01*
X035404Y021905D02*
X034628Y021905D01*
X034584Y021806D02*
X035502Y021806D01*
X035601Y021708D02*
X034682Y021708D01*
X034781Y021609D02*
X035699Y021609D01*
X035798Y021511D02*
X034800Y021511D01*
X034800Y021412D02*
X035896Y021412D01*
X035995Y021314D02*
X034800Y021314D01*
X034800Y021215D02*
X036093Y021215D01*
X036192Y021117D02*
X034800Y021117D01*
X034742Y021018D02*
X036290Y021018D01*
X036389Y020920D02*
X034643Y020920D01*
X034569Y020821D02*
X036487Y020821D01*
X036586Y020723D02*
X034667Y020723D01*
X034766Y020624D02*
X036684Y020624D01*
X036783Y020526D02*
X034800Y020526D01*
X034800Y020427D02*
X036964Y020427D01*
X037154Y021314D02*
X039621Y021314D01*
X039580Y021412D02*
X037056Y021412D01*
X036957Y021511D02*
X039539Y021511D01*
X039498Y021609D02*
X036859Y021609D01*
X036760Y021708D02*
X039492Y021708D01*
X039492Y021806D02*
X036662Y021806D01*
X036563Y021905D02*
X039492Y021905D01*
X039509Y022003D02*
X036465Y022003D01*
X036366Y022102D02*
X039550Y022102D01*
X039591Y022200D02*
X036268Y022200D01*
X036169Y022299D02*
X039648Y022299D01*
X039747Y022397D02*
X036071Y022397D01*
X035972Y022496D02*
X039845Y022496D01*
X039730Y022594D02*
X040066Y022594D01*
X039927Y022791D02*
X043225Y022791D01*
X043225Y022693D02*
X039829Y022693D01*
X040605Y022594D02*
X043225Y022594D01*
X043225Y022496D02*
X040826Y022496D01*
X040924Y022397D02*
X043225Y022397D01*
X043225Y022299D02*
X041023Y022299D01*
X041080Y022200D02*
X043225Y022200D01*
X043225Y022102D02*
X041121Y022102D01*
X041162Y022003D02*
X043225Y022003D01*
X043225Y021905D02*
X041179Y021905D01*
X041179Y021806D02*
X043225Y021806D01*
X043225Y021708D02*
X041179Y021708D01*
X041173Y021609D02*
X043225Y021609D01*
X043225Y021511D02*
X041132Y021511D01*
X041091Y021412D02*
X043225Y021412D01*
X043225Y021314D02*
X041050Y021314D01*
X041454Y021215D02*
X043225Y021215D01*
X043225Y021117D02*
X041601Y021117D01*
X041700Y021018D02*
X043225Y021018D01*
X043225Y020920D02*
X041798Y020920D01*
X042194Y020821D02*
X043225Y020821D01*
X043225Y020723D02*
X042292Y020723D01*
X042391Y020624D02*
X043225Y020624D01*
X043225Y020526D02*
X042489Y020526D01*
X042550Y020427D02*
X043225Y020427D01*
X043225Y020329D02*
X042550Y020329D01*
X042550Y020230D02*
X043225Y020230D01*
X043225Y020132D02*
X042550Y020132D01*
X042550Y020033D02*
X043225Y020033D01*
X043225Y019935D02*
X042533Y019935D01*
X042435Y019836D02*
X043225Y019836D01*
X043225Y019738D02*
X042336Y019738D01*
X042238Y019639D02*
X043225Y019639D01*
X043225Y019541D02*
X041155Y019541D01*
X041179Y019639D02*
X041622Y019639D01*
X041524Y019738D02*
X041179Y019738D01*
X041179Y019836D02*
X041425Y019836D01*
X041327Y019935D02*
X041179Y019935D01*
X041139Y020033D02*
X041310Y020033D01*
X041310Y020132D02*
X041098Y020132D01*
X041057Y020230D02*
X041310Y020230D01*
X041230Y020329D02*
X040967Y020329D01*
X041114Y019442D02*
X043225Y019442D01*
X043225Y019344D02*
X041073Y019344D01*
X041007Y019245D02*
X043225Y019245D01*
X043225Y019147D02*
X040908Y019147D01*
X040804Y019048D02*
X043225Y019048D01*
X043225Y018950D02*
X040567Y018950D01*
X040104Y018950D02*
X034673Y018950D01*
X034575Y018851D02*
X043225Y018851D01*
X043225Y018753D02*
X034637Y018753D01*
X034736Y018654D02*
X043225Y018654D01*
X043225Y018556D02*
X034800Y018556D01*
X034800Y018457D02*
X043225Y018457D01*
X043225Y018359D02*
X034800Y018359D01*
X034800Y018260D02*
X043225Y018260D01*
X043225Y018162D02*
X038763Y018162D01*
X038861Y018063D02*
X043225Y018063D01*
X043225Y017965D02*
X038960Y017965D01*
X039058Y017866D02*
X043225Y017866D01*
X043225Y017768D02*
X039747Y017768D01*
X039846Y017669D02*
X043225Y017669D01*
X043225Y017571D02*
X039944Y017571D01*
X040043Y017472D02*
X043225Y017472D01*
X043225Y017374D02*
X040050Y017374D01*
X040050Y017275D02*
X043225Y017275D01*
X043225Y017177D02*
X040050Y017177D01*
X040050Y017078D02*
X043225Y017078D01*
X043225Y016980D02*
X040050Y016980D01*
X039980Y016881D02*
X043225Y016881D01*
X043225Y016783D02*
X039945Y016783D01*
X040043Y016684D02*
X043225Y016684D01*
X043225Y016586D02*
X040050Y016586D01*
X040050Y016487D02*
X043225Y016487D01*
X043225Y016389D02*
X040050Y016389D01*
X040050Y016290D02*
X043225Y016290D01*
X043225Y016192D02*
X040050Y016192D01*
X039979Y016093D02*
X043225Y016093D01*
X043225Y015995D02*
X039881Y015995D01*
X039782Y015896D02*
X043225Y015896D01*
X043225Y015798D02*
X040718Y015798D01*
X040813Y015758D02*
X040503Y015887D01*
X040168Y015887D01*
X039858Y015758D01*
X039620Y015521D01*
X039492Y015211D01*
X039492Y014875D01*
X039620Y014565D01*
X039858Y014328D01*
X040168Y014199D01*
X040503Y014199D01*
X040813Y014328D01*
X041051Y014565D01*
X041179Y014875D01*
X041179Y015211D01*
X041051Y015521D01*
X040813Y015758D01*
X040872Y015699D02*
X043225Y015699D01*
X043225Y015601D02*
X040971Y015601D01*
X041058Y015502D02*
X043225Y015502D01*
X043225Y015404D02*
X041099Y015404D01*
X041140Y015305D02*
X043225Y015305D01*
X043225Y015207D02*
X041179Y015207D01*
X041179Y015108D02*
X043225Y015108D01*
X043225Y015010D02*
X041179Y015010D01*
X041179Y014911D02*
X043225Y014911D01*
X043225Y014813D02*
X041153Y014813D01*
X041113Y014714D02*
X043225Y014714D01*
X043225Y014616D02*
X041072Y014616D01*
X041003Y014517D02*
X043225Y014517D01*
X043225Y014419D02*
X040905Y014419D01*
X040796Y014320D02*
X043225Y014320D01*
X043225Y014222D02*
X040558Y014222D01*
X040283Y013883D02*
X039827Y013883D01*
X039505Y013561D01*
X039505Y013105D01*
X039827Y012783D01*
X040283Y012783D01*
X040605Y013105D01*
X040605Y013561D01*
X040283Y013883D01*
X040338Y013828D02*
X043225Y013828D01*
X043225Y013926D02*
X034650Y013926D01*
X034562Y013828D02*
X039772Y013828D01*
X039673Y013729D02*
X034661Y013729D01*
X034759Y013631D02*
X039575Y013631D01*
X039505Y013532D02*
X034800Y013532D01*
X034800Y013434D02*
X039505Y013434D01*
X039505Y013335D02*
X034800Y013335D01*
X034800Y013237D02*
X039505Y013237D01*
X039505Y013138D02*
X034800Y013138D01*
X034763Y013040D02*
X039571Y013040D01*
X039669Y012941D02*
X034665Y012941D01*
X034566Y012843D02*
X039768Y012843D01*
X040342Y012843D02*
X043225Y012843D01*
X043225Y012941D02*
X040441Y012941D01*
X040539Y013040D02*
X043225Y013040D01*
X043225Y013138D02*
X040605Y013138D01*
X040605Y013237D02*
X043225Y013237D01*
X043225Y013335D02*
X040605Y013335D01*
X040605Y013434D02*
X043225Y013434D01*
X043225Y013532D02*
X040605Y013532D01*
X040535Y013631D02*
X043225Y013631D01*
X043225Y013729D02*
X040437Y013729D01*
X040113Y014222D02*
X034800Y014222D01*
X034800Y014320D02*
X039875Y014320D01*
X039766Y014419D02*
X034800Y014419D01*
X034800Y014517D02*
X039668Y014517D01*
X039599Y014616D02*
X034774Y014616D01*
X034676Y014714D02*
X039558Y014714D01*
X039518Y014813D02*
X034577Y014813D01*
X034635Y014911D02*
X039492Y014911D01*
X039492Y015010D02*
X037189Y015010D01*
X037325Y015108D02*
X039492Y015108D01*
X039492Y015207D02*
X037424Y015207D01*
X037522Y015305D02*
X039531Y015305D01*
X039572Y015404D02*
X037621Y015404D01*
X037719Y015502D02*
X039613Y015502D01*
X039700Y015601D02*
X037818Y015601D01*
X037878Y015699D02*
X039799Y015699D01*
X039953Y015798D02*
X037905Y015798D01*
X037905Y015896D02*
X039078Y015896D01*
X038979Y015995D02*
X037905Y015995D01*
X037905Y016093D02*
X038881Y016093D01*
X038810Y016192D02*
X037905Y016192D01*
X037905Y016290D02*
X038093Y016290D01*
X037995Y016389D02*
X037905Y016389D01*
X037205Y016389D02*
X034800Y016389D01*
X034800Y016487D02*
X037205Y016487D01*
X037205Y016586D02*
X034800Y016586D01*
X034706Y016684D02*
X037205Y016684D01*
X037205Y016783D02*
X034607Y016783D01*
X034605Y016881D02*
X037205Y016881D01*
X037205Y016980D02*
X034703Y016980D01*
X034800Y017078D02*
X037205Y017078D01*
X037205Y017177D02*
X034800Y017177D01*
X034800Y017275D02*
X037205Y017275D01*
X037245Y017374D02*
X034800Y017374D01*
X034800Y017472D02*
X037324Y017472D01*
X037423Y017571D02*
X034800Y017571D01*
X034721Y017669D02*
X037521Y017669D01*
X037620Y017768D02*
X034622Y017768D01*
X034590Y017866D02*
X037718Y017866D01*
X037932Y017965D02*
X034688Y017965D01*
X034787Y018063D02*
X038030Y018063D01*
X038129Y018162D02*
X034800Y018162D01*
X034772Y019048D02*
X039867Y019048D01*
X039763Y019147D02*
X034800Y019147D01*
X034800Y019245D02*
X039664Y019245D01*
X039598Y019344D02*
X034800Y019344D01*
X034800Y019442D02*
X039557Y019442D01*
X039516Y019541D02*
X034800Y019541D01*
X034751Y019639D02*
X039492Y019639D01*
X039492Y019738D02*
X034652Y019738D01*
X034560Y019836D02*
X039492Y019836D01*
X039492Y019935D02*
X034658Y019935D01*
X034757Y020033D02*
X039532Y020033D01*
X039573Y020132D02*
X034800Y020132D01*
X034800Y020230D02*
X039614Y020230D01*
X039704Y020329D02*
X034800Y020329D01*
X032800Y019836D02*
X030280Y019836D01*
X030280Y019738D02*
X032708Y019738D01*
X032609Y019639D02*
X030280Y019639D01*
X030280Y019541D02*
X032560Y019541D01*
X032560Y019442D02*
X030280Y019442D01*
X030280Y019344D02*
X032560Y019344D01*
X032560Y019245D02*
X030280Y019245D01*
X030280Y019147D02*
X032560Y019147D01*
X032588Y019048D02*
X030243Y019048D01*
X030167Y018950D02*
X032687Y018950D01*
X032785Y018851D02*
X030068Y018851D01*
X029970Y018753D02*
X032723Y018753D01*
X032624Y018654D02*
X029871Y018654D01*
X029773Y018556D02*
X032560Y018556D01*
X032560Y018457D02*
X029674Y018457D01*
X029576Y018359D02*
X032560Y018359D01*
X032560Y018260D02*
X029477Y018260D01*
X029379Y018162D02*
X032560Y018162D01*
X032573Y018063D02*
X029280Y018063D01*
X029182Y017965D02*
X032672Y017965D01*
X032770Y017866D02*
X029083Y017866D01*
X028985Y017768D02*
X032738Y017768D01*
X032639Y017669D02*
X028886Y017669D01*
X028788Y017571D02*
X032560Y017571D01*
X032560Y017472D02*
X028689Y017472D01*
X028537Y017374D02*
X032560Y017374D01*
X032560Y017275D02*
X027206Y017275D01*
X027108Y017177D02*
X032560Y017177D01*
X032560Y017078D02*
X014800Y017078D01*
X014800Y017177D02*
X024502Y017177D01*
X024404Y017275D02*
X014800Y017275D01*
X014800Y017374D02*
X024305Y017374D01*
X024215Y017472D02*
X014800Y017472D01*
X014800Y017571D02*
X024215Y017571D01*
X024215Y017669D02*
X014721Y017669D01*
X014622Y017768D02*
X024215Y017768D01*
X025108Y017177D02*
X025502Y017177D01*
X025404Y017275D02*
X025206Y017275D01*
X025305Y017374D02*
X025305Y017374D01*
X026108Y017177D02*
X026502Y017177D01*
X026404Y017275D02*
X026206Y017275D01*
X026305Y017374D02*
X026305Y017374D01*
X025811Y015207D02*
X014800Y015207D01*
X014800Y015305D02*
X032560Y015305D01*
X032560Y015207D02*
X026799Y015207D01*
X026943Y015108D02*
X032560Y015108D01*
X032627Y015010D02*
X028367Y015010D01*
X028472Y014911D02*
X032725Y014911D01*
X032783Y014813D02*
X028570Y014813D01*
X028669Y014714D02*
X032684Y014714D01*
X032586Y014616D02*
X028767Y014616D01*
X028866Y014517D02*
X032560Y014517D01*
X032560Y014419D02*
X028964Y014419D01*
X029012Y014320D02*
X032560Y014320D01*
X032560Y014222D02*
X029030Y014222D01*
X029030Y014123D02*
X032560Y014123D01*
X032612Y014025D02*
X029030Y014025D01*
X029030Y013926D02*
X032710Y013926D01*
X032798Y013828D02*
X029030Y013828D01*
X029030Y013729D02*
X032699Y013729D01*
X032601Y013631D02*
X029030Y013631D01*
X029030Y013532D02*
X032560Y013532D01*
X032560Y013434D02*
X029030Y013434D01*
X029030Y013335D02*
X032560Y013335D01*
X032560Y013237D02*
X029030Y013237D01*
X029030Y013138D02*
X032560Y013138D01*
X032597Y013040D02*
X029030Y013040D01*
X029030Y012941D02*
X032695Y012941D01*
X032794Y012843D02*
X029030Y012843D01*
X029030Y012744D02*
X032714Y012744D01*
X032616Y012646D02*
X029030Y012646D01*
X029030Y012547D02*
X032560Y012547D01*
X032560Y012449D02*
X029030Y012449D01*
X029030Y012350D02*
X032560Y012350D01*
X032560Y012252D02*
X029030Y012252D01*
X029030Y012153D02*
X032560Y012153D01*
X032582Y012055D02*
X029030Y012055D01*
X029030Y011956D02*
X032680Y011956D01*
X032779Y011858D02*
X029030Y011858D01*
X029030Y011759D02*
X032729Y011759D01*
X032631Y011661D02*
X029030Y011661D01*
X029030Y011562D02*
X032560Y011562D01*
X032560Y011464D02*
X029030Y011464D01*
X029030Y011365D02*
X032560Y011365D01*
X032560Y011267D02*
X029030Y011267D01*
X029030Y011168D02*
X032560Y011168D01*
X032567Y011070D02*
X029030Y011070D01*
X029030Y010971D02*
X032665Y010971D01*
X032764Y010873D02*
X029030Y010873D01*
X029030Y010774D02*
X032744Y010774D01*
X032646Y010676D02*
X029030Y010676D01*
X029030Y010577D02*
X032560Y010577D01*
X032560Y010479D02*
X029030Y010479D01*
X029027Y010380D02*
X032560Y010380D01*
X032560Y010282D02*
X028986Y010282D01*
X028900Y010183D02*
X032560Y010183D01*
X032560Y010085D02*
X028801Y010085D01*
X028703Y009986D02*
X032650Y009986D01*
X032749Y009888D02*
X028604Y009888D01*
X028506Y009789D02*
X032759Y009789D01*
X032661Y009691D02*
X028407Y009691D01*
X028309Y009592D02*
X032562Y009592D01*
X032560Y009494D02*
X028150Y009494D01*
X024455Y011168D02*
X023699Y011168D01*
X023901Y011267D02*
X024455Y011267D01*
X024455Y011365D02*
X024000Y011365D01*
X024059Y011464D02*
X024455Y011464D01*
X024455Y011562D02*
X024100Y011562D01*
X024115Y011661D02*
X024455Y011661D01*
X024455Y011759D02*
X024115Y011759D01*
X024098Y011858D02*
X024455Y011858D01*
X024455Y011956D02*
X024058Y011956D01*
X023996Y012055D02*
X024455Y012055D01*
X024455Y012153D02*
X023898Y012153D01*
X023886Y012252D02*
X024391Y012252D01*
X024293Y012350D02*
X023985Y012350D01*
X022724Y012252D02*
X021912Y012252D01*
X022011Y012153D02*
X022712Y012153D01*
X022625Y012350D02*
X021733Y012350D01*
X022083Y012055D02*
X022447Y012055D01*
X022348Y011956D02*
X022124Y011956D01*
X022165Y011858D02*
X022250Y011858D01*
X022557Y012449D02*
X014800Y012449D01*
X014800Y012547D02*
X022516Y012547D01*
X022495Y012646D02*
X014744Y012646D01*
X014646Y012744D02*
X022495Y012744D01*
X022505Y012843D02*
X014566Y012843D01*
X014665Y012941D02*
X022546Y012941D01*
X022599Y013040D02*
X014763Y013040D01*
X014800Y013138D02*
X022697Y013138D01*
X022746Y013237D02*
X014800Y013237D01*
X014800Y013335D02*
X022640Y013335D01*
X022563Y013434D02*
X014800Y013434D01*
X014800Y013532D02*
X022523Y013532D01*
X022495Y013631D02*
X014759Y013631D01*
X014661Y013729D02*
X022495Y013729D01*
X022499Y013828D02*
X014562Y013828D01*
X014650Y013926D02*
X022540Y013926D01*
X022584Y014025D02*
X014748Y014025D01*
X014800Y014123D02*
X022682Y014123D01*
X022848Y014222D02*
X014800Y014222D01*
X014800Y014320D02*
X025655Y014320D01*
X025570Y014419D02*
X014800Y014419D01*
X014800Y014517D02*
X025529Y014517D01*
X025495Y014616D02*
X014774Y014616D01*
X014676Y014714D02*
X025495Y014714D01*
X025495Y014813D02*
X014577Y014813D01*
X014635Y014911D02*
X025534Y014911D01*
X025575Y015010D02*
X014733Y015010D01*
X014800Y015108D02*
X025667Y015108D01*
X025782Y014222D02*
X023762Y014222D01*
X023928Y014123D02*
X025682Y014123D01*
X025584Y014025D02*
X025205Y014025D01*
X025332Y013926D02*
X025540Y013926D01*
X025499Y013828D02*
X025430Y013828D01*
X021227Y012350D02*
X014800Y012350D01*
X014800Y012252D02*
X021048Y012252D01*
X020949Y012153D02*
X014800Y012153D01*
X014778Y012055D02*
X020877Y012055D01*
X020836Y011956D02*
X014680Y011956D01*
X014581Y011858D02*
X020795Y011858D01*
X020790Y011759D02*
X014631Y011759D01*
X014729Y011661D02*
X020790Y011661D01*
X020794Y011562D02*
X014800Y011562D01*
X014800Y011464D02*
X020834Y011464D01*
X020875Y011365D02*
X014800Y011365D01*
X014800Y011267D02*
X020946Y011267D01*
X021044Y011168D02*
X014800Y011168D01*
X014793Y011070D02*
X021218Y011070D01*
X022824Y008213D02*
X032560Y008213D01*
X032560Y008115D02*
X022783Y008115D01*
X022693Y008016D02*
X032620Y008016D01*
X032719Y007918D02*
X022594Y007918D01*
X022496Y007819D02*
X032789Y007819D01*
X032691Y007721D02*
X022397Y007721D01*
X022299Y007622D02*
X032592Y007622D01*
X032560Y007524D02*
X022200Y007524D01*
X022102Y007425D02*
X032560Y007425D01*
X032560Y007327D02*
X022003Y007327D01*
X021905Y007228D02*
X032560Y007228D01*
X032560Y007130D02*
X021806Y007130D01*
X021708Y007031D02*
X032605Y007031D01*
X032704Y006933D02*
X021609Y006933D01*
X021511Y006834D02*
X032802Y006834D01*
X032706Y006736D02*
X021412Y006736D01*
X021314Y006637D02*
X032607Y006637D01*
X032560Y006539D02*
X021215Y006539D01*
X021117Y006440D02*
X032560Y006440D01*
X032560Y006342D02*
X021018Y006342D01*
X020920Y006243D02*
X032560Y006243D01*
X032560Y006145D02*
X020821Y006145D01*
X020723Y006046D02*
X032590Y006046D01*
X032689Y005948D02*
X020624Y005948D01*
X020526Y005849D02*
X032787Y005849D01*
X032721Y005751D02*
X020427Y005751D01*
X020329Y005652D02*
X032622Y005652D01*
X032560Y005554D02*
X020230Y005554D01*
X020132Y005455D02*
X032560Y005455D01*
X032560Y005357D02*
X020033Y005357D01*
X019935Y005258D02*
X032560Y005258D01*
X032560Y005160D02*
X019836Y005160D01*
X019738Y005061D02*
X032575Y005061D01*
X032674Y004963D02*
X019639Y004963D01*
X019541Y004864D02*
X032772Y004864D01*
X032871Y004766D02*
X019442Y004766D01*
X019344Y004667D02*
X039767Y004667D01*
X039858Y004758D02*
X039620Y004521D01*
X039492Y004211D01*
X039492Y003875D01*
X039620Y003565D01*
X039858Y003328D01*
X040168Y003199D01*
X040503Y003199D01*
X040813Y003328D01*
X041051Y003565D01*
X041179Y003875D01*
X041179Y004211D01*
X041051Y004521D01*
X040813Y004758D01*
X040503Y004887D01*
X040168Y004887D01*
X039858Y004758D01*
X039876Y004766D02*
X034489Y004766D01*
X034588Y004864D02*
X039110Y004864D01*
X039011Y004963D02*
X034686Y004963D01*
X034785Y005061D02*
X038913Y005061D01*
X038814Y005160D02*
X034800Y005160D01*
X034800Y005258D02*
X038125Y005258D01*
X038027Y005357D02*
X034800Y005357D01*
X034800Y005455D02*
X037928Y005455D01*
X037830Y005554D02*
X034800Y005554D01*
X034738Y005652D02*
X037826Y005652D01*
X037826Y005751D02*
X034639Y005751D01*
X034573Y005849D02*
X037826Y005849D01*
X037826Y005948D02*
X034671Y005948D01*
X034770Y006046D02*
X037826Y006046D01*
X037899Y006145D02*
X034800Y006145D01*
X034800Y006243D02*
X037928Y006243D01*
X037829Y006342D02*
X034800Y006342D01*
X034800Y006440D02*
X037826Y006440D01*
X037826Y006539D02*
X034800Y006539D01*
X034753Y006637D02*
X037826Y006637D01*
X037826Y006736D02*
X034654Y006736D01*
X034558Y006834D02*
X037826Y006834D01*
X037900Y006933D02*
X034656Y006933D01*
X034755Y007031D02*
X037998Y007031D01*
X038097Y007130D02*
X034800Y007130D01*
X034800Y007228D02*
X039705Y007228D01*
X039705Y007130D02*
X038795Y007130D01*
X038893Y007031D02*
X039705Y007031D01*
X039705Y006933D02*
X038992Y006933D01*
X039066Y006834D02*
X039705Y006834D01*
X039692Y007327D02*
X034800Y007327D01*
X034800Y007425D02*
X039593Y007425D01*
X039495Y007524D02*
X034800Y007524D01*
X034768Y007622D02*
X039396Y007622D01*
X039298Y007721D02*
X034669Y007721D01*
X034571Y007819D02*
X035324Y007819D01*
X035258Y007885D02*
X035258Y007885D01*
X035226Y007918D02*
X034641Y007918D01*
X034740Y008016D02*
X035127Y008016D01*
X035029Y008115D02*
X034800Y008115D01*
X034800Y008213D02*
X034930Y008213D01*
X034982Y008162D02*
X034982Y008162D01*
X034862Y008312D02*
X034800Y008312D01*
X034800Y008410D02*
X034830Y008410D01*
X034830Y008509D02*
X034800Y008509D01*
X034783Y008607D02*
X034830Y008607D01*
X034830Y008706D02*
X034684Y008706D01*
X034586Y008804D02*
X034830Y008804D01*
X034830Y008903D02*
X034626Y008903D01*
X034725Y009001D02*
X034767Y009001D01*
X035363Y009395D02*
X039770Y009395D01*
X039672Y009297D02*
X035461Y009297D01*
X035511Y009198D02*
X039601Y009198D01*
X039560Y009100D02*
X035530Y009100D01*
X035530Y009001D02*
X039519Y009001D01*
X039492Y008903D02*
X035530Y008903D01*
X035530Y008804D02*
X039492Y008804D01*
X039492Y008706D02*
X035530Y008706D01*
X035530Y008607D02*
X039492Y008607D01*
X039529Y008509D02*
X035624Y008509D01*
X035264Y009494D02*
X039885Y009494D01*
X040122Y009592D02*
X035166Y009592D01*
X035067Y009691D02*
X035838Y009691D01*
X035796Y009708D02*
X036013Y009618D01*
X036847Y009618D01*
X037064Y009708D01*
X037230Y009874D01*
X037320Y010091D01*
X037320Y010326D01*
X037230Y010542D01*
X037064Y010708D01*
X037230Y010874D01*
X037320Y011091D01*
X037320Y011326D01*
X037230Y011542D01*
X037064Y011708D01*
X037230Y011874D01*
X037320Y012091D01*
X037320Y012326D01*
X037230Y012542D01*
X037064Y012708D01*
X036847Y012798D01*
X036013Y012798D01*
X035796Y012708D01*
X035630Y012542D01*
X035540Y012326D01*
X035540Y012091D01*
X035630Y011874D01*
X035796Y011708D01*
X035630Y011542D01*
X035540Y011326D01*
X035540Y011091D01*
X035630Y010874D01*
X035796Y010708D01*
X035630Y010542D01*
X035540Y010326D01*
X035540Y010091D01*
X035630Y009874D01*
X035796Y009708D01*
X035715Y009789D02*
X034969Y009789D01*
X034870Y009888D02*
X035624Y009888D01*
X035583Y009986D02*
X034772Y009986D01*
X034800Y010085D02*
X035543Y010085D01*
X035540Y010183D02*
X034800Y010183D01*
X034800Y010282D02*
X035540Y010282D01*
X035563Y010380D02*
X034800Y010380D01*
X034800Y010479D02*
X035603Y010479D01*
X035665Y010577D02*
X034800Y010577D01*
X034714Y010676D02*
X035763Y010676D01*
X035730Y010774D02*
X034616Y010774D01*
X034596Y010873D02*
X035631Y010873D01*
X035590Y010971D02*
X034695Y010971D01*
X034793Y011070D02*
X035549Y011070D01*
X035540Y011168D02*
X034800Y011168D01*
X034800Y011267D02*
X035540Y011267D01*
X035556Y011365D02*
X034800Y011365D01*
X034800Y011464D02*
X035597Y011464D01*
X035650Y011562D02*
X034800Y011562D01*
X034729Y011661D02*
X035748Y011661D01*
X035745Y011759D02*
X034631Y011759D01*
X034581Y011858D02*
X035646Y011858D01*
X035596Y011956D02*
X034680Y011956D01*
X034778Y012055D02*
X035555Y012055D01*
X035540Y012153D02*
X034800Y012153D01*
X034800Y012252D02*
X035540Y012252D01*
X035550Y012350D02*
X034800Y012350D01*
X034800Y012449D02*
X035591Y012449D01*
X035635Y012547D02*
X034800Y012547D01*
X034744Y012646D02*
X035733Y012646D01*
X035882Y012744D02*
X034646Y012744D01*
X034748Y014025D02*
X043225Y014025D01*
X043225Y014123D02*
X034800Y014123D01*
X034691Y015699D02*
X036926Y015699D01*
X037025Y015798D02*
X034592Y015798D01*
X034620Y015896D02*
X037123Y015896D01*
X037205Y015995D02*
X034718Y015995D01*
X034800Y016093D02*
X037205Y016093D01*
X037205Y016192D02*
X034800Y016192D01*
X034800Y016290D02*
X037205Y016290D01*
X038798Y016290D02*
X038810Y016290D01*
X039066Y017768D02*
X039113Y017768D01*
X039130Y022594D02*
X035965Y022594D01*
X035965Y022693D02*
X039031Y022693D01*
X038684Y022791D02*
X035965Y022791D01*
X035965Y022890D02*
X038541Y022890D01*
X038145Y022988D02*
X035965Y022988D01*
X035965Y023087D02*
X038047Y023087D01*
X037696Y024072D02*
X036146Y024072D01*
X036048Y024170D02*
X037598Y024170D01*
X037499Y024269D02*
X035965Y024269D01*
X035965Y024367D02*
X037401Y024367D01*
X037302Y024466D02*
X035965Y024466D01*
X035965Y024564D02*
X037236Y024564D01*
X037205Y024663D02*
X035965Y024663D01*
X035965Y024761D02*
X037205Y024761D01*
X037205Y024860D02*
X035965Y024860D01*
X035965Y024958D02*
X037205Y024958D01*
X037205Y025057D02*
X035965Y025057D01*
X035965Y025155D02*
X037205Y025155D01*
X037205Y025254D02*
X035965Y025254D01*
X035965Y025352D02*
X037205Y025352D01*
X037205Y025451D02*
X035965Y025451D01*
X035965Y025549D02*
X037205Y025549D01*
X037205Y025648D02*
X035965Y025648D01*
X035965Y025746D02*
X037205Y025746D01*
X037205Y025845D02*
X035965Y025845D01*
X035965Y025943D02*
X037205Y025943D01*
X037205Y026042D02*
X035965Y026042D01*
X035965Y026140D02*
X037205Y026140D01*
X037205Y026239D02*
X035965Y026239D01*
X035965Y026337D02*
X037205Y026337D01*
X037205Y026436D02*
X035956Y026436D01*
X035915Y026534D02*
X037205Y026534D01*
X037205Y026633D02*
X035835Y026633D01*
X035787Y026681D02*
X035787Y026681D01*
X035737Y026731D02*
X037205Y026731D01*
X037205Y026830D02*
X035638Y026830D01*
X035540Y026928D02*
X037205Y026928D01*
X037205Y027027D02*
X035441Y027027D01*
X035343Y027125D02*
X037245Y027125D01*
X037326Y027224D02*
X035244Y027224D01*
X035146Y027322D02*
X037424Y027322D01*
X037523Y027421D02*
X035047Y027421D01*
X034949Y027519D02*
X037580Y027519D01*
X037580Y027618D02*
X034850Y027618D01*
X034702Y027716D02*
X037580Y027716D01*
X037580Y027815D02*
X034575Y027815D01*
X034477Y027913D02*
X037516Y027913D01*
X038217Y027125D02*
X039750Y027125D01*
X039652Y027027D02*
X038119Y027027D01*
X038020Y026928D02*
X039593Y026928D01*
X039620Y026995D02*
X039492Y026685D01*
X039492Y026349D01*
X039620Y026039D01*
X039858Y025802D01*
X040168Y025674D01*
X040503Y025674D01*
X040813Y025802D01*
X041051Y026039D01*
X041179Y026349D01*
X041179Y026685D01*
X041051Y026995D01*
X040813Y027233D01*
X040503Y027361D01*
X040168Y027361D01*
X039858Y027233D01*
X039620Y026995D01*
X039552Y026830D02*
X037922Y026830D01*
X037905Y026731D02*
X039511Y026731D01*
X039492Y026633D02*
X037905Y026633D01*
X037905Y026534D02*
X039492Y026534D01*
X039492Y026436D02*
X037905Y026436D01*
X037905Y026337D02*
X039497Y026337D01*
X039538Y026239D02*
X037905Y026239D01*
X037905Y026140D02*
X039578Y026140D01*
X039619Y026042D02*
X037905Y026042D01*
X037905Y025943D02*
X039716Y025943D01*
X039815Y025845D02*
X037905Y025845D01*
X037905Y025746D02*
X039992Y025746D01*
X040679Y025746D02*
X041310Y025746D01*
X041310Y025648D02*
X037905Y025648D01*
X037905Y025549D02*
X041310Y025549D01*
X041310Y025451D02*
X037905Y025451D01*
X037905Y025352D02*
X041310Y025352D01*
X041310Y025254D02*
X037905Y025254D01*
X037905Y025155D02*
X041310Y025155D01*
X041310Y025057D02*
X037905Y025057D01*
X037905Y024958D02*
X038175Y024958D01*
X038077Y024860D02*
X037905Y024860D01*
X038716Y024958D02*
X041310Y024958D01*
X041310Y024860D02*
X038815Y024860D01*
X038913Y024761D02*
X041310Y024761D01*
X041310Y024663D02*
X039012Y024663D01*
X039066Y024564D02*
X039159Y024564D01*
X039701Y024564D02*
X041310Y024564D01*
X041310Y024466D02*
X039799Y024466D01*
X039898Y024367D02*
X041310Y024367D01*
X041310Y024269D02*
X039996Y024269D01*
X040050Y024170D02*
X041310Y024170D01*
X041310Y024072D02*
X040050Y024072D01*
X040050Y023973D02*
X041310Y023973D01*
X041310Y023875D02*
X040050Y023875D01*
X040050Y023776D02*
X041310Y023776D01*
X041251Y023678D02*
X040026Y023678D01*
X039928Y023579D02*
X041153Y023579D01*
X041707Y023087D02*
X043225Y023087D01*
X043225Y023185D02*
X041805Y023185D01*
X041904Y023284D02*
X043225Y023284D01*
X043225Y023382D02*
X041997Y023382D01*
X042038Y023481D02*
X043225Y023481D01*
X043225Y023579D02*
X042050Y023579D01*
X042050Y023678D02*
X043225Y023678D01*
X043225Y023776D02*
X042050Y023776D01*
X042050Y023875D02*
X043225Y023875D01*
X043225Y023973D02*
X042050Y023973D01*
X042050Y024072D02*
X043225Y024072D01*
X043225Y024170D02*
X042050Y024170D01*
X042050Y024269D02*
X043225Y024269D01*
X043225Y024367D02*
X042050Y024367D01*
X042050Y024466D02*
X043225Y024466D01*
X043225Y024564D02*
X042050Y024564D01*
X042050Y024663D02*
X043225Y024663D01*
X043225Y024761D02*
X042050Y024761D01*
X042050Y024860D02*
X043225Y024860D01*
X043225Y024958D02*
X042050Y024958D01*
X042050Y025057D02*
X043225Y025057D01*
X043225Y025155D02*
X042050Y025155D01*
X042050Y025254D02*
X043225Y025254D01*
X043225Y025352D02*
X042050Y025352D01*
X042050Y025451D02*
X043225Y025451D01*
X043225Y025549D02*
X042050Y025549D01*
X042050Y025648D02*
X043225Y025648D01*
X043225Y025746D02*
X042050Y025746D01*
X042050Y025845D02*
X043225Y025845D01*
X043225Y025943D02*
X042050Y025943D01*
X042050Y026042D02*
X043225Y026042D01*
X043225Y026140D02*
X042050Y026140D01*
X042050Y026239D02*
X043225Y026239D01*
X043225Y026337D02*
X042050Y026337D01*
X042050Y026436D02*
X043225Y026436D01*
X043225Y026534D02*
X042050Y026534D01*
X042050Y026633D02*
X043225Y026633D01*
X043225Y026731D02*
X042050Y026731D01*
X042050Y026830D02*
X043225Y026830D01*
X043225Y026928D02*
X042050Y026928D01*
X042050Y027027D02*
X043225Y027027D01*
X043225Y027125D02*
X042050Y027125D01*
X042050Y027224D02*
X043225Y027224D01*
X043225Y027322D02*
X042050Y027322D01*
X042050Y027421D02*
X043225Y027421D01*
X043225Y027519D02*
X042050Y027519D01*
X042050Y027618D02*
X043225Y027618D01*
X043225Y027716D02*
X042050Y027716D01*
X042050Y027815D02*
X043225Y027815D01*
X043225Y027913D02*
X042050Y027913D01*
X042050Y028012D02*
X043225Y028012D01*
X043225Y028110D02*
X042050Y028110D01*
X042050Y028209D02*
X043225Y028209D01*
X043225Y028307D02*
X042050Y028307D01*
X042050Y028406D02*
X043225Y028406D01*
X043225Y028504D02*
X042050Y028504D01*
X042050Y028603D02*
X043225Y028603D01*
X043225Y028701D02*
X042050Y028701D01*
X042050Y028800D02*
X043225Y028800D01*
X043225Y028898D02*
X042050Y028898D01*
X042050Y028997D02*
X043225Y028997D01*
X043225Y029095D02*
X042050Y029095D01*
X042050Y029194D02*
X043225Y029194D01*
X043225Y029292D02*
X042050Y029292D01*
X042050Y029391D02*
X043225Y029391D01*
X043225Y029489D02*
X042050Y029489D01*
X042050Y029588D02*
X043225Y029588D01*
X043225Y029686D02*
X042050Y029686D01*
X042050Y029785D02*
X043225Y029785D01*
X043225Y029883D02*
X042050Y029883D01*
X042050Y029982D02*
X043225Y029982D01*
X043225Y030080D02*
X042050Y030080D01*
X042050Y030179D02*
X043225Y030179D01*
X043225Y030277D02*
X042050Y030277D01*
X042050Y030376D02*
X043225Y030376D01*
X043225Y030474D02*
X042050Y030474D01*
X042050Y030573D02*
X043225Y030573D01*
X043225Y030671D02*
X042050Y030671D01*
X042050Y030770D02*
X043225Y030770D01*
X043225Y030868D02*
X042050Y030868D01*
X042050Y030967D02*
X043225Y030967D01*
X043225Y031065D02*
X042050Y031065D01*
X042050Y031164D02*
X043225Y031164D01*
X043225Y031262D02*
X042050Y031262D01*
X042050Y031361D02*
X043225Y031361D01*
X043225Y031459D02*
X042050Y031459D01*
X042050Y031558D02*
X043225Y031558D01*
X043225Y031656D02*
X042050Y031656D01*
X042050Y031755D02*
X043225Y031755D01*
X043225Y031853D02*
X042020Y031853D01*
X041960Y031952D02*
X043225Y031952D01*
X043225Y032050D02*
X041861Y032050D01*
X041763Y032149D02*
X043225Y032149D01*
X043225Y032247D02*
X041664Y032247D01*
X041566Y032346D02*
X043225Y032346D01*
X043225Y032444D02*
X041400Y032444D01*
X041209Y031656D02*
X039848Y031656D01*
X039750Y031558D02*
X040113Y031558D01*
X040558Y031558D02*
X041307Y031558D01*
X041310Y031459D02*
X040796Y031459D01*
X040905Y031361D02*
X041310Y031361D01*
X041310Y031262D02*
X041003Y031262D01*
X041072Y031164D02*
X041310Y031164D01*
X041310Y031065D02*
X041113Y031065D01*
X041153Y030967D02*
X041310Y030967D01*
X041310Y030868D02*
X041179Y030868D01*
X041179Y030770D02*
X041310Y030770D01*
X041310Y030671D02*
X041179Y030671D01*
X041179Y030573D02*
X041310Y030573D01*
X041310Y030474D02*
X041140Y030474D01*
X041099Y030376D02*
X041310Y030376D01*
X041310Y030277D02*
X041058Y030277D01*
X040971Y030179D02*
X041310Y030179D01*
X041310Y030080D02*
X040872Y030080D01*
X040718Y029982D02*
X041310Y029982D01*
X041310Y029883D02*
X039214Y029883D01*
X039313Y029785D02*
X041310Y029785D01*
X041310Y029686D02*
X039411Y029686D01*
X039510Y029588D02*
X041310Y029588D01*
X041310Y029489D02*
X039520Y029489D01*
X039520Y029391D02*
X041310Y029391D01*
X041310Y029292D02*
X039520Y029292D01*
X039520Y029194D02*
X041310Y029194D01*
X041310Y029095D02*
X039520Y029095D01*
X039428Y028997D02*
X041310Y028997D01*
X041310Y028898D02*
X039329Y028898D01*
X039298Y028800D02*
X041310Y028800D01*
X041310Y028701D02*
X039396Y028701D01*
X039495Y028603D02*
X041310Y028603D01*
X041310Y028504D02*
X039520Y028504D01*
X039520Y028406D02*
X041310Y028406D01*
X041310Y028307D02*
X039520Y028307D01*
X039520Y028209D02*
X041310Y028209D01*
X041310Y028110D02*
X039520Y028110D01*
X039443Y028012D02*
X041310Y028012D01*
X041310Y027913D02*
X039344Y027913D01*
X039246Y027815D02*
X041310Y027815D01*
X041310Y027716D02*
X038280Y027716D01*
X038280Y027618D02*
X041310Y027618D01*
X041310Y027519D02*
X038280Y027519D01*
X038280Y027421D02*
X041310Y027421D01*
X041310Y027322D02*
X040597Y027322D01*
X040822Y027224D02*
X041310Y027224D01*
X041310Y027125D02*
X040921Y027125D01*
X041019Y027027D02*
X041310Y027027D01*
X041310Y026928D02*
X041078Y026928D01*
X041119Y026830D02*
X041310Y026830D01*
X041310Y026731D02*
X041160Y026731D01*
X041179Y026633D02*
X041310Y026633D01*
X041310Y026534D02*
X041179Y026534D01*
X041179Y026436D02*
X041310Y026436D01*
X041310Y026337D02*
X041174Y026337D01*
X041133Y026239D02*
X041310Y026239D01*
X041310Y026140D02*
X041093Y026140D01*
X041052Y026042D02*
X041310Y026042D01*
X041310Y025943D02*
X040955Y025943D01*
X040856Y025845D02*
X041310Y025845D01*
X040074Y027322D02*
X038280Y027322D01*
X038264Y027224D02*
X039849Y027224D01*
X038614Y027815D02*
X038280Y027815D01*
X038344Y027913D02*
X038516Y027913D01*
X038449Y029686D02*
X038411Y029686D01*
X038313Y029785D02*
X038547Y029785D01*
X038646Y029883D02*
X038214Y029883D01*
X039947Y032543D02*
X043225Y032543D01*
X043225Y032641D02*
X040046Y032641D01*
X040050Y032740D02*
X043225Y032740D01*
X043225Y032838D02*
X040050Y032838D01*
X040050Y032937D02*
X043225Y032937D01*
X043225Y033035D02*
X040050Y033035D01*
X040050Y033134D02*
X043225Y033134D01*
X043225Y033232D02*
X039977Y033232D01*
X039948Y033331D02*
X043225Y033331D01*
X043225Y033429D02*
X040047Y033429D01*
X040050Y033528D02*
X043225Y033528D01*
X043225Y033626D02*
X040050Y033626D01*
X040050Y033725D02*
X043225Y033725D01*
X043225Y033823D02*
X040050Y033823D01*
X040050Y033922D02*
X043225Y033922D01*
X043225Y034020D02*
X039976Y034020D01*
X039878Y034119D02*
X043225Y034119D01*
X043225Y034217D02*
X039779Y034217D01*
X038810Y033823D02*
X038795Y033823D01*
X040726Y034710D02*
X043225Y034710D01*
X043225Y034808D02*
X040876Y034808D01*
X040974Y034907D02*
X043225Y034907D01*
X043225Y035005D02*
X041060Y035005D01*
X041101Y035104D02*
X043225Y035104D01*
X043225Y035202D02*
X041141Y035202D01*
X041179Y035301D02*
X043225Y035301D01*
X043225Y035399D02*
X041179Y035399D01*
X041179Y035498D02*
X043225Y035498D01*
X043225Y035596D02*
X041179Y035596D01*
X041152Y035695D02*
X043225Y035695D01*
X043225Y035793D02*
X041111Y035793D01*
X041070Y035892D02*
X043225Y035892D01*
X043225Y035990D02*
X041000Y035990D01*
X040901Y036089D02*
X043225Y036089D01*
X043225Y036187D02*
X040787Y036187D01*
X040549Y036286D02*
X043225Y036286D01*
X043225Y036384D02*
X034739Y036384D01*
X034739Y036286D02*
X040122Y036286D01*
X039884Y036187D02*
X034661Y036187D01*
X034562Y036089D02*
X039770Y036089D01*
X040181Y036774D02*
X039995Y036959D01*
X039895Y037202D01*
X039895Y037465D01*
X039995Y037707D01*
X040122Y037833D01*
X039995Y037959D01*
X039895Y038202D01*
X039895Y038465D01*
X039995Y038707D01*
X040122Y038833D01*
X039995Y038959D01*
X039895Y039202D01*
X039895Y039465D01*
X039995Y039707D01*
X040181Y039893D01*
X040424Y039993D01*
X040686Y039993D01*
X040929Y039893D01*
X041115Y039707D01*
X041215Y039465D01*
X041215Y039202D01*
X041115Y038959D01*
X040988Y038833D01*
X041115Y038707D01*
X041215Y038465D01*
X041215Y038202D01*
X041115Y037959D01*
X040988Y037833D01*
X041115Y037707D01*
X041215Y037465D01*
X041215Y037202D01*
X041115Y036959D01*
X040929Y036774D01*
X040686Y036673D01*
X040424Y036673D01*
X040181Y036774D01*
X040177Y036778D02*
X038183Y036778D01*
X038179Y036774D02*
X038365Y036959D01*
X038465Y037202D01*
X038465Y037465D01*
X038365Y037707D01*
X038238Y037833D01*
X038365Y037959D01*
X038465Y038202D01*
X038465Y038465D01*
X038365Y038707D01*
X038238Y038833D01*
X038365Y038959D01*
X038465Y039202D01*
X038465Y039465D01*
X038365Y039707D01*
X038179Y039893D01*
X037936Y039993D01*
X037674Y039993D01*
X037431Y039893D01*
X037245Y039707D01*
X037145Y039465D01*
X037145Y039202D01*
X037245Y038959D01*
X037372Y038833D01*
X037245Y038707D01*
X037145Y038465D01*
X037145Y038202D01*
X037245Y037959D01*
X037372Y037833D01*
X037245Y037707D01*
X037145Y037465D01*
X037145Y037202D01*
X037245Y036959D01*
X037431Y036774D01*
X037674Y036673D01*
X037936Y036673D01*
X038179Y036774D01*
X038282Y036877D02*
X040078Y036877D01*
X039989Y036975D02*
X038371Y036975D01*
X038412Y037074D02*
X039948Y037074D01*
X039907Y037172D02*
X038453Y037172D01*
X038465Y037271D02*
X039895Y037271D01*
X039895Y037369D02*
X038465Y037369D01*
X038464Y037468D02*
X039896Y037468D01*
X039937Y037566D02*
X038423Y037566D01*
X038382Y037665D02*
X039978Y037665D01*
X040052Y037763D02*
X038308Y037763D01*
X038267Y037862D02*
X040093Y037862D01*
X039995Y037960D02*
X038365Y037960D01*
X038406Y038059D02*
X039954Y038059D01*
X039913Y038157D02*
X038447Y038157D01*
X038465Y038256D02*
X039895Y038256D01*
X039895Y038354D02*
X038465Y038354D01*
X038465Y038453D02*
X039895Y038453D01*
X039931Y038551D02*
X038429Y038551D01*
X038388Y038650D02*
X039972Y038650D01*
X040037Y038748D02*
X038323Y038748D01*
X038252Y038847D02*
X040108Y038847D01*
X040010Y038945D02*
X038350Y038945D01*
X038400Y039044D02*
X039960Y039044D01*
X039920Y039142D02*
X038440Y039142D01*
X038465Y039241D02*
X039895Y039241D01*
X039895Y039339D02*
X038465Y039339D01*
X038465Y039438D02*
X039895Y039438D01*
X039925Y039536D02*
X038435Y039536D01*
X038394Y039635D02*
X039966Y039635D01*
X040022Y039733D02*
X038338Y039733D01*
X038240Y039832D02*
X040120Y039832D01*
X040272Y039930D02*
X038088Y039930D01*
X037522Y039930D02*
X032039Y039930D01*
X032060Y039909D02*
X031855Y040113D01*
X031605Y040258D01*
X031325Y040333D01*
X031035Y040333D01*
X030755Y040258D01*
X030505Y040113D01*
X030300Y039909D01*
X030155Y039658D01*
X030080Y039378D01*
X030080Y039088D01*
X030155Y038809D01*
X030300Y038558D01*
X030505Y038353D01*
X030755Y038208D01*
X031035Y038133D01*
X031325Y038133D01*
X031605Y038208D01*
X031855Y038353D01*
X032060Y038558D01*
X032205Y038809D01*
X032280Y039088D01*
X032280Y039378D01*
X032205Y039658D01*
X032060Y039909D01*
X032105Y039832D02*
X037370Y039832D01*
X037272Y039733D02*
X032161Y039733D01*
X032211Y039635D02*
X037216Y039635D01*
X037175Y039536D02*
X032238Y039536D01*
X032264Y039438D02*
X037145Y039438D01*
X037145Y039339D02*
X032280Y039339D01*
X032280Y039241D02*
X035961Y039241D01*
X035984Y039264D02*
X035621Y038901D01*
X035621Y038387D01*
X035984Y038024D01*
X036497Y038024D01*
X036861Y038387D01*
X036861Y038901D01*
X036497Y039264D01*
X035984Y039264D01*
X035862Y039142D02*
X032280Y039142D01*
X032268Y039044D02*
X035764Y039044D01*
X035665Y038945D02*
X032242Y038945D01*
X032215Y038847D02*
X035621Y038847D01*
X035621Y038748D02*
X032170Y038748D01*
X032113Y038650D02*
X035621Y038650D01*
X035621Y038551D02*
X032054Y038551D01*
X031955Y038453D02*
X035621Y038453D01*
X035653Y038354D02*
X031857Y038354D01*
X031687Y038256D02*
X035752Y038256D01*
X035850Y038157D02*
X031415Y038157D01*
X030945Y038157D02*
X023915Y038157D01*
X023825Y038133D02*
X024105Y038208D01*
X024355Y038353D01*
X024560Y038558D01*
X024705Y038809D01*
X024780Y039088D01*
X024780Y039378D01*
X024705Y039658D01*
X024560Y039909D01*
X024355Y040113D01*
X024105Y040258D01*
X023825Y040333D01*
X023535Y040333D01*
X023255Y040258D01*
X023005Y040113D01*
X022800Y039909D01*
X022655Y039658D01*
X022580Y039378D01*
X022580Y039088D01*
X022655Y038809D01*
X022800Y038558D01*
X023005Y038353D01*
X023255Y038208D01*
X023535Y038133D01*
X023825Y038133D01*
X023445Y038157D02*
X016915Y038157D01*
X016825Y038133D02*
X017105Y038208D01*
X017355Y038353D01*
X017560Y038558D01*
X017705Y038809D01*
X017780Y039088D01*
X017780Y039378D01*
X017705Y039658D01*
X017560Y039909D01*
X017355Y040113D01*
X017105Y040258D01*
X016825Y040333D01*
X016535Y040333D01*
X016255Y040258D01*
X016005Y040113D01*
X015800Y039909D01*
X015655Y039658D01*
X015580Y039378D01*
X015580Y039088D01*
X015655Y038809D01*
X015800Y038558D01*
X016005Y038353D01*
X016255Y038208D01*
X016535Y038133D01*
X016825Y038133D01*
X016445Y038157D02*
X004130Y038157D01*
X004130Y038059D02*
X035949Y038059D01*
X036532Y038059D02*
X037204Y038059D01*
X037163Y038157D02*
X036631Y038157D01*
X036729Y038256D02*
X037145Y038256D01*
X037145Y038354D02*
X036828Y038354D01*
X036861Y038453D02*
X037145Y038453D01*
X037181Y038551D02*
X036861Y038551D01*
X036861Y038650D02*
X037222Y038650D01*
X037287Y038748D02*
X036861Y038748D01*
X036861Y038847D02*
X037358Y038847D01*
X037260Y038945D02*
X036816Y038945D01*
X036718Y039044D02*
X037210Y039044D01*
X037170Y039142D02*
X036619Y039142D01*
X036521Y039241D02*
X037145Y039241D01*
X037245Y037960D02*
X004130Y037960D01*
X004130Y037862D02*
X037343Y037862D01*
X037302Y037763D02*
X004130Y037763D01*
X004130Y037665D02*
X037228Y037665D01*
X037187Y037566D02*
X004130Y037566D01*
X004130Y037468D02*
X037146Y037468D01*
X037145Y037369D02*
X004130Y037369D01*
X004130Y037271D02*
X037145Y037271D01*
X037157Y037172D02*
X004130Y037172D01*
X004130Y037074D02*
X033794Y037074D01*
X034445Y037074D02*
X037198Y037074D01*
X037239Y036975D02*
X034543Y036975D01*
X034642Y036877D02*
X037328Y036877D01*
X037427Y036778D02*
X034739Y036778D01*
X034739Y036680D02*
X037658Y036680D01*
X037952Y036680D02*
X040408Y036680D01*
X040702Y036680D02*
X043225Y036680D01*
X043225Y036778D02*
X040933Y036778D01*
X041032Y036877D02*
X043225Y036877D01*
X043225Y036975D02*
X041121Y036975D01*
X041162Y037074D02*
X043225Y037074D01*
X043225Y037172D02*
X041203Y037172D01*
X041215Y037271D02*
X043225Y037271D01*
X043225Y037369D02*
X041215Y037369D01*
X041214Y037468D02*
X043225Y037468D01*
X043225Y037566D02*
X041173Y037566D01*
X041132Y037665D02*
X043225Y037665D01*
X043225Y037763D02*
X041058Y037763D01*
X041017Y037862D02*
X043225Y037862D01*
X043225Y037960D02*
X041115Y037960D01*
X041156Y038059D02*
X043225Y038059D01*
X043225Y038157D02*
X041197Y038157D01*
X041215Y038256D02*
X043225Y038256D01*
X043225Y038354D02*
X041215Y038354D01*
X041215Y038453D02*
X043225Y038453D01*
X043225Y038551D02*
X041179Y038551D01*
X041138Y038650D02*
X043225Y038650D01*
X043225Y038748D02*
X041073Y038748D01*
X041002Y038847D02*
X043225Y038847D01*
X043225Y038945D02*
X041100Y038945D01*
X041150Y039044D02*
X043225Y039044D01*
X043225Y039142D02*
X041190Y039142D01*
X041215Y039241D02*
X043225Y039241D01*
X043225Y039339D02*
X041215Y039339D01*
X041215Y039438D02*
X043225Y039438D01*
X043225Y039536D02*
X041185Y039536D01*
X041144Y039635D02*
X043225Y039635D01*
X043225Y039733D02*
X041088Y039733D01*
X040990Y039832D02*
X043225Y039832D01*
X043225Y039930D02*
X040838Y039930D01*
X041391Y040912D02*
X041706Y040828D01*
X042032Y040828D01*
X042347Y040912D01*
X042629Y041075D01*
X042859Y041306D01*
X043022Y041588D01*
X043106Y041903D01*
X043106Y042228D01*
X043022Y042543D01*
X042859Y042825D01*
X042629Y043056D01*
X042347Y043219D01*
X042032Y043303D01*
X041706Y043303D01*
X041391Y043219D01*
X041109Y043056D01*
X040879Y042825D01*
X040716Y042543D01*
X040632Y042228D01*
X040632Y041903D01*
X040716Y041588D01*
X040879Y041306D01*
X041109Y041075D01*
X041391Y040912D01*
X041386Y040915D02*
X006131Y040915D01*
X006126Y040912D02*
X006408Y041075D01*
X006639Y041306D01*
X006802Y041588D01*
X006886Y041903D01*
X006886Y042228D01*
X006802Y042543D01*
X006639Y042825D01*
X006408Y043056D01*
X006126Y043219D01*
X005811Y043303D01*
X005486Y043303D01*
X005171Y043219D01*
X004889Y043056D01*
X004658Y042825D01*
X004495Y042543D01*
X004411Y042228D01*
X004411Y041903D01*
X004495Y041588D01*
X004658Y041306D01*
X004889Y041075D01*
X005171Y040912D01*
X005486Y040828D01*
X005811Y040828D01*
X006126Y040912D01*
X006302Y041014D02*
X041216Y041014D01*
X041072Y041112D02*
X006445Y041112D01*
X006544Y041211D02*
X040974Y041211D01*
X040877Y041309D02*
X006641Y041309D01*
X006698Y041408D02*
X040820Y041408D01*
X040763Y041506D02*
X006754Y041506D01*
X006806Y041605D02*
X040711Y041605D01*
X040685Y041703D02*
X006833Y041703D01*
X006859Y041802D02*
X040659Y041802D01*
X040632Y041900D02*
X006885Y041900D01*
X006886Y041999D02*
X040632Y041999D01*
X040632Y042097D02*
X006886Y042097D01*
X006886Y042196D02*
X040632Y042196D01*
X040649Y042294D02*
X006868Y042294D01*
X006842Y042393D02*
X040676Y042393D01*
X040702Y042491D02*
X006815Y042491D01*
X006775Y042590D02*
X040743Y042590D01*
X040800Y042688D02*
X006718Y042688D01*
X006661Y042787D02*
X040857Y042787D01*
X040939Y042885D02*
X006579Y042885D01*
X006480Y042984D02*
X041037Y042984D01*
X041155Y043082D02*
X006362Y043082D01*
X006192Y043181D02*
X041326Y043181D01*
X041618Y043279D02*
X005899Y043279D01*
X005398Y043279D02*
X004130Y043279D01*
X004130Y043181D02*
X005106Y043181D01*
X004935Y043082D02*
X004130Y043082D01*
X004130Y042984D02*
X004817Y042984D01*
X004718Y042885D02*
X004130Y042885D01*
X004130Y042787D02*
X004636Y042787D01*
X004579Y042688D02*
X004130Y042688D01*
X004130Y042590D02*
X004522Y042590D01*
X004482Y042491D02*
X004130Y042491D01*
X004130Y042393D02*
X004455Y042393D01*
X004429Y042294D02*
X004130Y042294D01*
X004130Y042196D02*
X004411Y042196D01*
X004411Y042097D02*
X004130Y042097D01*
X004130Y041999D02*
X004411Y041999D01*
X004412Y041900D02*
X004130Y041900D01*
X004130Y041802D02*
X004438Y041802D01*
X004464Y041703D02*
X004130Y041703D01*
X004130Y041605D02*
X004491Y041605D01*
X004543Y041506D02*
X004130Y041506D01*
X004130Y041408D02*
X004599Y041408D01*
X004656Y041309D02*
X004130Y041309D01*
X004130Y041211D02*
X004753Y041211D01*
X004852Y041112D02*
X004130Y041112D01*
X004130Y041014D02*
X004995Y041014D01*
X005166Y040915D02*
X004130Y040915D01*
X004130Y040817D02*
X043225Y040817D01*
X043225Y040915D02*
X042352Y040915D01*
X042522Y041014D02*
X043225Y041014D01*
X043225Y041112D02*
X042666Y041112D01*
X042764Y041211D02*
X043225Y041211D01*
X043225Y041309D02*
X042861Y041309D01*
X042918Y041408D02*
X043225Y041408D01*
X043225Y041506D02*
X042975Y041506D01*
X043027Y041605D02*
X043225Y041605D01*
X043225Y041703D02*
X043053Y041703D01*
X043079Y041802D02*
X043225Y041802D01*
X043225Y041900D02*
X043106Y041900D01*
X043106Y041999D02*
X043225Y041999D01*
X043225Y042097D02*
X043106Y042097D01*
X043106Y042196D02*
X043225Y042196D01*
X043225Y042294D02*
X043089Y042294D01*
X043062Y042393D02*
X043225Y042393D01*
X043225Y042491D02*
X043036Y042491D01*
X042995Y042590D02*
X043225Y042590D01*
X043225Y042688D02*
X042938Y042688D01*
X042881Y042787D02*
X043225Y042787D01*
X043225Y042885D02*
X042799Y042885D01*
X042701Y042984D02*
X043225Y042984D01*
X043225Y043082D02*
X042583Y043082D01*
X042412Y043181D02*
X043225Y043181D01*
X043225Y043279D02*
X042120Y043279D01*
X043225Y043378D02*
X004130Y043378D01*
X004130Y043379D02*
X043225Y043379D01*
X043225Y002783D01*
X004130Y002783D01*
X004130Y043379D01*
X004130Y040718D02*
X043225Y040718D01*
X043225Y040620D02*
X004130Y040620D01*
X004130Y040521D02*
X043225Y040521D01*
X043225Y040423D02*
X004130Y040423D01*
X004130Y040324D02*
X016502Y040324D01*
X016199Y040226D02*
X004130Y040226D01*
X004130Y040127D02*
X016029Y040127D01*
X015920Y040029D02*
X004130Y040029D01*
X004130Y039930D02*
X015821Y039930D01*
X015755Y039832D02*
X004130Y039832D01*
X004130Y039733D02*
X015699Y039733D01*
X015649Y039635D02*
X004130Y039635D01*
X004130Y039536D02*
X015622Y039536D01*
X015596Y039438D02*
X004130Y039438D01*
X004130Y039339D02*
X015580Y039339D01*
X015580Y039241D02*
X004130Y039241D01*
X004130Y039142D02*
X015580Y039142D01*
X015592Y039044D02*
X004130Y039044D01*
X004130Y038945D02*
X015618Y038945D01*
X015645Y038847D02*
X004130Y038847D01*
X004130Y038748D02*
X015690Y038748D01*
X015747Y038650D02*
X004130Y038650D01*
X004130Y038551D02*
X015806Y038551D01*
X015905Y038453D02*
X004130Y038453D01*
X004130Y038354D02*
X016003Y038354D01*
X016173Y038256D02*
X004130Y038256D01*
X010675Y028800D02*
X010698Y028800D01*
X013477Y027913D02*
X013883Y027913D01*
X013785Y027815D02*
X013575Y027815D01*
X013674Y027716D02*
X013686Y027716D01*
X013693Y025943D02*
X013447Y025943D01*
X013545Y025845D02*
X013792Y025845D01*
X013716Y025746D02*
X013644Y025746D01*
X017024Y029194D02*
X027580Y029194D01*
X027586Y029292D02*
X016926Y029292D01*
X016827Y029391D02*
X027627Y029391D01*
X027716Y029489D02*
X016729Y029489D01*
X016630Y029588D02*
X027815Y029588D01*
X027913Y029686D02*
X016532Y029686D01*
X016433Y029785D02*
X028012Y029785D01*
X028110Y029883D02*
X016335Y029883D01*
X016769Y029982D02*
X028209Y029982D01*
X028307Y030080D02*
X016868Y030080D01*
X016966Y030179D02*
X028406Y030179D01*
X028504Y030277D02*
X017065Y030277D01*
X017095Y030376D02*
X028603Y030376D01*
X028701Y030474D02*
X017095Y030474D01*
X017095Y030573D02*
X028800Y030573D01*
X028957Y030671D02*
X017095Y030671D01*
X018116Y031361D02*
X023276Y031361D01*
X023177Y031459D02*
X018232Y031459D01*
X018330Y031558D02*
X023079Y031558D01*
X023060Y031656D02*
X018377Y031656D01*
X018418Y031755D02*
X023060Y031755D01*
X023060Y031853D02*
X018445Y031853D01*
X018445Y031952D02*
X023060Y031952D01*
X023060Y032050D02*
X018445Y032050D01*
X018423Y032149D02*
X023119Y032149D01*
X023217Y032247D02*
X018382Y032247D01*
X018341Y032346D02*
X023316Y032346D01*
X023409Y032444D02*
X022951Y032444D01*
X023096Y032543D02*
X023264Y032543D01*
X022409Y032444D02*
X018245Y032444D01*
X018146Y032543D02*
X022264Y032543D01*
X022165Y032641D02*
X018122Y032641D01*
X018197Y032740D02*
X022118Y032740D01*
X022077Y032838D02*
X018238Y032838D01*
X018270Y032937D02*
X022060Y032937D01*
X022060Y033035D02*
X018270Y033035D01*
X018270Y033134D02*
X022060Y033134D01*
X022060Y033232D02*
X018270Y033232D01*
X018270Y033331D02*
X022060Y033331D01*
X022060Y033429D02*
X018270Y033429D01*
X018270Y033528D02*
X022060Y033528D01*
X022060Y033626D02*
X018270Y033626D01*
X018270Y033725D02*
X022060Y033725D01*
X022075Y033823D02*
X018240Y033823D01*
X018199Y033922D02*
X022116Y033922D01*
X022160Y034020D02*
X018127Y034020D01*
X018029Y034119D02*
X022259Y034119D01*
X022398Y034217D02*
X017812Y034217D01*
X017187Y038256D02*
X023173Y038256D01*
X023003Y038354D02*
X017357Y038354D01*
X017455Y038453D02*
X022905Y038453D01*
X022806Y038551D02*
X017554Y038551D01*
X017613Y038650D02*
X022747Y038650D01*
X022690Y038748D02*
X017670Y038748D01*
X017715Y038847D02*
X022645Y038847D01*
X022618Y038945D02*
X017742Y038945D01*
X017768Y039044D02*
X022592Y039044D01*
X022580Y039142D02*
X017780Y039142D01*
X017780Y039241D02*
X022580Y039241D01*
X022580Y039339D02*
X017780Y039339D01*
X017764Y039438D02*
X022596Y039438D01*
X022622Y039536D02*
X017738Y039536D01*
X017711Y039635D02*
X022649Y039635D01*
X022699Y039733D02*
X017661Y039733D01*
X017605Y039832D02*
X022755Y039832D01*
X022821Y039930D02*
X017539Y039930D01*
X017440Y040029D02*
X022920Y040029D01*
X023029Y040127D02*
X017331Y040127D01*
X017161Y040226D02*
X023199Y040226D01*
X023502Y040324D02*
X016858Y040324D01*
X023858Y040324D02*
X031002Y040324D01*
X030699Y040226D02*
X024161Y040226D01*
X024331Y040127D02*
X030529Y040127D01*
X030420Y040029D02*
X024440Y040029D01*
X024539Y039930D02*
X030321Y039930D01*
X030255Y039832D02*
X024605Y039832D01*
X024661Y039733D02*
X030199Y039733D01*
X030149Y039635D02*
X024711Y039635D01*
X024738Y039536D02*
X030122Y039536D01*
X030096Y039438D02*
X024764Y039438D01*
X024780Y039339D02*
X030080Y039339D01*
X030080Y039241D02*
X024780Y039241D01*
X024780Y039142D02*
X030080Y039142D01*
X030092Y039044D02*
X024768Y039044D01*
X024742Y038945D02*
X030118Y038945D01*
X030145Y038847D02*
X024715Y038847D01*
X024670Y038748D02*
X030190Y038748D01*
X030247Y038650D02*
X024613Y038650D01*
X024554Y038551D02*
X030306Y038551D01*
X030405Y038453D02*
X024455Y038453D01*
X024357Y038354D02*
X030503Y038354D01*
X030673Y038256D02*
X024187Y038256D01*
X024398Y034217D02*
X023962Y034217D01*
X024101Y034119D02*
X024259Y034119D01*
X023398Y034217D02*
X022962Y034217D01*
X023101Y034119D02*
X023259Y034119D01*
X024195Y028898D02*
X027580Y028898D01*
X027580Y028800D02*
X024293Y028800D01*
X024392Y028701D02*
X027580Y028701D01*
X027580Y028603D02*
X024490Y028603D01*
X024589Y028504D02*
X027580Y028504D01*
X027580Y028406D02*
X024687Y028406D01*
X024786Y028307D02*
X027580Y028307D01*
X027580Y028209D02*
X024884Y028209D01*
X024983Y028110D02*
X027580Y028110D01*
X027580Y028012D02*
X025081Y028012D01*
X025180Y027913D02*
X027580Y027913D01*
X027580Y027815D02*
X025278Y027815D01*
X025319Y027716D02*
X027580Y027716D01*
X027580Y027618D02*
X025340Y027618D01*
X025340Y027519D02*
X027580Y027519D01*
X027580Y027421D02*
X025340Y027421D01*
X025340Y027322D02*
X027580Y027322D01*
X027580Y027224D02*
X025340Y027224D01*
X025340Y027125D02*
X027580Y027125D01*
X027580Y027027D02*
X025340Y027027D01*
X025340Y026928D02*
X026648Y026928D01*
X026550Y026830D02*
X025340Y026830D01*
X025409Y026731D02*
X026451Y026731D01*
X026353Y026633D02*
X025507Y026633D01*
X025550Y026534D02*
X026310Y026534D01*
X026310Y026436D02*
X025550Y026436D01*
X025550Y026337D02*
X026310Y026337D01*
X026310Y026239D02*
X025550Y026239D01*
X025550Y026140D02*
X026310Y026140D01*
X026345Y026042D02*
X025515Y026042D01*
X025417Y025943D02*
X026443Y025943D01*
X026542Y025845D02*
X025318Y025845D01*
X025220Y025746D02*
X026640Y025746D01*
X027220Y025746D02*
X027473Y025746D01*
X027542Y025845D02*
X027318Y025845D01*
X027417Y025943D02*
X027443Y025943D01*
X027375Y025648D02*
X023925Y025648D01*
X023925Y025746D02*
X024640Y025746D01*
X024542Y025845D02*
X023925Y025845D01*
X023925Y025943D02*
X024443Y025943D01*
X024345Y026042D02*
X023925Y026042D01*
X023875Y026140D02*
X024310Y026140D01*
X024310Y026239D02*
X023776Y026239D01*
X023678Y026337D02*
X024310Y026337D01*
X024310Y026436D02*
X023659Y026436D01*
X023758Y026534D02*
X024310Y026534D01*
X024353Y026633D02*
X023856Y026633D01*
X023925Y026731D02*
X024451Y026731D01*
X024520Y026830D02*
X023925Y026830D01*
X023925Y026928D02*
X024520Y026928D01*
X024520Y027027D02*
X023925Y027027D01*
X023925Y027125D02*
X024520Y027125D01*
X024520Y027224D02*
X023916Y027224D01*
X023818Y027322D02*
X024520Y027322D01*
X024513Y027421D02*
X023719Y027421D01*
X023621Y027519D02*
X024414Y027519D01*
X022989Y027519D02*
X021621Y027519D01*
X021719Y027421D02*
X022891Y027421D01*
X022792Y027322D02*
X021818Y027322D01*
X021916Y027224D02*
X022694Y027224D01*
X022685Y027125D02*
X021925Y027125D01*
X021925Y027027D02*
X022685Y027027D01*
X022685Y026928D02*
X021925Y026928D01*
X021925Y026830D02*
X022685Y026830D01*
X022685Y026731D02*
X021925Y026731D01*
X021856Y026633D02*
X022754Y026633D01*
X022852Y026534D02*
X021758Y026534D01*
X021659Y026436D02*
X022951Y026436D01*
X022932Y026337D02*
X021678Y026337D01*
X021776Y026239D02*
X022834Y026239D01*
X022735Y026140D02*
X021875Y026140D01*
X021925Y026042D02*
X022685Y026042D01*
X022685Y025943D02*
X021925Y025943D01*
X021925Y025845D02*
X022685Y025845D01*
X022685Y025746D02*
X021925Y025746D01*
X021985Y025648D02*
X022685Y025648D01*
X022712Y025549D02*
X022084Y025549D01*
X022182Y025451D02*
X022811Y025451D01*
X022909Y025352D02*
X022281Y025352D01*
X023701Y025352D02*
X027079Y025352D01*
X027178Y025451D02*
X023799Y025451D01*
X023898Y025549D02*
X027276Y025549D01*
X027409Y026731D02*
X027451Y026731D01*
X027550Y026830D02*
X027310Y026830D01*
X027212Y026928D02*
X027580Y026928D01*
X029220Y025746D02*
X029640Y025746D01*
X029542Y025845D02*
X029318Y025845D01*
X029417Y025943D02*
X029443Y025943D01*
X027580Y028997D02*
X017221Y028997D01*
X017123Y029095D02*
X027580Y029095D01*
X030451Y032444D02*
X030909Y032444D01*
X030764Y032543D02*
X030596Y032543D01*
X031451Y032444D02*
X031909Y032444D01*
X031764Y032543D02*
X031596Y032543D01*
X034739Y036483D02*
X043225Y036483D01*
X043225Y036581D02*
X034739Y036581D01*
X031940Y040029D02*
X043225Y040029D01*
X043225Y040127D02*
X031831Y040127D01*
X031661Y040226D02*
X043225Y040226D01*
X043225Y040324D02*
X031358Y040324D01*
X033477Y027913D02*
X033883Y027913D01*
X033785Y027815D02*
X033575Y027815D01*
X033674Y027716D02*
X033686Y027716D01*
X032732Y021905D02*
X030235Y021905D01*
X030334Y021806D02*
X032776Y021806D01*
X032678Y021708D02*
X030432Y021708D01*
X030531Y021609D02*
X032579Y021609D01*
X032560Y021511D02*
X030550Y021511D01*
X030550Y021412D02*
X032560Y021412D01*
X032560Y021314D02*
X030550Y021314D01*
X030550Y021215D02*
X032560Y021215D01*
X032560Y021117D02*
X030550Y021117D01*
X030492Y021018D02*
X032618Y021018D01*
X032717Y020920D02*
X030393Y020920D01*
X030295Y020821D02*
X032791Y020821D01*
X032693Y020723D02*
X030280Y020723D01*
X030280Y020624D02*
X032594Y020624D01*
X032560Y020526D02*
X030280Y020526D01*
X030280Y020427D02*
X032560Y020427D01*
X032560Y020329D02*
X030280Y020329D01*
X030280Y020230D02*
X032560Y020230D01*
X032560Y020132D02*
X030280Y020132D01*
X030280Y020033D02*
X032603Y020033D01*
X032702Y019935D02*
X030280Y019935D01*
X029526Y021806D02*
X029334Y021806D01*
X029235Y021905D02*
X029625Y021905D01*
X028625Y021905D02*
X028235Y021905D01*
X028334Y021806D02*
X028526Y021806D01*
X027625Y021905D02*
X027235Y021905D01*
X027334Y021806D02*
X027526Y021806D01*
X032657Y016980D02*
X014703Y016980D01*
X014605Y016881D02*
X032755Y016881D01*
X032753Y016783D02*
X014607Y016783D01*
X014706Y016684D02*
X032654Y016684D01*
X032560Y016586D02*
X014800Y016586D01*
X014800Y016487D02*
X032560Y016487D01*
X032560Y016389D02*
X014800Y016389D01*
X014800Y016290D02*
X032560Y016290D01*
X032560Y016192D02*
X014800Y016192D01*
X014800Y016093D02*
X032560Y016093D01*
X032642Y015995D02*
X014718Y015995D01*
X014620Y015896D02*
X032740Y015896D01*
X032768Y015798D02*
X014592Y015798D01*
X014691Y015699D02*
X032669Y015699D01*
X032571Y015601D02*
X014789Y015601D01*
X014800Y015502D02*
X032560Y015502D01*
X032560Y015404D02*
X014800Y015404D01*
X010248Y016487D02*
X009862Y016487D01*
X009960Y016586D02*
X010150Y016586D01*
X009334Y015305D02*
X008776Y015305D01*
X008941Y015207D02*
X009169Y015207D01*
X009071Y015108D02*
X009039Y015108D01*
X008334Y015305D02*
X004130Y015305D01*
X004130Y015207D02*
X008169Y015207D01*
X008071Y015108D02*
X004130Y015108D01*
X004130Y015010D02*
X008021Y015010D01*
X007980Y014911D02*
X004130Y014911D01*
X004130Y014813D02*
X007965Y014813D01*
X007965Y014714D02*
X004130Y014714D01*
X004130Y014616D02*
X007965Y014616D01*
X007965Y014517D02*
X004130Y014517D01*
X004130Y014419D02*
X007965Y014419D01*
X007965Y014320D02*
X004130Y014320D01*
X004130Y014222D02*
X007965Y014222D01*
X007965Y014123D02*
X004130Y014123D01*
X004130Y014025D02*
X007972Y014025D01*
X008012Y013926D02*
X004130Y013926D01*
X004130Y013828D02*
X008053Y013828D01*
X008150Y013729D02*
X004130Y013729D01*
X004130Y013631D02*
X008093Y013631D01*
X008030Y013532D02*
X004130Y013532D01*
X004130Y013434D02*
X007989Y013434D01*
X007965Y013335D02*
X004130Y013335D01*
X004130Y013237D02*
X007965Y013237D01*
X007965Y013138D02*
X004130Y013138D01*
X004130Y013040D02*
X007965Y013040D01*
X007965Y012941D02*
X004130Y012941D01*
X004130Y012843D02*
X007965Y012843D01*
X007965Y012744D02*
X004130Y012744D01*
X004130Y012646D02*
X007965Y012646D01*
X007965Y012547D02*
X004130Y012547D01*
X004130Y012449D02*
X008003Y012449D01*
X008044Y012350D02*
X004130Y012350D01*
X004130Y012252D02*
X008127Y012252D01*
X008116Y012153D02*
X005988Y012153D01*
X006126Y012116D02*
X005811Y012201D01*
X005486Y012201D01*
X005171Y012116D01*
X004889Y011953D01*
X004658Y011723D01*
X004495Y011441D01*
X004411Y011126D01*
X004411Y010800D01*
X004495Y010486D01*
X004658Y010203D01*
X004889Y009973D01*
X005171Y009810D01*
X005486Y009726D01*
X005811Y009726D01*
X006126Y009810D01*
X006408Y009973D01*
X006639Y010203D01*
X006802Y010486D01*
X006886Y010800D01*
X006886Y011126D01*
X006802Y011441D01*
X006639Y011723D01*
X006408Y011953D01*
X006126Y012116D01*
X006233Y012055D02*
X008039Y012055D01*
X007998Y011956D02*
X006403Y011956D01*
X006504Y011858D02*
X007965Y011858D01*
X007965Y011759D02*
X006602Y011759D01*
X006675Y011661D02*
X007965Y011661D01*
X007965Y011562D02*
X006731Y011562D01*
X006788Y011464D02*
X007965Y011464D01*
X007965Y011365D02*
X006822Y011365D01*
X006848Y011267D02*
X007965Y011267D01*
X007965Y011168D02*
X006875Y011168D01*
X006886Y011070D02*
X007965Y011070D01*
X007994Y010971D02*
X006886Y010971D01*
X006886Y010873D02*
X008035Y010873D01*
X008105Y010774D02*
X006879Y010774D01*
X006853Y010676D02*
X008138Y010676D01*
X008049Y010577D02*
X006826Y010577D01*
X006798Y010479D02*
X008008Y010479D01*
X007967Y010380D02*
X006741Y010380D01*
X006684Y010282D02*
X007965Y010282D01*
X007965Y010183D02*
X006619Y010183D01*
X006520Y010085D02*
X007965Y010085D01*
X007965Y009986D02*
X006422Y009986D01*
X006261Y009888D02*
X007965Y009888D01*
X007965Y009789D02*
X006048Y009789D01*
X005249Y009789D02*
X004130Y009789D01*
X004130Y009691D02*
X007965Y009691D01*
X007965Y009592D02*
X004130Y009592D01*
X004130Y009494D02*
X007985Y009494D01*
X008025Y009395D02*
X004130Y009395D01*
X004130Y009297D02*
X008082Y009297D01*
X008436Y007228D02*
X010645Y007228D01*
X010645Y007130D02*
X008888Y007130D01*
X008987Y007031D02*
X010645Y007031D01*
X010645Y006933D02*
X009085Y006933D01*
X009159Y006834D02*
X010645Y006834D01*
X010645Y006736D02*
X009159Y006736D01*
X009159Y006637D02*
X010645Y006637D01*
X010645Y006539D02*
X009159Y006539D01*
X009159Y006440D02*
X010645Y006440D01*
X010645Y006342D02*
X009156Y006342D01*
X009057Y006243D02*
X010645Y006243D01*
X010645Y006145D02*
X009086Y006145D01*
X009159Y006046D02*
X010645Y006046D01*
X010645Y005948D02*
X009159Y005948D01*
X009159Y005849D02*
X010645Y005849D01*
X010645Y005751D02*
X009159Y005751D01*
X009159Y005652D02*
X010645Y005652D01*
X010645Y005554D02*
X009155Y005554D01*
X009057Y005455D02*
X010645Y005455D01*
X010645Y005357D02*
X008958Y005357D01*
X008860Y005258D02*
X010645Y005258D01*
X011465Y005258D02*
X012560Y005258D01*
X012560Y005160D02*
X011465Y005160D01*
X011465Y005061D02*
X012575Y005061D01*
X012674Y004963D02*
X011465Y004963D01*
X011479Y004864D02*
X012772Y004864D01*
X012871Y004766D02*
X011577Y004766D01*
X011465Y005357D02*
X012560Y005357D01*
X012560Y005455D02*
X011465Y005455D01*
X011465Y005554D02*
X012560Y005554D01*
X012622Y005652D02*
X011465Y005652D01*
X011465Y005751D02*
X012721Y005751D01*
X012787Y005849D02*
X011465Y005849D01*
X011465Y005948D02*
X012689Y005948D01*
X012590Y006046D02*
X011465Y006046D01*
X011465Y006145D02*
X012560Y006145D01*
X012560Y006243D02*
X011465Y006243D01*
X011465Y006342D02*
X012560Y006342D01*
X012560Y006440D02*
X011465Y006440D01*
X011465Y006539D02*
X012560Y006539D01*
X012607Y006637D02*
X011465Y006637D01*
X011465Y006736D02*
X012706Y006736D01*
X012802Y006834D02*
X011465Y006834D01*
X011465Y006933D02*
X012704Y006933D01*
X012605Y007031D02*
X011465Y007031D01*
X011465Y007130D02*
X012560Y007130D01*
X012560Y007228D02*
X011465Y007228D01*
X011465Y007327D02*
X012560Y007327D01*
X012560Y007425D02*
X011465Y007425D01*
X011465Y007524D02*
X012560Y007524D01*
X012592Y007622D02*
X011465Y007622D01*
X011465Y007721D02*
X012691Y007721D01*
X012789Y007819D02*
X011465Y007819D01*
X011465Y007918D02*
X012719Y007918D01*
X012620Y008016D02*
X011465Y008016D01*
X011465Y008115D02*
X012560Y008115D01*
X012560Y008213D02*
X011445Y008213D01*
X011404Y008312D02*
X012560Y008312D01*
X012560Y008410D02*
X011308Y008410D01*
X011209Y008509D02*
X012560Y008509D01*
X012577Y008607D02*
X011111Y008607D01*
X011012Y008706D02*
X012676Y008706D01*
X012774Y008804D02*
X010914Y008804D01*
X010815Y008903D02*
X012734Y008903D01*
X013588Y004864D02*
X013772Y004864D01*
X013871Y004766D02*
X013489Y004766D01*
X017801Y003190D02*
X043225Y003190D01*
X043225Y003288D02*
X040718Y003288D01*
X040873Y003387D02*
X043225Y003387D01*
X043225Y003485D02*
X040971Y003485D01*
X041059Y003584D02*
X043225Y003584D01*
X043225Y003682D02*
X041099Y003682D01*
X041140Y003781D02*
X043225Y003781D01*
X043225Y003879D02*
X041179Y003879D01*
X041179Y003978D02*
X043225Y003978D01*
X043225Y004076D02*
X041179Y004076D01*
X041179Y004175D02*
X043225Y004175D01*
X043225Y004273D02*
X041153Y004273D01*
X041113Y004372D02*
X043225Y004372D01*
X043225Y004470D02*
X041072Y004470D01*
X041003Y004569D02*
X043225Y004569D01*
X043225Y004667D02*
X040904Y004667D01*
X040795Y004766D02*
X043225Y004766D01*
X043225Y004864D02*
X040557Y004864D01*
X040114Y004864D02*
X039750Y004864D01*
X039849Y004963D02*
X043225Y004963D01*
X043225Y005061D02*
X039947Y005061D01*
X040046Y005160D02*
X043225Y005160D01*
X043225Y005258D02*
X040050Y005258D01*
X040050Y005357D02*
X043225Y005357D01*
X043225Y005455D02*
X040050Y005455D01*
X040050Y005554D02*
X043225Y005554D01*
X043225Y005652D02*
X040050Y005652D01*
X039977Y005751D02*
X043225Y005751D01*
X043225Y005849D02*
X039948Y005849D01*
X040164Y005948D02*
X043225Y005948D01*
X043225Y006046D02*
X040263Y006046D01*
X040356Y006145D02*
X043225Y006145D01*
X043225Y006243D02*
X040397Y006243D01*
X040405Y006342D02*
X043225Y006342D01*
X043225Y006440D02*
X040405Y006440D01*
X040405Y006539D02*
X043225Y006539D01*
X043225Y006637D02*
X040405Y006637D01*
X040405Y006736D02*
X043225Y006736D01*
X043225Y006834D02*
X040405Y006834D01*
X040405Y006933D02*
X043225Y006933D01*
X043225Y007031D02*
X040405Y007031D01*
X040405Y007130D02*
X043225Y007130D01*
X043225Y007228D02*
X040405Y007228D01*
X040405Y007327D02*
X043225Y007327D01*
X043225Y007425D02*
X040405Y007425D01*
X040405Y007524D02*
X043225Y007524D01*
X043225Y007622D02*
X040366Y007622D01*
X040287Y007721D02*
X043225Y007721D01*
X043225Y007819D02*
X040189Y007819D01*
X040253Y007755D02*
X040253Y007755D01*
X040090Y007918D02*
X043225Y007918D01*
X043225Y008016D02*
X040727Y008016D01*
X040876Y008115D02*
X043225Y008115D01*
X043225Y008213D02*
X040975Y008213D01*
X041060Y008312D02*
X043225Y008312D01*
X043225Y008410D02*
X041101Y008410D01*
X041142Y008509D02*
X043225Y008509D01*
X043225Y008607D02*
X041179Y008607D01*
X041179Y008706D02*
X043225Y008706D01*
X043225Y008804D02*
X041179Y008804D01*
X041179Y008903D02*
X043225Y008903D01*
X043225Y009001D02*
X041152Y009001D01*
X041111Y009100D02*
X043225Y009100D01*
X043225Y009198D02*
X041070Y009198D01*
X040999Y009297D02*
X043225Y009297D01*
X043225Y009395D02*
X040901Y009395D01*
X040786Y009494D02*
X043225Y009494D01*
X043225Y009592D02*
X040549Y009592D01*
X040289Y009789D02*
X041469Y009789D01*
X041391Y009810D02*
X041706Y009726D01*
X042032Y009726D01*
X042347Y009810D01*
X042629Y009973D01*
X042859Y010203D01*
X043022Y010486D01*
X043106Y010800D01*
X043106Y011126D01*
X043022Y011441D01*
X042859Y011723D01*
X042629Y011953D01*
X042347Y012116D01*
X042032Y012201D01*
X041706Y012201D01*
X041391Y012116D01*
X041109Y011953D01*
X040879Y011723D01*
X040716Y011441D01*
X040632Y011126D01*
X040632Y010800D01*
X040716Y010486D01*
X040879Y010203D01*
X041109Y009973D01*
X041391Y009810D01*
X041257Y009888D02*
X040387Y009888D01*
X040486Y009986D02*
X041096Y009986D01*
X040997Y010085D02*
X040584Y010085D01*
X040605Y010105D02*
X040283Y009783D01*
X039827Y009783D01*
X039505Y010105D01*
X039505Y010561D01*
X039827Y010883D01*
X040283Y010883D01*
X040605Y010561D01*
X040605Y010105D01*
X040605Y010183D02*
X040899Y010183D01*
X040834Y010282D02*
X040605Y010282D01*
X040605Y010380D02*
X040777Y010380D01*
X040720Y010479D02*
X040605Y010479D01*
X040589Y010577D02*
X040691Y010577D01*
X040665Y010676D02*
X040490Y010676D01*
X040392Y010774D02*
X040639Y010774D01*
X040632Y010873D02*
X040293Y010873D01*
X040632Y010971D02*
X039062Y010971D01*
X039031Y010897D02*
X039115Y011099D01*
X039115Y011318D01*
X039031Y011520D01*
X038877Y011675D01*
X038795Y011708D01*
X038877Y011742D01*
X039031Y011897D01*
X039115Y012099D01*
X039115Y012318D01*
X039031Y012520D01*
X038877Y012675D01*
X038674Y012758D01*
X037936Y012758D01*
X037733Y012675D01*
X037579Y012520D01*
X037495Y012318D01*
X037495Y012099D01*
X037579Y011897D01*
X037733Y011742D01*
X037815Y011708D01*
X037733Y011675D01*
X037579Y011520D01*
X037495Y011318D01*
X037495Y011099D01*
X037579Y010897D01*
X037733Y010742D01*
X037936Y010658D01*
X038674Y010658D01*
X038877Y010742D01*
X039031Y010897D01*
X039007Y010873D02*
X039817Y010873D01*
X039718Y010774D02*
X038909Y010774D01*
X038717Y010676D02*
X039620Y010676D01*
X039521Y010577D02*
X037195Y010577D01*
X037257Y010479D02*
X039505Y010479D01*
X039505Y010380D02*
X037297Y010380D01*
X037320Y010282D02*
X039505Y010282D01*
X039505Y010183D02*
X037320Y010183D01*
X037317Y010085D02*
X039526Y010085D01*
X039624Y009986D02*
X037277Y009986D01*
X037236Y009888D02*
X039723Y009888D01*
X039821Y009789D02*
X037145Y009789D01*
X037022Y009691D02*
X043225Y009691D01*
X043225Y009789D02*
X042269Y009789D01*
X042481Y009888D02*
X043225Y009888D01*
X043225Y009986D02*
X042642Y009986D01*
X042741Y010085D02*
X043225Y010085D01*
X043225Y010183D02*
X042839Y010183D01*
X042904Y010282D02*
X043225Y010282D01*
X043225Y010380D02*
X042961Y010380D01*
X043018Y010479D02*
X043225Y010479D01*
X043225Y010577D02*
X043047Y010577D01*
X043073Y010676D02*
X043225Y010676D01*
X043225Y010774D02*
X043099Y010774D01*
X043106Y010873D02*
X043225Y010873D01*
X043225Y010971D02*
X043106Y010971D01*
X043106Y011070D02*
X043225Y011070D01*
X043225Y011168D02*
X043095Y011168D01*
X043069Y011267D02*
X043225Y011267D01*
X043225Y011365D02*
X043042Y011365D01*
X043009Y011464D02*
X043225Y011464D01*
X043225Y011562D02*
X042952Y011562D01*
X042895Y011661D02*
X043225Y011661D01*
X043225Y011759D02*
X042823Y011759D01*
X042724Y011858D02*
X043225Y011858D01*
X043225Y011956D02*
X042624Y011956D01*
X042453Y012055D02*
X043225Y012055D01*
X043225Y012153D02*
X042208Y012153D01*
X041530Y012153D02*
X039115Y012153D01*
X039115Y012252D02*
X043225Y012252D01*
X043225Y012350D02*
X039101Y012350D01*
X039061Y012449D02*
X043225Y012449D01*
X043225Y012547D02*
X039004Y012547D01*
X038905Y012646D02*
X043225Y012646D01*
X043225Y012744D02*
X038708Y012744D01*
X037902Y012744D02*
X036978Y012744D01*
X037127Y012646D02*
X037705Y012646D01*
X037606Y012547D02*
X037225Y012547D01*
X037269Y012449D02*
X037549Y012449D01*
X037509Y012350D02*
X037310Y012350D01*
X037320Y012252D02*
X037495Y012252D01*
X037495Y012153D02*
X037320Y012153D01*
X037305Y012055D02*
X037513Y012055D01*
X037554Y011956D02*
X037264Y011956D01*
X037214Y011858D02*
X037618Y011858D01*
X037716Y011759D02*
X037115Y011759D01*
X037112Y011661D02*
X037720Y011661D01*
X037621Y011562D02*
X037210Y011562D01*
X037263Y011464D02*
X037556Y011464D01*
X037515Y011365D02*
X037304Y011365D01*
X037320Y011267D02*
X037495Y011267D01*
X037495Y011168D02*
X037320Y011168D01*
X037311Y011070D02*
X037507Y011070D01*
X037548Y010971D02*
X037270Y010971D01*
X037229Y010873D02*
X037603Y010873D01*
X037701Y010774D02*
X037130Y010774D01*
X037097Y010676D02*
X037893Y010676D01*
X039103Y011070D02*
X040632Y011070D01*
X040643Y011168D02*
X039115Y011168D01*
X039115Y011267D02*
X040669Y011267D01*
X040696Y011365D02*
X039095Y011365D01*
X039054Y011464D02*
X040729Y011464D01*
X040786Y011562D02*
X038989Y011562D01*
X038890Y011661D02*
X040843Y011661D01*
X040915Y011759D02*
X038894Y011759D01*
X038992Y011858D02*
X041014Y011858D01*
X041114Y011956D02*
X039056Y011956D01*
X039097Y012055D02*
X041285Y012055D01*
X039570Y008410D02*
X039555Y008410D01*
X039081Y006736D02*
X039066Y006736D01*
X038810Y005258D02*
X038766Y005258D01*
X039668Y004569D02*
X019245Y004569D01*
X019147Y004470D02*
X039599Y004470D01*
X039559Y004372D02*
X019048Y004372D01*
X018950Y004273D02*
X039518Y004273D01*
X039492Y004175D02*
X018851Y004175D01*
X018753Y004076D02*
X039492Y004076D01*
X039492Y003978D02*
X018654Y003978D01*
X018556Y003879D02*
X039492Y003879D01*
X039531Y003781D02*
X018457Y003781D01*
X018359Y003682D02*
X039572Y003682D01*
X039612Y003584D02*
X018260Y003584D01*
X018162Y003485D02*
X039700Y003485D01*
X039798Y003387D02*
X018063Y003387D01*
X017965Y003288D02*
X039953Y003288D01*
X043225Y003091D02*
X007285Y003091D01*
X007186Y002993D02*
X043225Y002993D01*
X043225Y002894D02*
X007032Y002894D01*
X006267Y002894D02*
X004130Y002894D01*
X004130Y002796D02*
X043225Y002796D01*
X033871Y004766D02*
X033489Y004766D01*
X033588Y004864D02*
X033772Y004864D01*
X041510Y022890D02*
X043225Y022890D01*
X043225Y022988D02*
X041608Y022988D01*
X007919Y005652D02*
X007876Y005652D01*
X006427Y004470D02*
X004130Y004470D01*
X004130Y004372D02*
X006189Y004372D01*
X006080Y004273D02*
X004130Y004273D01*
X004130Y004175D02*
X005982Y004175D01*
X005913Y004076D02*
X004130Y004076D01*
X004130Y003978D02*
X005872Y003978D01*
X005832Y003879D02*
X004130Y003879D01*
X004130Y003781D02*
X005806Y003781D01*
X005806Y003682D02*
X004130Y003682D01*
X004130Y003584D02*
X005806Y003584D01*
X005806Y003485D02*
X004130Y003485D01*
X004130Y003387D02*
X005845Y003387D01*
X005886Y003288D02*
X004130Y003288D01*
X004130Y003190D02*
X005927Y003190D01*
X006014Y003091D02*
X004130Y003091D01*
X004130Y002993D02*
X006113Y002993D01*
X005036Y009888D02*
X004130Y009888D01*
X004130Y009986D02*
X004875Y009986D01*
X004777Y010085D02*
X004130Y010085D01*
X004130Y010183D02*
X004678Y010183D01*
X004613Y010282D02*
X004130Y010282D01*
X004130Y010380D02*
X004556Y010380D01*
X004499Y010479D02*
X004130Y010479D01*
X004130Y010577D02*
X004471Y010577D01*
X004444Y010676D02*
X004130Y010676D01*
X004130Y010774D02*
X004418Y010774D01*
X004411Y010873D02*
X004130Y010873D01*
X004130Y010971D02*
X004411Y010971D01*
X004411Y011070D02*
X004130Y011070D01*
X004130Y011168D02*
X004422Y011168D01*
X004449Y011267D02*
X004130Y011267D01*
X004130Y011365D02*
X004475Y011365D01*
X004509Y011464D02*
X004130Y011464D01*
X004130Y011562D02*
X004566Y011562D01*
X004622Y011661D02*
X004130Y011661D01*
X004130Y011759D02*
X004695Y011759D01*
X004793Y011858D02*
X004130Y011858D01*
X004130Y011956D02*
X004894Y011956D01*
X005064Y012055D02*
X004130Y012055D01*
X004130Y012153D02*
X005309Y012153D01*
X006339Y015798D02*
X004130Y015798D01*
X004130Y015896D02*
X006240Y015896D01*
X006142Y015995D02*
X004130Y015995D01*
X004130Y016093D02*
X006060Y016093D01*
X006060Y016192D02*
X004130Y016192D01*
X004130Y016290D02*
X006060Y016290D01*
X006060Y016389D02*
X004130Y016389D01*
X004130Y016487D02*
X006060Y016487D01*
X006060Y016586D02*
X004130Y016586D01*
X004130Y016684D02*
X006154Y016684D01*
X006253Y016783D02*
X004130Y016783D01*
X004130Y016881D02*
X006351Y016881D01*
X007009Y016881D02*
X007351Y016881D01*
X007253Y016783D02*
X007107Y016783D01*
X007120Y015896D02*
X007240Y015896D01*
X007339Y015798D02*
X007021Y015798D01*
X006368Y019738D02*
X004130Y019738D01*
X004130Y019836D02*
X006269Y019836D01*
X006179Y019935D02*
X004130Y019935D01*
X004130Y020033D02*
X006138Y020033D01*
X006097Y020132D02*
X004130Y020132D01*
X004130Y020230D02*
X006056Y020230D01*
X006056Y020329D02*
X004130Y020329D01*
X004130Y020427D02*
X006056Y020427D01*
X006056Y020526D02*
X004130Y020526D01*
X004130Y020624D02*
X006080Y020624D01*
X006120Y020723D02*
X004130Y020723D01*
X004130Y020821D02*
X006161Y020821D01*
X006227Y020920D02*
X004130Y020920D01*
X004130Y021018D02*
X006325Y021018D01*
X006427Y021117D02*
X004130Y021117D01*
X004130Y021215D02*
X006665Y021215D01*
D28*
X011180Y029333D02*
X014930Y029333D01*
X022930Y021333D01*
X024930Y021333D01*
X026805Y018708D02*
X026930Y018708D01*
X023305Y011708D02*
X022680Y011708D01*
X022430Y011458D01*
X022430Y008333D01*
X017680Y003583D01*
X012180Y003583D01*
X011055Y004708D01*
X011055Y008083D01*
X010180Y008958D01*
X008805Y008958D01*
X008555Y009208D01*
X008555Y009958D01*
X024930Y026333D02*
X024930Y027583D01*
X023930Y028583D01*
X017055Y028583D01*
X014305Y031333D01*
X011180Y031333D01*
X034180Y027333D02*
X034555Y027333D01*
X035555Y026333D01*
X035555Y024083D01*
X036055Y023583D01*
X038430Y023583D01*
X038839Y023174D01*
X038839Y023171D01*
X038446Y023565D01*
X038839Y023171D02*
X039430Y023171D01*
X041305Y020833D02*
X037055Y020833D01*
X035555Y022333D01*
X035555Y024083D01*
X041305Y020833D02*
X041930Y020208D01*
D29*
X041268Y023171D02*
X039430Y023171D01*
X041268Y023171D02*
X041680Y023583D01*
X041680Y031708D01*
X041305Y032083D01*
X038871Y032083D01*
X038446Y032508D01*
X038839Y032115D01*
X039430Y032115D01*
X011180Y029333D02*
X010555Y029333D01*
X010305Y029083D01*
X010305Y026246D01*
X007805Y023746D01*
X008805Y008958D02*
X008805Y008246D01*
X007555Y006996D01*
X008146Y006996D01*
X008539Y006602D01*
D30*
X023305Y012708D02*
X024430Y012708D01*
X024805Y012333D01*
X024805Y009833D01*
X025805Y008833D01*
X026430Y008833D01*
X026430Y009833D02*
X025930Y009833D01*
X025430Y010333D01*
X025430Y013333D01*
X025055Y013708D01*
X023305Y013708D01*
X026305Y014708D02*
X028180Y014708D01*
X028680Y014208D01*
X028680Y010458D01*
X028055Y009833D01*
X027430Y009833D01*
X033180Y010333D02*
X033680Y009833D01*
X034430Y009833D01*
X035180Y009083D01*
X035180Y008458D01*
X035555Y008083D01*
X039430Y008083D01*
X040055Y007458D01*
X040055Y006333D01*
X039930Y006208D01*
X039430Y006208D01*
X037055Y015333D02*
X034180Y015333D01*
X037055Y015333D02*
X037555Y015833D01*
X037555Y017208D01*
X037949Y017602D01*
X038446Y017602D01*
X038446Y024352D02*
X037911Y024352D01*
X037555Y024708D01*
X037555Y026958D01*
X037930Y027333D01*
X037930Y028333D01*
X037930Y029333D01*
X037680Y029583D01*
X029805Y029583D01*
X028930Y028708D01*
X028930Y026333D01*
X027930Y026333D02*
X027930Y025708D01*
X027180Y024958D01*
X022180Y024958D01*
X021305Y025833D01*
X027930Y026333D02*
X027930Y029208D01*
X029055Y030333D01*
X034680Y030333D01*
X037680Y033333D01*
X038408Y033333D01*
X038446Y033296D01*
X029930Y021333D02*
X029930Y019208D01*
X028430Y017708D01*
X026805Y017708D01*
X026930Y018708D02*
X027930Y019708D01*
X027930Y021333D01*
M02*
