G75*
%MOIN*%
%OFA0B0*%
%FSLAX24Y24*%
%IPPOS*%
%LPD*%
%AMOC8*
5,1,8,0,0,1.08239X$1,22.5*
%
%ADD10C,0.0050*%
%ADD11C,0.0060*%
D10*
X015955Y014952D02*
X015955Y015227D01*
X016047Y015319D01*
X016230Y015319D01*
X016322Y015227D01*
X016322Y014952D01*
X016505Y014952D02*
X015955Y014952D01*
X016047Y015504D02*
X015955Y015596D01*
X015955Y015780D01*
X016047Y015871D01*
X016230Y015871D01*
X016322Y015780D01*
X016322Y015596D01*
X016230Y015504D01*
X016047Y015504D01*
X016047Y016057D02*
X016138Y016149D01*
X016138Y016424D01*
X016230Y016424D02*
X015955Y016424D01*
X015955Y016149D01*
X016047Y016057D01*
X016322Y016149D02*
X016322Y016332D01*
X016230Y016424D01*
X016138Y016609D02*
X016322Y016793D01*
X016322Y016885D01*
X016230Y017070D02*
X016322Y017161D01*
X016322Y017437D01*
X016505Y017437D02*
X015955Y017437D01*
X015955Y017161D01*
X016047Y017070D01*
X016230Y017070D01*
X016322Y016609D02*
X015955Y016609D01*
X016855Y016701D02*
X017038Y016517D01*
X017405Y016517D01*
X017130Y016332D02*
X017222Y016240D01*
X017222Y016056D01*
X017130Y015965D01*
X016947Y015965D01*
X016855Y016056D01*
X016855Y016240D01*
X016947Y016332D01*
X017130Y016332D01*
X016855Y016701D02*
X017038Y016884D01*
X017405Y016884D01*
X017222Y017070D02*
X017405Y017253D01*
X017222Y017437D01*
X016855Y017437D01*
X016855Y017622D02*
X017405Y017622D01*
X016855Y017989D01*
X017405Y017989D01*
X017405Y018175D02*
X017405Y018542D01*
X017405Y018358D02*
X016855Y018358D01*
X016505Y018175D02*
X016138Y018175D01*
X015955Y018358D01*
X016138Y018542D01*
X016505Y018542D01*
X016414Y018727D02*
X016505Y018819D01*
X016505Y019002D01*
X016414Y019094D01*
X016322Y019094D01*
X016230Y019002D01*
X016138Y019094D01*
X016047Y019094D01*
X015955Y019002D01*
X015955Y018819D01*
X016047Y018727D01*
X016230Y018911D02*
X016230Y019002D01*
X016047Y019280D02*
X016047Y019371D01*
X015955Y019371D01*
X015955Y019280D01*
X016047Y019280D01*
X015955Y019556D02*
X016322Y019923D01*
X016414Y019923D01*
X016505Y019831D01*
X016505Y019648D01*
X016414Y019556D01*
X015955Y019556D02*
X015955Y019923D01*
X017130Y017437D02*
X017130Y017070D01*
X017222Y017070D02*
X016855Y017070D01*
X017222Y015780D02*
X017222Y015688D01*
X017038Y015504D01*
X016855Y015504D02*
X017222Y015504D01*
X017130Y015319D02*
X016947Y015319D01*
X016855Y015227D01*
X016855Y014952D01*
X016672Y014952D02*
X017222Y014952D01*
X017222Y015227D01*
X017130Y015319D01*
D11*
X011180Y034483D02*
X010180Y034483D01*
X010163Y034485D01*
X010146Y034489D01*
X010130Y034496D01*
X010116Y034506D01*
X010103Y034519D01*
X010093Y034533D01*
X010086Y034549D01*
X010082Y034566D01*
X010080Y034583D01*
X010080Y037083D01*
X010082Y037100D01*
X010086Y037117D01*
X010093Y037133D01*
X010103Y037147D01*
X010116Y037160D01*
X010130Y037170D01*
X010146Y037177D01*
X010163Y037181D01*
X010180Y037183D01*
X011180Y037183D01*
X011197Y037181D01*
X011214Y037177D01*
X011230Y037170D01*
X011244Y037160D01*
X011257Y037147D01*
X011267Y037133D01*
X011274Y037117D01*
X011278Y037100D01*
X011280Y037083D01*
X011280Y034583D01*
X011278Y034566D01*
X011274Y034549D01*
X011267Y034533D01*
X011257Y034519D01*
X011244Y034506D01*
X011230Y034496D01*
X011214Y034489D01*
X011197Y034485D01*
X011180Y034483D01*
X038160Y021133D02*
X038700Y021133D01*
X038700Y020533D02*
X038160Y020533D01*
M02*
