G75*
%MOIN*%
%OFA0B0*%
%FSLAX24Y24*%
%IPPOS*%
%LPD*%
%AMOC8*
5,1,8,0,0,1.08239X$1,22.5*
%
%ADD10C,0.0050*%
%ADD11C,0.0040*%
%ADD12R,0.0500X0.1000*%
%ADD13C,0.0060*%
%ADD14C,0.0100*%
%ADD15R,0.0200X0.0150*%
%ADD16C,0.0080*%
%ADD17C,0.0006*%
%ADD18R,0.0150X0.0200*%
%ADD19C,0.0010*%
%ADD20C,0.0020*%
%ADD21R,0.0500X0.0350*%
%ADD22C,0.0160*%
%ADD23R,0.0300X0.0250*%
%ADD24R,0.0500X0.1100*%
%ADD25C,0.0200*%
D10*
X004209Y003649D02*
X004209Y004043D01*
X004209Y004122D01*
X004209Y008374D01*
X009524Y008374D01*
X009524Y003649D01*
X004209Y003649D01*
X004422Y008733D02*
X004605Y008733D01*
X004697Y008825D01*
X004697Y009284D01*
X004882Y009192D02*
X004882Y009100D01*
X004974Y009009D01*
X005158Y009009D01*
X005249Y008917D01*
X005249Y008825D01*
X005158Y008733D01*
X004974Y008733D01*
X004882Y008825D01*
X004882Y009192D02*
X004974Y009284D01*
X005158Y009284D01*
X005249Y009192D01*
X005435Y009009D02*
X005710Y009009D01*
X005802Y008917D01*
X005802Y008825D01*
X005710Y008733D01*
X005527Y008733D01*
X005435Y008825D01*
X005435Y009009D01*
X005618Y009192D01*
X005802Y009284D01*
X004330Y009284D02*
X004330Y008825D01*
X004422Y008733D01*
X004455Y014233D02*
X004455Y014784D01*
X004730Y014784D01*
X004822Y014692D01*
X004822Y014509D01*
X004730Y014417D01*
X004455Y014417D01*
X004638Y014417D02*
X004822Y014233D01*
X005007Y014233D02*
X005374Y014233D01*
X005560Y014325D02*
X005652Y014233D01*
X005835Y014233D01*
X005927Y014325D01*
X006112Y014417D02*
X006296Y014233D01*
X006479Y014417D01*
X006479Y014784D01*
X006112Y014784D02*
X006112Y014417D01*
X005927Y014692D02*
X005835Y014784D01*
X005652Y014784D01*
X005560Y014692D01*
X005560Y014325D01*
X005191Y014509D02*
X005007Y014509D01*
X005007Y014784D02*
X005007Y014233D01*
X005007Y014784D02*
X005374Y014784D01*
X006300Y016853D02*
X006300Y017163D01*
X006160Y017013D02*
X006450Y017013D01*
X006300Y019103D02*
X006300Y019413D01*
X006160Y019263D02*
X006450Y019263D01*
X004459Y020399D02*
X004459Y020793D01*
X004459Y020872D01*
X004459Y025124D01*
X009774Y025124D01*
X009774Y020399D01*
X004459Y020399D01*
X004547Y025483D02*
X004730Y025483D01*
X004822Y025575D01*
X004822Y026034D01*
X005007Y025942D02*
X005007Y025850D01*
X005099Y025759D01*
X005283Y025759D01*
X005374Y025667D01*
X005374Y025575D01*
X005283Y025483D01*
X005099Y025483D01*
X005007Y025575D01*
X005007Y025942D02*
X005099Y026034D01*
X005283Y026034D01*
X005374Y025942D01*
X005560Y025942D02*
X005652Y026034D01*
X005835Y026034D01*
X005927Y025942D01*
X005927Y025850D01*
X005560Y025483D01*
X005927Y025483D01*
X004547Y025483D02*
X004455Y025575D01*
X004455Y026034D01*
X004459Y027024D02*
X004459Y027418D01*
X004459Y027497D01*
X004459Y031749D01*
X009774Y031749D01*
X009774Y027024D01*
X004459Y027024D01*
X004455Y032108D02*
X004455Y032475D01*
X004638Y032659D01*
X004822Y032475D01*
X004822Y032108D01*
X005007Y032108D02*
X005007Y032659D01*
X005374Y032108D01*
X005374Y032659D01*
X005560Y032475D02*
X005743Y032659D01*
X005743Y032108D01*
X005560Y032108D02*
X005927Y032108D01*
X004822Y032384D02*
X004455Y032384D01*
X004730Y033483D02*
X004730Y033759D01*
X004821Y033850D01*
X005005Y033850D01*
X005097Y033759D01*
X005097Y033483D01*
X005280Y033483D02*
X004730Y033483D01*
X004730Y034036D02*
X005280Y034036D01*
X005097Y034219D01*
X005280Y034403D01*
X004730Y034403D01*
X004730Y034588D02*
X004730Y034863D01*
X004821Y034955D01*
X005005Y034955D01*
X005097Y034863D01*
X005097Y034588D01*
X005280Y034588D02*
X004730Y034588D01*
X005097Y034772D02*
X005280Y034955D01*
X010155Y031113D02*
X010495Y031113D01*
X010495Y031226D02*
X010495Y030999D01*
X010268Y030999D02*
X010155Y031113D01*
X010211Y030226D02*
X010155Y030169D01*
X010155Y030056D01*
X010211Y029999D01*
X010211Y030226D02*
X010268Y030226D01*
X010495Y029999D01*
X010495Y030226D01*
X010438Y029226D02*
X010495Y029169D01*
X010495Y029056D01*
X010438Y028999D01*
X010325Y029113D02*
X010325Y029169D01*
X010382Y029226D01*
X010438Y029226D01*
X010325Y029169D02*
X010268Y029226D01*
X010211Y029226D01*
X010155Y029169D01*
X010155Y029056D01*
X010211Y028999D01*
X012180Y029333D02*
X012180Y003333D01*
X035180Y003333D01*
X035180Y029333D01*
X012180Y029333D01*
X012138Y032108D02*
X012230Y032200D01*
X012230Y032659D01*
X012138Y032659D02*
X012322Y032659D01*
X012507Y032659D02*
X012507Y032108D01*
X012507Y032292D02*
X012783Y032292D01*
X012874Y032384D01*
X012874Y032567D01*
X012783Y032659D01*
X012507Y032659D01*
X013060Y032475D02*
X013243Y032659D01*
X013243Y032108D01*
X013060Y032108D02*
X013427Y032108D01*
X012138Y032108D02*
X012047Y032108D01*
X011955Y032200D01*
X010680Y041333D02*
X036680Y041333D01*
X036680Y003333D01*
X010680Y003333D01*
X010680Y041333D01*
X024430Y026833D02*
X024430Y020833D01*
X030430Y020833D01*
X030430Y026833D01*
X024430Y026833D01*
X026770Y019834D02*
X026770Y019383D01*
X026620Y019383D02*
X026920Y019383D01*
X026620Y019684D02*
X026770Y019834D01*
X024070Y017934D02*
X023920Y017859D01*
X023770Y017708D01*
X023995Y017708D01*
X024070Y017633D01*
X024070Y017558D01*
X023995Y017483D01*
X023845Y017483D01*
X023770Y017558D01*
X023770Y017708D01*
X026270Y010959D02*
X026195Y010884D01*
X026270Y010959D02*
X026420Y010959D01*
X026495Y010884D01*
X026495Y010809D01*
X026195Y010508D01*
X026495Y010508D01*
X027195Y010508D02*
X027495Y010508D01*
X027345Y010508D02*
X027345Y010959D01*
X027195Y010809D01*
X028388Y009034D02*
X028572Y009034D01*
X028480Y009034D02*
X028480Y008575D01*
X028388Y008483D01*
X028297Y008483D01*
X028205Y008575D01*
X028757Y008483D02*
X028757Y009034D01*
X029033Y009034D01*
X029124Y008942D01*
X029124Y008759D01*
X029033Y008667D01*
X028757Y008667D01*
X029310Y008483D02*
X029677Y008850D01*
X029677Y008942D01*
X029585Y009034D01*
X029402Y009034D01*
X029310Y008942D01*
X029310Y008483D02*
X029677Y008483D01*
X035830Y013075D02*
X035922Y012983D01*
X036013Y012983D01*
X036105Y013075D01*
X036105Y013534D01*
X036013Y013534D02*
X036197Y013534D01*
X036382Y013534D02*
X036658Y013534D01*
X036749Y013442D01*
X036749Y013259D01*
X036658Y013167D01*
X036382Y013167D01*
X036382Y012983D02*
X036382Y013534D01*
X036935Y013442D02*
X037027Y013534D01*
X037210Y013534D01*
X037302Y013442D01*
X037302Y013350D01*
X037210Y013259D01*
X037302Y013167D01*
X037302Y013075D01*
X037210Y012983D01*
X037027Y012983D01*
X036935Y013075D01*
X037118Y013259D02*
X037210Y013259D01*
X037655Y012033D02*
X037655Y010383D01*
X038255Y010656D02*
X038255Y010761D01*
X037867Y010254D02*
X037811Y010281D01*
X037757Y010312D01*
X037705Y010346D01*
X037655Y010383D01*
X038752Y010258D02*
X038809Y010287D01*
X038865Y010320D01*
X038918Y010355D01*
X038969Y010395D01*
X039017Y010437D01*
X039063Y010482D01*
X039106Y010529D01*
X039146Y010579D01*
X039183Y010632D01*
X039216Y010687D01*
X039247Y010743D01*
X039273Y010802D01*
X039296Y010862D01*
X039316Y010923D01*
X039331Y010985D01*
X039343Y011048D01*
X039351Y011112D01*
X039355Y011176D01*
X039355Y011240D01*
X039351Y011304D01*
X039343Y011368D01*
X039331Y011431D01*
X039316Y011493D01*
X039296Y011554D01*
X039273Y011614D01*
X039247Y011673D01*
X039216Y011729D01*
X039183Y011784D01*
X039146Y011837D01*
X039106Y011887D01*
X039063Y011934D01*
X039017Y011979D01*
X038969Y012021D01*
X038918Y012061D01*
X038865Y012096D01*
X038809Y012129D01*
X038752Y012158D01*
X038255Y011761D02*
X038255Y011656D01*
X037858Y012158D02*
X037804Y012131D01*
X037753Y012101D01*
X037703Y012068D01*
X037655Y012033D01*
X036655Y009534D02*
X036655Y009233D01*
X036655Y009383D02*
X036205Y009383D01*
X036355Y009233D01*
X037461Y008767D02*
X042776Y008767D01*
X042776Y008374D01*
X042776Y008295D01*
X042776Y004043D01*
X037461Y004043D01*
X037461Y008767D01*
X041205Y003784D02*
X041205Y003325D01*
X041297Y003233D01*
X041480Y003233D01*
X041572Y003325D01*
X041572Y003784D01*
X041757Y003692D02*
X041757Y003600D01*
X041849Y003509D01*
X042033Y003509D01*
X042124Y003417D01*
X042124Y003325D01*
X042033Y003233D01*
X041849Y003233D01*
X041757Y003325D01*
X041757Y003692D02*
X041849Y003784D01*
X042033Y003784D01*
X042124Y003692D01*
X042310Y003784D02*
X042310Y003509D01*
X042493Y003600D01*
X042585Y003600D01*
X042677Y003509D01*
X042677Y003325D01*
X042585Y003233D01*
X042402Y003233D01*
X042310Y003325D01*
X042310Y003784D02*
X042677Y003784D01*
X042678Y014108D02*
X043045Y014108D01*
X042862Y014108D02*
X042862Y014659D01*
X042678Y014475D01*
X042493Y014659D02*
X042310Y014659D01*
X042402Y014659D02*
X042402Y014108D01*
X042493Y014108D02*
X042310Y014108D01*
X042124Y014384D02*
X042033Y014292D01*
X041757Y014292D01*
X041757Y014108D02*
X041757Y014659D01*
X042033Y014659D01*
X042124Y014567D01*
X042124Y014384D01*
X041572Y014292D02*
X041572Y014200D01*
X041480Y014108D01*
X041297Y014108D01*
X041205Y014200D01*
X041297Y014384D02*
X041480Y014384D01*
X041572Y014292D01*
X041572Y014567D02*
X041480Y014659D01*
X041297Y014659D01*
X041205Y014567D01*
X041205Y014475D01*
X041297Y014384D01*
X042776Y015043D02*
X037461Y015043D01*
X037461Y019767D01*
X042776Y019767D01*
X042776Y019374D01*
X042776Y019295D01*
X042776Y015043D01*
X042776Y021793D02*
X037461Y021793D01*
X037461Y026517D01*
X042776Y026517D01*
X042776Y026124D01*
X042776Y026045D01*
X042776Y021793D01*
X042803Y026983D02*
X043170Y026983D01*
X042987Y026983D02*
X042987Y027534D01*
X042803Y027350D01*
X042618Y027442D02*
X042526Y027534D01*
X042343Y027534D01*
X042251Y027442D01*
X042251Y027075D01*
X042343Y026983D01*
X042526Y026983D01*
X042618Y027075D01*
X042065Y026983D02*
X041698Y026983D01*
X042065Y027350D01*
X042065Y027442D01*
X041974Y027534D01*
X041790Y027534D01*
X041698Y027442D01*
X041513Y027534D02*
X041330Y027534D01*
X041422Y027534D02*
X041422Y026983D01*
X041513Y026983D02*
X041330Y026983D01*
X041280Y027983D02*
X040730Y027983D01*
X040730Y028350D01*
X040821Y028536D02*
X040913Y028536D01*
X041005Y028627D01*
X041005Y028811D01*
X041097Y028903D01*
X041188Y028903D01*
X041280Y028811D01*
X041280Y028627D01*
X041188Y028536D01*
X041280Y028350D02*
X041280Y027983D01*
X041005Y027983D02*
X041005Y028167D01*
X040821Y028536D02*
X040730Y028627D01*
X040730Y028811D01*
X040821Y028903D01*
X040821Y029088D02*
X041188Y029088D01*
X041280Y029180D01*
X041280Y029363D01*
X041188Y029455D01*
X040821Y029455D02*
X040730Y029363D01*
X040730Y029180D01*
X040821Y029088D01*
X040045Y030008D02*
X039745Y030008D01*
X039895Y030008D02*
X039895Y030459D01*
X039745Y030309D01*
X037461Y030737D02*
X042776Y030737D01*
X042776Y034989D01*
X042776Y035068D01*
X042776Y035461D01*
X037461Y035461D01*
X037461Y030737D01*
X037195Y028559D02*
X037045Y028484D01*
X036895Y028333D01*
X037120Y028333D01*
X037195Y028258D01*
X037195Y028183D01*
X037120Y028108D01*
X036970Y028108D01*
X036895Y028183D01*
X036895Y028333D01*
X041205Y035858D02*
X041388Y035858D01*
X041297Y035858D02*
X041297Y036409D01*
X041388Y036409D02*
X041205Y036409D01*
X041573Y036317D02*
X041665Y036409D01*
X041849Y036409D01*
X041940Y036317D01*
X041940Y036225D01*
X041573Y035858D01*
X041940Y035858D01*
X042126Y035950D02*
X042126Y036317D01*
X042218Y036409D01*
X042401Y036409D01*
X042493Y036317D01*
X042678Y036317D02*
X042770Y036409D01*
X042953Y036409D01*
X043045Y036317D01*
X043045Y036225D01*
X042953Y036134D01*
X043045Y036042D01*
X043045Y035950D01*
X042953Y035858D01*
X042770Y035858D01*
X042678Y035950D01*
X042493Y035950D02*
X042401Y035858D01*
X042218Y035858D01*
X042126Y035950D01*
X042862Y036134D02*
X042953Y036134D01*
X042563Y037358D02*
X042655Y037450D01*
X042655Y037634D01*
X042563Y037725D01*
X042472Y037725D01*
X042380Y037634D01*
X042380Y037450D01*
X042288Y037358D01*
X042196Y037358D01*
X042105Y037450D01*
X042105Y037634D01*
X042196Y037725D01*
X042105Y037911D02*
X042655Y037911D01*
X042655Y038278D01*
X042655Y038463D02*
X042105Y038463D01*
X042105Y038738D01*
X042196Y038830D01*
X042380Y038830D01*
X042472Y038738D01*
X042472Y038463D01*
X042472Y038647D02*
X042655Y038830D01*
X042472Y039016D02*
X042655Y039199D01*
X042472Y039383D01*
X042105Y039383D01*
X042196Y039568D02*
X042563Y039568D01*
X042655Y039660D01*
X042655Y039843D01*
X042563Y039935D01*
X042196Y039935D01*
X042105Y039843D01*
X042105Y039660D01*
X042196Y039568D01*
X042105Y039016D02*
X042472Y039016D01*
X042105Y038278D02*
X042105Y037911D01*
X042380Y037911D02*
X042380Y038094D01*
X041755Y036833D02*
X041755Y040833D01*
X039555Y040833D01*
X039555Y040333D01*
X040055Y040333D01*
X040055Y037333D01*
X039555Y037333D01*
X039555Y040333D01*
X039005Y040833D02*
X039005Y036833D01*
X036805Y036833D01*
X036805Y037333D01*
X037305Y037333D01*
X037305Y040333D01*
X036805Y040333D01*
X036805Y040833D01*
X039005Y040833D01*
X036805Y040333D02*
X036805Y037333D01*
X039555Y037333D02*
X039555Y036833D01*
X041755Y036833D01*
X010270Y014684D02*
X010270Y014233D01*
X010120Y014233D02*
X010420Y014233D01*
X010120Y014534D02*
X010270Y014684D01*
X010270Y013184D02*
X010270Y012733D01*
X010120Y012733D02*
X010420Y012733D01*
X010120Y013034D02*
X010270Y013184D01*
X010270Y011684D02*
X010270Y011233D01*
X010120Y011233D02*
X010420Y011233D01*
X010120Y011534D02*
X010270Y011684D01*
X010270Y010184D02*
X010270Y009733D01*
X010120Y009733D02*
X010420Y009733D01*
X010120Y010034D02*
X010270Y010184D01*
D11*
X027950Y022430D02*
X027950Y022583D01*
X028026Y022660D01*
X028103Y022660D01*
X028180Y022583D01*
X028257Y022660D01*
X028333Y022660D01*
X028410Y022583D01*
X028410Y022430D01*
X028333Y022353D01*
X028180Y022507D02*
X028180Y022583D01*
X028257Y022814D02*
X027950Y022814D01*
X028257Y022814D02*
X028410Y022967D01*
X028257Y023121D01*
X027950Y023121D01*
X028026Y023274D02*
X027950Y023351D01*
X027950Y023504D01*
X028026Y023581D01*
X028103Y023581D01*
X028180Y023504D01*
X028257Y023581D01*
X028333Y023581D01*
X028410Y023504D01*
X028410Y023351D01*
X028333Y023274D01*
X028180Y023428D02*
X028180Y023504D01*
X028180Y024195D02*
X028180Y024502D01*
X028180Y025116D02*
X028103Y025269D01*
X028103Y025346D01*
X028180Y025423D01*
X028333Y025423D01*
X028410Y025346D01*
X028410Y025192D01*
X028333Y025116D01*
X028180Y025116D02*
X027950Y025116D01*
X027950Y025423D01*
X027950Y025576D02*
X028257Y025576D01*
X028410Y025729D01*
X028257Y025883D01*
X027950Y025883D01*
X027950Y022430D02*
X028026Y022353D01*
D12*
X025680Y023833D03*
X025180Y022833D03*
X025180Y024833D03*
D13*
X022905Y025483D02*
X022805Y025483D01*
X022755Y025533D01*
X021855Y025533D01*
X021805Y025483D01*
X021705Y025483D01*
X021855Y026133D02*
X022755Y026133D01*
X022805Y026183D01*
X022905Y026183D01*
X022905Y026608D02*
X022805Y026608D01*
X022755Y026658D01*
X021855Y026658D01*
X021805Y026608D01*
X021705Y026608D01*
X021705Y026183D02*
X021805Y026183D01*
X021855Y026133D01*
X021855Y027258D02*
X022755Y027258D01*
X022805Y027308D01*
X022905Y027308D01*
X021855Y027258D02*
X021805Y027308D01*
X021705Y027308D01*
X019830Y029983D02*
X016030Y029983D01*
X016013Y029985D01*
X015996Y029989D01*
X015980Y029996D01*
X015966Y030006D01*
X015953Y030019D01*
X015943Y030033D01*
X015936Y030049D01*
X015932Y030066D01*
X015930Y030083D01*
X015930Y031083D01*
X015932Y031100D01*
X015936Y031117D01*
X015943Y031133D01*
X015953Y031147D01*
X015966Y031160D01*
X015980Y031170D01*
X015996Y031177D01*
X016013Y031181D01*
X016030Y031183D01*
X019830Y031183D01*
X019847Y031181D01*
X019864Y031177D01*
X019880Y031170D01*
X019894Y031160D01*
X019907Y031147D01*
X019917Y031133D01*
X019924Y031117D01*
X019928Y031100D01*
X019930Y031083D01*
X019930Y030083D01*
X019928Y030066D01*
X019924Y030049D01*
X019917Y030033D01*
X019907Y030019D01*
X019894Y030006D01*
X019880Y029996D01*
X019864Y029989D01*
X019847Y029985D01*
X019830Y029983D01*
X018930Y030583D02*
X018130Y030583D01*
X017730Y030583D02*
X016930Y030583D01*
X018730Y034333D02*
X014630Y034333D01*
X014630Y039233D01*
X014980Y039233D01*
X014980Y039833D01*
X014630Y039833D01*
X014630Y040583D01*
X018730Y040583D01*
X018730Y039833D01*
X018380Y039833D01*
X018380Y039233D01*
X018730Y039233D01*
X018730Y034333D01*
X021180Y032133D02*
X021180Y031533D01*
X021182Y031516D01*
X021186Y031499D01*
X021193Y031483D01*
X021203Y031469D01*
X021216Y031456D01*
X021230Y031446D01*
X021246Y031439D01*
X021263Y031435D01*
X021280Y031433D01*
X021430Y031433D01*
X021480Y031483D01*
X022880Y031483D01*
X022930Y031433D01*
X023080Y031433D01*
X023097Y031435D01*
X023114Y031439D01*
X023130Y031446D01*
X023144Y031456D01*
X023157Y031469D01*
X023167Y031483D01*
X023174Y031499D01*
X023178Y031516D01*
X023180Y031533D01*
X023180Y032133D01*
X023178Y032150D01*
X023174Y032167D01*
X023167Y032183D01*
X023157Y032197D01*
X023144Y032210D01*
X023130Y032220D01*
X023114Y032227D01*
X023097Y032231D01*
X023080Y032233D01*
X022930Y032233D01*
X022880Y032183D01*
X021480Y032183D01*
X021430Y032233D01*
X021280Y032233D01*
X021263Y032231D01*
X021246Y032227D01*
X021230Y032220D01*
X021216Y032210D01*
X021203Y032197D01*
X021193Y032183D01*
X021186Y032167D01*
X021182Y032150D01*
X021180Y032133D01*
X021630Y034333D02*
X021630Y039233D01*
X021980Y039233D01*
X021980Y039833D01*
X021630Y039833D01*
X021630Y040583D01*
X025730Y040583D01*
X025730Y039833D01*
X025380Y039833D01*
X025380Y039233D01*
X025730Y039233D01*
X025730Y034333D01*
X021630Y034333D01*
X025180Y032133D02*
X025180Y031533D01*
X025182Y031516D01*
X025186Y031499D01*
X025193Y031483D01*
X025203Y031469D01*
X025216Y031456D01*
X025230Y031446D01*
X025246Y031439D01*
X025263Y031435D01*
X025280Y031433D01*
X025430Y031433D01*
X025480Y031483D01*
X026880Y031483D01*
X026930Y031433D01*
X027080Y031433D01*
X027097Y031435D01*
X027114Y031439D01*
X027130Y031446D01*
X027144Y031456D01*
X027157Y031469D01*
X027167Y031483D01*
X027174Y031499D01*
X027178Y031516D01*
X027180Y031533D01*
X027180Y032133D01*
X027178Y032150D01*
X027174Y032167D01*
X027167Y032183D01*
X027157Y032197D01*
X027144Y032210D01*
X027130Y032220D01*
X027114Y032227D01*
X027097Y032231D01*
X027080Y032233D01*
X026930Y032233D01*
X026880Y032183D01*
X025480Y032183D01*
X025430Y032233D01*
X025280Y032233D01*
X025263Y032231D01*
X025246Y032227D01*
X025230Y032220D01*
X025216Y032210D01*
X025203Y032197D01*
X025193Y032183D01*
X025186Y032167D01*
X025182Y032150D01*
X025180Y032133D01*
X029130Y034333D02*
X029130Y039233D01*
X029480Y039233D01*
X029480Y039833D01*
X029130Y039833D01*
X029130Y040583D01*
X033230Y040583D01*
X033230Y039833D01*
X032880Y039833D01*
X032880Y039233D01*
X033230Y039233D01*
X033230Y034333D01*
X029130Y034333D01*
X033930Y033633D02*
X033930Y033033D01*
X033932Y033016D01*
X033936Y032999D01*
X033943Y032983D01*
X033953Y032969D01*
X033966Y032956D01*
X033980Y032946D01*
X033996Y032939D01*
X034013Y032935D01*
X034030Y032933D01*
X034180Y032933D01*
X034230Y032983D01*
X035630Y032983D01*
X035680Y032933D01*
X035830Y032933D01*
X035847Y032935D01*
X035864Y032939D01*
X035880Y032946D01*
X035894Y032956D01*
X035907Y032969D01*
X035917Y032983D01*
X035924Y032999D01*
X035928Y033016D01*
X035930Y033033D01*
X035930Y033633D01*
X035928Y033650D01*
X035924Y033667D01*
X035917Y033683D01*
X035907Y033697D01*
X035894Y033710D01*
X035880Y033720D01*
X035864Y033727D01*
X035847Y033731D01*
X035830Y033733D01*
X035680Y033733D01*
X035630Y033683D01*
X034230Y033683D01*
X034180Y033733D01*
X034030Y033733D01*
X034013Y033731D01*
X033996Y033727D01*
X033980Y033720D01*
X033966Y033710D01*
X033953Y033697D01*
X033943Y033683D01*
X033936Y033667D01*
X033932Y033650D01*
X033930Y033633D01*
X034685Y036664D02*
X034261Y037088D01*
X034260Y037088D02*
X034249Y037102D01*
X034240Y037117D01*
X034234Y037133D01*
X034231Y037150D01*
X034231Y037168D01*
X034234Y037185D01*
X034240Y037201D01*
X034249Y037216D01*
X034260Y037230D01*
X034261Y037230D02*
X034367Y037336D01*
X034438Y037336D01*
X035427Y038326D01*
X035427Y038396D01*
X035534Y038503D01*
X035533Y038503D02*
X035547Y038514D01*
X035562Y038523D01*
X035578Y038529D01*
X035595Y038532D01*
X035613Y038532D01*
X035630Y038529D01*
X035646Y038523D01*
X035661Y038514D01*
X035675Y038503D01*
X036099Y038078D01*
X036100Y038079D02*
X036111Y038065D01*
X036120Y038050D01*
X036126Y038034D01*
X036129Y038017D01*
X036129Y037999D01*
X036126Y037982D01*
X036120Y037966D01*
X036111Y037951D01*
X036100Y037937D01*
X036099Y037937D02*
X035993Y037831D01*
X035922Y037831D01*
X034933Y036841D01*
X034933Y036770D01*
X034826Y036664D01*
X034827Y036664D02*
X034813Y036653D01*
X034798Y036644D01*
X034782Y036638D01*
X034765Y036635D01*
X034747Y036635D01*
X034730Y036638D01*
X034714Y036644D01*
X034699Y036653D01*
X034685Y036664D01*
X030470Y039233D02*
X030472Y039286D01*
X030478Y039339D01*
X030488Y039391D01*
X030502Y039442D01*
X030519Y039492D01*
X030540Y039541D01*
X030565Y039588D01*
X030593Y039633D01*
X030625Y039676D01*
X030660Y039716D01*
X030697Y039753D01*
X030737Y039788D01*
X030780Y039820D01*
X030825Y039848D01*
X030872Y039873D01*
X030921Y039894D01*
X030971Y039911D01*
X031022Y039925D01*
X031074Y039935D01*
X031127Y039941D01*
X031180Y039943D01*
X031233Y039941D01*
X031286Y039935D01*
X031338Y039925D01*
X031389Y039911D01*
X031439Y039894D01*
X031488Y039873D01*
X031535Y039848D01*
X031580Y039820D01*
X031623Y039788D01*
X031663Y039753D01*
X031700Y039716D01*
X031735Y039676D01*
X031767Y039633D01*
X031795Y039588D01*
X031820Y039541D01*
X031841Y039492D01*
X031858Y039442D01*
X031872Y039391D01*
X031882Y039339D01*
X031888Y039286D01*
X031890Y039233D01*
X031888Y039180D01*
X031882Y039127D01*
X031872Y039075D01*
X031858Y039024D01*
X031841Y038974D01*
X031820Y038925D01*
X031795Y038878D01*
X031767Y038833D01*
X031735Y038790D01*
X031700Y038750D01*
X031663Y038713D01*
X031623Y038678D01*
X031580Y038646D01*
X031535Y038618D01*
X031488Y038593D01*
X031439Y038572D01*
X031389Y038555D01*
X031338Y038541D01*
X031286Y038531D01*
X031233Y038525D01*
X031180Y038523D01*
X031127Y038525D01*
X031074Y038531D01*
X031022Y038541D01*
X030971Y038555D01*
X030921Y038572D01*
X030872Y038593D01*
X030825Y038618D01*
X030780Y038646D01*
X030737Y038678D01*
X030697Y038713D01*
X030660Y038750D01*
X030625Y038790D01*
X030593Y038833D01*
X030565Y038878D01*
X030540Y038925D01*
X030519Y038974D01*
X030502Y039024D01*
X030488Y039075D01*
X030478Y039127D01*
X030472Y039180D01*
X030470Y039233D01*
X022970Y039233D02*
X022972Y039286D01*
X022978Y039339D01*
X022988Y039391D01*
X023002Y039442D01*
X023019Y039492D01*
X023040Y039541D01*
X023065Y039588D01*
X023093Y039633D01*
X023125Y039676D01*
X023160Y039716D01*
X023197Y039753D01*
X023237Y039788D01*
X023280Y039820D01*
X023325Y039848D01*
X023372Y039873D01*
X023421Y039894D01*
X023471Y039911D01*
X023522Y039925D01*
X023574Y039935D01*
X023627Y039941D01*
X023680Y039943D01*
X023733Y039941D01*
X023786Y039935D01*
X023838Y039925D01*
X023889Y039911D01*
X023939Y039894D01*
X023988Y039873D01*
X024035Y039848D01*
X024080Y039820D01*
X024123Y039788D01*
X024163Y039753D01*
X024200Y039716D01*
X024235Y039676D01*
X024267Y039633D01*
X024295Y039588D01*
X024320Y039541D01*
X024341Y039492D01*
X024358Y039442D01*
X024372Y039391D01*
X024382Y039339D01*
X024388Y039286D01*
X024390Y039233D01*
X024388Y039180D01*
X024382Y039127D01*
X024372Y039075D01*
X024358Y039024D01*
X024341Y038974D01*
X024320Y038925D01*
X024295Y038878D01*
X024267Y038833D01*
X024235Y038790D01*
X024200Y038750D01*
X024163Y038713D01*
X024123Y038678D01*
X024080Y038646D01*
X024035Y038618D01*
X023988Y038593D01*
X023939Y038572D01*
X023889Y038555D01*
X023838Y038541D01*
X023786Y038531D01*
X023733Y038525D01*
X023680Y038523D01*
X023627Y038525D01*
X023574Y038531D01*
X023522Y038541D01*
X023471Y038555D01*
X023421Y038572D01*
X023372Y038593D01*
X023325Y038618D01*
X023280Y038646D01*
X023237Y038678D01*
X023197Y038713D01*
X023160Y038750D01*
X023125Y038790D01*
X023093Y038833D01*
X023065Y038878D01*
X023040Y038925D01*
X023019Y038974D01*
X023002Y039024D01*
X022988Y039075D01*
X022978Y039127D01*
X022972Y039180D01*
X022970Y039233D01*
X015970Y039233D02*
X015972Y039286D01*
X015978Y039339D01*
X015988Y039391D01*
X016002Y039442D01*
X016019Y039492D01*
X016040Y039541D01*
X016065Y039588D01*
X016093Y039633D01*
X016125Y039676D01*
X016160Y039716D01*
X016197Y039753D01*
X016237Y039788D01*
X016280Y039820D01*
X016325Y039848D01*
X016372Y039873D01*
X016421Y039894D01*
X016471Y039911D01*
X016522Y039925D01*
X016574Y039935D01*
X016627Y039941D01*
X016680Y039943D01*
X016733Y039941D01*
X016786Y039935D01*
X016838Y039925D01*
X016889Y039911D01*
X016939Y039894D01*
X016988Y039873D01*
X017035Y039848D01*
X017080Y039820D01*
X017123Y039788D01*
X017163Y039753D01*
X017200Y039716D01*
X017235Y039676D01*
X017267Y039633D01*
X017295Y039588D01*
X017320Y039541D01*
X017341Y039492D01*
X017358Y039442D01*
X017372Y039391D01*
X017382Y039339D01*
X017388Y039286D01*
X017390Y039233D01*
X017388Y039180D01*
X017382Y039127D01*
X017372Y039075D01*
X017358Y039024D01*
X017341Y038974D01*
X017320Y038925D01*
X017295Y038878D01*
X017267Y038833D01*
X017235Y038790D01*
X017200Y038750D01*
X017163Y038713D01*
X017123Y038678D01*
X017080Y038646D01*
X017035Y038618D01*
X016988Y038593D01*
X016939Y038572D01*
X016889Y038555D01*
X016838Y038541D01*
X016786Y038531D01*
X016733Y038525D01*
X016680Y038523D01*
X016627Y038525D01*
X016574Y038531D01*
X016522Y038541D01*
X016471Y038555D01*
X016421Y038572D01*
X016372Y038593D01*
X016325Y038618D01*
X016280Y038646D01*
X016237Y038678D01*
X016197Y038713D01*
X016160Y038750D01*
X016125Y038790D01*
X016093Y038833D01*
X016065Y038878D01*
X016040Y038925D01*
X016019Y038974D01*
X016002Y039024D01*
X015988Y039075D01*
X015978Y039127D01*
X015972Y039180D01*
X015970Y039233D01*
X010580Y033233D02*
X010430Y033233D01*
X010380Y033183D01*
X008980Y033183D01*
X008930Y033233D01*
X008780Y033233D01*
X008763Y033231D01*
X008746Y033227D01*
X008730Y033220D01*
X008716Y033210D01*
X008703Y033197D01*
X008693Y033183D01*
X008686Y033167D01*
X008682Y033150D01*
X008680Y033133D01*
X008680Y032533D01*
X008682Y032516D01*
X008686Y032499D01*
X008693Y032483D01*
X008703Y032469D01*
X008716Y032456D01*
X008730Y032446D01*
X008746Y032439D01*
X008763Y032435D01*
X008780Y032433D01*
X008930Y032433D01*
X008980Y032483D01*
X010380Y032483D01*
X010430Y032433D01*
X010580Y032433D01*
X010597Y032435D01*
X010614Y032439D01*
X010630Y032446D01*
X010644Y032456D01*
X010657Y032469D01*
X010667Y032483D01*
X010674Y032499D01*
X010678Y032516D01*
X010680Y032533D01*
X010680Y033133D01*
X010678Y033150D01*
X010674Y033167D01*
X010667Y033183D01*
X010657Y033197D01*
X010644Y033210D01*
X010630Y033220D01*
X010614Y033227D01*
X010597Y033231D01*
X010580Y033233D01*
X010780Y031833D02*
X010680Y031733D01*
X010680Y030933D01*
X010780Y030833D01*
X010680Y030733D01*
X010680Y029933D01*
X010780Y029833D01*
X010680Y029733D01*
X010680Y028933D01*
X010780Y028833D01*
X011580Y028833D01*
X011680Y028933D01*
X011680Y029733D01*
X011580Y029833D01*
X011680Y029933D01*
X011680Y030733D01*
X011580Y030833D01*
X011680Y030933D01*
X011680Y031733D01*
X011580Y031833D01*
X010780Y031833D01*
X005930Y034458D02*
X005932Y034521D01*
X005938Y034583D01*
X005948Y034645D01*
X005961Y034707D01*
X005979Y034767D01*
X006000Y034826D01*
X006025Y034884D01*
X006054Y034940D01*
X006086Y034994D01*
X006121Y035046D01*
X006159Y035095D01*
X006201Y035143D01*
X006245Y035187D01*
X006293Y035229D01*
X006342Y035267D01*
X006394Y035302D01*
X006448Y035334D01*
X006504Y035363D01*
X006562Y035388D01*
X006621Y035409D01*
X006681Y035427D01*
X006743Y035440D01*
X006805Y035450D01*
X006867Y035456D01*
X006930Y035458D01*
X006993Y035456D01*
X007055Y035450D01*
X007117Y035440D01*
X007179Y035427D01*
X007239Y035409D01*
X007298Y035388D01*
X007356Y035363D01*
X007412Y035334D01*
X007466Y035302D01*
X007518Y035267D01*
X007567Y035229D01*
X007615Y035187D01*
X007659Y035143D01*
X007701Y035095D01*
X007739Y035046D01*
X007774Y034994D01*
X007806Y034940D01*
X007835Y034884D01*
X007860Y034826D01*
X007881Y034767D01*
X007899Y034707D01*
X007912Y034645D01*
X007922Y034583D01*
X007928Y034521D01*
X007930Y034458D01*
X007928Y034395D01*
X007922Y034333D01*
X007912Y034271D01*
X007899Y034209D01*
X007881Y034149D01*
X007860Y034090D01*
X007835Y034032D01*
X007806Y033976D01*
X007774Y033922D01*
X007739Y033870D01*
X007701Y033821D01*
X007659Y033773D01*
X007615Y033729D01*
X007567Y033687D01*
X007518Y033649D01*
X007466Y033614D01*
X007412Y033582D01*
X007356Y033553D01*
X007298Y033528D01*
X007239Y033507D01*
X007179Y033489D01*
X007117Y033476D01*
X007055Y033466D01*
X006993Y033460D01*
X006930Y033458D01*
X006867Y033460D01*
X006805Y033466D01*
X006743Y033476D01*
X006681Y033489D01*
X006621Y033507D01*
X006562Y033528D01*
X006504Y033553D01*
X006448Y033582D01*
X006394Y033614D01*
X006342Y033649D01*
X006293Y033687D01*
X006245Y033729D01*
X006201Y033773D01*
X006159Y033821D01*
X006121Y033870D01*
X006086Y033922D01*
X006054Y033976D01*
X006025Y034032D01*
X006000Y034090D01*
X005979Y034149D01*
X005961Y034209D01*
X005948Y034271D01*
X005938Y034333D01*
X005932Y034395D01*
X005930Y034458D01*
X024305Y018958D02*
X024305Y017458D01*
X024555Y017208D01*
X025055Y017208D01*
X025305Y017458D01*
X025555Y017208D01*
X026055Y017208D01*
X026305Y017458D01*
X026555Y017208D01*
X027055Y017208D01*
X027305Y017458D01*
X027305Y018958D01*
X027055Y019208D01*
X026555Y019208D01*
X026305Y018958D01*
X026055Y019208D01*
X025555Y019208D01*
X025305Y018958D01*
X025055Y019208D01*
X024555Y019208D01*
X024305Y018958D01*
X023655Y015208D02*
X025955Y015208D01*
X025955Y011208D01*
X025205Y011208D01*
X025203Y011247D01*
X025197Y011286D01*
X025188Y011324D01*
X025175Y011361D01*
X025158Y011397D01*
X025138Y011430D01*
X025114Y011462D01*
X025088Y011491D01*
X025059Y011517D01*
X025027Y011541D01*
X024994Y011561D01*
X024958Y011578D01*
X024921Y011591D01*
X024883Y011600D01*
X024844Y011606D01*
X024805Y011608D01*
X024766Y011606D01*
X024727Y011600D01*
X024689Y011591D01*
X024652Y011578D01*
X024616Y011561D01*
X024583Y011541D01*
X024551Y011517D01*
X024522Y011491D01*
X024496Y011462D01*
X024472Y011430D01*
X024452Y011397D01*
X024435Y011361D01*
X024422Y011324D01*
X024413Y011286D01*
X024407Y011247D01*
X024405Y011208D01*
X023655Y011208D01*
X023655Y015208D01*
X026080Y010333D02*
X026780Y010333D01*
X026930Y010183D01*
X027080Y010333D01*
X027780Y010333D01*
X027930Y010183D01*
X027930Y008483D01*
X027780Y008333D01*
X027080Y008333D01*
X026930Y008483D01*
X026780Y008333D01*
X026080Y008333D01*
X025930Y008483D01*
X025930Y010183D01*
X026080Y010333D01*
X035930Y010458D02*
X035930Y009958D01*
X036180Y009708D01*
X036680Y009708D01*
X036930Y009958D01*
X036930Y010458D01*
X036680Y010708D01*
X036930Y010958D01*
X036930Y011458D01*
X036680Y011708D01*
X036930Y011958D01*
X036930Y012458D01*
X036680Y012708D01*
X036180Y012708D01*
X035930Y012458D01*
X035930Y011958D01*
X036180Y011708D01*
X035930Y011458D01*
X035930Y010958D01*
X036180Y010708D01*
X035930Y010458D01*
X039655Y010933D02*
X039655Y011083D01*
X039705Y011133D01*
X039705Y012533D01*
X039655Y012583D01*
X039655Y012733D01*
X039657Y012750D01*
X039661Y012767D01*
X039668Y012783D01*
X039678Y012797D01*
X039691Y012810D01*
X039705Y012820D01*
X039721Y012827D01*
X039738Y012831D01*
X039755Y012833D01*
X040355Y012833D01*
X040372Y012831D01*
X040389Y012827D01*
X040405Y012820D01*
X040419Y012810D01*
X040432Y012797D01*
X040442Y012783D01*
X040449Y012767D01*
X040453Y012750D01*
X040455Y012733D01*
X040455Y012583D01*
X040405Y012533D01*
X040405Y011133D01*
X040455Y011083D01*
X040455Y010933D01*
X040453Y010916D01*
X040449Y010899D01*
X040442Y010883D01*
X040432Y010869D01*
X040419Y010856D01*
X040405Y010846D01*
X040389Y010839D01*
X040372Y010835D01*
X040355Y010833D01*
X039755Y010833D01*
X039738Y010835D01*
X039721Y010839D01*
X039705Y010846D01*
X039691Y010856D01*
X039678Y010869D01*
X039668Y010883D01*
X039661Y010899D01*
X039657Y010916D01*
X039655Y010933D01*
X039680Y027833D02*
X039430Y028083D01*
X039180Y027833D01*
X038680Y027833D01*
X038430Y028083D01*
X038180Y027833D01*
X037680Y027833D01*
X037430Y028083D01*
X037430Y029583D01*
X037680Y029833D01*
X038180Y029833D01*
X038430Y029583D01*
X038680Y029833D01*
X039180Y029833D01*
X039430Y029583D01*
X039680Y029833D01*
X040180Y029833D01*
X040430Y029583D01*
X040430Y028083D01*
X040180Y027833D01*
X039680Y027833D01*
X010055Y014708D02*
X010055Y014208D01*
X009805Y013958D01*
X009305Y013958D01*
X009055Y014208D01*
X008805Y013958D01*
X008305Y013958D01*
X008055Y014208D01*
X007805Y013958D01*
X007305Y013958D01*
X007055Y014208D01*
X007055Y014708D01*
X007305Y014958D01*
X007805Y014958D01*
X008055Y014708D01*
X008305Y014958D01*
X008805Y014958D01*
X009055Y014708D01*
X009305Y014958D01*
X009805Y014958D01*
X010055Y014708D01*
X009805Y013458D02*
X009305Y013458D01*
X009055Y013208D01*
X008805Y013458D01*
X008305Y013458D01*
X008055Y013208D01*
X007805Y013458D01*
X007305Y013458D01*
X007055Y013208D01*
X007055Y012708D01*
X007305Y012458D01*
X007805Y012458D01*
X008055Y012708D01*
X008305Y012458D01*
X008805Y012458D01*
X009055Y012708D01*
X009305Y012458D01*
X009805Y012458D01*
X010055Y012708D01*
X010055Y013208D01*
X009805Y013458D01*
X009805Y011958D02*
X009305Y011958D01*
X009055Y011708D01*
X008805Y011958D01*
X008305Y011958D01*
X008055Y011708D01*
X007805Y011958D01*
X007305Y011958D01*
X007055Y011708D01*
X007055Y011208D01*
X007305Y010958D01*
X007805Y010958D01*
X008055Y011208D01*
X008305Y010958D01*
X008805Y010958D01*
X009055Y011208D01*
X009305Y010958D01*
X009805Y010958D01*
X010055Y011208D01*
X010055Y011708D01*
X009805Y011958D01*
X009805Y010458D02*
X009305Y010458D01*
X009055Y010208D01*
X008805Y010458D01*
X008305Y010458D01*
X008055Y010208D01*
X007805Y010458D01*
X007305Y010458D01*
X007055Y010208D01*
X007055Y009708D01*
X007305Y009458D01*
X007805Y009458D01*
X008055Y009708D01*
X008305Y009458D01*
X008805Y009458D01*
X009055Y009708D01*
X009305Y009458D01*
X009805Y009458D01*
X010055Y009708D01*
X010055Y010208D01*
X009805Y010458D01*
D14*
X019880Y011208D02*
X019880Y012208D01*
X021980Y012208D01*
X021980Y011208D01*
X019880Y011208D01*
X020930Y011458D02*
X020930Y011958D01*
X019355Y031458D02*
X017255Y031458D01*
X017255Y032458D01*
X019355Y032458D01*
X019355Y031458D01*
X018305Y031708D02*
X018305Y032208D01*
D15*
X040055Y012908D03*
X040055Y010758D03*
D16*
X008853Y036708D02*
X008853Y038401D01*
X008853Y039145D02*
X008853Y040488D01*
X005507Y040488D01*
X005526Y040488D01*
X005507Y040488D02*
X005507Y036315D01*
X007278Y036315D01*
X005930Y035208D02*
X005930Y033708D01*
D17*
X006687Y018196D02*
X006730Y018229D01*
X006760Y018193D01*
X006793Y018160D01*
X006829Y018130D01*
X006867Y018103D01*
X006907Y018079D01*
X006949Y018058D01*
X006993Y018041D01*
X007038Y018028D01*
X007084Y018018D01*
X007130Y018012D01*
X007177Y018010D01*
X007177Y017957D01*
X007177Y017956D01*
X007130Y017958D01*
X007083Y017963D01*
X007037Y017972D01*
X006992Y017985D01*
X006948Y018001D01*
X006905Y018020D01*
X006863Y018042D01*
X006823Y018067D01*
X006786Y018095D01*
X006750Y018126D01*
X006717Y018160D01*
X006687Y018196D01*
X006691Y018199D01*
X006721Y018163D01*
X006754Y018130D01*
X006789Y018099D01*
X006826Y018071D01*
X006866Y018046D01*
X006907Y018024D01*
X006949Y018005D01*
X006993Y017990D01*
X007038Y017977D01*
X007084Y017968D01*
X007130Y017963D01*
X007177Y017961D01*
X007177Y017966D01*
X007131Y017968D01*
X007085Y017973D01*
X007039Y017982D01*
X006995Y017994D01*
X006951Y018010D01*
X006909Y018029D01*
X006868Y018051D01*
X006829Y018075D01*
X006792Y018103D01*
X006757Y018134D01*
X006725Y018167D01*
X006695Y018202D01*
X006699Y018205D01*
X006728Y018170D01*
X006761Y018137D01*
X006795Y018107D01*
X006832Y018080D01*
X006871Y018055D01*
X006911Y018033D01*
X006953Y018015D01*
X006996Y017999D01*
X007041Y017987D01*
X007086Y017978D01*
X007131Y017973D01*
X007177Y017971D01*
X007177Y017976D01*
X007132Y017978D01*
X007086Y017983D01*
X007042Y017992D01*
X006998Y018004D01*
X006955Y018019D01*
X006913Y018038D01*
X006873Y018059D01*
X006835Y018084D01*
X006798Y018111D01*
X006764Y018141D01*
X006732Y018173D01*
X006703Y018208D01*
X006707Y018211D01*
X006736Y018177D01*
X006768Y018145D01*
X006802Y018115D01*
X006838Y018088D01*
X006876Y018064D01*
X006915Y018042D01*
X006957Y018024D01*
X006999Y018009D01*
X007043Y017997D01*
X007087Y017988D01*
X007132Y017983D01*
X007177Y017981D01*
X007177Y017986D01*
X007132Y017988D01*
X007088Y017993D01*
X007044Y018002D01*
X007001Y018014D01*
X006959Y018029D01*
X006918Y018047D01*
X006878Y018068D01*
X006841Y018092D01*
X006805Y018119D01*
X006771Y018148D01*
X006740Y018180D01*
X006711Y018214D01*
X006715Y018217D01*
X006743Y018183D01*
X006774Y018152D01*
X006808Y018123D01*
X006843Y018096D01*
X006881Y018072D01*
X006920Y018051D01*
X006960Y018033D01*
X007002Y018018D01*
X007045Y018007D01*
X007089Y017998D01*
X007133Y017993D01*
X007177Y017991D01*
X007177Y017996D01*
X007133Y017998D01*
X007089Y018003D01*
X007046Y018011D01*
X007004Y018023D01*
X006962Y018038D01*
X006922Y018056D01*
X006883Y018076D01*
X006846Y018100D01*
X006811Y018126D01*
X006778Y018155D01*
X006747Y018187D01*
X006718Y018220D01*
X006722Y018223D01*
X006753Y018187D01*
X006787Y018154D01*
X006823Y018123D01*
X006862Y018095D01*
X006903Y018071D01*
X006946Y018050D01*
X006990Y018033D01*
X007036Y018019D01*
X007082Y018009D01*
X007129Y018003D01*
X007177Y018001D01*
X007177Y018006D01*
X007130Y018008D01*
X007083Y018014D01*
X007037Y018024D01*
X006992Y018038D01*
X006948Y018055D01*
X006906Y018075D01*
X006865Y018100D01*
X006827Y018127D01*
X006790Y018157D01*
X006757Y018191D01*
X006726Y018226D01*
X007688Y018949D02*
X007644Y018918D01*
X007645Y018918D02*
X007617Y018954D01*
X007586Y018987D01*
X007554Y019017D01*
X007518Y019045D01*
X007481Y019070D01*
X007442Y019092D01*
X007402Y019111D01*
X007359Y019127D01*
X007316Y019140D01*
X007272Y019149D01*
X007228Y019154D01*
X007183Y019156D01*
X007183Y019209D01*
X007183Y019210D01*
X007232Y019208D01*
X007281Y019202D01*
X007329Y019192D01*
X007376Y019178D01*
X007422Y019161D01*
X007467Y019141D01*
X007510Y019116D01*
X007550Y019089D01*
X007589Y019058D01*
X007625Y019025D01*
X007658Y018989D01*
X007688Y018950D01*
X007684Y018947D01*
X007654Y018985D01*
X007621Y019021D01*
X007586Y019054D01*
X007548Y019085D01*
X007507Y019112D01*
X007465Y019136D01*
X007420Y019157D01*
X007375Y019174D01*
X007328Y019187D01*
X007280Y019197D01*
X007232Y019203D01*
X007183Y019205D01*
X007183Y019200D01*
X007231Y019198D01*
X007279Y019192D01*
X007327Y019182D01*
X007373Y019169D01*
X007419Y019152D01*
X007462Y019132D01*
X007504Y019108D01*
X007545Y019081D01*
X007582Y019051D01*
X007618Y019018D01*
X007651Y018982D01*
X007680Y018944D01*
X007676Y018941D01*
X007647Y018979D01*
X007614Y019014D01*
X007579Y019047D01*
X007542Y019077D01*
X007502Y019104D01*
X007460Y019127D01*
X007417Y019147D01*
X007372Y019164D01*
X007326Y019177D01*
X007279Y019187D01*
X007231Y019193D01*
X007183Y019195D01*
X007183Y019190D01*
X007231Y019188D01*
X007278Y019182D01*
X007324Y019173D01*
X007370Y019159D01*
X007415Y019143D01*
X007458Y019123D01*
X007499Y019099D01*
X007539Y019073D01*
X007576Y019043D01*
X007611Y019011D01*
X007643Y018976D01*
X007672Y018938D01*
X007668Y018935D01*
X007639Y018972D01*
X007607Y019007D01*
X007573Y019039D01*
X007536Y019069D01*
X007497Y019095D01*
X007455Y019118D01*
X007413Y019138D01*
X007369Y019155D01*
X007323Y019168D01*
X007277Y019177D01*
X007230Y019183D01*
X007183Y019185D01*
X007183Y019180D01*
X007230Y019178D01*
X007276Y019172D01*
X007322Y019163D01*
X007367Y019150D01*
X007411Y019134D01*
X007453Y019114D01*
X007494Y019091D01*
X007533Y019065D01*
X007569Y019036D01*
X007604Y019004D01*
X007635Y018969D01*
X007664Y018932D01*
X007660Y018930D01*
X007631Y018966D01*
X007600Y019000D01*
X007566Y019032D01*
X007530Y019061D01*
X007491Y019087D01*
X007451Y019109D01*
X007409Y019129D01*
X007365Y019145D01*
X007321Y019158D01*
X007275Y019167D01*
X007229Y019173D01*
X007183Y019175D01*
X007183Y019170D01*
X007229Y019168D01*
X007275Y019162D01*
X007320Y019153D01*
X007364Y019140D01*
X007407Y019124D01*
X007449Y019105D01*
X007489Y019082D01*
X007527Y019057D01*
X007563Y019028D01*
X007596Y018997D01*
X007628Y018963D01*
X007656Y018927D01*
X007652Y018924D01*
X007624Y018960D01*
X007593Y018993D01*
X007560Y019024D01*
X007524Y019053D01*
X007486Y019078D01*
X007446Y019100D01*
X007405Y019120D01*
X007362Y019136D01*
X007318Y019148D01*
X007274Y019157D01*
X007229Y019163D01*
X007183Y019165D01*
X007183Y019160D01*
X007228Y019158D01*
X007273Y019152D01*
X007317Y019143D01*
X007361Y019131D01*
X007403Y019115D01*
X007444Y019096D01*
X007483Y019074D01*
X007521Y019049D01*
X007556Y019020D01*
X007589Y018990D01*
X007620Y018956D01*
X007648Y018921D01*
X007178Y019209D02*
X007178Y019155D01*
X007177Y019156D02*
X007133Y019154D01*
X007090Y019149D01*
X007047Y019140D01*
X007005Y019129D01*
X006964Y019114D01*
X006924Y019096D01*
X006885Y019074D01*
X006849Y019051D01*
X006814Y019024D01*
X006781Y018995D01*
X006751Y018963D01*
X006723Y018929D01*
X006681Y018961D01*
X006680Y018962D01*
X006711Y018999D01*
X006744Y019033D01*
X006779Y019065D01*
X006817Y019095D01*
X006858Y019121D01*
X006900Y019144D01*
X006943Y019164D01*
X006988Y019180D01*
X007034Y019193D01*
X007082Y019202D01*
X007129Y019208D01*
X007177Y019210D01*
X007177Y019205D01*
X007129Y019203D01*
X007082Y019197D01*
X007036Y019188D01*
X006990Y019175D01*
X006945Y019159D01*
X006902Y019139D01*
X006860Y019116D01*
X006820Y019090D01*
X006783Y019062D01*
X006747Y019030D01*
X006714Y018995D01*
X006684Y018959D01*
X006688Y018956D01*
X006718Y018992D01*
X006751Y019026D01*
X006786Y019058D01*
X006823Y019086D01*
X006863Y019112D01*
X006904Y019135D01*
X006947Y019154D01*
X006991Y019170D01*
X007037Y019183D01*
X007083Y019192D01*
X007130Y019198D01*
X007177Y019200D01*
X007177Y019195D01*
X007130Y019193D01*
X007084Y019187D01*
X007038Y019178D01*
X006993Y019166D01*
X006949Y019150D01*
X006906Y019130D01*
X006865Y019108D01*
X006826Y019082D01*
X006789Y019054D01*
X006754Y019023D01*
X006722Y018989D01*
X006692Y018953D01*
X006696Y018950D01*
X006726Y018985D01*
X006758Y019019D01*
X006792Y019050D01*
X006829Y019078D01*
X006868Y019104D01*
X006909Y019126D01*
X006951Y019145D01*
X006994Y019161D01*
X007039Y019173D01*
X007085Y019182D01*
X007131Y019188D01*
X007177Y019190D01*
X007177Y019185D01*
X007131Y019183D01*
X007085Y019178D01*
X007040Y019169D01*
X006996Y019156D01*
X006953Y019140D01*
X006911Y019121D01*
X006870Y019099D01*
X006832Y019074D01*
X006795Y019046D01*
X006761Y019015D01*
X006729Y018982D01*
X006700Y018947D01*
X006704Y018944D01*
X006733Y018979D01*
X006765Y019012D01*
X006799Y019042D01*
X006835Y019070D01*
X006873Y019095D01*
X006913Y019117D01*
X006955Y019136D01*
X006997Y019151D01*
X007041Y019164D01*
X007086Y019173D01*
X007131Y019178D01*
X007177Y019180D01*
X007177Y019175D01*
X007132Y019173D01*
X007087Y019168D01*
X007043Y019159D01*
X006999Y019147D01*
X006956Y019131D01*
X006915Y019113D01*
X006876Y019091D01*
X006838Y019066D01*
X006802Y019038D01*
X006768Y019008D01*
X006737Y018976D01*
X006708Y018941D01*
X006712Y018938D01*
X006741Y018972D01*
X006772Y019005D01*
X006805Y019035D01*
X006841Y019062D01*
X006878Y019086D01*
X006917Y019108D01*
X006958Y019127D01*
X007000Y019142D01*
X007044Y019154D01*
X007088Y019163D01*
X007132Y019168D01*
X007177Y019170D01*
X007177Y019165D01*
X007133Y019163D01*
X007088Y019158D01*
X007045Y019149D01*
X007002Y019137D01*
X006960Y019122D01*
X006920Y019104D01*
X006881Y019082D01*
X006844Y019058D01*
X006808Y019031D01*
X006775Y019001D01*
X006744Y018969D01*
X006716Y018935D01*
X006720Y018932D01*
X006748Y018966D01*
X006779Y018998D01*
X006811Y019027D01*
X006846Y019054D01*
X006883Y019078D01*
X006922Y019099D01*
X006962Y019117D01*
X007004Y019132D01*
X007046Y019144D01*
X007089Y019153D01*
X007133Y019158D01*
X007177Y019160D01*
X007183Y017957D02*
X007183Y018011D01*
X007183Y018010D02*
X007230Y018012D01*
X007276Y018018D01*
X007322Y018028D01*
X007367Y018041D01*
X007411Y018058D01*
X007453Y018079D01*
X007493Y018103D01*
X007531Y018130D01*
X007567Y018160D01*
X007600Y018193D01*
X007630Y018229D01*
X007673Y018196D01*
X007643Y018160D01*
X007610Y018126D01*
X007574Y018095D01*
X007537Y018067D01*
X007497Y018042D01*
X007455Y018020D01*
X007412Y018001D01*
X007368Y017985D01*
X007323Y017972D01*
X007277Y017963D01*
X007230Y017958D01*
X007183Y017956D01*
X007183Y017961D01*
X007230Y017963D01*
X007276Y017968D01*
X007322Y017977D01*
X007367Y017990D01*
X007411Y018005D01*
X007453Y018024D01*
X007494Y018046D01*
X007534Y018071D01*
X007571Y018099D01*
X007606Y018130D01*
X007639Y018163D01*
X007669Y018199D01*
X007665Y018202D01*
X007635Y018167D01*
X007603Y018134D01*
X007568Y018103D01*
X007531Y018075D01*
X007492Y018051D01*
X007451Y018029D01*
X007409Y018010D01*
X007365Y017994D01*
X007321Y017982D01*
X007275Y017973D01*
X007229Y017968D01*
X007183Y017966D01*
X007183Y017971D01*
X007229Y017973D01*
X007274Y017978D01*
X007319Y017987D01*
X007364Y017999D01*
X007407Y018015D01*
X007449Y018033D01*
X007489Y018055D01*
X007528Y018080D01*
X007565Y018107D01*
X007599Y018137D01*
X007632Y018170D01*
X007661Y018205D01*
X007657Y018208D01*
X007628Y018173D01*
X007596Y018141D01*
X007562Y018111D01*
X007525Y018084D01*
X007487Y018059D01*
X007447Y018038D01*
X007405Y018019D01*
X007362Y018004D01*
X007318Y017992D01*
X007274Y017983D01*
X007228Y017978D01*
X007183Y017976D01*
X007183Y017981D01*
X007228Y017983D01*
X007273Y017988D01*
X007317Y017997D01*
X007361Y018009D01*
X007403Y018024D01*
X007445Y018042D01*
X007484Y018064D01*
X007522Y018088D01*
X007558Y018115D01*
X007592Y018145D01*
X007624Y018177D01*
X007653Y018211D01*
X007649Y018214D01*
X007620Y018180D01*
X007589Y018148D01*
X007555Y018119D01*
X007519Y018092D01*
X007482Y018068D01*
X007442Y018047D01*
X007401Y018029D01*
X007359Y018014D01*
X007316Y018002D01*
X007272Y017993D01*
X007228Y017988D01*
X007183Y017986D01*
X007183Y017991D01*
X007227Y017993D01*
X007271Y017998D01*
X007315Y018007D01*
X007358Y018018D01*
X007400Y018033D01*
X007440Y018051D01*
X007479Y018072D01*
X007517Y018096D01*
X007552Y018123D01*
X007586Y018152D01*
X007617Y018183D01*
X007645Y018217D01*
X007642Y018220D01*
X007613Y018187D01*
X007582Y018155D01*
X007549Y018126D01*
X007514Y018100D01*
X007477Y018076D01*
X007438Y018056D01*
X007398Y018038D01*
X007356Y018023D01*
X007314Y018011D01*
X007271Y018003D01*
X007227Y017998D01*
X007183Y017996D01*
X007183Y018001D01*
X007231Y018003D01*
X007278Y018009D01*
X007324Y018019D01*
X007370Y018033D01*
X007414Y018050D01*
X007457Y018071D01*
X007498Y018095D01*
X007537Y018123D01*
X007573Y018154D01*
X007607Y018187D01*
X007638Y018223D01*
X007634Y018226D01*
X007603Y018191D01*
X007570Y018157D01*
X007533Y018127D01*
X007495Y018100D01*
X007454Y018075D01*
X007412Y018055D01*
X007368Y018038D01*
X007323Y018024D01*
X007277Y018014D01*
X007230Y018008D01*
X007183Y018006D01*
X006687Y015946D02*
X006730Y015979D01*
X006760Y015943D01*
X006793Y015910D01*
X006829Y015880D01*
X006867Y015853D01*
X006907Y015829D01*
X006949Y015808D01*
X006993Y015791D01*
X007038Y015778D01*
X007084Y015768D01*
X007130Y015762D01*
X007177Y015760D01*
X007177Y015707D01*
X007177Y015706D01*
X007130Y015708D01*
X007083Y015713D01*
X007037Y015722D01*
X006992Y015735D01*
X006948Y015751D01*
X006905Y015770D01*
X006863Y015792D01*
X006823Y015817D01*
X006786Y015845D01*
X006750Y015876D01*
X006717Y015910D01*
X006687Y015946D01*
X006691Y015949D01*
X006721Y015913D01*
X006754Y015880D01*
X006789Y015849D01*
X006826Y015821D01*
X006866Y015796D01*
X006907Y015774D01*
X006949Y015755D01*
X006993Y015740D01*
X007038Y015727D01*
X007084Y015718D01*
X007130Y015713D01*
X007177Y015711D01*
X007177Y015716D01*
X007131Y015718D01*
X007085Y015723D01*
X007039Y015732D01*
X006995Y015744D01*
X006951Y015760D01*
X006909Y015779D01*
X006868Y015801D01*
X006829Y015825D01*
X006792Y015853D01*
X006757Y015884D01*
X006725Y015917D01*
X006695Y015952D01*
X006699Y015955D01*
X006728Y015920D01*
X006761Y015887D01*
X006795Y015857D01*
X006832Y015830D01*
X006871Y015805D01*
X006911Y015783D01*
X006953Y015765D01*
X006996Y015749D01*
X007041Y015737D01*
X007086Y015728D01*
X007131Y015723D01*
X007177Y015721D01*
X007177Y015726D01*
X007132Y015728D01*
X007086Y015733D01*
X007042Y015742D01*
X006998Y015754D01*
X006955Y015769D01*
X006913Y015788D01*
X006873Y015809D01*
X006835Y015834D01*
X006798Y015861D01*
X006764Y015891D01*
X006732Y015923D01*
X006703Y015958D01*
X006707Y015961D01*
X006736Y015927D01*
X006768Y015895D01*
X006802Y015865D01*
X006838Y015838D01*
X006876Y015814D01*
X006915Y015792D01*
X006957Y015774D01*
X006999Y015759D01*
X007043Y015747D01*
X007087Y015738D01*
X007132Y015733D01*
X007177Y015731D01*
X007177Y015736D01*
X007132Y015738D01*
X007088Y015743D01*
X007044Y015752D01*
X007001Y015764D01*
X006959Y015779D01*
X006918Y015797D01*
X006878Y015818D01*
X006841Y015842D01*
X006805Y015869D01*
X006771Y015898D01*
X006740Y015930D01*
X006711Y015964D01*
X006715Y015967D01*
X006743Y015933D01*
X006774Y015902D01*
X006808Y015873D01*
X006843Y015846D01*
X006881Y015822D01*
X006920Y015801D01*
X006960Y015783D01*
X007002Y015768D01*
X007045Y015757D01*
X007089Y015748D01*
X007133Y015743D01*
X007177Y015741D01*
X007177Y015746D01*
X007133Y015748D01*
X007089Y015753D01*
X007046Y015761D01*
X007004Y015773D01*
X006962Y015788D01*
X006922Y015806D01*
X006883Y015826D01*
X006846Y015850D01*
X006811Y015876D01*
X006778Y015905D01*
X006747Y015937D01*
X006718Y015970D01*
X006722Y015973D01*
X006753Y015937D01*
X006787Y015904D01*
X006823Y015873D01*
X006862Y015845D01*
X006903Y015821D01*
X006946Y015800D01*
X006990Y015783D01*
X007036Y015769D01*
X007082Y015759D01*
X007129Y015753D01*
X007177Y015751D01*
X007177Y015756D01*
X007130Y015758D01*
X007083Y015764D01*
X007037Y015774D01*
X006992Y015788D01*
X006948Y015805D01*
X006906Y015825D01*
X006865Y015850D01*
X006827Y015877D01*
X006790Y015907D01*
X006757Y015941D01*
X006726Y015976D01*
X007688Y016699D02*
X007644Y016668D01*
X007645Y016668D02*
X007617Y016704D01*
X007586Y016737D01*
X007554Y016767D01*
X007518Y016795D01*
X007481Y016820D01*
X007442Y016842D01*
X007402Y016861D01*
X007359Y016877D01*
X007316Y016890D01*
X007272Y016899D01*
X007228Y016904D01*
X007183Y016906D01*
X007183Y016959D01*
X007183Y016960D01*
X007232Y016958D01*
X007281Y016952D01*
X007329Y016942D01*
X007376Y016928D01*
X007422Y016911D01*
X007467Y016891D01*
X007510Y016866D01*
X007550Y016839D01*
X007589Y016808D01*
X007625Y016775D01*
X007658Y016739D01*
X007688Y016700D01*
X007684Y016697D01*
X007654Y016735D01*
X007621Y016771D01*
X007586Y016804D01*
X007548Y016835D01*
X007507Y016862D01*
X007465Y016886D01*
X007420Y016907D01*
X007375Y016924D01*
X007328Y016937D01*
X007280Y016947D01*
X007232Y016953D01*
X007183Y016955D01*
X007183Y016950D01*
X007231Y016948D01*
X007279Y016942D01*
X007327Y016932D01*
X007373Y016919D01*
X007419Y016902D01*
X007462Y016882D01*
X007504Y016858D01*
X007545Y016831D01*
X007582Y016801D01*
X007618Y016768D01*
X007651Y016732D01*
X007680Y016694D01*
X007676Y016691D01*
X007647Y016729D01*
X007614Y016764D01*
X007579Y016797D01*
X007542Y016827D01*
X007502Y016854D01*
X007460Y016877D01*
X007417Y016897D01*
X007372Y016914D01*
X007326Y016927D01*
X007279Y016937D01*
X007231Y016943D01*
X007183Y016945D01*
X007183Y016940D01*
X007231Y016938D01*
X007278Y016932D01*
X007324Y016923D01*
X007370Y016909D01*
X007415Y016893D01*
X007458Y016873D01*
X007499Y016849D01*
X007539Y016823D01*
X007576Y016793D01*
X007611Y016761D01*
X007643Y016726D01*
X007672Y016688D01*
X007668Y016685D01*
X007639Y016722D01*
X007607Y016757D01*
X007573Y016789D01*
X007536Y016819D01*
X007497Y016845D01*
X007455Y016868D01*
X007413Y016888D01*
X007369Y016905D01*
X007323Y016918D01*
X007277Y016927D01*
X007230Y016933D01*
X007183Y016935D01*
X007183Y016930D01*
X007230Y016928D01*
X007276Y016922D01*
X007322Y016913D01*
X007367Y016900D01*
X007411Y016884D01*
X007453Y016864D01*
X007494Y016841D01*
X007533Y016815D01*
X007569Y016786D01*
X007604Y016754D01*
X007635Y016719D01*
X007664Y016682D01*
X007660Y016680D01*
X007631Y016716D01*
X007600Y016750D01*
X007566Y016782D01*
X007530Y016811D01*
X007491Y016837D01*
X007451Y016859D01*
X007409Y016879D01*
X007365Y016895D01*
X007321Y016908D01*
X007275Y016917D01*
X007229Y016923D01*
X007183Y016925D01*
X007183Y016920D01*
X007229Y016918D01*
X007275Y016912D01*
X007320Y016903D01*
X007364Y016890D01*
X007407Y016874D01*
X007449Y016855D01*
X007489Y016832D01*
X007527Y016807D01*
X007563Y016778D01*
X007596Y016747D01*
X007628Y016713D01*
X007656Y016677D01*
X007652Y016674D01*
X007624Y016710D01*
X007593Y016743D01*
X007560Y016774D01*
X007524Y016803D01*
X007486Y016828D01*
X007446Y016850D01*
X007405Y016870D01*
X007362Y016886D01*
X007318Y016898D01*
X007274Y016907D01*
X007229Y016913D01*
X007183Y016915D01*
X007183Y016910D01*
X007228Y016908D01*
X007273Y016902D01*
X007317Y016893D01*
X007361Y016881D01*
X007403Y016865D01*
X007444Y016846D01*
X007483Y016824D01*
X007521Y016799D01*
X007556Y016770D01*
X007589Y016740D01*
X007620Y016706D01*
X007648Y016671D01*
X007178Y016959D02*
X007178Y016905D01*
X007177Y016906D02*
X007133Y016904D01*
X007090Y016899D01*
X007047Y016890D01*
X007005Y016879D01*
X006964Y016864D01*
X006924Y016846D01*
X006885Y016824D01*
X006849Y016801D01*
X006814Y016774D01*
X006781Y016745D01*
X006751Y016713D01*
X006723Y016679D01*
X006681Y016711D01*
X006680Y016712D01*
X006711Y016749D01*
X006744Y016783D01*
X006779Y016815D01*
X006817Y016845D01*
X006858Y016871D01*
X006900Y016894D01*
X006943Y016914D01*
X006988Y016930D01*
X007034Y016943D01*
X007082Y016952D01*
X007129Y016958D01*
X007177Y016960D01*
X007177Y016955D01*
X007129Y016953D01*
X007082Y016947D01*
X007036Y016938D01*
X006990Y016925D01*
X006945Y016909D01*
X006902Y016889D01*
X006860Y016866D01*
X006820Y016840D01*
X006783Y016812D01*
X006747Y016780D01*
X006714Y016745D01*
X006684Y016709D01*
X006688Y016706D01*
X006718Y016742D01*
X006751Y016776D01*
X006786Y016808D01*
X006823Y016836D01*
X006863Y016862D01*
X006904Y016885D01*
X006947Y016904D01*
X006991Y016920D01*
X007037Y016933D01*
X007083Y016942D01*
X007130Y016948D01*
X007177Y016950D01*
X007177Y016945D01*
X007130Y016943D01*
X007084Y016937D01*
X007038Y016928D01*
X006993Y016916D01*
X006949Y016900D01*
X006906Y016880D01*
X006865Y016858D01*
X006826Y016832D01*
X006789Y016804D01*
X006754Y016773D01*
X006722Y016739D01*
X006692Y016703D01*
X006696Y016700D01*
X006726Y016735D01*
X006758Y016769D01*
X006792Y016800D01*
X006829Y016828D01*
X006868Y016854D01*
X006909Y016876D01*
X006951Y016895D01*
X006994Y016911D01*
X007039Y016923D01*
X007085Y016932D01*
X007131Y016938D01*
X007177Y016940D01*
X007177Y016935D01*
X007131Y016933D01*
X007085Y016928D01*
X007040Y016919D01*
X006996Y016906D01*
X006953Y016890D01*
X006911Y016871D01*
X006870Y016849D01*
X006832Y016824D01*
X006795Y016796D01*
X006761Y016765D01*
X006729Y016732D01*
X006700Y016697D01*
X006704Y016694D01*
X006733Y016729D01*
X006765Y016762D01*
X006799Y016792D01*
X006835Y016820D01*
X006873Y016845D01*
X006913Y016867D01*
X006955Y016886D01*
X006997Y016901D01*
X007041Y016914D01*
X007086Y016923D01*
X007131Y016928D01*
X007177Y016930D01*
X007177Y016925D01*
X007132Y016923D01*
X007087Y016918D01*
X007043Y016909D01*
X006999Y016897D01*
X006956Y016881D01*
X006915Y016863D01*
X006876Y016841D01*
X006838Y016816D01*
X006802Y016788D01*
X006768Y016758D01*
X006737Y016726D01*
X006708Y016691D01*
X006712Y016688D01*
X006741Y016722D01*
X006772Y016755D01*
X006805Y016785D01*
X006841Y016812D01*
X006878Y016836D01*
X006917Y016858D01*
X006958Y016877D01*
X007000Y016892D01*
X007044Y016904D01*
X007088Y016913D01*
X007132Y016918D01*
X007177Y016920D01*
X007177Y016915D01*
X007133Y016913D01*
X007088Y016908D01*
X007045Y016899D01*
X007002Y016887D01*
X006960Y016872D01*
X006920Y016854D01*
X006881Y016832D01*
X006844Y016808D01*
X006808Y016781D01*
X006775Y016751D01*
X006744Y016719D01*
X006716Y016685D01*
X006720Y016682D01*
X006748Y016716D01*
X006779Y016748D01*
X006811Y016777D01*
X006846Y016804D01*
X006883Y016828D01*
X006922Y016849D01*
X006962Y016867D01*
X007004Y016882D01*
X007046Y016894D01*
X007089Y016903D01*
X007133Y016908D01*
X007177Y016910D01*
X007183Y015707D02*
X007183Y015761D01*
X007183Y015760D02*
X007230Y015762D01*
X007276Y015768D01*
X007322Y015778D01*
X007367Y015791D01*
X007411Y015808D01*
X007453Y015829D01*
X007493Y015853D01*
X007531Y015880D01*
X007567Y015910D01*
X007600Y015943D01*
X007630Y015979D01*
X007673Y015946D01*
X007643Y015910D01*
X007610Y015876D01*
X007574Y015845D01*
X007537Y015817D01*
X007497Y015792D01*
X007455Y015770D01*
X007412Y015751D01*
X007368Y015735D01*
X007323Y015722D01*
X007277Y015713D01*
X007230Y015708D01*
X007183Y015706D01*
X007183Y015711D01*
X007230Y015713D01*
X007276Y015718D01*
X007322Y015727D01*
X007367Y015740D01*
X007411Y015755D01*
X007453Y015774D01*
X007494Y015796D01*
X007534Y015821D01*
X007571Y015849D01*
X007606Y015880D01*
X007639Y015913D01*
X007669Y015949D01*
X007665Y015952D01*
X007635Y015917D01*
X007603Y015884D01*
X007568Y015853D01*
X007531Y015825D01*
X007492Y015801D01*
X007451Y015779D01*
X007409Y015760D01*
X007365Y015744D01*
X007321Y015732D01*
X007275Y015723D01*
X007229Y015718D01*
X007183Y015716D01*
X007183Y015721D01*
X007229Y015723D01*
X007274Y015728D01*
X007319Y015737D01*
X007364Y015749D01*
X007407Y015765D01*
X007449Y015783D01*
X007489Y015805D01*
X007528Y015830D01*
X007565Y015857D01*
X007599Y015887D01*
X007632Y015920D01*
X007661Y015955D01*
X007657Y015958D01*
X007628Y015923D01*
X007596Y015891D01*
X007562Y015861D01*
X007525Y015834D01*
X007487Y015809D01*
X007447Y015788D01*
X007405Y015769D01*
X007362Y015754D01*
X007318Y015742D01*
X007274Y015733D01*
X007228Y015728D01*
X007183Y015726D01*
X007183Y015731D01*
X007228Y015733D01*
X007273Y015738D01*
X007317Y015747D01*
X007361Y015759D01*
X007403Y015774D01*
X007445Y015792D01*
X007484Y015814D01*
X007522Y015838D01*
X007558Y015865D01*
X007592Y015895D01*
X007624Y015927D01*
X007653Y015961D01*
X007649Y015964D01*
X007620Y015930D01*
X007589Y015898D01*
X007555Y015869D01*
X007519Y015842D01*
X007482Y015818D01*
X007442Y015797D01*
X007401Y015779D01*
X007359Y015764D01*
X007316Y015752D01*
X007272Y015743D01*
X007228Y015738D01*
X007183Y015736D01*
X007183Y015741D01*
X007227Y015743D01*
X007271Y015748D01*
X007315Y015757D01*
X007358Y015768D01*
X007400Y015783D01*
X007440Y015801D01*
X007479Y015822D01*
X007517Y015846D01*
X007552Y015873D01*
X007586Y015902D01*
X007617Y015933D01*
X007645Y015967D01*
X007642Y015970D01*
X007613Y015937D01*
X007582Y015905D01*
X007549Y015876D01*
X007514Y015850D01*
X007477Y015826D01*
X007438Y015806D01*
X007398Y015788D01*
X007356Y015773D01*
X007314Y015761D01*
X007271Y015753D01*
X007227Y015748D01*
X007183Y015746D01*
X007183Y015751D01*
X007231Y015753D01*
X007278Y015759D01*
X007324Y015769D01*
X007370Y015783D01*
X007414Y015800D01*
X007457Y015821D01*
X007498Y015845D01*
X007537Y015873D01*
X007573Y015904D01*
X007607Y015937D01*
X007638Y015973D01*
X007634Y015976D01*
X007603Y015941D01*
X007570Y015907D01*
X007533Y015877D01*
X007495Y015850D01*
X007454Y015825D01*
X007412Y015805D01*
X007368Y015788D01*
X007323Y015774D01*
X007277Y015764D01*
X007230Y015758D01*
X007183Y015756D01*
X021579Y025581D02*
X021633Y025581D01*
X021632Y025580D02*
X021634Y025565D01*
X021640Y025550D01*
X021648Y025537D01*
X021659Y025526D01*
X021672Y025518D01*
X021687Y025512D01*
X021702Y025510D01*
X021703Y025457D01*
X021702Y025456D01*
X021681Y025458D01*
X021660Y025464D01*
X021641Y025474D01*
X021623Y025486D01*
X021608Y025501D01*
X021596Y025519D01*
X021586Y025538D01*
X021580Y025559D01*
X021578Y025580D01*
X021583Y025580D01*
X021585Y025560D01*
X021591Y025540D01*
X021600Y025521D01*
X021612Y025504D01*
X021626Y025490D01*
X021643Y025478D01*
X021662Y025469D01*
X021682Y025463D01*
X021702Y025461D01*
X021702Y025466D01*
X021682Y025468D01*
X021663Y025474D01*
X021646Y025482D01*
X021630Y025494D01*
X021616Y025508D01*
X021604Y025524D01*
X021596Y025541D01*
X021590Y025560D01*
X021588Y025580D01*
X021593Y025580D01*
X021595Y025561D01*
X021600Y025543D01*
X021609Y025526D01*
X021619Y025511D01*
X021633Y025497D01*
X021648Y025487D01*
X021665Y025478D01*
X021683Y025473D01*
X021702Y025471D01*
X021702Y025476D01*
X021682Y025479D01*
X021663Y025485D01*
X021645Y025494D01*
X021629Y025507D01*
X021616Y025523D01*
X021607Y025541D01*
X021601Y025560D01*
X021598Y025580D01*
X021603Y025580D01*
X021605Y025561D01*
X021611Y025543D01*
X021621Y025526D01*
X021633Y025511D01*
X021648Y025499D01*
X021665Y025489D01*
X021683Y025483D01*
X021702Y025481D01*
X021702Y025486D01*
X021684Y025488D01*
X021666Y025494D01*
X021650Y025503D01*
X021636Y025514D01*
X021625Y025528D01*
X021616Y025544D01*
X021610Y025562D01*
X021608Y025580D01*
X021613Y025580D01*
X021615Y025563D01*
X021621Y025546D01*
X021629Y025531D01*
X021640Y025518D01*
X021653Y025507D01*
X021668Y025499D01*
X021685Y025493D01*
X021702Y025491D01*
X021702Y025496D01*
X021686Y025498D01*
X021670Y025503D01*
X021656Y025511D01*
X021643Y025521D01*
X021633Y025534D01*
X021625Y025548D01*
X021620Y025564D01*
X021618Y025580D01*
X021623Y025580D01*
X021626Y025563D01*
X021632Y025546D01*
X021641Y025532D01*
X021654Y025519D01*
X021668Y025510D01*
X021685Y025504D01*
X021702Y025501D01*
X021702Y025506D01*
X021686Y025508D01*
X021670Y025514D01*
X021657Y025523D01*
X021645Y025535D01*
X021636Y025548D01*
X021630Y025564D01*
X021628Y025580D01*
X021703Y026209D02*
X021703Y026155D01*
X021702Y026156D02*
X021687Y026154D01*
X021672Y026148D01*
X021659Y026140D01*
X021648Y026129D01*
X021640Y026116D01*
X021634Y026101D01*
X021632Y026086D01*
X021579Y026085D01*
X021578Y026086D01*
X021580Y026107D01*
X021586Y026128D01*
X021596Y026147D01*
X021608Y026165D01*
X021623Y026180D01*
X021641Y026192D01*
X021660Y026202D01*
X021681Y026208D01*
X021702Y026210D01*
X021702Y026205D01*
X021682Y026203D01*
X021662Y026197D01*
X021643Y026188D01*
X021626Y026176D01*
X021612Y026162D01*
X021600Y026145D01*
X021591Y026126D01*
X021585Y026106D01*
X021583Y026086D01*
X021588Y026086D01*
X021590Y026106D01*
X021596Y026125D01*
X021604Y026142D01*
X021616Y026158D01*
X021630Y026172D01*
X021646Y026184D01*
X021663Y026192D01*
X021682Y026198D01*
X021702Y026200D01*
X021702Y026195D01*
X021683Y026193D01*
X021665Y026188D01*
X021648Y026179D01*
X021633Y026169D01*
X021619Y026155D01*
X021609Y026140D01*
X021600Y026123D01*
X021595Y026105D01*
X021593Y026086D01*
X021598Y026086D01*
X021601Y026106D01*
X021607Y026125D01*
X021616Y026143D01*
X021629Y026159D01*
X021645Y026172D01*
X021663Y026181D01*
X021682Y026187D01*
X021702Y026190D01*
X021702Y026185D01*
X021683Y026183D01*
X021665Y026177D01*
X021648Y026167D01*
X021633Y026155D01*
X021621Y026140D01*
X021611Y026123D01*
X021605Y026105D01*
X021603Y026086D01*
X021608Y026086D01*
X021610Y026104D01*
X021616Y026122D01*
X021625Y026138D01*
X021636Y026152D01*
X021650Y026163D01*
X021666Y026172D01*
X021684Y026178D01*
X021702Y026180D01*
X021702Y026175D01*
X021685Y026173D01*
X021668Y026167D01*
X021653Y026159D01*
X021640Y026148D01*
X021629Y026135D01*
X021621Y026120D01*
X021615Y026103D01*
X021613Y026086D01*
X021618Y026086D01*
X021620Y026102D01*
X021625Y026118D01*
X021633Y026132D01*
X021643Y026145D01*
X021656Y026155D01*
X021670Y026163D01*
X021686Y026168D01*
X021702Y026170D01*
X021702Y026165D01*
X021685Y026162D01*
X021668Y026156D01*
X021654Y026147D01*
X021641Y026134D01*
X021632Y026120D01*
X021626Y026103D01*
X021623Y026086D01*
X021628Y026086D01*
X021630Y026102D01*
X021636Y026118D01*
X021645Y026131D01*
X021657Y026143D01*
X021670Y026152D01*
X021686Y026158D01*
X021702Y026160D01*
X021579Y026706D02*
X021633Y026706D01*
X021632Y026705D02*
X021634Y026690D01*
X021640Y026675D01*
X021648Y026662D01*
X021659Y026651D01*
X021672Y026643D01*
X021687Y026637D01*
X021702Y026635D01*
X021703Y026582D01*
X021702Y026581D01*
X021681Y026583D01*
X021660Y026589D01*
X021641Y026599D01*
X021623Y026611D01*
X021608Y026626D01*
X021596Y026644D01*
X021586Y026663D01*
X021580Y026684D01*
X021578Y026705D01*
X021583Y026705D01*
X021585Y026685D01*
X021591Y026665D01*
X021600Y026646D01*
X021612Y026629D01*
X021626Y026615D01*
X021643Y026603D01*
X021662Y026594D01*
X021682Y026588D01*
X021702Y026586D01*
X021702Y026591D01*
X021682Y026593D01*
X021663Y026599D01*
X021646Y026607D01*
X021630Y026619D01*
X021616Y026633D01*
X021604Y026649D01*
X021596Y026666D01*
X021590Y026685D01*
X021588Y026705D01*
X021593Y026705D01*
X021595Y026686D01*
X021600Y026668D01*
X021609Y026651D01*
X021619Y026636D01*
X021633Y026622D01*
X021648Y026612D01*
X021665Y026603D01*
X021683Y026598D01*
X021702Y026596D01*
X021702Y026601D01*
X021682Y026604D01*
X021663Y026610D01*
X021645Y026619D01*
X021629Y026632D01*
X021616Y026648D01*
X021607Y026666D01*
X021601Y026685D01*
X021598Y026705D01*
X021603Y026705D01*
X021605Y026686D01*
X021611Y026668D01*
X021621Y026651D01*
X021633Y026636D01*
X021648Y026624D01*
X021665Y026614D01*
X021683Y026608D01*
X021702Y026606D01*
X021702Y026611D01*
X021684Y026613D01*
X021666Y026619D01*
X021650Y026628D01*
X021636Y026639D01*
X021625Y026653D01*
X021616Y026669D01*
X021610Y026687D01*
X021608Y026705D01*
X021613Y026705D01*
X021615Y026688D01*
X021621Y026671D01*
X021629Y026656D01*
X021640Y026643D01*
X021653Y026632D01*
X021668Y026624D01*
X021685Y026618D01*
X021702Y026616D01*
X021702Y026621D01*
X021686Y026623D01*
X021670Y026628D01*
X021656Y026636D01*
X021643Y026646D01*
X021633Y026659D01*
X021625Y026673D01*
X021620Y026689D01*
X021618Y026705D01*
X021623Y026705D01*
X021626Y026688D01*
X021632Y026671D01*
X021641Y026657D01*
X021654Y026644D01*
X021668Y026635D01*
X021685Y026629D01*
X021702Y026626D01*
X021702Y026631D01*
X021686Y026633D01*
X021670Y026639D01*
X021657Y026648D01*
X021645Y026660D01*
X021636Y026673D01*
X021630Y026689D01*
X021628Y026705D01*
X021703Y027334D02*
X021703Y027280D01*
X021702Y027281D02*
X021687Y027279D01*
X021672Y027273D01*
X021659Y027265D01*
X021648Y027254D01*
X021640Y027241D01*
X021634Y027226D01*
X021632Y027211D01*
X021579Y027210D01*
X021578Y027211D01*
X021580Y027232D01*
X021586Y027253D01*
X021596Y027272D01*
X021608Y027290D01*
X021623Y027305D01*
X021641Y027317D01*
X021660Y027327D01*
X021681Y027333D01*
X021702Y027335D01*
X021702Y027330D01*
X021682Y027328D01*
X021662Y027322D01*
X021643Y027313D01*
X021626Y027301D01*
X021612Y027287D01*
X021600Y027270D01*
X021591Y027251D01*
X021585Y027231D01*
X021583Y027211D01*
X021588Y027211D01*
X021590Y027231D01*
X021596Y027250D01*
X021604Y027267D01*
X021616Y027283D01*
X021630Y027297D01*
X021646Y027309D01*
X021663Y027317D01*
X021682Y027323D01*
X021702Y027325D01*
X021702Y027320D01*
X021683Y027318D01*
X021665Y027313D01*
X021648Y027304D01*
X021633Y027294D01*
X021619Y027280D01*
X021609Y027265D01*
X021600Y027248D01*
X021595Y027230D01*
X021593Y027211D01*
X021598Y027211D01*
X021601Y027231D01*
X021607Y027250D01*
X021616Y027268D01*
X021629Y027284D01*
X021645Y027297D01*
X021663Y027306D01*
X021682Y027312D01*
X021702Y027315D01*
X021702Y027310D01*
X021683Y027308D01*
X021665Y027302D01*
X021648Y027292D01*
X021633Y027280D01*
X021621Y027265D01*
X021611Y027248D01*
X021605Y027230D01*
X021603Y027211D01*
X021608Y027211D01*
X021610Y027229D01*
X021616Y027247D01*
X021625Y027263D01*
X021636Y027277D01*
X021650Y027288D01*
X021666Y027297D01*
X021684Y027303D01*
X021702Y027305D01*
X021702Y027300D01*
X021685Y027298D01*
X021668Y027292D01*
X021653Y027284D01*
X021640Y027273D01*
X021629Y027260D01*
X021621Y027245D01*
X021615Y027228D01*
X021613Y027211D01*
X021618Y027211D01*
X021620Y027227D01*
X021625Y027243D01*
X021633Y027257D01*
X021643Y027270D01*
X021656Y027280D01*
X021670Y027288D01*
X021686Y027293D01*
X021702Y027295D01*
X021702Y027290D01*
X021685Y027287D01*
X021668Y027281D01*
X021654Y027272D01*
X021641Y027259D01*
X021632Y027245D01*
X021626Y027228D01*
X021623Y027211D01*
X021628Y027211D01*
X021630Y027227D01*
X021636Y027243D01*
X021645Y027256D01*
X021657Y027268D01*
X021670Y027277D01*
X021686Y027283D01*
X021702Y027285D01*
X023031Y027210D02*
X022977Y027210D01*
X022978Y027211D02*
X022976Y027226D01*
X022970Y027241D01*
X022962Y027254D01*
X022951Y027265D01*
X022938Y027273D01*
X022923Y027279D01*
X022908Y027281D01*
X022907Y027334D01*
X022908Y027335D01*
X022929Y027333D01*
X022950Y027327D01*
X022969Y027317D01*
X022987Y027305D01*
X023002Y027290D01*
X023014Y027272D01*
X023024Y027253D01*
X023030Y027232D01*
X023032Y027211D01*
X023027Y027211D01*
X023025Y027231D01*
X023019Y027251D01*
X023010Y027270D01*
X022998Y027287D01*
X022984Y027301D01*
X022967Y027313D01*
X022948Y027322D01*
X022928Y027328D01*
X022908Y027330D01*
X022908Y027325D01*
X022928Y027323D01*
X022947Y027317D01*
X022964Y027309D01*
X022980Y027297D01*
X022994Y027283D01*
X023006Y027267D01*
X023014Y027250D01*
X023020Y027231D01*
X023022Y027211D01*
X023017Y027211D01*
X023015Y027230D01*
X023010Y027248D01*
X023001Y027265D01*
X022991Y027280D01*
X022977Y027294D01*
X022962Y027304D01*
X022945Y027313D01*
X022927Y027318D01*
X022908Y027320D01*
X022908Y027315D01*
X022928Y027312D01*
X022947Y027306D01*
X022965Y027297D01*
X022981Y027284D01*
X022994Y027268D01*
X023003Y027250D01*
X023009Y027231D01*
X023012Y027211D01*
X023007Y027211D01*
X023005Y027230D01*
X022999Y027248D01*
X022989Y027265D01*
X022977Y027280D01*
X022962Y027292D01*
X022945Y027302D01*
X022927Y027308D01*
X022908Y027310D01*
X022908Y027305D01*
X022926Y027303D01*
X022944Y027297D01*
X022960Y027288D01*
X022974Y027277D01*
X022985Y027263D01*
X022994Y027247D01*
X023000Y027229D01*
X023002Y027211D01*
X022997Y027211D01*
X022995Y027228D01*
X022989Y027245D01*
X022981Y027260D01*
X022970Y027273D01*
X022957Y027284D01*
X022942Y027292D01*
X022925Y027298D01*
X022908Y027300D01*
X022908Y027295D01*
X022924Y027293D01*
X022940Y027288D01*
X022954Y027280D01*
X022967Y027270D01*
X022977Y027257D01*
X022985Y027243D01*
X022990Y027227D01*
X022992Y027211D01*
X022987Y027211D01*
X022984Y027228D01*
X022978Y027245D01*
X022969Y027259D01*
X022956Y027272D01*
X022942Y027281D01*
X022925Y027287D01*
X022908Y027290D01*
X022908Y027285D01*
X022924Y027283D01*
X022940Y027277D01*
X022953Y027268D01*
X022965Y027256D01*
X022974Y027243D01*
X022980Y027227D01*
X022982Y027211D01*
X022907Y026582D02*
X022907Y026636D01*
X022908Y026635D02*
X022923Y026637D01*
X022938Y026643D01*
X022951Y026651D01*
X022962Y026662D01*
X022970Y026675D01*
X022976Y026690D01*
X022978Y026705D01*
X023031Y026706D01*
X023032Y026705D01*
X023030Y026684D01*
X023024Y026663D01*
X023014Y026644D01*
X023002Y026626D01*
X022987Y026611D01*
X022969Y026599D01*
X022950Y026589D01*
X022929Y026583D01*
X022908Y026581D01*
X022908Y026586D01*
X022928Y026588D01*
X022948Y026594D01*
X022967Y026603D01*
X022984Y026615D01*
X022998Y026629D01*
X023010Y026646D01*
X023019Y026665D01*
X023025Y026685D01*
X023027Y026705D01*
X023022Y026705D01*
X023020Y026685D01*
X023014Y026666D01*
X023006Y026649D01*
X022994Y026633D01*
X022980Y026619D01*
X022964Y026607D01*
X022947Y026599D01*
X022928Y026593D01*
X022908Y026591D01*
X022908Y026596D01*
X022927Y026598D01*
X022945Y026603D01*
X022962Y026612D01*
X022977Y026622D01*
X022991Y026636D01*
X023001Y026651D01*
X023010Y026668D01*
X023015Y026686D01*
X023017Y026705D01*
X023012Y026705D01*
X023009Y026685D01*
X023003Y026666D01*
X022994Y026648D01*
X022981Y026632D01*
X022965Y026619D01*
X022947Y026610D01*
X022928Y026604D01*
X022908Y026601D01*
X022908Y026606D01*
X022927Y026608D01*
X022945Y026614D01*
X022962Y026624D01*
X022977Y026636D01*
X022989Y026651D01*
X022999Y026668D01*
X023005Y026686D01*
X023007Y026705D01*
X023002Y026705D01*
X023000Y026687D01*
X022994Y026669D01*
X022985Y026653D01*
X022974Y026639D01*
X022960Y026628D01*
X022944Y026619D01*
X022926Y026613D01*
X022908Y026611D01*
X022908Y026616D01*
X022925Y026618D01*
X022942Y026624D01*
X022957Y026632D01*
X022970Y026643D01*
X022981Y026656D01*
X022989Y026671D01*
X022995Y026688D01*
X022997Y026705D01*
X022992Y026705D01*
X022990Y026689D01*
X022985Y026673D01*
X022977Y026659D01*
X022967Y026646D01*
X022954Y026636D01*
X022940Y026628D01*
X022924Y026623D01*
X022908Y026621D01*
X022908Y026626D01*
X022925Y026629D01*
X022942Y026635D01*
X022956Y026644D01*
X022969Y026657D01*
X022978Y026671D01*
X022984Y026688D01*
X022987Y026705D01*
X022982Y026705D01*
X022980Y026689D01*
X022974Y026673D01*
X022965Y026660D01*
X022953Y026648D01*
X022940Y026639D01*
X022924Y026633D01*
X022908Y026631D01*
X023031Y026085D02*
X022977Y026085D01*
X022978Y026086D02*
X022976Y026101D01*
X022970Y026116D01*
X022962Y026129D01*
X022951Y026140D01*
X022938Y026148D01*
X022923Y026154D01*
X022908Y026156D01*
X022907Y026209D01*
X022908Y026210D01*
X022929Y026208D01*
X022950Y026202D01*
X022969Y026192D01*
X022987Y026180D01*
X023002Y026165D01*
X023014Y026147D01*
X023024Y026128D01*
X023030Y026107D01*
X023032Y026086D01*
X023027Y026086D01*
X023025Y026106D01*
X023019Y026126D01*
X023010Y026145D01*
X022998Y026162D01*
X022984Y026176D01*
X022967Y026188D01*
X022948Y026197D01*
X022928Y026203D01*
X022908Y026205D01*
X022908Y026200D01*
X022928Y026198D01*
X022947Y026192D01*
X022964Y026184D01*
X022980Y026172D01*
X022994Y026158D01*
X023006Y026142D01*
X023014Y026125D01*
X023020Y026106D01*
X023022Y026086D01*
X023017Y026086D01*
X023015Y026105D01*
X023010Y026123D01*
X023001Y026140D01*
X022991Y026155D01*
X022977Y026169D01*
X022962Y026179D01*
X022945Y026188D01*
X022927Y026193D01*
X022908Y026195D01*
X022908Y026190D01*
X022928Y026187D01*
X022947Y026181D01*
X022965Y026172D01*
X022981Y026159D01*
X022994Y026143D01*
X023003Y026125D01*
X023009Y026106D01*
X023012Y026086D01*
X023007Y026086D01*
X023005Y026105D01*
X022999Y026123D01*
X022989Y026140D01*
X022977Y026155D01*
X022962Y026167D01*
X022945Y026177D01*
X022927Y026183D01*
X022908Y026185D01*
X022908Y026180D01*
X022926Y026178D01*
X022944Y026172D01*
X022960Y026163D01*
X022974Y026152D01*
X022985Y026138D01*
X022994Y026122D01*
X023000Y026104D01*
X023002Y026086D01*
X022997Y026086D01*
X022995Y026103D01*
X022989Y026120D01*
X022981Y026135D01*
X022970Y026148D01*
X022957Y026159D01*
X022942Y026167D01*
X022925Y026173D01*
X022908Y026175D01*
X022908Y026170D01*
X022924Y026168D01*
X022940Y026163D01*
X022954Y026155D01*
X022967Y026145D01*
X022977Y026132D01*
X022985Y026118D01*
X022990Y026102D01*
X022992Y026086D01*
X022987Y026086D01*
X022984Y026103D01*
X022978Y026120D01*
X022969Y026134D01*
X022956Y026147D01*
X022942Y026156D01*
X022925Y026162D01*
X022908Y026165D01*
X022908Y026160D01*
X022924Y026158D01*
X022940Y026152D01*
X022953Y026143D01*
X022965Y026131D01*
X022974Y026118D01*
X022980Y026102D01*
X022982Y026086D01*
X022907Y025457D02*
X022907Y025511D01*
X022908Y025510D02*
X022923Y025512D01*
X022938Y025518D01*
X022951Y025526D01*
X022962Y025537D01*
X022970Y025550D01*
X022976Y025565D01*
X022978Y025580D01*
X023031Y025581D01*
X023032Y025580D01*
X023030Y025559D01*
X023024Y025538D01*
X023014Y025519D01*
X023002Y025501D01*
X022987Y025486D01*
X022969Y025474D01*
X022950Y025464D01*
X022929Y025458D01*
X022908Y025456D01*
X022908Y025461D01*
X022928Y025463D01*
X022948Y025469D01*
X022967Y025478D01*
X022984Y025490D01*
X022998Y025504D01*
X023010Y025521D01*
X023019Y025540D01*
X023025Y025560D01*
X023027Y025580D01*
X023022Y025580D01*
X023020Y025560D01*
X023014Y025541D01*
X023006Y025524D01*
X022994Y025508D01*
X022980Y025494D01*
X022964Y025482D01*
X022947Y025474D01*
X022928Y025468D01*
X022908Y025466D01*
X022908Y025471D01*
X022927Y025473D01*
X022945Y025478D01*
X022962Y025487D01*
X022977Y025497D01*
X022991Y025511D01*
X023001Y025526D01*
X023010Y025543D01*
X023015Y025561D01*
X023017Y025580D01*
X023012Y025580D01*
X023009Y025560D01*
X023003Y025541D01*
X022994Y025523D01*
X022981Y025507D01*
X022965Y025494D01*
X022947Y025485D01*
X022928Y025479D01*
X022908Y025476D01*
X022908Y025481D01*
X022927Y025483D01*
X022945Y025489D01*
X022962Y025499D01*
X022977Y025511D01*
X022989Y025526D01*
X022999Y025543D01*
X023005Y025561D01*
X023007Y025580D01*
X023002Y025580D01*
X023000Y025562D01*
X022994Y025544D01*
X022985Y025528D01*
X022974Y025514D01*
X022960Y025503D01*
X022944Y025494D01*
X022926Y025488D01*
X022908Y025486D01*
X022908Y025491D01*
X022925Y025493D01*
X022942Y025499D01*
X022957Y025507D01*
X022970Y025518D01*
X022981Y025531D01*
X022989Y025546D01*
X022995Y025563D01*
X022997Y025580D01*
X022992Y025580D01*
X022990Y025564D01*
X022985Y025548D01*
X022977Y025534D01*
X022967Y025521D01*
X022954Y025511D01*
X022940Y025503D01*
X022924Y025498D01*
X022908Y025496D01*
X022908Y025501D01*
X022925Y025504D01*
X022942Y025510D01*
X022956Y025519D01*
X022969Y025532D01*
X022978Y025546D01*
X022984Y025563D01*
X022987Y025580D01*
X022982Y025580D01*
X022980Y025564D01*
X022974Y025548D01*
X022965Y025535D01*
X022953Y025523D01*
X022940Y025514D01*
X022924Y025508D01*
X022908Y025506D01*
D18*
X023255Y031833D03*
X025105Y031833D03*
X027255Y031833D03*
X021105Y031833D03*
X010755Y032833D03*
X008605Y032833D03*
X033855Y033333D03*
X036005Y033333D03*
G36*
X034297Y036840D02*
X034403Y036946D01*
X034543Y036806D01*
X034437Y036700D01*
X034297Y036840D01*
G37*
G36*
X035817Y038360D02*
X035923Y038466D01*
X036063Y038326D01*
X035957Y038220D01*
X035817Y038360D01*
G37*
D19*
X007175Y019427D02*
X007175Y019337D01*
X007175Y019338D02*
X007121Y019336D01*
X007068Y019330D01*
X007015Y019320D01*
X006963Y019306D01*
X006912Y019289D01*
X006863Y019268D01*
X006815Y019244D01*
X006769Y019216D01*
X006725Y019185D01*
X006683Y019151D01*
X006644Y019115D01*
X006607Y019075D01*
X006574Y019033D01*
X006543Y018989D01*
X006516Y018943D01*
X006437Y018985D01*
X006465Y019034D01*
X006497Y019080D01*
X006532Y019125D01*
X006569Y019167D01*
X006610Y019207D01*
X006653Y019243D01*
X006698Y019277D01*
X006745Y019308D01*
X006795Y019335D01*
X006846Y019359D01*
X006898Y019380D01*
X006952Y019397D01*
X007007Y019410D01*
X007062Y019420D01*
X007119Y019426D01*
X007175Y019428D01*
X007175Y019419D01*
X007119Y019417D01*
X007064Y019411D01*
X007009Y019401D01*
X006954Y019388D01*
X006901Y019371D01*
X006849Y019351D01*
X006799Y019327D01*
X006750Y019300D01*
X006703Y019270D01*
X006658Y019236D01*
X006616Y019200D01*
X006576Y019161D01*
X006539Y019119D01*
X006504Y019075D01*
X006473Y019029D01*
X006445Y018981D01*
X006453Y018977D01*
X006481Y019024D01*
X006512Y019070D01*
X006546Y019113D01*
X006582Y019155D01*
X006622Y019193D01*
X006664Y019229D01*
X006708Y019262D01*
X006754Y019292D01*
X006803Y019319D01*
X006853Y019342D01*
X006904Y019363D01*
X006957Y019379D01*
X007010Y019392D01*
X007065Y019402D01*
X007120Y019408D01*
X007175Y019410D01*
X007175Y019401D01*
X007120Y019399D01*
X007066Y019393D01*
X007012Y019384D01*
X006959Y019371D01*
X006907Y019354D01*
X006856Y019334D01*
X006807Y019311D01*
X006759Y019284D01*
X006713Y019255D01*
X006669Y019222D01*
X006628Y019187D01*
X006589Y019148D01*
X006552Y019108D01*
X006519Y019065D01*
X006488Y019019D01*
X006461Y018972D01*
X006469Y018968D01*
X006496Y019015D01*
X006526Y019059D01*
X006559Y019102D01*
X006595Y019142D01*
X006634Y019180D01*
X006675Y019215D01*
X006718Y019247D01*
X006764Y019277D01*
X006811Y019303D01*
X006860Y019326D01*
X006910Y019346D01*
X006962Y019362D01*
X007014Y019375D01*
X007067Y019384D01*
X007121Y019390D01*
X007175Y019392D01*
X007175Y019383D01*
X007122Y019381D01*
X007069Y019375D01*
X007016Y019366D01*
X006964Y019353D01*
X006913Y019337D01*
X006863Y019318D01*
X006815Y019295D01*
X006768Y019269D01*
X006724Y019240D01*
X006681Y019208D01*
X006640Y019173D01*
X006602Y019136D01*
X006566Y019096D01*
X006533Y019054D01*
X006503Y019010D01*
X006476Y018964D01*
X006484Y018960D01*
X006511Y019005D01*
X006541Y019049D01*
X006573Y019090D01*
X006608Y019130D01*
X006646Y019167D01*
X006686Y019201D01*
X006729Y019233D01*
X006773Y019261D01*
X006819Y019287D01*
X006867Y019309D01*
X006916Y019329D01*
X006966Y019345D01*
X007018Y019357D01*
X007070Y019366D01*
X007122Y019372D01*
X007175Y019374D01*
X007175Y019365D01*
X007119Y019363D01*
X007064Y019356D01*
X007009Y019346D01*
X006955Y019332D01*
X006903Y019314D01*
X006851Y019293D01*
X006802Y019267D01*
X006754Y019239D01*
X006708Y019207D01*
X006665Y019172D01*
X006625Y019134D01*
X006587Y019093D01*
X006552Y019049D01*
X006521Y019003D01*
X006492Y018955D01*
X006500Y018951D01*
X006528Y018999D01*
X006559Y019044D01*
X006594Y019087D01*
X006631Y019127D01*
X006671Y019165D01*
X006714Y019200D01*
X006759Y019231D01*
X006806Y019260D01*
X006855Y019284D01*
X006906Y019306D01*
X006958Y019323D01*
X007011Y019337D01*
X007065Y019347D01*
X007120Y019354D01*
X007175Y019356D01*
X007175Y019347D01*
X007121Y019345D01*
X007067Y019339D01*
X007013Y019329D01*
X006961Y019315D01*
X006909Y019297D01*
X006859Y019276D01*
X006810Y019252D01*
X006764Y019224D01*
X006719Y019192D01*
X006677Y019158D01*
X006638Y019121D01*
X006601Y019081D01*
X006567Y019039D01*
X006536Y018994D01*
X006508Y018947D01*
X006449Y018160D02*
X006527Y018205D01*
X006527Y018204D02*
X006555Y018160D01*
X006586Y018118D01*
X006619Y018078D01*
X006655Y018040D01*
X006694Y018005D01*
X006735Y017973D01*
X006779Y017943D01*
X006824Y017917D01*
X006871Y017894D01*
X006919Y017874D01*
X006969Y017858D01*
X007019Y017845D01*
X007071Y017836D01*
X007123Y017830D01*
X007175Y017828D01*
X007176Y017739D01*
X007175Y017738D01*
X007120Y017740D01*
X007066Y017746D01*
X007011Y017755D01*
X006958Y017768D01*
X006906Y017784D01*
X006854Y017803D01*
X006804Y017826D01*
X006756Y017852D01*
X006709Y017881D01*
X006665Y017913D01*
X006622Y017948D01*
X006582Y017986D01*
X006545Y018026D01*
X006510Y018068D01*
X006478Y018113D01*
X006449Y018159D01*
X006457Y018164D01*
X006485Y018118D01*
X006517Y018074D01*
X006552Y018032D01*
X006589Y017992D01*
X006628Y017955D01*
X006670Y017920D01*
X006714Y017889D01*
X006760Y017860D01*
X006808Y017834D01*
X006858Y017812D01*
X006908Y017792D01*
X006960Y017776D01*
X007013Y017764D01*
X007067Y017755D01*
X007121Y017749D01*
X007175Y017747D01*
X007175Y017756D01*
X007121Y017758D01*
X007068Y017764D01*
X007015Y017773D01*
X006963Y017785D01*
X006911Y017801D01*
X006861Y017820D01*
X006812Y017842D01*
X006765Y017868D01*
X006719Y017896D01*
X006676Y017928D01*
X006634Y017962D01*
X006595Y017998D01*
X006558Y018038D01*
X006524Y018079D01*
X006493Y018123D01*
X006464Y018168D01*
X006472Y018173D01*
X006502Y018125D01*
X006536Y018079D01*
X006572Y018036D01*
X006612Y017995D01*
X006654Y017957D01*
X006698Y017922D01*
X006745Y017890D01*
X006794Y017862D01*
X006845Y017837D01*
X006898Y017815D01*
X006951Y017798D01*
X007006Y017784D01*
X007062Y017774D01*
X007118Y017767D01*
X007175Y017765D01*
X007175Y017774D01*
X007119Y017776D01*
X007063Y017782D01*
X007008Y017792D01*
X006954Y017806D01*
X006901Y017824D01*
X006849Y017845D01*
X006798Y017870D01*
X006750Y017898D01*
X006704Y017929D01*
X006659Y017964D01*
X006618Y018001D01*
X006579Y018042D01*
X006543Y018084D01*
X006510Y018130D01*
X006480Y018177D01*
X006488Y018182D01*
X006517Y018135D01*
X006550Y018090D01*
X006586Y018048D01*
X006624Y018008D01*
X006665Y017971D01*
X006709Y017936D01*
X006755Y017905D01*
X006803Y017878D01*
X006852Y017853D01*
X006904Y017832D01*
X006956Y017815D01*
X007010Y017801D01*
X007065Y017791D01*
X007120Y017785D01*
X007175Y017783D01*
X007175Y017792D01*
X007120Y017794D01*
X007066Y017800D01*
X007012Y017810D01*
X006959Y017824D01*
X006907Y017841D01*
X006856Y017861D01*
X006807Y017886D01*
X006760Y017913D01*
X006714Y017944D01*
X006671Y017977D01*
X006630Y018014D01*
X006592Y018054D01*
X006557Y018096D01*
X006525Y018140D01*
X006496Y018186D01*
X006504Y018191D01*
X006532Y018145D01*
X006564Y018101D01*
X006599Y018060D01*
X006637Y018021D01*
X006677Y017984D01*
X006719Y017951D01*
X006764Y017921D01*
X006811Y017893D01*
X006860Y017870D01*
X006910Y017849D01*
X006961Y017832D01*
X007014Y017819D01*
X007067Y017809D01*
X007121Y017803D01*
X007175Y017801D01*
X007175Y017810D01*
X007122Y017812D01*
X007068Y017818D01*
X007016Y017828D01*
X006964Y017841D01*
X006913Y017858D01*
X006863Y017878D01*
X006815Y017901D01*
X006769Y017928D01*
X006725Y017958D01*
X006683Y017991D01*
X006643Y018027D01*
X006606Y018066D01*
X006571Y018107D01*
X006540Y018150D01*
X006511Y018195D01*
X006519Y018200D01*
X006547Y018155D01*
X006578Y018112D01*
X006612Y018072D01*
X006649Y018034D01*
X006688Y017998D01*
X006730Y017966D01*
X006774Y017936D01*
X006820Y017909D01*
X006867Y017886D01*
X006916Y017866D01*
X006966Y017849D01*
X007018Y017836D01*
X007070Y017827D01*
X007122Y017821D01*
X007175Y017819D01*
X007184Y017739D02*
X007184Y017829D01*
X007185Y017828D02*
X007239Y017830D01*
X007292Y017836D01*
X007345Y017846D01*
X007397Y017860D01*
X007448Y017877D01*
X007498Y017898D01*
X007546Y017922D01*
X007592Y017950D01*
X007636Y017981D01*
X007677Y018015D01*
X007717Y018052D01*
X007753Y018091D01*
X007821Y018034D01*
X007822Y018033D01*
X007784Y017992D01*
X007744Y017954D01*
X007701Y017918D01*
X007656Y017885D01*
X007609Y017855D01*
X007561Y017829D01*
X007510Y017805D01*
X007458Y017785D01*
X007405Y017769D01*
X007351Y017755D01*
X007296Y017746D01*
X007241Y017740D01*
X007185Y017738D01*
X007185Y017747D01*
X007240Y017749D01*
X007295Y017755D01*
X007349Y017764D01*
X007403Y017777D01*
X007455Y017794D01*
X007507Y017813D01*
X007557Y017837D01*
X007605Y017863D01*
X007651Y017893D01*
X007696Y017925D01*
X007738Y017960D01*
X007778Y017999D01*
X007815Y018039D01*
X007808Y018045D01*
X007771Y018005D01*
X007732Y017967D01*
X007690Y017932D01*
X007646Y017900D01*
X007600Y017871D01*
X007552Y017845D01*
X007503Y017822D01*
X007452Y017802D01*
X007400Y017786D01*
X007347Y017773D01*
X007294Y017764D01*
X007239Y017758D01*
X007185Y017756D01*
X007185Y017765D01*
X007239Y017767D01*
X007292Y017773D01*
X007345Y017782D01*
X007398Y017795D01*
X007449Y017811D01*
X007500Y017830D01*
X007548Y017853D01*
X007596Y017878D01*
X007641Y017907D01*
X007685Y017939D01*
X007726Y017974D01*
X007765Y018011D01*
X007801Y018051D01*
X007794Y018057D01*
X007758Y018017D01*
X007720Y017980D01*
X007679Y017946D01*
X007636Y017915D01*
X007591Y017886D01*
X007544Y017861D01*
X007496Y017838D01*
X007446Y017819D01*
X007395Y017803D01*
X007344Y017791D01*
X007291Y017782D01*
X007238Y017776D01*
X007185Y017774D01*
X007185Y017783D01*
X007238Y017785D01*
X007290Y017791D01*
X007342Y017800D01*
X007393Y017812D01*
X007443Y017828D01*
X007493Y017847D01*
X007540Y017869D01*
X007587Y017894D01*
X007631Y017922D01*
X007673Y017953D01*
X007714Y017987D01*
X007752Y018024D01*
X007787Y018062D01*
X007781Y018068D01*
X007745Y018030D01*
X007708Y017994D01*
X007668Y017960D01*
X007626Y017930D01*
X007582Y017902D01*
X007536Y017877D01*
X007489Y017855D01*
X007440Y017836D01*
X007391Y017821D01*
X007340Y017808D01*
X007289Y017800D01*
X007237Y017794D01*
X007185Y017792D01*
X007185Y017801D01*
X007241Y017803D01*
X007296Y017810D01*
X007351Y017820D01*
X007405Y017834D01*
X007458Y017852D01*
X007509Y017874D01*
X007559Y017899D01*
X007607Y017928D01*
X007652Y017960D01*
X007695Y017995D01*
X007736Y018033D01*
X007774Y018074D01*
X007767Y018080D01*
X007730Y018039D01*
X007689Y018002D01*
X007647Y017967D01*
X007602Y017935D01*
X007554Y017907D01*
X007505Y017882D01*
X007454Y017860D01*
X007402Y017843D01*
X007349Y017829D01*
X007295Y017819D01*
X007240Y017812D01*
X007185Y017810D01*
X007185Y017819D01*
X007239Y017821D01*
X007293Y017827D01*
X007347Y017837D01*
X007400Y017851D01*
X007451Y017869D01*
X007501Y017890D01*
X007550Y017915D01*
X007597Y017943D01*
X007641Y017974D01*
X007683Y018008D01*
X007723Y018046D01*
X007760Y018086D01*
X007825Y019127D02*
X007756Y019070D01*
X007757Y019070D02*
X007720Y019110D01*
X007681Y019148D01*
X007639Y019182D01*
X007595Y019214D01*
X007549Y019242D01*
X007500Y019267D01*
X007450Y019288D01*
X007399Y019306D01*
X007346Y019319D01*
X007293Y019329D01*
X007239Y019336D01*
X007185Y019338D01*
X007184Y019427D01*
X007185Y019428D01*
X007241Y019426D01*
X007297Y019420D01*
X007352Y019410D01*
X007407Y019397D01*
X007460Y019380D01*
X007513Y019360D01*
X007564Y019336D01*
X007613Y019309D01*
X007660Y019278D01*
X007705Y019245D01*
X007748Y019209D01*
X007788Y019170D01*
X007826Y019128D01*
X007819Y019122D01*
X007782Y019163D01*
X007742Y019202D01*
X007700Y019238D01*
X007655Y019271D01*
X007608Y019301D01*
X007560Y019328D01*
X007509Y019351D01*
X007457Y019372D01*
X007404Y019388D01*
X007350Y019401D01*
X007296Y019411D01*
X007241Y019417D01*
X007185Y019419D01*
X007185Y019410D01*
X007240Y019408D01*
X007295Y019402D01*
X007349Y019393D01*
X007402Y019380D01*
X007454Y019363D01*
X007506Y019343D01*
X007555Y019320D01*
X007604Y019293D01*
X007650Y019264D01*
X007694Y019231D01*
X007736Y019195D01*
X007775Y019157D01*
X007812Y019116D01*
X007805Y019111D01*
X007769Y019151D01*
X007730Y019189D01*
X007688Y019224D01*
X007645Y019256D01*
X007599Y019286D01*
X007551Y019312D01*
X007502Y019335D01*
X007452Y019355D01*
X007400Y019371D01*
X007347Y019384D01*
X007293Y019393D01*
X007239Y019399D01*
X007185Y019401D01*
X007185Y019392D01*
X007239Y019390D01*
X007292Y019384D01*
X007345Y019375D01*
X007397Y019362D01*
X007449Y019346D01*
X007499Y019327D01*
X007547Y019304D01*
X007594Y019278D01*
X007640Y019249D01*
X007683Y019217D01*
X007724Y019182D01*
X007762Y019145D01*
X007798Y019105D01*
X007791Y019099D01*
X007756Y019138D01*
X007718Y019175D01*
X007677Y019210D01*
X007634Y019241D01*
X007590Y019270D01*
X007543Y019296D01*
X007495Y019318D01*
X007446Y019338D01*
X007395Y019354D01*
X007343Y019366D01*
X007291Y019375D01*
X007238Y019381D01*
X007185Y019383D01*
X007185Y019374D01*
X007237Y019372D01*
X007290Y019366D01*
X007341Y019357D01*
X007392Y019345D01*
X007443Y019329D01*
X007492Y019310D01*
X007539Y019288D01*
X007585Y019262D01*
X007629Y019234D01*
X007671Y019203D01*
X007712Y019169D01*
X007749Y019132D01*
X007784Y019093D01*
X007778Y019087D01*
X007743Y019126D01*
X007705Y019162D01*
X007666Y019196D01*
X007624Y019227D01*
X007580Y019255D01*
X007535Y019280D01*
X007488Y019302D01*
X007440Y019321D01*
X007390Y019336D01*
X007340Y019349D01*
X007288Y019357D01*
X007237Y019363D01*
X007185Y019365D01*
X007185Y019356D01*
X007236Y019354D01*
X007287Y019349D01*
X007338Y019340D01*
X007388Y019328D01*
X007437Y019312D01*
X007484Y019294D01*
X007531Y019272D01*
X007576Y019247D01*
X007619Y019219D01*
X007660Y019189D01*
X007699Y019156D01*
X007736Y019120D01*
X007771Y019082D01*
X007764Y019076D01*
X007727Y019117D01*
X007687Y019155D01*
X007645Y019189D01*
X007600Y019221D01*
X007553Y019250D01*
X007504Y019275D01*
X007453Y019296D01*
X007402Y019314D01*
X007348Y019328D01*
X007294Y019338D01*
X007240Y019345D01*
X007185Y019347D01*
X006449Y015910D02*
X006527Y015955D01*
X006527Y015954D02*
X006555Y015910D01*
X006586Y015868D01*
X006619Y015828D01*
X006655Y015790D01*
X006694Y015755D01*
X006735Y015723D01*
X006779Y015693D01*
X006824Y015667D01*
X006871Y015644D01*
X006919Y015624D01*
X006969Y015608D01*
X007019Y015595D01*
X007071Y015586D01*
X007123Y015580D01*
X007175Y015578D01*
X007176Y015489D01*
X007175Y015488D01*
X007120Y015490D01*
X007066Y015496D01*
X007011Y015505D01*
X006958Y015518D01*
X006906Y015534D01*
X006854Y015553D01*
X006804Y015576D01*
X006756Y015602D01*
X006709Y015631D01*
X006665Y015663D01*
X006622Y015698D01*
X006582Y015736D01*
X006545Y015776D01*
X006510Y015818D01*
X006478Y015863D01*
X006449Y015909D01*
X006457Y015914D01*
X006485Y015868D01*
X006517Y015824D01*
X006552Y015782D01*
X006589Y015742D01*
X006628Y015705D01*
X006670Y015670D01*
X006714Y015639D01*
X006760Y015610D01*
X006808Y015584D01*
X006858Y015562D01*
X006908Y015542D01*
X006960Y015526D01*
X007013Y015514D01*
X007067Y015505D01*
X007121Y015499D01*
X007175Y015497D01*
X007175Y015506D01*
X007121Y015508D01*
X007068Y015514D01*
X007015Y015523D01*
X006963Y015535D01*
X006911Y015551D01*
X006861Y015570D01*
X006812Y015592D01*
X006765Y015618D01*
X006719Y015646D01*
X006676Y015678D01*
X006634Y015712D01*
X006595Y015748D01*
X006558Y015788D01*
X006524Y015829D01*
X006493Y015873D01*
X006464Y015918D01*
X006472Y015923D01*
X006502Y015875D01*
X006536Y015829D01*
X006572Y015786D01*
X006612Y015745D01*
X006654Y015707D01*
X006698Y015672D01*
X006745Y015640D01*
X006794Y015612D01*
X006845Y015587D01*
X006898Y015565D01*
X006951Y015548D01*
X007006Y015534D01*
X007062Y015524D01*
X007118Y015517D01*
X007175Y015515D01*
X007175Y015524D01*
X007119Y015526D01*
X007063Y015532D01*
X007008Y015542D01*
X006954Y015556D01*
X006901Y015574D01*
X006849Y015595D01*
X006798Y015620D01*
X006750Y015648D01*
X006704Y015679D01*
X006659Y015714D01*
X006618Y015751D01*
X006579Y015792D01*
X006543Y015834D01*
X006510Y015880D01*
X006480Y015927D01*
X006488Y015932D01*
X006517Y015885D01*
X006550Y015840D01*
X006586Y015798D01*
X006624Y015758D01*
X006665Y015721D01*
X006709Y015686D01*
X006755Y015655D01*
X006803Y015628D01*
X006852Y015603D01*
X006904Y015582D01*
X006956Y015565D01*
X007010Y015551D01*
X007065Y015541D01*
X007120Y015535D01*
X007175Y015533D01*
X007175Y015542D01*
X007120Y015544D01*
X007066Y015550D01*
X007012Y015560D01*
X006959Y015574D01*
X006907Y015591D01*
X006856Y015611D01*
X006807Y015636D01*
X006760Y015663D01*
X006714Y015694D01*
X006671Y015727D01*
X006630Y015764D01*
X006592Y015804D01*
X006557Y015846D01*
X006525Y015890D01*
X006496Y015936D01*
X006504Y015941D01*
X006532Y015895D01*
X006564Y015851D01*
X006599Y015810D01*
X006637Y015771D01*
X006677Y015734D01*
X006719Y015701D01*
X006764Y015671D01*
X006811Y015643D01*
X006860Y015620D01*
X006910Y015599D01*
X006961Y015582D01*
X007014Y015569D01*
X007067Y015559D01*
X007121Y015553D01*
X007175Y015551D01*
X007175Y015560D01*
X007122Y015562D01*
X007068Y015568D01*
X007016Y015578D01*
X006964Y015591D01*
X006913Y015608D01*
X006863Y015628D01*
X006815Y015651D01*
X006769Y015678D01*
X006725Y015708D01*
X006683Y015741D01*
X006643Y015777D01*
X006606Y015816D01*
X006571Y015857D01*
X006540Y015900D01*
X006511Y015945D01*
X006519Y015950D01*
X006547Y015905D01*
X006578Y015862D01*
X006612Y015822D01*
X006649Y015784D01*
X006688Y015748D01*
X006730Y015716D01*
X006774Y015686D01*
X006820Y015659D01*
X006867Y015636D01*
X006916Y015616D01*
X006966Y015599D01*
X007018Y015586D01*
X007070Y015577D01*
X007122Y015571D01*
X007175Y015569D01*
X007175Y017177D02*
X007175Y017087D01*
X007175Y017088D02*
X007121Y017086D01*
X007068Y017080D01*
X007015Y017070D01*
X006963Y017056D01*
X006912Y017039D01*
X006863Y017018D01*
X006815Y016994D01*
X006769Y016966D01*
X006725Y016935D01*
X006683Y016901D01*
X006644Y016865D01*
X006607Y016825D01*
X006574Y016783D01*
X006543Y016739D01*
X006516Y016693D01*
X006437Y016735D01*
X006465Y016784D01*
X006497Y016830D01*
X006532Y016875D01*
X006569Y016917D01*
X006610Y016957D01*
X006653Y016993D01*
X006698Y017027D01*
X006745Y017058D01*
X006795Y017085D01*
X006846Y017109D01*
X006898Y017130D01*
X006952Y017147D01*
X007007Y017160D01*
X007062Y017170D01*
X007119Y017176D01*
X007175Y017178D01*
X007175Y017169D01*
X007119Y017167D01*
X007064Y017161D01*
X007009Y017151D01*
X006954Y017138D01*
X006901Y017121D01*
X006849Y017101D01*
X006799Y017077D01*
X006750Y017050D01*
X006703Y017020D01*
X006658Y016986D01*
X006616Y016950D01*
X006576Y016911D01*
X006539Y016869D01*
X006504Y016825D01*
X006473Y016779D01*
X006445Y016731D01*
X006453Y016727D01*
X006481Y016774D01*
X006512Y016820D01*
X006546Y016863D01*
X006582Y016905D01*
X006622Y016943D01*
X006664Y016979D01*
X006708Y017012D01*
X006754Y017042D01*
X006803Y017069D01*
X006853Y017092D01*
X006904Y017113D01*
X006957Y017129D01*
X007010Y017142D01*
X007065Y017152D01*
X007120Y017158D01*
X007175Y017160D01*
X007175Y017151D01*
X007120Y017149D01*
X007066Y017143D01*
X007012Y017134D01*
X006959Y017121D01*
X006907Y017104D01*
X006856Y017084D01*
X006807Y017061D01*
X006759Y017034D01*
X006713Y017005D01*
X006669Y016972D01*
X006628Y016937D01*
X006589Y016898D01*
X006552Y016858D01*
X006519Y016815D01*
X006488Y016769D01*
X006461Y016722D01*
X006469Y016718D01*
X006496Y016765D01*
X006526Y016809D01*
X006559Y016852D01*
X006595Y016892D01*
X006634Y016930D01*
X006675Y016965D01*
X006718Y016997D01*
X006764Y017027D01*
X006811Y017053D01*
X006860Y017076D01*
X006910Y017096D01*
X006962Y017112D01*
X007014Y017125D01*
X007067Y017134D01*
X007121Y017140D01*
X007175Y017142D01*
X007175Y017133D01*
X007122Y017131D01*
X007069Y017125D01*
X007016Y017116D01*
X006964Y017103D01*
X006913Y017087D01*
X006863Y017068D01*
X006815Y017045D01*
X006768Y017019D01*
X006724Y016990D01*
X006681Y016958D01*
X006640Y016923D01*
X006602Y016886D01*
X006566Y016846D01*
X006533Y016804D01*
X006503Y016760D01*
X006476Y016714D01*
X006484Y016710D01*
X006511Y016755D01*
X006541Y016799D01*
X006573Y016840D01*
X006608Y016880D01*
X006646Y016917D01*
X006686Y016951D01*
X006729Y016983D01*
X006773Y017011D01*
X006819Y017037D01*
X006867Y017059D01*
X006916Y017079D01*
X006966Y017095D01*
X007018Y017107D01*
X007070Y017116D01*
X007122Y017122D01*
X007175Y017124D01*
X007175Y017115D01*
X007119Y017113D01*
X007064Y017106D01*
X007009Y017096D01*
X006955Y017082D01*
X006903Y017064D01*
X006851Y017043D01*
X006802Y017017D01*
X006754Y016989D01*
X006708Y016957D01*
X006665Y016922D01*
X006625Y016884D01*
X006587Y016843D01*
X006552Y016799D01*
X006521Y016753D01*
X006492Y016705D01*
X006500Y016701D01*
X006528Y016749D01*
X006559Y016794D01*
X006594Y016837D01*
X006631Y016877D01*
X006671Y016915D01*
X006714Y016950D01*
X006759Y016981D01*
X006806Y017010D01*
X006855Y017034D01*
X006906Y017056D01*
X006958Y017073D01*
X007011Y017087D01*
X007065Y017097D01*
X007120Y017104D01*
X007175Y017106D01*
X007175Y017097D01*
X007121Y017095D01*
X007067Y017089D01*
X007013Y017079D01*
X006961Y017065D01*
X006909Y017047D01*
X006859Y017026D01*
X006810Y017002D01*
X006764Y016974D01*
X006719Y016942D01*
X006677Y016908D01*
X006638Y016871D01*
X006601Y016831D01*
X006567Y016789D01*
X006536Y016744D01*
X006508Y016697D01*
X007825Y016877D02*
X007756Y016820D01*
X007757Y016820D02*
X007720Y016860D01*
X007681Y016898D01*
X007639Y016932D01*
X007595Y016964D01*
X007549Y016992D01*
X007500Y017017D01*
X007450Y017038D01*
X007399Y017056D01*
X007346Y017069D01*
X007293Y017079D01*
X007239Y017086D01*
X007185Y017088D01*
X007184Y017177D01*
X007185Y017178D01*
X007241Y017176D01*
X007297Y017170D01*
X007352Y017160D01*
X007407Y017147D01*
X007460Y017130D01*
X007513Y017110D01*
X007564Y017086D01*
X007613Y017059D01*
X007660Y017028D01*
X007705Y016995D01*
X007748Y016959D01*
X007788Y016920D01*
X007826Y016878D01*
X007819Y016872D01*
X007782Y016913D01*
X007742Y016952D01*
X007700Y016988D01*
X007655Y017021D01*
X007608Y017051D01*
X007560Y017078D01*
X007509Y017101D01*
X007457Y017122D01*
X007404Y017138D01*
X007350Y017151D01*
X007296Y017161D01*
X007241Y017167D01*
X007185Y017169D01*
X007185Y017160D01*
X007240Y017158D01*
X007295Y017152D01*
X007349Y017143D01*
X007402Y017130D01*
X007454Y017113D01*
X007506Y017093D01*
X007555Y017070D01*
X007604Y017043D01*
X007650Y017014D01*
X007694Y016981D01*
X007736Y016945D01*
X007775Y016907D01*
X007812Y016866D01*
X007805Y016861D01*
X007769Y016901D01*
X007730Y016939D01*
X007688Y016974D01*
X007645Y017006D01*
X007599Y017036D01*
X007551Y017062D01*
X007502Y017085D01*
X007452Y017105D01*
X007400Y017121D01*
X007347Y017134D01*
X007293Y017143D01*
X007239Y017149D01*
X007185Y017151D01*
X007185Y017142D01*
X007239Y017140D01*
X007292Y017134D01*
X007345Y017125D01*
X007397Y017112D01*
X007449Y017096D01*
X007499Y017077D01*
X007547Y017054D01*
X007594Y017028D01*
X007640Y016999D01*
X007683Y016967D01*
X007724Y016932D01*
X007762Y016895D01*
X007798Y016855D01*
X007791Y016849D01*
X007756Y016888D01*
X007718Y016925D01*
X007677Y016960D01*
X007634Y016991D01*
X007590Y017020D01*
X007543Y017046D01*
X007495Y017068D01*
X007446Y017088D01*
X007395Y017104D01*
X007343Y017116D01*
X007291Y017125D01*
X007238Y017131D01*
X007185Y017133D01*
X007185Y017124D01*
X007237Y017122D01*
X007290Y017116D01*
X007341Y017107D01*
X007392Y017095D01*
X007443Y017079D01*
X007492Y017060D01*
X007539Y017038D01*
X007585Y017012D01*
X007629Y016984D01*
X007671Y016953D01*
X007712Y016919D01*
X007749Y016882D01*
X007784Y016843D01*
X007778Y016837D01*
X007743Y016876D01*
X007705Y016912D01*
X007666Y016946D01*
X007624Y016977D01*
X007580Y017005D01*
X007535Y017030D01*
X007488Y017052D01*
X007440Y017071D01*
X007390Y017086D01*
X007340Y017099D01*
X007288Y017107D01*
X007237Y017113D01*
X007185Y017115D01*
X007185Y017106D01*
X007236Y017104D01*
X007287Y017099D01*
X007338Y017090D01*
X007388Y017078D01*
X007437Y017062D01*
X007484Y017044D01*
X007531Y017022D01*
X007576Y016997D01*
X007619Y016969D01*
X007660Y016939D01*
X007699Y016906D01*
X007736Y016870D01*
X007771Y016832D01*
X007764Y016826D01*
X007727Y016867D01*
X007687Y016905D01*
X007645Y016939D01*
X007600Y016971D01*
X007553Y017000D01*
X007504Y017025D01*
X007453Y017046D01*
X007402Y017064D01*
X007348Y017078D01*
X007294Y017088D01*
X007240Y017095D01*
X007185Y017097D01*
X007184Y015489D02*
X007184Y015579D01*
X007185Y015578D02*
X007239Y015580D01*
X007292Y015586D01*
X007345Y015596D01*
X007397Y015610D01*
X007448Y015627D01*
X007498Y015648D01*
X007546Y015672D01*
X007592Y015700D01*
X007636Y015731D01*
X007677Y015765D01*
X007717Y015802D01*
X007753Y015841D01*
X007821Y015784D01*
X007822Y015783D01*
X007784Y015742D01*
X007744Y015704D01*
X007701Y015668D01*
X007656Y015635D01*
X007609Y015605D01*
X007561Y015579D01*
X007510Y015555D01*
X007458Y015535D01*
X007405Y015519D01*
X007351Y015505D01*
X007296Y015496D01*
X007241Y015490D01*
X007185Y015488D01*
X007185Y015497D01*
X007240Y015499D01*
X007295Y015505D01*
X007349Y015514D01*
X007403Y015527D01*
X007455Y015544D01*
X007507Y015563D01*
X007557Y015587D01*
X007605Y015613D01*
X007651Y015643D01*
X007696Y015675D01*
X007738Y015710D01*
X007778Y015749D01*
X007815Y015789D01*
X007808Y015795D01*
X007771Y015755D01*
X007732Y015717D01*
X007690Y015682D01*
X007646Y015650D01*
X007600Y015621D01*
X007552Y015595D01*
X007503Y015572D01*
X007452Y015552D01*
X007400Y015536D01*
X007347Y015523D01*
X007294Y015514D01*
X007239Y015508D01*
X007185Y015506D01*
X007185Y015515D01*
X007239Y015517D01*
X007292Y015523D01*
X007345Y015532D01*
X007398Y015545D01*
X007449Y015561D01*
X007500Y015580D01*
X007548Y015603D01*
X007596Y015628D01*
X007641Y015657D01*
X007685Y015689D01*
X007726Y015724D01*
X007765Y015761D01*
X007801Y015801D01*
X007794Y015807D01*
X007758Y015767D01*
X007720Y015730D01*
X007679Y015696D01*
X007636Y015665D01*
X007591Y015636D01*
X007544Y015611D01*
X007496Y015588D01*
X007446Y015569D01*
X007395Y015553D01*
X007344Y015541D01*
X007291Y015532D01*
X007238Y015526D01*
X007185Y015524D01*
X007185Y015533D01*
X007238Y015535D01*
X007290Y015541D01*
X007342Y015550D01*
X007393Y015562D01*
X007443Y015578D01*
X007493Y015597D01*
X007540Y015619D01*
X007587Y015644D01*
X007631Y015672D01*
X007673Y015703D01*
X007714Y015737D01*
X007752Y015774D01*
X007787Y015812D01*
X007781Y015818D01*
X007745Y015780D01*
X007708Y015744D01*
X007668Y015710D01*
X007626Y015680D01*
X007582Y015652D01*
X007536Y015627D01*
X007489Y015605D01*
X007440Y015586D01*
X007391Y015571D01*
X007340Y015558D01*
X007289Y015550D01*
X007237Y015544D01*
X007185Y015542D01*
X007185Y015551D01*
X007241Y015553D01*
X007296Y015560D01*
X007351Y015570D01*
X007405Y015584D01*
X007458Y015602D01*
X007509Y015624D01*
X007559Y015649D01*
X007607Y015678D01*
X007652Y015710D01*
X007695Y015745D01*
X007736Y015783D01*
X007774Y015824D01*
X007767Y015830D01*
X007730Y015789D01*
X007689Y015752D01*
X007647Y015717D01*
X007602Y015685D01*
X007554Y015657D01*
X007505Y015632D01*
X007454Y015610D01*
X007402Y015593D01*
X007349Y015579D01*
X007295Y015569D01*
X007240Y015562D01*
X007185Y015560D01*
X007185Y015569D01*
X007239Y015571D01*
X007293Y015577D01*
X007347Y015587D01*
X007400Y015601D01*
X007451Y015619D01*
X007501Y015640D01*
X007550Y015665D01*
X007597Y015693D01*
X007641Y015724D01*
X007683Y015758D01*
X007723Y015796D01*
X007760Y015836D01*
X005898Y033678D02*
X005970Y033732D01*
X005969Y033731D02*
X006012Y033678D01*
X006057Y033627D01*
X006106Y033579D01*
X006157Y033534D01*
X006211Y033491D01*
X006267Y033452D01*
X006325Y033416D01*
X006385Y033383D01*
X006446Y033354D01*
X006510Y033329D01*
X006574Y033307D01*
X006640Y033288D01*
X006707Y033274D01*
X006774Y033263D01*
X006842Y033256D01*
X006910Y033253D01*
X006979Y033254D01*
X007047Y033259D01*
X007115Y033267D01*
X007182Y033280D01*
X007248Y033296D01*
X007313Y033316D01*
X007378Y033339D01*
X007440Y033366D01*
X007501Y033397D01*
X007560Y033431D01*
X007618Y033468D01*
X007673Y033509D01*
X007725Y033553D01*
X007775Y033599D01*
X007822Y033648D01*
X007867Y033700D01*
X007908Y033754D01*
X007947Y033811D01*
X007982Y033870D01*
X008013Y033930D01*
X008041Y033992D01*
X008066Y034056D01*
X008087Y034121D01*
X008104Y034187D01*
X008118Y034254D01*
X008127Y034322D01*
X008133Y034390D01*
X008135Y034458D01*
X008133Y034526D01*
X008127Y034594D01*
X008118Y034662D01*
X008104Y034729D01*
X008087Y034795D01*
X008066Y034860D01*
X008041Y034924D01*
X008013Y034986D01*
X007982Y035046D01*
X007947Y035105D01*
X007908Y035162D01*
X007867Y035216D01*
X007822Y035268D01*
X007775Y035317D01*
X007725Y035363D01*
X007673Y035407D01*
X007618Y035448D01*
X007560Y035485D01*
X007501Y035519D01*
X007440Y035550D01*
X007378Y035577D01*
X007313Y035600D01*
X007248Y035620D01*
X007182Y035636D01*
X007115Y035649D01*
X007047Y035657D01*
X006979Y035662D01*
X006910Y035663D01*
X006842Y035660D01*
X006774Y035653D01*
X006707Y035642D01*
X006640Y035628D01*
X006574Y035609D01*
X006510Y035587D01*
X006446Y035562D01*
X006385Y035533D01*
X006325Y035500D01*
X006267Y035464D01*
X006211Y035425D01*
X006157Y035382D01*
X006106Y035337D01*
X006057Y035289D01*
X006012Y035238D01*
X005969Y035185D01*
X005898Y035238D01*
X005897Y035239D01*
X005941Y035294D01*
X005989Y035347D01*
X006039Y035398D01*
X006092Y035445D01*
X006147Y035489D01*
X006205Y035531D01*
X006265Y035569D01*
X006326Y035604D01*
X006390Y035635D01*
X006455Y035663D01*
X006522Y035687D01*
X006590Y035708D01*
X006659Y035724D01*
X006729Y035737D01*
X006799Y035746D01*
X006870Y035752D01*
X006941Y035753D01*
X007012Y035750D01*
X007083Y035744D01*
X007153Y035734D01*
X007222Y035720D01*
X007291Y035702D01*
X007359Y035680D01*
X007425Y035655D01*
X007490Y035626D01*
X007553Y035593D01*
X007614Y035557D01*
X007673Y035518D01*
X007730Y035476D01*
X007785Y035431D01*
X007837Y035382D01*
X007886Y035331D01*
X007933Y035278D01*
X007976Y035221D01*
X008016Y035163D01*
X008053Y035102D01*
X008087Y035040D01*
X008117Y034976D01*
X008144Y034910D01*
X008167Y034843D01*
X008186Y034774D01*
X008201Y034705D01*
X008213Y034635D01*
X008221Y034564D01*
X008225Y034493D01*
X008225Y034423D01*
X008221Y034352D01*
X008213Y034281D01*
X008201Y034211D01*
X008186Y034142D01*
X008167Y034073D01*
X008144Y034006D01*
X008117Y033940D01*
X008087Y033876D01*
X008053Y033814D01*
X008016Y033753D01*
X007976Y033695D01*
X007933Y033638D01*
X007886Y033585D01*
X007837Y033534D01*
X007785Y033485D01*
X007730Y033440D01*
X007673Y033398D01*
X007614Y033359D01*
X007553Y033323D01*
X007490Y033290D01*
X007425Y033261D01*
X007359Y033236D01*
X007291Y033214D01*
X007222Y033196D01*
X007153Y033182D01*
X007083Y033172D01*
X007012Y033166D01*
X006941Y033163D01*
X006870Y033164D01*
X006799Y033170D01*
X006729Y033179D01*
X006659Y033192D01*
X006590Y033208D01*
X006522Y033229D01*
X006455Y033253D01*
X006390Y033281D01*
X006326Y033312D01*
X006265Y033347D01*
X006205Y033385D01*
X006147Y033427D01*
X006092Y033471D01*
X006039Y033518D01*
X005989Y033569D01*
X005941Y033622D01*
X005897Y033677D01*
X005904Y033682D01*
X005949Y033627D01*
X005996Y033574D01*
X006047Y033523D01*
X006100Y033476D01*
X006156Y033431D01*
X006214Y033390D01*
X006274Y033352D01*
X006336Y033317D01*
X006400Y033286D01*
X006466Y033259D01*
X006533Y033235D01*
X006602Y033215D01*
X006671Y033198D01*
X006741Y033186D01*
X006812Y033177D01*
X006883Y033173D01*
X006954Y033172D01*
X007025Y033176D01*
X007096Y033183D01*
X007167Y033194D01*
X007236Y033209D01*
X007305Y033228D01*
X007373Y033251D01*
X007439Y033277D01*
X007504Y033307D01*
X007566Y033341D01*
X007627Y033377D01*
X007686Y033418D01*
X007743Y033461D01*
X007797Y033508D01*
X007848Y033557D01*
X007896Y033610D01*
X007942Y033664D01*
X007984Y033722D01*
X008023Y033781D01*
X008059Y033843D01*
X008092Y033906D01*
X008120Y033971D01*
X008146Y034038D01*
X008167Y034106D01*
X008185Y034175D01*
X008198Y034245D01*
X008208Y034316D01*
X008214Y034387D01*
X008216Y034458D01*
X008214Y034529D01*
X008208Y034600D01*
X008198Y034671D01*
X008185Y034741D01*
X008167Y034810D01*
X008146Y034878D01*
X008120Y034945D01*
X008092Y035010D01*
X008059Y035073D01*
X008023Y035135D01*
X007984Y035194D01*
X007942Y035252D01*
X007896Y035306D01*
X007848Y035359D01*
X007797Y035408D01*
X007743Y035455D01*
X007686Y035498D01*
X007627Y035539D01*
X007566Y035575D01*
X007504Y035609D01*
X007439Y035639D01*
X007373Y035665D01*
X007305Y035688D01*
X007236Y035707D01*
X007167Y035722D01*
X007096Y035733D01*
X007025Y035740D01*
X006954Y035744D01*
X006883Y035743D01*
X006812Y035739D01*
X006741Y035730D01*
X006671Y035718D01*
X006602Y035701D01*
X006533Y035681D01*
X006466Y035657D01*
X006400Y035630D01*
X006336Y035599D01*
X006274Y035564D01*
X006214Y035526D01*
X006156Y035485D01*
X006100Y035440D01*
X006047Y035393D01*
X005996Y035342D01*
X005949Y035289D01*
X005904Y035234D01*
X005911Y035228D01*
X005956Y035283D01*
X006003Y035336D01*
X006053Y035386D01*
X006106Y035433D01*
X006161Y035477D01*
X006219Y035519D01*
X006278Y035556D01*
X006340Y035591D01*
X006404Y035622D01*
X006469Y035649D01*
X006536Y035673D01*
X006604Y035693D01*
X006673Y035709D01*
X006742Y035721D01*
X006813Y035730D01*
X006883Y035734D01*
X006954Y035735D01*
X007025Y035731D01*
X007095Y035724D01*
X007165Y035713D01*
X007234Y035698D01*
X007302Y035679D01*
X007370Y035657D01*
X007435Y035631D01*
X007500Y035601D01*
X007562Y035568D01*
X007622Y035531D01*
X007681Y035491D01*
X007737Y035448D01*
X007791Y035402D01*
X007841Y035352D01*
X007890Y035301D01*
X007935Y035246D01*
X007977Y035189D01*
X008016Y035130D01*
X008051Y035069D01*
X008084Y035006D01*
X008112Y034941D01*
X008137Y034875D01*
X008158Y034807D01*
X008176Y034739D01*
X008189Y034669D01*
X008199Y034599D01*
X008205Y034529D01*
X008207Y034458D01*
X008205Y034387D01*
X008199Y034317D01*
X008189Y034247D01*
X008176Y034177D01*
X008158Y034109D01*
X008137Y034041D01*
X008112Y033975D01*
X008084Y033910D01*
X008051Y033847D01*
X008016Y033786D01*
X007977Y033727D01*
X007935Y033670D01*
X007890Y033615D01*
X007841Y033564D01*
X007791Y033514D01*
X007737Y033468D01*
X007681Y033425D01*
X007622Y033385D01*
X007562Y033348D01*
X007500Y033315D01*
X007435Y033285D01*
X007370Y033259D01*
X007302Y033237D01*
X007234Y033218D01*
X007165Y033203D01*
X007095Y033192D01*
X007025Y033185D01*
X006954Y033181D01*
X006883Y033182D01*
X006813Y033186D01*
X006742Y033195D01*
X006673Y033207D01*
X006604Y033223D01*
X006536Y033243D01*
X006469Y033267D01*
X006404Y033294D01*
X006340Y033325D01*
X006278Y033360D01*
X006219Y033397D01*
X006161Y033439D01*
X006106Y033483D01*
X006053Y033530D01*
X006003Y033580D01*
X005956Y033633D01*
X005911Y033688D01*
X005919Y033693D01*
X005963Y033638D01*
X006011Y033585D01*
X006061Y033535D01*
X006114Y033487D01*
X006170Y033443D01*
X006228Y033402D01*
X006288Y033365D01*
X006350Y033330D01*
X006414Y033300D01*
X006480Y033273D01*
X006547Y033249D01*
X006615Y033230D01*
X006685Y033214D01*
X006755Y033202D01*
X006825Y033194D01*
X006896Y033190D01*
X006967Y033191D01*
X007038Y033195D01*
X007109Y033203D01*
X007179Y033215D01*
X007248Y033231D01*
X007316Y033250D01*
X007384Y033274D01*
X007449Y033301D01*
X007513Y033332D01*
X007575Y033366D01*
X007635Y033404D01*
X007693Y033446D01*
X007749Y033490D01*
X007802Y033537D01*
X007852Y033588D01*
X007899Y033641D01*
X007944Y033696D01*
X007985Y033754D01*
X008022Y033814D01*
X008057Y033877D01*
X008088Y033941D01*
X008115Y034006D01*
X008138Y034073D01*
X008158Y034142D01*
X008174Y034211D01*
X008186Y034281D01*
X008194Y034352D01*
X008198Y034422D01*
X008198Y034494D01*
X008194Y034564D01*
X008186Y034635D01*
X008174Y034705D01*
X008158Y034774D01*
X008138Y034843D01*
X008115Y034910D01*
X008088Y034975D01*
X008057Y035039D01*
X008022Y035102D01*
X007985Y035162D01*
X007944Y035220D01*
X007899Y035275D01*
X007852Y035328D01*
X007802Y035379D01*
X007749Y035426D01*
X007693Y035470D01*
X007635Y035512D01*
X007575Y035550D01*
X007513Y035584D01*
X007449Y035615D01*
X007384Y035642D01*
X007316Y035666D01*
X007248Y035685D01*
X007179Y035701D01*
X007109Y035713D01*
X007038Y035721D01*
X006967Y035725D01*
X006896Y035726D01*
X006825Y035722D01*
X006755Y035714D01*
X006685Y035702D01*
X006615Y035686D01*
X006547Y035667D01*
X006480Y035643D01*
X006414Y035616D01*
X006350Y035586D01*
X006288Y035551D01*
X006228Y035514D01*
X006170Y035473D01*
X006114Y035429D01*
X006061Y035381D01*
X006011Y035331D01*
X005963Y035278D01*
X005919Y035223D01*
X005926Y035217D01*
X005970Y035272D01*
X006017Y035325D01*
X006067Y035375D01*
X006120Y035422D01*
X006175Y035466D01*
X006233Y035506D01*
X006292Y035544D01*
X006354Y035578D01*
X006418Y035608D01*
X006483Y035635D01*
X006550Y035658D01*
X006618Y035678D01*
X006686Y035693D01*
X006756Y035705D01*
X006826Y035713D01*
X006897Y035717D01*
X006967Y035716D01*
X007038Y035712D01*
X007108Y035704D01*
X007177Y035692D01*
X007246Y035677D01*
X007314Y035657D01*
X007380Y035634D01*
X007445Y035607D01*
X007509Y035576D01*
X007571Y035542D01*
X007630Y035504D01*
X007688Y035463D01*
X007743Y035419D01*
X007796Y035372D01*
X007845Y035322D01*
X007892Y035270D01*
X007936Y035214D01*
X007977Y035157D01*
X008015Y035097D01*
X008049Y035035D01*
X008079Y034972D01*
X008106Y034907D01*
X008130Y034840D01*
X008149Y034772D01*
X008165Y034703D01*
X008177Y034634D01*
X008185Y034564D01*
X008189Y034493D01*
X008189Y034423D01*
X008185Y034352D01*
X008177Y034282D01*
X008165Y034213D01*
X008149Y034144D01*
X008130Y034076D01*
X008106Y034009D01*
X008079Y033944D01*
X008049Y033881D01*
X008015Y033819D01*
X007977Y033759D01*
X007936Y033702D01*
X007892Y033646D01*
X007845Y033594D01*
X007796Y033544D01*
X007743Y033497D01*
X007688Y033453D01*
X007630Y033412D01*
X007571Y033374D01*
X007509Y033340D01*
X007445Y033309D01*
X007380Y033282D01*
X007314Y033259D01*
X007246Y033239D01*
X007177Y033224D01*
X007108Y033212D01*
X007038Y033204D01*
X006967Y033200D01*
X006897Y033199D01*
X006826Y033203D01*
X006756Y033211D01*
X006686Y033223D01*
X006618Y033238D01*
X006550Y033258D01*
X006483Y033281D01*
X006418Y033308D01*
X006354Y033338D01*
X006292Y033372D01*
X006233Y033410D01*
X006175Y033450D01*
X006120Y033494D01*
X006067Y033541D01*
X006017Y033591D01*
X005970Y033644D01*
X005926Y033699D01*
X005933Y033704D01*
X005977Y033649D01*
X006024Y033597D01*
X006073Y033548D01*
X006126Y033501D01*
X006180Y033458D01*
X006238Y033417D01*
X006297Y033380D01*
X006358Y033346D01*
X006422Y033316D01*
X006486Y033289D01*
X006553Y033266D01*
X006620Y033247D01*
X006688Y033232D01*
X006757Y033220D01*
X006827Y033212D01*
X006897Y033208D01*
X006967Y033209D01*
X007037Y033213D01*
X007106Y033221D01*
X007175Y033232D01*
X007244Y033248D01*
X007311Y033267D01*
X007377Y033291D01*
X007442Y033318D01*
X007505Y033348D01*
X007566Y033382D01*
X007625Y033419D01*
X007683Y033460D01*
X007737Y033504D01*
X007789Y033550D01*
X007839Y033600D01*
X007886Y033652D01*
X007929Y033707D01*
X007970Y033764D01*
X008007Y033823D01*
X008041Y033885D01*
X008071Y033948D01*
X008098Y034013D01*
X008121Y034079D01*
X008140Y034146D01*
X008156Y034214D01*
X008168Y034283D01*
X008176Y034353D01*
X008180Y034423D01*
X008180Y034493D01*
X008176Y034563D01*
X008168Y034633D01*
X008156Y034702D01*
X008140Y034770D01*
X008121Y034837D01*
X008098Y034903D01*
X008071Y034968D01*
X008041Y035031D01*
X008007Y035093D01*
X007970Y035152D01*
X007929Y035209D01*
X007886Y035264D01*
X007839Y035316D01*
X007789Y035366D01*
X007737Y035412D01*
X007683Y035456D01*
X007625Y035497D01*
X007566Y035534D01*
X007505Y035568D01*
X007442Y035598D01*
X007377Y035625D01*
X007311Y035649D01*
X007244Y035668D01*
X007175Y035684D01*
X007106Y035695D01*
X007037Y035703D01*
X006967Y035707D01*
X006897Y035708D01*
X006827Y035704D01*
X006757Y035696D01*
X006688Y035684D01*
X006620Y035669D01*
X006553Y035650D01*
X006486Y035627D01*
X006422Y035600D01*
X006358Y035570D01*
X006297Y035536D01*
X006238Y035499D01*
X006180Y035458D01*
X006126Y035415D01*
X006073Y035368D01*
X006024Y035319D01*
X005977Y035267D01*
X005933Y035212D01*
X005940Y035207D01*
X005984Y035261D01*
X006030Y035313D01*
X006079Y035362D01*
X006131Y035408D01*
X006186Y035451D01*
X006243Y035491D01*
X006302Y035528D01*
X006363Y035562D01*
X006425Y035592D01*
X006490Y035618D01*
X006555Y035641D01*
X006622Y035660D01*
X006690Y035676D01*
X006759Y035687D01*
X006828Y035695D01*
X006897Y035699D01*
X006967Y035698D01*
X007036Y035694D01*
X007105Y035687D01*
X007174Y035675D01*
X007241Y035659D01*
X007308Y035640D01*
X007374Y035617D01*
X007438Y035590D01*
X007501Y035560D01*
X007562Y035526D01*
X007620Y035489D01*
X007677Y035449D01*
X007731Y035406D01*
X007783Y035359D01*
X007832Y035310D01*
X007879Y035258D01*
X007922Y035204D01*
X007962Y035147D01*
X007999Y035088D01*
X008033Y035027D01*
X008063Y034964D01*
X008090Y034900D01*
X008113Y034835D01*
X008132Y034768D01*
X008147Y034700D01*
X008159Y034631D01*
X008167Y034562D01*
X008171Y034493D01*
X008171Y034423D01*
X008167Y034354D01*
X008159Y034285D01*
X008147Y034216D01*
X008132Y034148D01*
X008113Y034081D01*
X008090Y034016D01*
X008063Y033952D01*
X008033Y033889D01*
X007999Y033828D01*
X007962Y033769D01*
X007922Y033712D01*
X007879Y033658D01*
X007832Y033606D01*
X007783Y033557D01*
X007731Y033510D01*
X007677Y033467D01*
X007620Y033427D01*
X007562Y033390D01*
X007501Y033356D01*
X007438Y033326D01*
X007374Y033299D01*
X007308Y033276D01*
X007241Y033257D01*
X007174Y033241D01*
X007105Y033229D01*
X007036Y033222D01*
X006967Y033218D01*
X006897Y033217D01*
X006828Y033221D01*
X006759Y033229D01*
X006690Y033240D01*
X006622Y033256D01*
X006555Y033275D01*
X006490Y033298D01*
X006425Y033324D01*
X006363Y033354D01*
X006302Y033388D01*
X006243Y033425D01*
X006186Y033465D01*
X006131Y033508D01*
X006079Y033554D01*
X006030Y033603D01*
X005984Y033655D01*
X005940Y033709D01*
X005947Y033715D01*
X005991Y033661D01*
X006037Y033610D01*
X006086Y033561D01*
X006137Y033515D01*
X006191Y033472D01*
X006248Y033432D01*
X006306Y033396D01*
X006367Y033362D01*
X006429Y033332D01*
X006493Y033306D01*
X006558Y033284D01*
X006624Y033265D01*
X006692Y033249D01*
X006760Y033238D01*
X006828Y033230D01*
X006897Y033226D01*
X006966Y033227D01*
X007035Y033231D01*
X007104Y033238D01*
X007172Y033250D01*
X007239Y033265D01*
X007306Y033285D01*
X007371Y033308D01*
X007434Y033334D01*
X007497Y033364D01*
X007557Y033397D01*
X007615Y033434D01*
X007672Y033474D01*
X007726Y033517D01*
X007777Y033563D01*
X007826Y033612D01*
X007872Y033664D01*
X007915Y033718D01*
X007955Y033774D01*
X007991Y033833D01*
X008025Y033893D01*
X008055Y033955D01*
X008081Y034019D01*
X008104Y034084D01*
X008123Y034151D01*
X008138Y034218D01*
X008150Y034286D01*
X008158Y034355D01*
X008162Y034423D01*
X008162Y034493D01*
X008158Y034561D01*
X008150Y034630D01*
X008138Y034698D01*
X008123Y034765D01*
X008104Y034832D01*
X008081Y034897D01*
X008055Y034961D01*
X008025Y035023D01*
X007991Y035083D01*
X007955Y035142D01*
X007915Y035198D01*
X007872Y035252D01*
X007826Y035304D01*
X007777Y035353D01*
X007726Y035399D01*
X007672Y035442D01*
X007615Y035482D01*
X007557Y035519D01*
X007497Y035552D01*
X007434Y035582D01*
X007371Y035608D01*
X007306Y035631D01*
X007239Y035651D01*
X007172Y035666D01*
X007104Y035678D01*
X007035Y035685D01*
X006966Y035689D01*
X006897Y035690D01*
X006828Y035686D01*
X006760Y035678D01*
X006692Y035667D01*
X006624Y035651D01*
X006558Y035632D01*
X006493Y035610D01*
X006429Y035584D01*
X006367Y035554D01*
X006306Y035520D01*
X006248Y035484D01*
X006191Y035444D01*
X006137Y035401D01*
X006086Y035355D01*
X006037Y035306D01*
X005991Y035255D01*
X005947Y035201D01*
X005955Y035196D01*
X005998Y035250D01*
X006044Y035301D01*
X006094Y035350D01*
X006145Y035396D01*
X006200Y035439D01*
X006257Y035479D01*
X006315Y035515D01*
X006376Y035549D01*
X006439Y035578D01*
X006503Y035604D01*
X006569Y035626D01*
X006636Y035645D01*
X006703Y035660D01*
X006772Y035671D01*
X006841Y035678D01*
X006910Y035681D01*
X006979Y035680D01*
X007049Y035675D01*
X007117Y035667D01*
X007185Y035654D01*
X007253Y035638D01*
X007319Y035617D01*
X007384Y035594D01*
X007448Y035566D01*
X007510Y035535D01*
X007570Y035500D01*
X007628Y035462D01*
X007684Y035421D01*
X007737Y035377D01*
X007788Y035330D01*
X007836Y035280D01*
X007881Y035227D01*
X007923Y035172D01*
X007962Y035115D01*
X007997Y035055D01*
X008029Y034994D01*
X008058Y034931D01*
X008083Y034866D01*
X008104Y034800D01*
X008122Y034733D01*
X008135Y034665D01*
X008145Y034596D01*
X008151Y034527D01*
X008153Y034458D01*
X008151Y034389D01*
X008145Y034320D01*
X008135Y034251D01*
X008122Y034183D01*
X008104Y034116D01*
X008083Y034050D01*
X008058Y033985D01*
X008029Y033922D01*
X007997Y033861D01*
X007962Y033801D01*
X007923Y033744D01*
X007881Y033689D01*
X007836Y033636D01*
X007788Y033586D01*
X007737Y033539D01*
X007684Y033495D01*
X007628Y033454D01*
X007570Y033416D01*
X007510Y033381D01*
X007448Y033350D01*
X007384Y033322D01*
X007319Y033299D01*
X007253Y033278D01*
X007185Y033262D01*
X007117Y033249D01*
X007049Y033241D01*
X006979Y033236D01*
X006910Y033235D01*
X006841Y033238D01*
X006772Y033245D01*
X006703Y033256D01*
X006636Y033271D01*
X006569Y033290D01*
X006503Y033312D01*
X006439Y033338D01*
X006376Y033367D01*
X006315Y033401D01*
X006257Y033437D01*
X006200Y033477D01*
X006145Y033520D01*
X006094Y033566D01*
X006044Y033615D01*
X005998Y033666D01*
X005955Y033720D01*
X005962Y033726D01*
X006005Y033672D01*
X006051Y033621D01*
X006100Y033572D01*
X006151Y033527D01*
X006205Y033484D01*
X006262Y033445D01*
X006320Y033408D01*
X006380Y033375D01*
X006443Y033346D01*
X006506Y033320D01*
X006572Y033298D01*
X006638Y033280D01*
X006705Y033265D01*
X006773Y033254D01*
X006842Y033247D01*
X006910Y033244D01*
X006979Y033245D01*
X007048Y033250D01*
X007116Y033258D01*
X007184Y033271D01*
X007250Y033287D01*
X007316Y033307D01*
X007381Y033331D01*
X007444Y033358D01*
X007505Y033389D01*
X007565Y033423D01*
X007623Y033461D01*
X007678Y033502D01*
X007731Y033546D01*
X007781Y033593D01*
X007829Y033642D01*
X007874Y033694D01*
X007916Y033749D01*
X007954Y033806D01*
X007989Y033865D01*
X008021Y033926D01*
X008050Y033989D01*
X008074Y034053D01*
X008096Y034119D01*
X008113Y034185D01*
X008126Y034253D01*
X008136Y034321D01*
X008142Y034389D01*
X008144Y034458D01*
X008142Y034527D01*
X008136Y034595D01*
X008126Y034663D01*
X008113Y034731D01*
X008096Y034797D01*
X008074Y034863D01*
X008050Y034927D01*
X008021Y034990D01*
X007989Y035051D01*
X007954Y035110D01*
X007916Y035167D01*
X007874Y035222D01*
X007829Y035274D01*
X007781Y035323D01*
X007731Y035370D01*
X007678Y035414D01*
X007623Y035455D01*
X007565Y035493D01*
X007505Y035527D01*
X007444Y035558D01*
X007381Y035585D01*
X007316Y035609D01*
X007250Y035629D01*
X007184Y035645D01*
X007116Y035658D01*
X007048Y035666D01*
X006979Y035671D01*
X006910Y035672D01*
X006842Y035669D01*
X006773Y035662D01*
X006705Y035651D01*
X006638Y035636D01*
X006572Y035618D01*
X006506Y035596D01*
X006443Y035570D01*
X006380Y035541D01*
X006320Y035508D01*
X006262Y035471D01*
X006205Y035432D01*
X006151Y035389D01*
X006100Y035344D01*
X006051Y035295D01*
X006005Y035244D01*
X005962Y035190D01*
D20*
X014880Y034583D02*
X014880Y037833D01*
X018480Y037833D01*
X018480Y034583D01*
X014880Y034583D01*
X021880Y034583D02*
X021880Y037833D01*
X025480Y037833D01*
X025480Y034583D01*
X021880Y034583D01*
X029380Y034583D02*
X029380Y037833D01*
X032980Y037833D01*
X032980Y034583D01*
X029380Y034583D01*
D21*
X017680Y034158D03*
X016680Y034158D03*
X015680Y034158D03*
D22*
X017730Y030933D02*
X017730Y030583D01*
X017730Y030233D01*
X018130Y030233D02*
X018130Y030583D01*
X018130Y030933D01*
D23*
X022680Y033108D03*
X023680Y033108D03*
X024680Y033108D03*
X030180Y033108D03*
X031180Y033108D03*
X032180Y033108D03*
D24*
X032180Y033783D03*
X031180Y033783D03*
X030180Y033783D03*
X024680Y033783D03*
X023680Y033783D03*
X022680Y033783D03*
D25*
X010105Y018583D02*
X010005Y018583D01*
X010005Y016958D02*
X010105Y016958D01*
M02*
