G75*
%MOIN*%
%OFA0B0*%
%FSLAX24Y24*%
%IPPOS*%
%LPD*%
%AMOC8*
5,1,8,0,0,1.08239X$1,22.5*
%
%ADD10C,0.1655*%
%ADD11R,0.0740X0.0740*%
%ADD12OC8,0.0740*%
%ADD13C,0.0867*%
%ADD14C,0.0680*%
%ADD15OC8,0.0680*%
%ADD16C,0.0600*%
%ADD17C,0.0050*%
%ADD18R,0.0820X0.0820*%
%ADD19C,0.0820*%
%ADD20OC8,0.0600*%
%ADD21C,0.0680*%
%ADD22C,0.0867*%
%ADD23C,0.1380*%
%ADD24OC8,0.0830*%
%ADD25C,0.0740*%
%ADD26C,0.0148*%
%ADD27R,0.1080X0.0580*%
%ADD28R,0.0631X0.0789*%
%ADD29C,0.0640*%
%ADD30OC8,0.0640*%
D10*
X005649Y010963D03*
X005649Y042066D03*
X041869Y042066D03*
X041869Y010963D03*
D11*
X013180Y028333D03*
D12*
X013180Y027333D03*
X013180Y026333D03*
X013180Y025333D03*
X014180Y025333D03*
X014180Y026333D03*
X014180Y027333D03*
X014180Y028333D03*
X014180Y024333D03*
X014180Y023333D03*
X014180Y022333D03*
X014180Y021333D03*
X014180Y020333D03*
X013180Y020333D03*
X013180Y021333D03*
X013180Y022333D03*
X013180Y023333D03*
X013180Y024333D03*
X008789Y023352D03*
X008789Y022565D03*
X008789Y021777D03*
X007805Y022171D03*
X007805Y022958D03*
X007805Y023746D03*
X008789Y028402D03*
X008789Y029190D03*
X008789Y029977D03*
X007805Y030371D03*
X007805Y029583D03*
X007805Y028796D03*
X008180Y032833D03*
X007430Y034458D03*
X006430Y034458D03*
X011180Y032833D03*
X020680Y031833D03*
X023680Y031833D03*
X024680Y031833D03*
X027680Y031833D03*
X023305Y026958D03*
X023305Y025833D03*
X024930Y026333D03*
X025930Y026333D03*
X026930Y026333D03*
X027930Y026333D03*
X028930Y026333D03*
X029930Y026333D03*
X033180Y026333D03*
X033180Y025333D03*
X034180Y025333D03*
X034180Y026333D03*
X034180Y027333D03*
X033180Y027333D03*
X033180Y028333D03*
X034180Y028333D03*
X034180Y024333D03*
X034180Y023333D03*
X034180Y022333D03*
X034180Y021333D03*
X034180Y020333D03*
X033180Y020333D03*
X033180Y021333D03*
X033180Y022333D03*
X033180Y023333D03*
X033180Y024333D03*
X029930Y021333D03*
X028930Y021333D03*
X027930Y021333D03*
X026930Y021333D03*
X025930Y021333D03*
X024930Y021333D03*
X021305Y025833D03*
X021305Y026958D03*
X014180Y019333D03*
X014180Y018333D03*
X014180Y017333D03*
X014180Y016333D03*
X014180Y015333D03*
X013180Y015333D03*
X013180Y016333D03*
X013180Y017333D03*
X013180Y018333D03*
X013180Y019333D03*
X013180Y014333D03*
X013180Y013333D03*
X013180Y012333D03*
X013180Y011333D03*
X014180Y011333D03*
X014180Y012333D03*
X014180Y013333D03*
X014180Y014333D03*
X014180Y010333D03*
X014180Y009333D03*
X014180Y008333D03*
X014180Y007333D03*
X014180Y006333D03*
X013180Y006333D03*
X013180Y007333D03*
X013180Y008333D03*
X013180Y009333D03*
X013180Y010333D03*
X008539Y006602D03*
X008539Y005815D03*
X008539Y005027D03*
X007555Y005421D03*
X007555Y006208D03*
X007555Y006996D03*
X013180Y005333D03*
X013180Y004333D03*
X014180Y004333D03*
X014180Y005333D03*
X007680Y016333D03*
X006680Y016333D03*
X006680Y018583D03*
X007680Y018583D03*
X033180Y018333D03*
X033180Y017333D03*
X033180Y016333D03*
X033180Y015333D03*
X034180Y015333D03*
X034180Y016333D03*
X034180Y017333D03*
X034180Y018333D03*
X034180Y019333D03*
X033180Y019333D03*
X033180Y014333D03*
X033180Y013333D03*
X033180Y012333D03*
X033180Y011333D03*
X034180Y011333D03*
X034180Y012333D03*
X034180Y013333D03*
X034180Y014333D03*
X034180Y010333D03*
X034180Y009333D03*
X034180Y008333D03*
X034180Y007333D03*
X034180Y006333D03*
X033180Y006333D03*
X033180Y007333D03*
X033180Y008333D03*
X033180Y009333D03*
X033180Y010333D03*
X033180Y005333D03*
X033180Y004333D03*
X034180Y004333D03*
X034180Y005333D03*
X038446Y005815D03*
X038446Y006602D03*
X038446Y007389D03*
X039430Y006996D03*
X039430Y006208D03*
X039430Y005421D03*
X039430Y016421D03*
X039430Y017208D03*
X039430Y017996D03*
X038446Y018389D03*
X038446Y017602D03*
X038446Y016815D03*
X041930Y020208D03*
X039430Y023171D03*
X039430Y023958D03*
X039430Y024746D03*
X038446Y025139D03*
X038446Y024352D03*
X038446Y023565D03*
X039430Y032115D03*
X039430Y032902D03*
X039430Y033690D03*
X038446Y034083D03*
X038446Y033296D03*
X038446Y032508D03*
X036430Y033333D03*
X033430Y033333D03*
D13*
X006649Y003649D03*
X006649Y008374D03*
X006899Y020399D03*
X006899Y025124D03*
X006899Y027024D03*
X006899Y031749D03*
X040336Y030737D03*
X040336Y026517D03*
X040336Y021793D03*
X040336Y019767D03*
X040336Y015043D03*
X040336Y008767D03*
X040336Y004043D03*
X040336Y035461D03*
D14*
X039930Y029333D03*
X026805Y018708D03*
D15*
X026805Y017708D03*
X025805Y017708D03*
X024805Y017708D03*
X024805Y018708D03*
X025805Y018708D03*
X037930Y028333D03*
X038930Y028333D03*
X039930Y028333D03*
X038930Y029333D03*
X037930Y029333D03*
D16*
X026565Y014708D02*
X026045Y014708D01*
X026045Y013708D02*
X026565Y013708D01*
X026565Y012708D02*
X026045Y012708D01*
X026045Y011708D02*
X026565Y011708D01*
X023565Y011708D02*
X023045Y011708D01*
X023045Y012708D02*
X023565Y012708D01*
X023565Y013708D02*
X023045Y013708D01*
X023045Y014708D02*
X023565Y014708D01*
X038045Y012208D02*
X038565Y012208D01*
X038565Y011208D02*
X038045Y011208D01*
X038045Y010208D02*
X038565Y010208D01*
D17*
X021853Y011649D02*
X021837Y011585D01*
X021809Y011525D01*
X021772Y011470D01*
X021726Y011423D01*
X021672Y011384D01*
X021613Y011356D01*
X021549Y011338D01*
X021483Y011331D01*
X021417Y011338D01*
X021354Y011356D01*
X021294Y011385D01*
X021240Y011424D01*
X021194Y011471D01*
X021157Y011526D01*
X021130Y011586D01*
X021114Y011650D01*
X021109Y011716D01*
X021117Y011788D01*
X021139Y011857D01*
X021173Y011921D01*
X021220Y011976D01*
X021276Y012021D01*
X021340Y012055D01*
X021410Y012075D01*
X021482Y012081D01*
X021554Y012075D01*
X021624Y012055D01*
X021689Y012022D01*
X021746Y011976D01*
X021793Y011921D01*
X021828Y011857D01*
X021850Y011788D01*
X021858Y011715D01*
X021853Y011649D01*
X021849Y011634D02*
X021118Y011634D01*
X021111Y011682D02*
X021855Y011682D01*
X021856Y011731D02*
X021111Y011731D01*
X021116Y011779D02*
X021851Y011779D01*
X021837Y011828D02*
X021129Y011828D01*
X021149Y011876D02*
X021817Y011876D01*
X021789Y011925D02*
X021177Y011925D01*
X021218Y011973D02*
X021748Y011973D01*
X021688Y012022D02*
X021277Y012022D01*
X021394Y012070D02*
X021571Y012070D01*
X021837Y011585D02*
X021130Y011585D01*
X021152Y011537D02*
X021815Y011537D01*
X021784Y011488D02*
X021183Y011488D01*
X021225Y011440D02*
X021742Y011440D01*
X021682Y011391D02*
X021285Y011391D01*
X021400Y011343D02*
X021567Y011343D01*
X020735Y011585D02*
X020707Y011525D01*
X020670Y011470D01*
X020624Y011423D01*
X020570Y011384D01*
X020511Y011356D01*
X020447Y011338D01*
X020381Y011331D01*
X020315Y011338D01*
X020252Y011356D01*
X020192Y011385D01*
X020138Y011424D01*
X020092Y011471D01*
X020055Y011526D01*
X020028Y011586D01*
X020012Y011650D01*
X020007Y011716D01*
X020015Y011788D01*
X020037Y011857D01*
X020071Y011921D01*
X020118Y011976D01*
X020174Y012021D01*
X020238Y012055D01*
X020308Y012075D01*
X020380Y012081D01*
X020452Y012075D01*
X020522Y012055D01*
X020587Y012022D01*
X020644Y011976D01*
X020691Y011921D01*
X020726Y011857D01*
X020748Y011788D01*
X020756Y011715D01*
X020751Y011649D01*
X020735Y011585D01*
X020028Y011585D01*
X020016Y011634D02*
X020747Y011634D01*
X020753Y011682D02*
X020009Y011682D01*
X020009Y011731D02*
X020754Y011731D01*
X020749Y011779D02*
X020014Y011779D01*
X020027Y011828D02*
X020735Y011828D01*
X020715Y011876D02*
X020047Y011876D01*
X020075Y011925D02*
X020687Y011925D01*
X020646Y011973D02*
X020116Y011973D01*
X020175Y012022D02*
X020586Y012022D01*
X020469Y012070D02*
X020292Y012070D01*
X020050Y011537D02*
X020713Y011537D01*
X020682Y011488D02*
X020080Y011488D01*
X020123Y011440D02*
X020640Y011440D01*
X020580Y011391D02*
X020183Y011391D01*
X020298Y011343D02*
X020465Y011343D01*
X018855Y031585D02*
X018927Y031592D01*
X018997Y031612D01*
X019061Y031645D01*
X019117Y031690D01*
X019164Y031746D01*
X019198Y031809D01*
X019220Y031878D01*
X019228Y031950D01*
X019223Y032016D01*
X019207Y032080D01*
X019180Y032141D01*
X019143Y032195D01*
X019097Y032243D01*
X019043Y032282D01*
X018983Y032311D01*
X018920Y032329D01*
X018854Y032335D01*
X018788Y032329D01*
X018724Y032311D01*
X018665Y032282D01*
X018611Y032244D01*
X018565Y032196D01*
X018528Y032142D01*
X018500Y032081D01*
X018484Y032017D01*
X018479Y031951D01*
X018487Y031879D01*
X018509Y031810D01*
X019199Y031810D01*
X019214Y031858D02*
X018494Y031858D01*
X018484Y031907D02*
X019223Y031907D01*
X019228Y031955D02*
X018479Y031955D01*
X018483Y032004D02*
X019224Y032004D01*
X019214Y032052D02*
X018493Y032052D01*
X018509Y032101D02*
X019198Y032101D01*
X019174Y032149D02*
X018533Y032149D01*
X018567Y032198D02*
X019140Y032198D01*
X019092Y032246D02*
X018615Y032246D01*
X018691Y032295D02*
X019016Y032295D01*
X019172Y031761D02*
X018536Y031761D01*
X018544Y031746D02*
X018509Y031810D01*
X018544Y031746D02*
X018591Y031690D01*
X018648Y031645D01*
X018713Y031612D01*
X018783Y031591D01*
X018855Y031585D01*
X019005Y031616D02*
X018704Y031616D01*
X018624Y031664D02*
X019085Y031664D01*
X019136Y031713D02*
X018572Y031713D01*
X018112Y031858D02*
X017392Y031858D01*
X017385Y031879D02*
X017377Y031951D01*
X017382Y032017D01*
X017398Y032081D01*
X017426Y032142D01*
X017463Y032196D01*
X017509Y032244D01*
X017563Y032282D01*
X017622Y032311D01*
X017686Y032329D01*
X017752Y032335D01*
X017818Y032329D01*
X017881Y032311D01*
X017941Y032282D01*
X017995Y032243D01*
X018041Y032195D01*
X018078Y032141D01*
X018105Y032080D01*
X018121Y032016D01*
X018126Y031950D01*
X018118Y031878D01*
X018096Y031809D01*
X018062Y031746D01*
X018015Y031690D01*
X017959Y031645D01*
X017895Y031612D01*
X017825Y031592D01*
X017753Y031585D01*
X017681Y031591D01*
X017611Y031612D01*
X017546Y031645D01*
X017489Y031690D01*
X017442Y031746D01*
X017407Y031810D01*
X018097Y031810D01*
X018070Y031761D02*
X017434Y031761D01*
X017407Y031810D02*
X017385Y031879D01*
X017382Y031907D02*
X018121Y031907D01*
X018126Y031955D02*
X017377Y031955D01*
X017381Y032004D02*
X018122Y032004D01*
X018112Y032052D02*
X017391Y032052D01*
X017407Y032101D02*
X018096Y032101D01*
X018072Y032149D02*
X017431Y032149D01*
X017465Y032198D02*
X018038Y032198D01*
X017990Y032246D02*
X017513Y032246D01*
X017589Y032295D02*
X017914Y032295D01*
X018034Y031713D02*
X017470Y031713D01*
X017522Y031664D02*
X017983Y031664D01*
X017903Y031616D02*
X017602Y031616D01*
D18*
X037805Y040333D03*
X040555Y040333D03*
D19*
X040555Y039333D03*
X040555Y038333D03*
X040555Y037333D03*
X037805Y037333D03*
X037805Y038333D03*
X037805Y039333D03*
D20*
X010555Y018583D03*
X009555Y018583D03*
X009555Y016958D03*
X010555Y016958D03*
X040055Y013333D03*
X040055Y010333D03*
D21*
X036730Y010208D02*
X036130Y010208D01*
X036130Y011208D02*
X036730Y011208D01*
X036730Y012208D02*
X036130Y012208D01*
X017680Y033033D02*
X017680Y033633D01*
X016680Y033633D02*
X016680Y033033D01*
X015680Y033033D02*
X015680Y033633D01*
X009555Y014758D02*
X009555Y014158D01*
X009555Y013258D02*
X009555Y012658D01*
X009555Y011758D02*
X009555Y011158D01*
X009555Y010258D02*
X009555Y009658D01*
X008555Y009658D02*
X008555Y010258D01*
X008555Y011158D02*
X008555Y011758D01*
X008555Y012658D02*
X008555Y013258D01*
X008555Y014158D02*
X008555Y014758D01*
X007555Y014758D02*
X007555Y014158D01*
X007555Y013258D02*
X007555Y012658D01*
X007555Y011758D02*
X007555Y011158D01*
X007555Y010258D02*
X007555Y009658D01*
D22*
X007771Y036275D02*
X008558Y036275D01*
X008558Y038756D02*
X007771Y038756D01*
X006196Y037850D02*
X006196Y037063D01*
D23*
X016680Y039233D03*
X023680Y039233D03*
X031180Y039233D03*
D24*
X019430Y030583D03*
X016430Y030583D03*
D25*
X022680Y033003D02*
X022680Y033663D01*
X023680Y033663D02*
X023680Y033003D01*
X024680Y033003D02*
X024680Y033663D01*
X030180Y033663D02*
X030180Y033003D01*
X031180Y033003D02*
X031180Y033663D01*
X032180Y033663D02*
X032180Y033003D01*
D26*
X033898Y036474D02*
X033824Y036400D01*
X033824Y036646D01*
X033996Y036818D01*
X034242Y036818D01*
X034414Y036646D01*
X034414Y036400D01*
X034242Y036228D01*
X033996Y036228D01*
X033824Y036400D01*
X033935Y036446D01*
X033935Y036600D01*
X034042Y036707D01*
X034196Y036707D01*
X034303Y036600D01*
X034303Y036446D01*
X034196Y036339D01*
X034042Y036339D01*
X033935Y036446D01*
X034046Y036492D01*
X034046Y036554D01*
X034088Y036596D01*
X034150Y036596D01*
X034192Y036554D01*
X034192Y036492D01*
X034150Y036450D01*
X034088Y036450D01*
X034046Y036492D01*
X036020Y038595D02*
X035946Y038521D01*
X035946Y038767D01*
X036118Y038939D01*
X036364Y038939D01*
X036536Y038767D01*
X036536Y038521D01*
X036364Y038349D01*
X036118Y038349D01*
X035946Y038521D01*
X036057Y038567D01*
X036057Y038721D01*
X036164Y038828D01*
X036318Y038828D01*
X036425Y038721D01*
X036425Y038567D01*
X036318Y038460D01*
X036164Y038460D01*
X036057Y038567D01*
X036168Y038613D01*
X036168Y038675D01*
X036210Y038717D01*
X036272Y038717D01*
X036314Y038675D01*
X036314Y038613D01*
X036272Y038571D01*
X036210Y038571D01*
X036168Y038613D01*
D27*
X010680Y036833D03*
X010680Y035833D03*
X010680Y034833D03*
D28*
X037761Y020833D03*
X039099Y020833D03*
D29*
X011460Y029333D02*
X010900Y029333D01*
X010900Y030333D02*
X011460Y030333D01*
X011460Y031333D02*
X010900Y031333D01*
D30*
X026430Y009833D03*
X026430Y008833D03*
X027430Y008833D03*
X027430Y009833D03*
M02*
