G75*
%MOIN*%
%OFA0B0*%
%FSLAX24Y24*%
%IPPOS*%
%LPD*%
%AMOC8*
5,1,8,0,0,1.08239X$1,22.5*
%
%ADD10C,0.1655*%
%ADD11R,0.0740X0.0740*%
%ADD12OC8,0.0740*%
%ADD13C,0.0867*%
%ADD14C,0.0680*%
%ADD15OC8,0.0680*%
%ADD16C,0.0600*%
%ADD17C,0.0050*%
%ADD18R,0.0820X0.0820*%
%ADD19C,0.0820*%
%ADD20OC8,0.0600*%
%ADD21C,0.0680*%
%ADD22C,0.0867*%
%ADD23C,0.1380*%
%ADD24OC8,0.0830*%
%ADD25C,0.0740*%
%ADD26C,0.0148*%
%ADD27C,0.0640*%
%ADD28OC8,0.0640*%
D10*
X005649Y010963D03*
X005649Y042066D03*
X041869Y042066D03*
X041869Y010963D03*
D11*
X013180Y028333D03*
D12*
X013180Y027333D03*
X013180Y026333D03*
X013180Y025333D03*
X014180Y025333D03*
X014180Y026333D03*
X014180Y027333D03*
X014180Y028333D03*
X014180Y024333D03*
X014180Y023333D03*
X014180Y022333D03*
X014180Y021333D03*
X014180Y020333D03*
X013180Y020333D03*
X013180Y021333D03*
X013180Y022333D03*
X013180Y023333D03*
X013180Y024333D03*
X008789Y023352D03*
X008789Y022565D03*
X008789Y021777D03*
X007805Y022171D03*
X007805Y022958D03*
X007805Y023746D03*
X008789Y028402D03*
X008789Y029190D03*
X008789Y029977D03*
X007805Y030371D03*
X007805Y029583D03*
X007805Y028796D03*
X008180Y032833D03*
X007430Y034458D03*
X006430Y034458D03*
X011180Y032833D03*
X020680Y031833D03*
X023680Y031833D03*
X024680Y031833D03*
X027680Y031833D03*
X023305Y026958D03*
X023305Y025833D03*
X024930Y026333D03*
X025930Y026333D03*
X026930Y026333D03*
X027930Y026333D03*
X028930Y026333D03*
X029930Y026333D03*
X033180Y026333D03*
X033180Y025333D03*
X034180Y025333D03*
X034180Y026333D03*
X034180Y027333D03*
X033180Y027333D03*
X033180Y028333D03*
X034180Y028333D03*
X034180Y024333D03*
X034180Y023333D03*
X034180Y022333D03*
X034180Y021333D03*
X034180Y020333D03*
X033180Y020333D03*
X033180Y021333D03*
X033180Y022333D03*
X033180Y023333D03*
X033180Y024333D03*
X029930Y021333D03*
X028930Y021333D03*
X027930Y021333D03*
X026930Y021333D03*
X025930Y021333D03*
X024930Y021333D03*
X021305Y025833D03*
X021305Y026958D03*
X014180Y019333D03*
X014180Y018333D03*
X014180Y017333D03*
X014180Y016333D03*
X014180Y015333D03*
X013180Y015333D03*
X013180Y016333D03*
X013180Y017333D03*
X013180Y018333D03*
X013180Y019333D03*
X013180Y014333D03*
X013180Y013333D03*
X013180Y012333D03*
X013180Y011333D03*
X014180Y011333D03*
X014180Y012333D03*
X014180Y013333D03*
X014180Y014333D03*
X014180Y010333D03*
X014180Y009333D03*
X014180Y008333D03*
X014180Y007333D03*
X014180Y006333D03*
X013180Y006333D03*
X013180Y007333D03*
X013180Y008333D03*
X013180Y009333D03*
X013180Y010333D03*
X008539Y006602D03*
X008539Y005815D03*
X008539Y005027D03*
X007555Y005421D03*
X007555Y006208D03*
X007555Y006996D03*
X013180Y005333D03*
X013180Y004333D03*
X014180Y004333D03*
X014180Y005333D03*
X007680Y016333D03*
X006680Y016333D03*
X006680Y018583D03*
X007680Y018583D03*
X033180Y018333D03*
X033180Y017333D03*
X033180Y016333D03*
X033180Y015333D03*
X034180Y015333D03*
X034180Y016333D03*
X034180Y017333D03*
X034180Y018333D03*
X034180Y019333D03*
X033180Y019333D03*
X033180Y014333D03*
X033180Y013333D03*
X033180Y012333D03*
X033180Y011333D03*
X034180Y011333D03*
X034180Y012333D03*
X034180Y013333D03*
X034180Y014333D03*
X034180Y010333D03*
X034180Y009333D03*
X034180Y008333D03*
X034180Y007333D03*
X034180Y006333D03*
X033180Y006333D03*
X033180Y007333D03*
X033180Y008333D03*
X033180Y009333D03*
X033180Y010333D03*
X033180Y005333D03*
X033180Y004333D03*
X034180Y004333D03*
X034180Y005333D03*
X038446Y005815D03*
X038446Y006602D03*
X038446Y007389D03*
X039430Y006996D03*
X039430Y006208D03*
X039430Y005421D03*
X039430Y016421D03*
X039430Y017208D03*
X039430Y017996D03*
X038446Y018389D03*
X038446Y017602D03*
X038446Y016815D03*
X041930Y020208D03*
X039430Y023171D03*
X039430Y023958D03*
X039430Y024746D03*
X038446Y025139D03*
X038446Y024352D03*
X038446Y023565D03*
X039430Y032115D03*
X039430Y032902D03*
X039430Y033690D03*
X038446Y034083D03*
X038446Y033296D03*
X038446Y032508D03*
X036430Y033333D03*
X033430Y033333D03*
D13*
X006649Y003649D03*
X006649Y008374D03*
X006899Y020399D03*
X006899Y025124D03*
X006899Y027024D03*
X006899Y031749D03*
X040336Y030737D03*
X040336Y026517D03*
X040336Y021793D03*
X040336Y019767D03*
X040336Y015043D03*
X040336Y008767D03*
X040336Y004043D03*
X040336Y035461D03*
D14*
X039930Y029333D03*
X026805Y018708D03*
D15*
X026805Y017708D03*
X025805Y017708D03*
X024805Y017708D03*
X024805Y018708D03*
X025805Y018708D03*
X037930Y028333D03*
X038930Y028333D03*
X039930Y028333D03*
X038930Y029333D03*
X037930Y029333D03*
D16*
X026565Y014708D02*
X026045Y014708D01*
X026045Y013708D02*
X026565Y013708D01*
X026565Y012708D02*
X026045Y012708D01*
X026045Y011708D02*
X026565Y011708D01*
X023565Y011708D02*
X023045Y011708D01*
X023045Y012708D02*
X023565Y012708D01*
X023565Y013708D02*
X023045Y013708D01*
X023045Y014708D02*
X023565Y014708D01*
X038045Y012208D02*
X038565Y012208D01*
X038565Y011208D02*
X038045Y011208D01*
X038045Y010208D02*
X038565Y010208D01*
D17*
X021655Y011682D02*
X021312Y011682D01*
X021313Y011671D02*
X021309Y011710D01*
X021314Y011749D01*
X021327Y011785D01*
X021348Y011818D01*
X021375Y011845D01*
X021408Y011865D01*
X021445Y011877D01*
X021483Y011881D01*
X021521Y011878D01*
X021558Y011866D01*
X021590Y011846D01*
X021618Y011820D01*
X021639Y011788D01*
X021653Y011752D01*
X021658Y011714D01*
X021654Y011674D01*
X021642Y011636D01*
X021622Y011601D01*
X021594Y011572D01*
X021560Y011550D01*
X021523Y011536D01*
X021483Y011530D01*
X021444Y011535D01*
X021407Y011549D01*
X021373Y011571D01*
X021346Y011599D01*
X021325Y011633D01*
X021313Y011671D01*
X021325Y011634D02*
X021641Y011634D01*
X021606Y011585D02*
X021359Y011585D01*
X021440Y011537D02*
X021525Y011537D01*
X021656Y011731D02*
X021312Y011731D01*
X021325Y011779D02*
X021643Y011779D01*
X021610Y011828D02*
X021358Y011828D01*
X021442Y011876D02*
X021526Y011876D01*
X020551Y011752D02*
X020556Y011714D01*
X020552Y011674D01*
X020540Y011636D01*
X020520Y011601D01*
X020492Y011572D01*
X020458Y011550D01*
X020421Y011536D01*
X020381Y011530D01*
X020342Y011535D01*
X020304Y011549D01*
X020271Y011571D01*
X020244Y011599D01*
X020223Y011633D01*
X020211Y011671D01*
X020207Y011710D01*
X020212Y011749D01*
X020225Y011785D01*
X020246Y011818D01*
X020273Y011845D01*
X020306Y011865D01*
X020343Y011877D01*
X020381Y011881D01*
X020419Y011878D01*
X020456Y011866D01*
X020488Y011846D01*
X020516Y011820D01*
X020537Y011788D01*
X020551Y011752D01*
X020554Y011731D02*
X020209Y011731D01*
X020210Y011682D02*
X020553Y011682D01*
X020539Y011634D02*
X020223Y011634D01*
X020257Y011585D02*
X020504Y011585D01*
X020423Y011537D02*
X020338Y011537D01*
X020223Y011779D02*
X020541Y011779D01*
X020508Y011828D02*
X020256Y011828D01*
X020340Y011876D02*
X020424Y011876D01*
X018854Y031785D02*
X018892Y031789D01*
X018929Y031802D01*
X018962Y031822D01*
X018989Y031849D01*
X019010Y031882D01*
X019023Y031918D01*
X019028Y031956D01*
X019024Y031996D01*
X019012Y032033D01*
X018991Y032067D01*
X018964Y032096D01*
X018931Y032117D01*
X018893Y032131D01*
X018854Y032136D01*
X018814Y032131D01*
X018777Y032116D01*
X018743Y032094D01*
X018715Y032065D01*
X018695Y032031D01*
X018683Y031992D01*
X018679Y031952D01*
X018684Y031914D01*
X018698Y031878D01*
X018719Y031846D01*
X018747Y031820D01*
X018779Y031800D01*
X018816Y031789D01*
X018854Y031785D01*
X018942Y031810D02*
X018763Y031810D01*
X018711Y031858D02*
X018995Y031858D01*
X019019Y031907D02*
X018687Y031907D01*
X018679Y031955D02*
X019028Y031955D01*
X019022Y032004D02*
X018686Y032004D01*
X018708Y032052D02*
X019000Y032052D01*
X018956Y032101D02*
X018753Y032101D01*
X017922Y031996D02*
X017926Y031956D01*
X017921Y031918D01*
X017908Y031882D01*
X017887Y031849D01*
X017860Y031822D01*
X017827Y031802D01*
X017790Y031789D01*
X017752Y031785D01*
X017714Y031789D01*
X017677Y031800D01*
X017645Y031820D01*
X017617Y031846D01*
X017596Y031878D01*
X017582Y031914D01*
X017577Y031952D01*
X017581Y031992D01*
X017593Y032031D01*
X017613Y032065D01*
X017641Y032094D01*
X017675Y032116D01*
X017712Y032131D01*
X017752Y032136D01*
X017791Y032131D01*
X017828Y032117D01*
X017862Y032096D01*
X017889Y032067D01*
X017910Y032033D01*
X017922Y031996D01*
X017919Y032004D02*
X017584Y032004D01*
X017577Y031955D02*
X017926Y031955D01*
X017917Y031907D02*
X017585Y031907D01*
X017609Y031858D02*
X017893Y031858D01*
X017840Y031810D02*
X017661Y031810D01*
X017606Y032052D02*
X017898Y032052D01*
X017854Y032101D02*
X017651Y032101D01*
D18*
X037805Y040333D03*
X040555Y040333D03*
D19*
X040555Y039333D03*
X040555Y038333D03*
X040555Y037333D03*
X037805Y037333D03*
X037805Y038333D03*
X037805Y039333D03*
D20*
X010555Y018583D03*
X009555Y018583D03*
X009555Y016958D03*
X010555Y016958D03*
X040055Y013333D03*
X040055Y010333D03*
D21*
X036730Y010208D02*
X036130Y010208D01*
X036130Y011208D02*
X036730Y011208D01*
X036730Y012208D02*
X036130Y012208D01*
X017680Y033033D02*
X017680Y033633D01*
X016680Y033633D02*
X016680Y033033D01*
X015680Y033033D02*
X015680Y033633D01*
X009555Y014758D02*
X009555Y014158D01*
X009555Y013258D02*
X009555Y012658D01*
X009555Y011758D02*
X009555Y011158D01*
X009555Y010258D02*
X009555Y009658D01*
X008555Y009658D02*
X008555Y010258D01*
X008555Y011158D02*
X008555Y011758D01*
X008555Y012658D02*
X008555Y013258D01*
X008555Y014158D02*
X008555Y014758D01*
X007555Y014758D02*
X007555Y014158D01*
X007555Y013258D02*
X007555Y012658D01*
X007555Y011758D02*
X007555Y011158D01*
X007555Y010258D02*
X007555Y009658D01*
D22*
X007771Y036275D02*
X008558Y036275D01*
X008558Y038756D02*
X007771Y038756D01*
X006196Y037850D02*
X006196Y037063D01*
D23*
X016680Y039233D03*
X023680Y039233D03*
X031180Y039233D03*
D24*
X019430Y030583D03*
X016430Y030583D03*
D25*
X022680Y033003D02*
X022680Y033663D01*
X023680Y033663D02*
X023680Y033003D01*
X024680Y033003D02*
X024680Y033663D01*
X030180Y033663D02*
X030180Y033003D01*
X031180Y033003D02*
X031180Y033663D01*
X032180Y033663D02*
X032180Y033003D01*
D26*
X033898Y036474D02*
X033824Y036400D01*
X033824Y036646D01*
X033996Y036818D01*
X034242Y036818D01*
X034414Y036646D01*
X034414Y036400D01*
X034242Y036228D01*
X033996Y036228D01*
X033824Y036400D01*
X033935Y036446D01*
X033935Y036600D01*
X034042Y036707D01*
X034196Y036707D01*
X034303Y036600D01*
X034303Y036446D01*
X034196Y036339D01*
X034042Y036339D01*
X033935Y036446D01*
X034046Y036492D01*
X034046Y036554D01*
X034088Y036596D01*
X034150Y036596D01*
X034192Y036554D01*
X034192Y036492D01*
X034150Y036450D01*
X034088Y036450D01*
X034046Y036492D01*
X036020Y038595D02*
X035946Y038521D01*
X035946Y038767D01*
X036118Y038939D01*
X036364Y038939D01*
X036536Y038767D01*
X036536Y038521D01*
X036364Y038349D01*
X036118Y038349D01*
X035946Y038521D01*
X036057Y038567D01*
X036057Y038721D01*
X036164Y038828D01*
X036318Y038828D01*
X036425Y038721D01*
X036425Y038567D01*
X036318Y038460D01*
X036164Y038460D01*
X036057Y038567D01*
X036168Y038613D01*
X036168Y038675D01*
X036210Y038717D01*
X036272Y038717D01*
X036314Y038675D01*
X036314Y038613D01*
X036272Y038571D01*
X036210Y038571D01*
X036168Y038613D01*
D27*
X011460Y031333D02*
X010900Y031333D01*
X010900Y030333D02*
X011460Y030333D01*
X011460Y029333D02*
X010900Y029333D01*
D28*
X026430Y009833D03*
X026430Y008833D03*
X027430Y008833D03*
X027430Y009833D03*
M02*
